<svg width="187" height="104" viewBox="0 0 187 104" fill="none" xmlns="http://www.w3.org/2000/svg">
<path d="M0.551 21.7711L8.758 1.18112H12.528L20.764 21.7711H17.11L15.167 16.6671H6.003L4.06 21.7711H0.551ZM7.163 13.6511H14.007L10.585 4.74812L7.163 13.6511ZM28.9341 22.2061C27.8514 22.2061 26.8557 22.0128 25.9471 21.6261C25.0384 21.2201 24.2457 20.6691 23.5691 19.9731C22.8924 19.2578 22.3607 18.4168 21.9741 17.4501C21.6067 16.4835 21.4231 15.4298 21.4231 14.2891C21.4231 13.1485 21.6164 12.0851 22.0031 11.0991C22.3897 10.1131 22.9214 9.25278 23.5981 8.51812C24.2747 7.78345 25.0674 7.21312 25.9761 6.80712C26.9041 6.38178 27.9094 6.16912 28.9921 6.16912C30.0361 6.16912 30.9931 6.36245 31.8631 6.74912C32.7331 7.11645 33.4774 7.64812 34.0961 8.34412C34.7341 9.02078 35.1884 9.82312 35.4591 10.7511L32.2981 11.5051C31.9694 10.7705 31.5054 10.2001 30.9061 9.79412C30.3261 9.38812 29.6687 9.18512 28.9341 9.18512C28.1607 9.18512 27.4647 9.40745 26.8461 9.85212C26.2274 10.2968 25.7344 10.9058 25.3671 11.6791C25.0191 12.4331 24.8451 13.2935 24.8451 14.2601C24.8451 15.2075 25.0191 16.0581 25.3671 16.8121C25.7151 17.5468 26.1887 18.1268 26.7881 18.5521C27.4067 18.9775 28.1221 19.1901 28.9341 19.1901C29.7074 19.1901 30.4131 18.9968 31.0511 18.6101C31.6891 18.2041 32.1627 17.6338 32.4721 16.8991L35.6041 17.6241C35.3334 18.5521 34.8694 19.3641 34.2121 20.0601C33.5547 20.7368 32.7717 21.2685 31.8631 21.6551C30.9544 22.0225 29.9781 22.2061 28.9341 22.2061ZM44.4966 22.2061C43.414 22.2061 42.4183 22.0128 41.5096 21.6261C40.601 21.2201 39.8083 20.6691 39.1316 19.9731C38.455 19.2578 37.9233 18.4168 37.5366 17.4501C37.1693 16.4835 36.9856 15.4298 36.9856 14.2891C36.9856 13.1485 37.179 12.0851 37.5656 11.0991C37.9523 10.1131 38.484 9.25278 39.1606 8.51812C39.8373 7.78345 40.63 7.21312 41.5386 6.80712C42.4666 6.38178 43.472 6.16912 44.5546 6.16912C45.5986 6.16912 46.5556 6.36245 47.4256 6.74912C48.2956 7.11645 49.04 7.64812 49.6586 8.34412C50.2966 9.02078 50.751 9.82312 51.0216 10.7511L47.8606 11.5051C47.532 10.7705 47.068 10.2001 46.4686 9.79412C45.8886 9.38812 45.2313 9.18512 44.4966 9.18512C43.7233 9.18512 43.0273 9.40745 42.4086 9.85212C41.79 10.2968 41.297 10.9058 40.9296 11.6791C40.5816 12.4331 40.4076 13.2935 40.4076 14.2601C40.4076 15.2075 40.5816 16.0581 40.9296 16.8121C41.2776 17.5468 41.7513 18.1268 42.3506 18.5521C42.9693 18.9775 43.6846 19.1901 44.4966 19.1901C45.27 19.1901 45.9756 18.9968 46.6136 18.6101C47.2516 18.2041 47.7253 17.6338 48.0346 16.8991L51.1666 17.6241C50.896 18.5521 50.432 19.3641 49.7746 20.0601C49.1173 20.7368 48.3343 21.2685 47.4256 21.6551C46.517 22.0225 45.5406 22.2061 44.4966 22.2061ZM60.2622 22.2061C59.1409 22.2061 58.1066 22.0128 57.1592 21.6261C56.2312 21.2201 55.4192 20.6595 54.7232 19.9441C54.0272 19.2288 53.4859 18.3878 53.0992 17.4211C52.7319 16.4351 52.5482 15.3525 52.5482 14.1731C52.5482 13.0325 52.7319 11.9788 53.0992 11.0121C53.4859 10.0455 54.0079 9.20445 54.6652 8.48912C55.3419 7.75445 56.1346 7.18412 57.0432 6.77812C57.9519 6.37212 58.9379 6.16912 60.0012 6.16912C61.0646 6.16912 62.0312 6.36245 62.9012 6.74912C63.7906 7.11645 64.5542 7.64812 65.1922 8.34412C65.8496 9.04012 66.3522 9.87145 66.7002 10.8381C67.0482 11.7855 67.2222 12.8391 67.2222 13.9991V14.9851H55.9992C56.0959 15.8745 56.3279 16.6478 56.6952 17.3051C57.0819 17.9431 57.5749 18.4361 58.1742 18.7841C58.7736 19.1321 59.4696 19.3061 60.2622 19.3061C61.8476 19.3061 63.0849 18.6005 63.9742 17.1891L66.9032 18.3201C66.5552 19.1128 66.0429 19.8088 65.3662 20.4081C64.7089 20.9881 63.9356 21.4328 63.0462 21.7421C62.1762 22.0515 61.2482 22.2061 60.2622 22.2061ZM60.0012 8.86612C59.3246 8.86612 58.7156 9.02078 58.1742 9.33012C57.6522 9.63945 57.2076 10.0745 56.8402 10.6351C56.4729 11.1958 56.2216 11.8531 56.0862 12.6071H63.7422C63.6262 11.8531 63.4039 11.1958 63.0752 10.6351C62.7466 10.0745 62.3116 9.63945 61.7702 9.33012C61.2482 9.02078 60.6586 8.86612 60.0012 8.86612ZM69.4858 21.7711V0.195118H72.8208V21.7711H69.4858ZM82.8913 22.2061C81.77 22.2061 80.7356 22.0128 79.7883 21.6261C78.8603 21.2201 78.0483 20.6595 77.3523 19.9441C76.6563 19.2288 76.115 18.3878 75.7283 17.4211C75.361 16.4351 75.1773 15.3525 75.1773 14.1731C75.1773 13.0325 75.361 11.9788 75.7283 11.0121C76.115 10.0455 76.637 9.20445 77.2943 8.48912C77.971 7.75445 78.7636 7.18412 79.6723 6.77812C80.581 6.37212 81.567 6.16912 82.6303 6.16912C83.6936 6.16912 84.6603 6.36245 85.5303 6.74912C86.4196 7.11645 87.1833 7.64812 87.8213 8.34412C88.4786 9.04012 88.9813 9.87145 89.3293 10.8381C89.6773 11.7855 89.8513 12.8391 89.8513 13.9991V14.9851H78.6283C78.725 15.8745 78.957 16.6478 79.3243 17.3051C79.711 17.9431 80.204 18.4361 80.8033 18.7841C81.4026 19.1321 82.0986 19.3061 82.8913 19.3061C84.4766 19.3061 85.714 18.6005 86.6033 17.1891L89.5323 18.3201C89.1843 19.1128 88.672 19.8088 87.9953 20.4081C87.338 20.9881 86.5646 21.4328 85.6753 21.7421C84.8053 22.0515 83.8773 22.2061 82.8913 22.2061ZM82.6303 8.86612C81.9536 8.86612 81.3446 9.02078 80.8033 9.33012C80.2813 9.63945 79.8366 10.0745 79.4693 10.6351C79.102 11.1958 78.8506 11.8531 78.7153 12.6071H86.3713C86.2553 11.8531 86.033 11.1958 85.7043 10.6351C85.3756 10.0745 84.9406 9.63945 84.3993 9.33012C83.8773 9.02078 83.2876 8.86612 82.6303 8.86612ZM92.1149 21.7711V6.60412H95.1599L95.3049 9.09812C95.6915 8.24745 96.2232 7.59012 96.8999 7.12612C97.5959 6.64278 98.4079 6.40112 99.3359 6.40112C99.6259 6.40112 99.9062 6.42045 100.177 6.45912C100.448 6.49778 100.689 6.56545 100.902 6.66212L100.525 9.91012C100.312 9.83278 100.09 9.78445 99.8579 9.76512C99.6259 9.72645 99.3939 9.70712 99.1619 9.70712C98.0019 9.70712 97.0932 10.0938 96.4359 10.8671C95.7785 11.6405 95.4499 12.7135 95.4499 14.0861V21.7711H92.1149ZM107.05 22.2061C106.277 22.2061 105.561 22.0901 104.904 21.8581C104.266 21.6261 103.705 21.2975 103.222 20.8721C102.739 20.4468 102.362 19.9441 102.091 19.3641C101.82 18.7841 101.685 18.1461 101.685 17.4501C101.685 16.4835 101.936 15.6425 102.439 14.9271C102.961 14.1925 103.686 13.6221 104.614 13.2161C105.542 12.8101 106.625 12.6071 107.862 12.6071C108.539 12.6071 109.186 12.6748 109.805 12.8101C110.424 12.9261 111.013 13.1001 111.574 13.3321V12.3751C111.574 11.6985 111.448 11.1088 111.197 10.6061C110.946 10.0841 110.588 9.67812 110.124 9.38812C109.66 9.09812 109.099 8.95312 108.442 8.95312C107.746 8.95312 107.118 9.13678 106.557 9.50412C105.996 9.87145 105.581 10.3838 105.31 11.0411L102.236 10.3451C102.468 9.49445 102.884 8.75978 103.483 8.14112C104.102 7.52245 104.836 7.03912 105.687 6.69112C106.557 6.34312 107.495 6.16912 108.5 6.16912C109.447 6.16912 110.308 6.32378 111.081 6.63312C111.874 6.94245 112.55 7.37745 113.111 7.93812C113.672 8.49878 114.107 9.16578 114.416 9.93912C114.725 10.7125 114.88 11.5728 114.88 12.5201V21.7711H111.835L111.719 19.7701C111.313 20.5048 110.704 21.0945 109.892 21.5391C109.08 21.9838 108.133 22.2061 107.05 22.2061ZM105.049 17.3051C105.049 17.7305 105.165 18.1171 105.397 18.4651C105.629 18.7938 105.948 19.0548 106.354 19.2481C106.779 19.4415 107.272 19.5381 107.833 19.5381C108.548 19.5381 109.186 19.3835 109.747 19.0741C110.308 18.7648 110.752 18.3491 111.081 17.8271C111.41 17.2858 111.574 16.6768 111.574 16.0001V15.6521C111.071 15.4395 110.549 15.2751 110.008 15.1591C109.486 15.0238 108.945 14.9561 108.384 14.9561C107.379 14.9561 106.567 15.1688 105.948 15.5941C105.349 16.0195 105.049 16.5898 105.049 17.3051ZM123.67 22.2061C122.143 22.2061 120.944 21.7711 120.074 20.9011C119.204 20.0118 118.769 18.7455 118.769 17.1021V9.30112H116.101V6.60412H118.769V1.47112H122.104V6.60412H126.512V9.30112H122.104V16.7541C122.104 17.5661 122.268 18.1945 122.597 18.6391C122.945 19.0645 123.448 19.2771 124.105 19.2771C124.453 19.2771 124.83 19.2288 125.236 19.1321C125.642 19.0161 126.019 18.8615 126.367 18.6681L127.121 21.1911C126.676 21.5005 126.154 21.7421 125.555 21.9161C124.975 22.1095 124.347 22.2061 123.67 22.2061ZM132.857 2.37012C132.857 2.73745 132.76 3.07578 132.567 3.38512C132.393 3.69445 132.151 3.94578 131.842 4.13912C131.532 4.31312 131.194 4.40012 130.827 4.40012C130.459 4.40012 130.121 4.31312 129.812 4.13912C129.502 3.94578 129.251 3.69445 129.058 3.38512C128.884 3.07578 128.797 2.73745 128.797 2.37012C128.797 2.00278 128.884 1.66445 129.058 1.35512C129.251 1.04578 129.502 0.804117 129.812 0.630117C130.121 0.436784 130.459 0.340118 130.827 0.340118C131.194 0.340118 131.532 0.436784 131.842 0.630117C132.151 0.804117 132.393 1.04578 132.567 1.35512C132.76 1.66445 132.857 2.00278 132.857 2.37012ZM129.174 21.7711V6.60412H132.509V21.7711H129.174ZM135.532 21.7711V6.60412H138.577L138.693 8.69212C139.138 7.91878 139.757 7.30978 140.549 6.86512C141.361 6.40112 142.289 6.16912 143.333 6.16912C144.474 6.16912 145.46 6.43978 146.291 6.98112C147.142 7.52245 147.799 8.28612 148.263 9.27212C148.727 10.2581 148.959 11.4181 148.959 12.7521V21.7711H145.624V13.1291C145.624 11.8918 145.344 10.9251 144.783 10.2291C144.242 9.53312 143.478 9.18512 142.492 9.18512C141.796 9.18512 141.168 9.34945 140.607 9.67812C140.066 10.0068 139.641 10.4515 139.331 11.0121C139.022 11.5728 138.867 12.2205 138.867 12.9551V21.7711H135.532ZM158.295 21.4811C157.309 21.4811 156.39 21.2878 155.54 20.9011C154.689 20.5145 153.945 19.9828 153.307 19.3061C152.669 18.6101 152.176 17.8078 151.828 16.8991C151.48 15.9711 151.306 14.9658 151.306 13.8831C151.306 12.8005 151.48 11.7951 151.828 10.8671C152.195 9.91978 152.707 9.09812 153.365 8.40212C154.022 7.70612 154.786 7.16478 155.656 6.77812C156.526 6.37212 157.463 6.16912 158.469 6.16912C159.513 6.16912 160.46 6.40112 161.311 6.86512C162.181 7.30978 162.877 7.93812 163.399 8.75012L163.515 6.60412H166.56V20.1761C166.56 21.3361 166.376 22.3898 166.009 23.3371C165.641 24.3038 165.119 25.1255 164.443 25.8021C163.766 26.4981 162.954 27.0298 162.007 27.3971C161.079 27.7645 160.035 27.9481 158.875 27.9481C157.328 27.9481 155.975 27.6001 154.815 26.9041C153.655 26.2081 152.746 25.2415 152.089 24.0041L155.25 22.9021C155.675 23.5981 156.207 24.1201 156.845 24.4681C157.483 24.8355 158.198 25.0191 158.991 25.0191C159.841 25.0191 160.586 24.8258 161.224 24.4391C161.862 24.0718 162.355 23.5401 162.703 22.8441C163.051 22.1675 163.225 21.3651 163.225 20.4371V18.9871C162.683 19.7605 161.987 20.3695 161.137 20.8141C160.286 21.2588 159.339 21.4811 158.295 21.4811ZM158.991 18.4651C159.803 18.4651 160.528 18.2621 161.166 17.8561C161.823 17.4501 162.335 16.8991 162.703 16.2031C163.089 15.5071 163.283 14.7145 163.283 13.8251C163.283 12.9358 163.089 12.1431 162.703 11.4471C162.335 10.7511 161.823 10.2001 161.166 9.79412C160.528 9.38812 159.803 9.18512 158.991 9.18512C158.179 9.18512 157.454 9.38812 156.816 9.79412C156.178 10.2001 155.665 10.7511 155.279 11.4471C154.911 12.1431 154.728 12.9358 154.728 13.8251C154.728 14.7145 154.911 15.5071 155.279 16.2031C155.665 16.8991 156.178 17.4501 156.816 17.8561C157.454 18.2621 158.179 18.4651 158.991 18.4651ZM3.161 59.7711V47.3011H0.493V44.6041H3.161V43.5311C3.161 42.4098 3.37367 41.4335 3.799 40.6021C4.24367 39.7515 4.85267 39.0941 5.626 38.6301C6.39933 38.1468 7.279 37.9051 8.265 37.9051C8.787 37.9051 9.27033 37.9728 9.715 38.1081C10.179 38.2241 10.585 38.3788 10.933 38.5721L10.179 41.1241C9.96633 41.0275 9.72467 40.9405 9.454 40.8631C9.18333 40.7858 8.903 40.7471 8.613 40.7471C7.89767 40.7471 7.366 41.0081 7.018 41.5301C6.67 42.0328 6.496 42.7578 6.496 43.7051V44.6041H16.298V59.7711H12.963V47.3011H6.496V59.7711H3.161ZM16.646 40.3701C16.646 40.7375 16.5493 41.0758 16.356 41.3851C16.182 41.6945 15.9403 41.9458 15.631 42.1391C15.341 42.3131 15.0027 42.4001 14.616 42.4001C14.2293 42.4001 13.8813 42.3131 13.572 42.1391C13.282 41.9458 13.0403 41.6945 12.847 41.3851C12.673 41.0758 12.586 40.7375 12.586 40.3701C12.586 40.0028 12.673 39.6645 12.847 39.3551C13.0403 39.0458 13.282 38.8041 13.572 38.6301C13.8813 38.4368 14.2293 38.3401 14.616 38.3401C15.0027 38.3401 15.341 38.4368 15.631 38.6301C15.9403 38.8041 16.182 39.0458 16.356 39.3551C16.5493 39.6645 16.646 40.0028 16.646 40.3701ZM19.3147 59.7711V44.6041H22.3597L22.4757 46.6921C22.9203 45.9188 23.539 45.3098 24.3317 44.8651C25.1437 44.4011 26.0717 44.1691 27.1157 44.1691C28.2563 44.1691 29.2423 44.4398 30.0737 44.9811C30.9243 45.5225 31.5817 46.2861 32.0457 47.2721C32.5097 48.2581 32.7417 49.4181 32.7417 50.7521V59.7711H29.4067V51.1291C29.4067 49.8918 29.1263 48.9251 28.5657 48.2291C28.0243 47.5331 27.2607 47.1851 26.2747 47.1851C25.5787 47.1851 24.9503 47.3495 24.3897 47.6781C23.8483 48.0068 23.423 48.4515 23.1137 49.0121C22.8043 49.5728 22.6497 50.2205 22.6497 50.9551V59.7711H19.3147ZM40.3952 60.2061C39.6219 60.2061 38.9065 60.0901 38.2492 59.8581C37.6112 59.6261 37.0505 59.2975 36.5672 58.8721C36.0839 58.4468 35.7069 57.9441 35.4362 57.3641C35.1655 56.7841 35.0302 56.1461 35.0302 55.4501C35.0302 54.4835 35.2815 53.6425 35.7842 52.9271C36.3062 52.1925 37.0312 51.6221 37.9592 51.2161C38.8872 50.8101 39.9699 50.6071 41.2072 50.6071C41.8839 50.6071 42.5315 50.6748 43.1502 50.8101C43.7689 50.9261 44.3585 51.1001 44.9192 51.3321V50.3751C44.9192 49.6985 44.7935 49.1088 44.5422 48.6061C44.2909 48.0841 43.9332 47.6781 43.4692 47.3881C43.0052 47.0981 42.4445 46.9531 41.7872 46.9531C41.0912 46.9531 40.4629 47.1368 39.9022 47.5041C39.3415 47.8715 38.9259 48.3838 38.6552 49.0411L35.5812 48.3451C35.8132 47.4945 36.2289 46.7598 36.8282 46.1411C37.4469 45.5225 38.1815 45.0391 39.0322 44.6911C39.9022 44.3431 40.8399 44.1691 41.8452 44.1691C42.7925 44.1691 43.6529 44.3238 44.4262 44.6331C45.2189 44.9425 45.8955 45.3775 46.4562 45.9381C47.0169 46.4988 47.4519 47.1658 47.7612 47.9391C48.0705 48.7125 48.2252 49.5728 48.2252 50.5201V59.7711H45.1802L45.0642 57.7701C44.6582 58.5048 44.0492 59.0945 43.2372 59.5391C42.4252 59.9838 41.4779 60.2061 40.3952 60.2061ZM38.3942 55.3051C38.3942 55.7305 38.5102 56.1171 38.7422 56.4651C38.9742 56.7938 39.2932 57.0548 39.6992 57.2481C40.1245 57.4415 40.6175 57.5381 41.1782 57.5381C41.8935 57.5381 42.5315 57.3835 43.0922 57.0741C43.6529 56.7648 44.0975 56.3491 44.4262 55.8271C44.7549 55.2858 44.9192 54.6768 44.9192 54.0001V53.6521C44.4165 53.4395 43.8945 53.2751 43.3532 53.1591C42.8312 53.0238 42.2899 52.9561 41.7292 52.9561C40.7239 52.9561 39.9119 53.1688 39.2932 53.5941C38.6939 54.0195 38.3942 54.5898 38.3942 55.3051ZM51.2328 59.7711V44.6041H54.2778L54.3938 46.6921C54.8385 45.9188 55.4571 45.3098 56.2498 44.8651C57.0618 44.4011 57.9898 44.1691 59.0338 44.1691C60.1745 44.1691 61.1605 44.4398 61.9918 44.9811C62.8425 45.5225 63.4998 46.2861 63.9638 47.2721C64.4278 48.2581 64.6598 49.4181 64.6598 50.7521V59.7711H61.3248V51.1291C61.3248 49.8918 61.0445 48.9251 60.4838 48.2291C59.9425 47.5331 59.1788 47.1851 58.1928 47.1851C57.4968 47.1851 56.8685 47.3495 56.3078 47.6781C55.7665 48.0068 55.3411 48.4515 55.0318 49.0121C54.7225 49.5728 54.5678 50.2205 54.5678 50.9551V59.7711H51.2328ZM74.5173 60.2061C73.4346 60.2061 72.439 60.0128 71.5303 59.6261C70.6216 59.2201 69.829 58.6691 69.1523 57.9731C68.4756 57.2578 67.944 56.4168 67.5573 55.4501C67.19 54.4835 67.0063 53.4298 67.0063 52.2891C67.0063 51.1485 67.1996 50.0851 67.5863 49.0991C67.973 48.1131 68.5046 47.2528 69.1813 46.5181C69.858 45.7835 70.6506 45.2131 71.5593 44.8071C72.4873 44.3818 73.4926 44.1691 74.5753 44.1691C75.6193 44.1691 76.5763 44.3625 77.4463 44.7491C78.3163 45.1165 79.0606 45.6481 79.6793 46.3441C80.3173 47.0208 80.7716 47.8231 81.0423 48.7511L77.8813 49.5051C77.5526 48.7705 77.0886 48.2001 76.4893 47.7941C75.9093 47.3881 75.252 47.1851 74.5173 47.1851C73.744 47.1851 73.048 47.4075 72.4293 47.8521C71.8106 48.2968 71.3176 48.9058 70.9503 49.6791C70.6023 50.4331 70.4283 51.2935 70.4283 52.2601C70.4283 53.2075 70.6023 54.0581 70.9503 54.8121C71.2983 55.5468 71.772 56.1268 72.3713 56.5521C72.99 56.9775 73.7053 57.1901 74.5173 57.1901C75.2906 57.1901 75.9963 56.9968 76.6343 56.6101C77.2723 56.2041 77.746 55.6338 78.0553 54.8991L81.1873 55.6241C80.9166 56.5521 80.4526 57.3641 79.7953 58.0601C79.138 58.7368 78.355 59.2685 77.4463 59.6551C76.5376 60.0225 75.5613 60.2061 74.5173 60.2061ZM87.0322 40.3701C87.0322 40.7375 86.9355 41.0758 86.7422 41.3851C86.5682 41.6945 86.3265 41.9458 86.0172 42.1391C85.7078 42.3131 85.3695 42.4001 85.0022 42.4001C84.6348 42.4001 84.2965 42.3131 83.9872 42.1391C83.6778 41.9458 83.4265 41.6945 83.2332 41.3851C83.0592 41.0758 82.9722 40.7375 82.9722 40.3701C82.9722 40.0028 83.0592 39.6645 83.2332 39.3551C83.4265 39.0458 83.6778 38.8041 83.9872 38.6301C84.2965 38.4368 84.6348 38.3401 85.0022 38.3401C85.3695 38.3401 85.7078 38.4368 86.0172 38.6301C86.3265 38.8041 86.5682 39.0458 86.7422 39.3551C86.9355 39.6645 87.0322 40.0028 87.0322 40.3701ZM83.3492 59.7711V44.6041H86.6842V59.7711H83.3492ZM94.3476 60.2061C93.5743 60.2061 92.859 60.0901 92.2016 59.8581C91.5636 59.6261 91.003 59.2975 90.5196 58.8721C90.0363 58.4468 89.6593 57.9441 89.3886 57.3641C89.118 56.7841 88.9826 56.1461 88.9826 55.4501C88.9826 54.4835 89.234 53.6425 89.7366 52.9271C90.2586 52.1925 90.9836 51.6221 91.9116 51.2161C92.8396 50.8101 93.9223 50.6071 95.1596 50.6071C95.8363 50.6071 96.484 50.6748 97.1026 50.8101C97.7213 50.9261 98.311 51.1001 98.8716 51.3321V50.3751C98.8716 49.6985 98.746 49.1088 98.4946 48.6061C98.2433 48.0841 97.8856 47.6781 97.4216 47.3881C96.9576 47.0981 96.397 46.9531 95.7396 46.9531C95.0436 46.9531 94.4153 47.1368 93.8546 47.5041C93.294 47.8715 92.8783 48.3838 92.6076 49.0411L89.5336 48.3451C89.7656 47.4945 90.1813 46.7598 90.7806 46.1411C91.3993 45.5225 92.134 45.0391 92.9846 44.6911C93.8546 44.3431 94.7923 44.1691 95.7976 44.1691C96.745 44.1691 97.6053 44.3238 98.3786 44.6331C99.1713 44.9425 99.848 45.3775 100.409 45.9381C100.969 46.4988 101.404 47.1658 101.714 47.9391C102.023 48.7125 102.178 49.5728 102.178 50.5201V59.7711H99.1326L99.0166 57.7701C98.6106 58.5048 98.0016 59.0945 97.1896 59.5391C96.3776 59.9838 95.4303 60.2061 94.3476 60.2061ZM92.3466 55.3051C92.3466 55.7305 92.4626 56.1171 92.6946 56.4651C92.9266 56.7938 93.2456 57.0548 93.6516 57.2481C94.077 57.4415 94.57 57.5381 95.1306 57.5381C95.846 57.5381 96.484 57.3835 97.0446 57.0741C97.6053 56.7648 98.05 56.3491 98.3786 55.8271C98.7073 55.2858 98.8716 54.6768 98.8716 54.0001V53.6521C98.369 53.4395 97.847 53.2751 97.3056 53.1591C96.7836 53.0238 96.2423 52.9561 95.6816 52.9561C94.6763 52.9561 93.8643 53.1688 93.2456 53.5941C92.6463 54.0195 92.3466 54.5898 92.3466 55.3051ZM105.185 59.7711V38.1951H108.52V59.7711H105.185ZM124.185 60.2061C123.063 60.2061 122.029 60.0128 121.082 59.6261C120.154 59.2201 119.342 58.6595 118.646 57.9441C117.95 57.2288 117.408 56.3878 117.022 55.4211C116.654 54.4351 116.471 53.3525 116.471 52.1731C116.471 51.0325 116.654 49.9788 117.022 49.0121C117.408 48.0455 117.93 47.2045 118.588 46.4891C119.264 45.7545 120.057 45.1841 120.966 44.7781C121.874 44.3721 122.86 44.1691 123.924 44.1691C124.987 44.1691 125.954 44.3625 126.824 44.7491C127.713 45.1165 128.477 45.6481 129.115 46.3441C129.772 47.0401 130.275 47.8715 130.623 48.8381C130.971 49.7855 131.145 50.8391 131.145 51.9991V52.9851H119.922C120.018 53.8745 120.25 54.6478 120.618 55.3051C121.004 55.9431 121.497 56.4361 122.097 56.7841C122.696 57.1321 123.392 57.3061 124.185 57.3061C125.77 57.3061 127.007 56.6005 127.897 55.1891L130.826 56.3201C130.478 57.1128 129.965 57.8088 129.289 58.4081C128.631 58.9881 127.858 59.4328 126.969 59.7421C126.099 60.0515 125.171 60.2061 124.185 60.2061ZM123.924 46.8661C123.247 46.8661 122.638 47.0208 122.097 47.3301C121.575 47.6395 121.13 48.0745 120.763 48.6351C120.395 49.1958 120.144 49.8531 120.009 50.6071H127.665C127.549 49.8531 127.326 49.1958 126.998 48.6351C126.669 48.0745 126.234 47.6395 125.693 47.3301C125.171 47.0208 124.581 46.8661 123.924 46.8661ZM138.048 60.2061C137.275 60.2061 136.559 60.0901 135.902 59.8581C135.264 59.6261 134.703 59.2975 134.22 58.8721C133.737 58.4468 133.36 57.9441 133.089 57.3641C132.818 56.7841 132.683 56.1461 132.683 55.4501C132.683 54.4835 132.934 53.6425 133.437 52.9271C133.959 52.1925 134.684 51.6221 135.612 51.2161C136.54 50.8101 137.623 50.6071 138.86 50.6071C139.537 50.6071 140.184 50.6748 140.803 50.8101C141.422 50.9261 142.011 51.1001 142.572 51.3321V50.3751C142.572 49.6985 142.446 49.1088 142.195 48.6061C141.944 48.0841 141.586 47.6781 141.122 47.3881C140.658 47.0981 140.097 46.9531 139.44 46.9531C138.744 46.9531 138.116 47.1368 137.555 47.5041C136.994 47.8715 136.579 48.3838 136.308 49.0411L133.234 48.3451C133.466 47.4945 133.882 46.7598 134.481 46.1411C135.1 45.5225 135.834 45.0391 136.685 44.6911C137.555 44.3431 138.493 44.1691 139.498 44.1691C140.445 44.1691 141.306 44.3238 142.079 44.6331C142.872 44.9425 143.548 45.3775 144.109 45.9381C144.67 46.4988 145.105 47.1658 145.414 47.9391C145.723 48.7125 145.878 49.5728 145.878 50.5201V59.7711H142.833L142.717 57.7701C142.311 58.5048 141.702 59.0945 140.89 59.5391C140.078 59.9838 139.131 60.2061 138.048 60.2061ZM136.047 55.3051C136.047 55.7305 136.163 56.1171 136.395 56.4651C136.627 56.7938 136.946 57.0548 137.352 57.2481C137.777 57.4415 138.27 57.5381 138.831 57.5381C139.546 57.5381 140.184 57.3835 140.745 57.0741C141.306 56.7648 141.75 56.3491 142.079 55.8271C142.408 55.2858 142.572 54.6768 142.572 54.0001V53.6521C142.069 53.4395 141.547 53.2751 141.006 53.1591C140.484 53.0238 139.943 52.9561 139.382 52.9561C138.377 52.9561 137.565 53.1688 136.946 53.5941C136.347 54.0195 136.047 54.5898 136.047 55.3051ZM154.077 60.2061C153.091 60.2061 152.172 60.0418 151.322 59.7131C150.49 59.3845 149.775 58.9205 149.176 58.3211C148.596 57.7025 148.18 56.9775 147.929 56.1461L150.945 55.3631C151.196 56.0205 151.602 56.5328 152.163 56.9001C152.723 57.2675 153.371 57.4511 154.106 57.4511C154.86 57.4511 155.478 57.2771 155.962 56.9291C156.445 56.5618 156.687 56.0978 156.687 55.5371C156.687 55.0538 156.493 54.6478 156.107 54.3191C155.72 53.9905 155.092 53.7488 154.222 53.5941L153.265 53.4201C151.641 53.1301 150.413 52.6081 149.582 51.8541C148.77 51.1001 148.364 50.1335 148.364 48.9541C148.364 48.0068 148.605 47.1755 149.089 46.4601C149.572 45.7448 150.239 45.1841 151.09 44.7781C151.94 44.3721 152.917 44.1691 154.019 44.1691C154.966 44.1691 155.836 44.3335 156.629 44.6621C157.421 44.9908 158.088 45.4548 158.63 46.0541C159.171 46.6535 159.558 47.3591 159.79 48.1711L156.803 48.8961C156.571 48.2775 156.203 47.7941 155.701 47.4461C155.217 47.0788 154.647 46.8951 153.99 46.8951C153.313 46.8951 152.752 47.0691 152.308 47.4171C151.863 47.7458 151.641 48.1711 151.641 48.6931C151.641 49.1378 151.834 49.5051 152.221 49.7951C152.627 50.0851 153.303 50.3171 154.251 50.4911L155.208 50.6651C156.754 50.9358 157.943 51.4675 158.775 52.2601C159.606 53.0528 160.022 54.0388 160.022 55.2181C160.022 55.9335 159.877 56.6005 159.587 57.2191C159.297 57.8185 158.881 58.3501 158.34 58.8141C157.818 59.2588 157.189 59.5971 156.455 59.8291C155.739 60.0805 154.947 60.2061 154.077 60.2061ZM169.23 60.2061C168.108 60.2061 167.074 60.0128 166.127 59.6261C165.199 59.2201 164.387 58.6595 163.691 57.9441C162.995 57.2288 162.453 56.3878 162.067 55.4211C161.699 54.4351 161.516 53.3525 161.516 52.1731C161.516 51.0325 161.699 49.9788 162.067 49.0121C162.453 48.0455 162.975 47.2045 163.633 46.4891C164.309 45.7545 165.102 45.1841 166.011 44.7781C166.919 44.3721 167.905 44.1691 168.969 44.1691C170.032 44.1691 170.999 44.3625 171.869 44.7491C172.758 45.1165 173.522 45.6481 174.16 46.3441C174.817 47.0401 175.32 47.8715 175.668 48.8381C176.016 49.7855 176.19 50.8391 176.19 51.9991V52.9851H164.967C165.063 53.8745 165.295 54.6478 165.663 55.3051C166.049 55.9431 166.542 56.4361 167.142 56.7841C167.741 57.1321 168.437 57.3061 169.23 57.3061C170.815 57.3061 172.052 56.6005 172.942 55.1891L175.871 56.3201C175.523 57.1128 175.01 57.8088 174.334 58.4081C173.676 58.9881 172.903 59.4328 172.014 59.7421C171.144 60.0515 170.216 60.2061 169.23 60.2061ZM168.969 46.8661C168.292 46.8661 167.683 47.0208 167.142 47.3301C166.62 47.6395 166.175 48.0745 165.808 48.6351C165.44 49.1958 165.189 49.8531 165.054 50.6071H172.71C172.594 49.8531 172.371 49.1958 172.043 48.6351C171.714 48.0745 171.279 47.6395 170.738 47.3301C170.216 47.0208 169.626 46.8661 168.969 46.8661ZM178.103 53.2751V50.3171H186.223V53.2751H178.103ZM8.845 98.2061C7.743 98.2061 6.71833 98.0128 5.771 97.6261C4.843 97.2201 4.031 96.6595 3.335 95.9441C2.639 95.2095 2.09767 94.3588 1.711 93.3921C1.32433 92.4061 1.131 91.3331 1.131 90.1731C1.131 89.0325 1.32433 87.9788 1.711 87.0121C2.09767 86.0261 2.639 85.1755 3.335 84.4601C4.05033 83.7255 4.88167 83.1648 5.829 82.7781C6.79567 82.3721 7.83967 82.1691 8.961 82.1691C10.063 82.1691 11.078 82.3721 12.006 82.7781C12.9533 83.1648 13.775 83.7255 14.471 84.4601C15.167 85.1755 15.7083 86.0165 16.095 86.9831C16.4817 87.9498 16.675 89.0131 16.675 90.1731C16.675 91.3331 16.4817 92.4061 16.095 93.3921C15.7083 94.3588 15.1573 95.2095 14.442 95.9441C13.746 96.6595 12.9147 97.2201 11.948 97.6261C11.0007 98.0128 9.96633 98.2061 8.845 98.2061ZM8.903 95.1901C9.73433 95.1901 10.4787 94.9775 11.136 94.5521C11.7933 94.1075 12.3057 93.5081 12.673 92.7541C13.0597 92.0001 13.253 91.1398 13.253 90.1731C13.253 89.2065 13.0597 88.3558 12.673 87.6211C12.3057 86.8671 11.7933 86.2775 11.136 85.8521C10.4787 85.4075 9.73433 85.1851 8.903 85.1851C8.07167 85.1851 7.32733 85.4075 6.67 85.8521C6.01267 86.2775 5.49067 86.8671 5.104 87.6211C4.73667 88.3558 4.553 89.2065 4.553 90.1731C4.553 91.1398 4.73667 92.0001 5.104 92.7541C5.49067 93.5081 6.01267 94.1075 6.67 94.5521C7.32733 94.9775 8.07167 95.1901 8.903 95.1901ZM19.0315 97.7711V82.6041H22.0765L22.1925 84.6921C22.6371 83.9188 23.2558 83.3098 24.0485 82.8651C24.8605 82.4011 25.7885 82.1691 26.8325 82.1691C27.9731 82.1691 28.9591 82.4398 29.7905 82.9811C30.6411 83.5225 31.2985 84.2861 31.7625 85.2721C32.2265 86.2581 32.4585 87.4181 32.4585 88.7521V97.7711H29.1235V89.1291C29.1235 87.8918 28.8431 86.9251 28.2825 86.2291C27.7411 85.5331 26.9775 85.1851 25.9915 85.1851C25.2955 85.1851 24.6671 85.3495 24.1065 85.6781C23.5651 86.0068 23.1398 86.4515 22.8305 87.0121C22.5211 87.5728 22.3665 88.2205 22.3665 88.9551V97.7711H19.0315ZM47.3298 98.2061C45.8025 98.2061 44.6038 97.7711 43.7338 96.9011C42.8638 96.0118 42.4288 94.7455 42.4288 93.1021V85.3011H39.7608V82.6041H42.4288V77.4711H45.7638V82.6041H50.1718V85.3011H45.7638V92.7541C45.7638 93.5661 45.9281 94.1945 46.2568 94.6391C46.6048 95.0645 47.1075 95.2771 47.7648 95.2771C48.1128 95.2771 48.4898 95.2288 48.8958 95.1321C49.3018 95.0161 49.6788 94.8615 50.0268 94.6681L50.7808 97.1911C50.3361 97.5005 49.8141 97.7421 49.2148 97.9161C48.6348 98.1095 48.0065 98.2061 47.3298 98.2061ZM52.8335 97.7711V76.1951H56.1685V84.4311C56.6325 83.7351 57.2511 83.1841 58.0245 82.7781C58.7978 82.3721 59.6678 82.1691 60.6345 82.1691C61.7751 82.1691 62.7611 82.4398 63.5925 82.9811C64.4431 83.5225 65.1005 84.2861 65.5645 85.2721C66.0285 86.2581 66.2605 87.4181 66.2605 88.7521V97.7711H62.9255V89.1291C62.9255 87.8918 62.6451 86.9251 62.0845 86.2291C61.5431 85.5331 60.7795 85.1851 59.7935 85.1851C59.0975 85.1851 58.4691 85.3495 57.9085 85.6781C57.3671 86.0068 56.9418 86.4515 56.6325 87.0121C56.3231 87.5728 56.1685 88.2205 56.1685 88.9551V97.7711H52.8335ZM76.321 98.2061C75.1996 98.2061 74.1653 98.0128 73.218 97.6261C72.29 97.2201 71.478 96.6595 70.782 95.9441C70.086 95.2288 69.5446 94.3878 69.158 93.4211C68.7906 92.4351 68.607 91.3525 68.607 90.1731C68.607 89.0325 68.7906 87.9788 69.158 87.0121C69.5446 86.0455 70.0666 85.2045 70.724 84.4891C71.4006 83.7545 72.1933 83.1841 73.102 82.7781C74.0106 82.3721 74.9966 82.1691 76.06 82.1691C77.1233 82.1691 78.09 82.3625 78.96 82.7491C79.8493 83.1165 80.613 83.6481 81.251 84.3441C81.9083 85.0401 82.411 85.8715 82.759 86.8381C83.107 87.7855 83.281 88.8391 83.281 89.9991V90.9851H72.058C72.1546 91.8745 72.3866 92.6478 72.754 93.3051C73.1406 93.9431 73.6336 94.4361 74.233 94.7841C74.8323 95.1321 75.5283 95.3061 76.321 95.3061C77.9063 95.3061 79.1436 94.6005 80.033 93.1891L82.962 94.3201C82.614 95.1128 82.1016 95.8088 81.425 96.4081C80.7676 96.9881 79.9943 97.4328 79.105 97.7421C78.235 98.0515 77.307 98.2061 76.321 98.2061ZM76.06 84.8661C75.3833 84.8661 74.7743 85.0208 74.233 85.3301C73.711 85.6395 73.2663 86.0745 72.899 86.6351C72.5316 87.1958 72.2803 87.8531 72.145 88.6071H79.801C79.685 87.8531 79.4626 87.1958 79.134 86.6351C78.8053 86.0745 78.3703 85.6395 77.829 85.3301C77.307 85.0208 76.7173 84.8661 76.06 84.8661ZM97.4604 97.4811C96.4744 97.4811 95.5561 97.2878 94.7054 96.9011C93.8547 96.5145 93.1104 95.9828 92.4724 95.3061C91.8344 94.6101 91.3414 93.8078 90.9934 92.8991C90.6454 91.9711 90.4714 90.9658 90.4714 89.8831C90.4714 88.8005 90.6454 87.7951 90.9934 86.8671C91.3607 85.9198 91.8731 85.0981 92.5304 84.4021C93.1877 83.7061 93.9514 83.1648 94.8214 82.7781C95.6914 82.3721 96.6291 82.1691 97.6344 82.1691C98.6784 82.1691 99.6257 82.4011 100.476 82.8651C101.346 83.3098 102.042 83.9381 102.564 84.7501L102.68 82.6041H105.725V96.1761C105.725 97.3361 105.542 98.3898 105.174 99.3371C104.807 100.304 104.285 101.125 103.608 101.802C102.932 102.498 102.12 103.03 101.172 103.397C100.244 103.764 99.2004 103.948 98.0404 103.948C96.4937 103.948 95.1404 103.6 93.9804 102.904C92.8204 102.208 91.9117 101.241 91.2544 100.004L94.4154 98.9021C94.8407 99.5981 95.3724 100.12 96.0104 100.468C96.6484 100.835 97.3637 101.019 98.1564 101.019C99.0071 101.019 99.7514 100.826 100.389 100.439C101.027 100.072 101.52 99.5401 101.868 98.8441C102.216 98.1675 102.39 97.3651 102.39 96.4371V94.9871C101.849 95.7605 101.153 96.3695 100.302 96.8141C99.4517 97.2588 98.5044 97.4811 97.4604 97.4811ZM98.1564 94.4651C98.9684 94.4651 99.6934 94.2621 100.331 93.8561C100.989 93.4501 101.501 92.8991 101.868 92.2031C102.255 91.5071 102.448 90.7145 102.448 89.8251C102.448 88.9358 102.255 88.1431 101.868 87.4471C101.501 86.7511 100.989 86.2001 100.331 85.7941C99.6934 85.3881 98.9684 85.1851 98.1564 85.1851C97.3444 85.1851 96.6194 85.3881 95.9814 85.7941C95.3434 86.2001 94.8311 86.7511 94.4444 87.4471C94.0771 88.1431 93.8934 88.9358 93.8934 89.8251C93.8934 90.7145 94.0771 91.5071 94.4444 92.2031C94.8311 92.8991 95.3434 93.4501 95.9814 93.8561C96.6194 94.2621 97.3444 94.4651 98.1564 94.4651ZM115.787 98.2061C114.685 98.2061 113.66 98.0128 112.713 97.6261C111.785 97.2201 110.973 96.6595 110.277 95.9441C109.581 95.2095 109.04 94.3588 108.653 93.3921C108.266 92.4061 108.073 91.3331 108.073 90.1731C108.073 89.0325 108.266 87.9788 108.653 87.0121C109.04 86.0261 109.581 85.1755 110.277 84.4601C110.992 83.7255 111.824 83.1648 112.771 82.7781C113.738 82.3721 114.782 82.1691 115.903 82.1691C117.005 82.1691 118.02 82.3721 118.948 82.7781C119.895 83.1648 120.717 83.7255 121.413 84.4601C122.109 85.1755 122.65 86.0165 123.037 86.9831C123.424 87.9498 123.617 89.0131 123.617 90.1731C123.617 91.3331 123.424 92.4061 123.037 93.3921C122.65 94.3588 122.099 95.2095 121.384 95.9441C120.688 96.6595 119.857 97.2201 118.89 97.6261C117.943 98.0128 116.908 98.2061 115.787 98.2061ZM115.845 95.1901C116.676 95.1901 117.421 94.9775 118.078 94.5521C118.735 94.1075 119.248 93.5081 119.615 92.7541C120.002 92.0001 120.195 91.1398 120.195 90.1731C120.195 89.2065 120.002 88.3558 119.615 87.6211C119.248 86.8671 118.735 86.2775 118.078 85.8521C117.421 85.4075 116.676 85.1851 115.845 85.1851C115.014 85.1851 114.269 85.4075 113.612 85.8521C112.955 86.2775 112.433 86.8671 112.046 87.6211C111.679 88.3558 111.495 89.2065 111.495 90.1731C111.495 91.1398 111.679 92.0001 112.046 92.7541C112.433 93.5081 112.955 94.1075 113.612 94.5521C114.269 94.9775 115.014 95.1901 115.845 95.1901Z" fill="#171637"/>
</svg>
