<svg width="238" height="55" viewBox="0 0 238 55" fill="none" xmlns="http://www.w3.org/2000/svg">
<path d="M1.092 11V1.06H3.836C4.592 1.06 5.24067 1.186 5.782 1.438C6.33267 1.69 6.75267 2.04933 7.042 2.516C7.33133 2.98267 7.476 3.54267 7.476 4.196C7.476 4.83067 7.322 5.38133 7.014 5.848C6.706 6.31467 6.26733 6.674 5.698 6.926C5.12867 7.178 4.45667 7.304 3.682 7.304C3.47667 7.304 3.25267 7.29467 3.01 7.276C2.77667 7.25733 2.52933 7.22933 2.268 7.192V11H1.092ZM2.268 2.11V6.142C2.492 6.17933 2.72533 6.20733 2.968 6.226C3.22 6.24467 3.44867 6.254 3.654 6.254C4.48467 6.254 5.12867 6.07667 5.586 5.722C6.04333 5.358 6.272 4.84467 6.272 4.182C6.272 3.75267 6.174 3.384 5.978 3.076C5.782 2.768 5.502 2.53 5.138 2.362C4.774 2.194 4.33533 2.11 3.822 2.11H2.268ZM10.6783 11.21C10.1743 11.21 9.72628 11.1167 9.33428 10.93C8.94228 10.734 8.63428 10.468 8.41028 10.132C8.19561 9.796 8.08828 9.40867 8.08828 8.97C8.08828 8.494 8.20961 8.08333 8.45228 7.738C8.70428 7.39267 9.05428 7.12667 9.50228 6.94C9.95028 6.744 10.4729 6.646 11.0703 6.646C11.4063 6.646 11.7469 6.68333 12.0923 6.758C12.4376 6.83267 12.7456 6.93067 13.0163 7.052V6.52C13.0163 6.128 12.9369 5.78733 12.7783 5.498C12.6289 5.19933 12.4189 4.97067 12.1483 4.812C11.8776 4.644 11.5603 4.56 11.1963 4.56C10.7576 4.56 10.3749 4.66267 10.0483 4.868C9.73095 5.07333 9.49295 5.36267 9.33428 5.736L8.35428 5.4C8.48495 5.02667 8.68561 4.70467 8.95628 4.434C9.23628 4.16333 9.56761 3.95333 9.95028 3.804C10.3423 3.65467 10.7623 3.58 11.2103 3.58C11.7889 3.58 12.2929 3.706 12.7223 3.958C13.1609 4.20067 13.4969 4.546 13.7303 4.994C13.9729 5.43267 14.0943 5.95067 14.0943 6.548V11H13.1143L13.0443 9.88C12.8389 10.2813 12.5263 10.6033 12.1063 10.846C11.6956 11.0887 11.2196 11.21 10.6783 11.21ZM9.22228 8.928C9.22228 9.19867 9.29228 9.43667 9.43228 9.642C9.57228 9.838 9.76828 9.992 10.0203 10.104C10.2723 10.216 10.5616 10.272 10.8883 10.272C11.2896 10.272 11.6489 10.1833 11.9663 10.006C12.2929 9.81933 12.5496 9.572 12.7363 9.264C12.9229 8.94667 13.0163 8.58733 13.0163 8.186V7.92C12.7083 7.79867 12.3956 7.70533 12.0783 7.64C11.7703 7.56533 11.4763 7.528 11.1963 7.528C10.5803 7.528 10.0949 7.654 9.74028 7.906C9.39495 8.158 9.22228 8.49867 9.22228 8.928ZM16.1161 13.996C15.9201 13.996 15.7381 13.9727 15.5701 13.926C15.4021 13.8887 15.2294 13.8233 15.0521 13.73L15.3741 12.834C15.4674 12.89 15.5701 12.932 15.6821 12.96C15.8034 12.988 15.9294 13.002 16.0601 13.002C16.3494 13.002 16.6014 12.9087 16.8161 12.722C17.0401 12.5447 17.2314 12.26 17.3901 11.868L17.7681 10.93L14.7721 3.776H16.0041L18.3141 9.712L20.4001 3.776H21.5901L18.3701 12.134C18.1274 12.7687 17.8194 13.2353 17.4461 13.534C17.0727 13.842 16.6294 13.996 16.1161 13.996ZM22.5482 11V3.776H23.5562L23.6262 5.12C23.8035 4.672 24.0695 4.322 24.4242 4.07C24.7789 3.80867 25.1942 3.678 25.6702 3.678C25.8289 3.678 25.9689 3.692 26.0902 3.72C26.2209 3.73867 26.3329 3.76667 26.4262 3.804L26.2862 4.868C26.1835 4.83067 26.0762 4.80733 25.9642 4.798C25.8522 4.77933 25.7402 4.77 25.6282 4.77C25.2362 4.77 24.8909 4.868 24.5922 5.064C24.3029 5.26 24.0742 5.54 23.9062 5.904C23.7475 6.25867 23.6682 6.67867 23.6682 7.164V11H22.5482ZM29.5668 11.21C29.0628 11.21 28.6148 11.1167 28.2228 10.93C27.8308 10.734 27.5228 10.468 27.2988 10.132C27.0841 9.796 26.9768 9.40867 26.9768 8.97C26.9768 8.494 27.0981 8.08333 27.3408 7.738C27.5928 7.39267 27.9428 7.12667 28.3908 6.94C28.8388 6.744 29.3615 6.646 29.9588 6.646C30.2948 6.646 30.6355 6.68333 30.9808 6.758C31.3261 6.83267 31.6341 6.93067 31.9048 7.052V6.52C31.9048 6.128 31.8255 5.78733 31.6668 5.498C31.5175 5.19933 31.3075 4.97067 31.0368 4.812C30.7661 4.644 30.4488 4.56 30.0848 4.56C29.6461 4.56 29.2635 4.66267 28.9368 4.868C28.6195 5.07333 28.3815 5.36267 28.2228 5.736L27.2428 5.4C27.3735 5.02667 27.5741 4.70467 27.8448 4.434C28.1248 4.16333 28.4561 3.95333 28.8388 3.804C29.2308 3.65467 29.6508 3.58 30.0988 3.58C30.6775 3.58 31.1815 3.706 31.6108 3.958C32.0495 4.20067 32.3855 4.546 32.6188 4.994C32.8615 5.43267 32.9828 5.95067 32.9828 6.548V11H32.0028L31.9328 9.88C31.7275 10.2813 31.4148 10.6033 30.9948 10.846C30.5841 11.0887 30.1081 11.21 29.5668 11.21ZM28.1108 8.928C28.1108 9.19867 28.1808 9.43667 28.3208 9.642C28.4608 9.838 28.6568 9.992 28.9088 10.104C29.1608 10.216 29.4501 10.272 29.7768 10.272C30.1781 10.272 30.5375 10.1833 30.8548 10.006C31.1815 9.81933 31.4381 9.572 31.6248 9.264C31.8115 8.94667 31.9048 8.58733 31.9048 8.186V7.92C31.5968 7.79867 31.2841 7.70533 30.9668 7.64C30.6588 7.56533 30.3648 7.528 30.0848 7.528C29.4688 7.528 28.9835 7.654 28.6288 7.906C28.2835 8.158 28.1108 8.49867 28.1108 8.928ZM35.9373 1.662C35.9373 1.802 35.9 1.93267 35.8253 2.054C35.76 2.166 35.6667 2.25933 35.5453 2.334C35.4333 2.39933 35.3073 2.432 35.1673 2.432C35.0273 2.432 34.8967 2.39933 34.7753 2.334C34.6633 2.25933 34.57 2.166 34.4953 2.054C34.43 1.93267 34.3973 1.802 34.3973 1.662C34.3973 1.522 34.43 1.396 34.4953 1.284C34.57 1.16267 34.6633 1.06933 34.7753 1.004C34.8967 0.929333 35.0273 0.891999 35.1673 0.891999C35.3073 0.891999 35.4333 0.929333 35.5453 1.004C35.6667 1.06933 35.76 1.16267 35.8253 1.284C35.9 1.396 35.9373 1.522 35.9373 1.662ZM34.6073 11V3.776H35.7273V11H34.6073ZM37.4035 11V0.611999H38.5235V11H37.4035ZM43.0942 11V1.06H46.2722C46.8975 1.06 47.4389 1.16267 47.8962 1.368C48.3535 1.57333 48.7035 1.86733 48.9462 2.25C49.1982 2.63267 49.3242 3.08067 49.3242 3.594C49.3242 4.07933 49.2075 4.504 48.9742 4.868C48.7409 5.232 48.4095 5.51667 47.9802 5.722C48.5402 5.90867 48.9742 6.22133 49.2822 6.66C49.5902 7.09867 49.7442 7.61667 49.7442 8.214C49.7442 8.78333 49.6042 9.278 49.3242 9.698C49.0442 10.1087 48.6475 10.4307 48.1342 10.664C47.6302 10.888 47.0329 11 46.3422 11H43.0942ZM44.2702 2.11V5.288H46.2162C46.8322 5.288 47.3035 5.15267 47.6302 4.882C47.9569 4.61133 48.1202 4.21933 48.1202 3.706C48.1202 3.19267 47.9522 2.80067 47.6162 2.53C47.2802 2.25 46.8135 2.11 46.2162 2.11H44.2702ZM44.2702 9.95H46.3142C47.0142 9.95 47.5602 9.79133 47.9522 9.474C48.3442 9.15667 48.5402 8.71333 48.5402 8.144C48.5402 7.56533 48.3442 7.11733 47.9522 6.8C47.5695 6.47333 47.0235 6.31 46.3142 6.31H44.2702V9.95ZM54.0641 11.21C53.4481 11.21 52.9161 11.0747 52.4681 10.804C52.0201 10.5333 51.6747 10.1507 51.4321 9.656C51.1894 9.152 51.0681 8.55467 51.0681 7.864V3.776H52.1881V7.878C52.1881 8.354 52.2627 8.76467 52.4121 9.11C52.5707 9.45533 52.7901 9.72133 53.0701 9.908C53.3594 10.0947 53.7001 10.188 54.0921 10.188C54.4841 10.188 54.8201 10.0947 55.1001 9.908C55.3894 9.72133 55.6087 9.45533 55.7581 9.11C55.9167 8.76467 55.9961 8.354 55.9961 7.878V3.776H57.1161V7.864C57.1161 8.536 56.9901 9.124 56.7381 9.628C56.4861 10.132 56.1314 10.524 55.6741 10.804C55.2167 11.0747 54.6801 11.21 54.0641 11.21ZM61.0284 11.21C60.6084 11.21 60.2117 11.14 59.8384 11C59.4744 10.86 59.1571 10.6593 58.8864 10.398C58.6157 10.1367 58.4104 9.82867 58.2704 9.474L59.2784 9.11C59.4651 9.46467 59.7077 9.74 60.0064 9.936C60.3051 10.132 60.6457 10.23 61.0284 10.23C61.3364 10.23 61.6071 10.1787 61.8404 10.076C62.0737 9.97333 62.2557 9.83333 62.3864 9.656C62.5171 9.46933 62.5824 9.264 62.5824 9.04C62.5824 8.43333 62.1437 8.04133 61.2664 7.864L60.7204 7.752C59.9551 7.60267 59.3904 7.36 59.0264 7.024C58.6624 6.67867 58.4804 6.24467 58.4804 5.722C58.4804 5.302 58.5877 4.92867 58.8024 4.602C59.0171 4.27533 59.3157 4.02333 59.6984 3.846C60.0904 3.65933 60.5337 3.566 61.0284 3.566C61.4391 3.566 61.8171 3.636 62.1624 3.776C62.5077 3.90667 62.8017 4.10267 63.0444 4.364C63.2964 4.62533 63.4877 4.93333 63.6184 5.288L62.6104 5.624C62.4611 5.27867 62.2464 5.01267 61.9664 4.826C61.6957 4.63 61.3784 4.532 61.0144 4.532C60.7344 4.532 60.4871 4.57867 60.2724 4.672C60.0671 4.76533 59.9037 4.89133 59.7824 5.05C59.6611 5.20867 59.6004 5.39533 59.6004 5.61C59.6004 5.90867 59.7124 6.14667 59.9364 6.324C60.1697 6.50133 60.5431 6.64133 61.0564 6.744L61.6024 6.856C62.2931 6.996 62.8204 7.24333 63.1844 7.598C63.5484 7.94333 63.7304 8.38667 63.7304 8.928C63.7304 9.264 63.6604 9.572 63.5204 9.852C63.3897 10.1227 63.2031 10.3607 62.9604 10.566C62.7271 10.7713 62.4424 10.93 62.1064 11.042C61.7797 11.154 61.4204 11.21 61.0284 11.21ZM66.2632 1.662C66.2632 1.802 66.2259 1.93267 66.1512 2.054C66.0859 2.166 65.9925 2.25933 65.8712 2.334C65.7592 2.39933 65.6332 2.432 65.4932 2.432C65.3532 2.432 65.2225 2.39933 65.1012 2.334C64.9892 2.25933 64.8959 2.166 64.8212 2.054C64.7559 1.93267 64.7232 1.802 64.7232 1.662C64.7232 1.522 64.7559 1.396 64.8212 1.284C64.8959 1.16267 64.9892 1.06933 65.1012 1.004C65.2225 0.929333 65.3532 0.891999 65.4932 0.891999C65.6332 0.891999 65.7592 0.929333 65.8712 1.004C65.9925 1.06933 66.0859 1.16267 66.1512 1.284C66.2259 1.396 66.2632 1.522 66.2632 1.662ZM64.9332 11V3.776H66.0532V11H64.9332ZM67.7294 11V3.776H68.7374L68.7934 4.924C69.008 4.51333 69.316 4.18667 69.7174 3.944C70.128 3.692 70.5994 3.566 71.1314 3.566C71.682 3.566 72.1627 3.69667 72.5734 3.958C72.984 4.21933 73.2967 4.59267 73.5114 5.078C73.7354 5.554 73.8474 6.11867 73.8474 6.772V11H72.7274V6.842C72.7274 6.12333 72.5687 5.568 72.2514 5.176C71.9434 4.784 71.5 4.588 70.9214 4.588C70.52 4.588 70.1607 4.68133 69.8434 4.868C69.5354 5.04533 69.2927 5.29733 69.1154 5.624C68.938 5.94133 68.8494 6.30533 68.8494 6.716V11H67.7294ZM78.7508 11.21C78.2188 11.21 77.7288 11.1167 77.2808 10.93C76.8421 10.7433 76.4594 10.482 76.1328 10.146C75.8061 9.80067 75.5541 9.39933 75.3768 8.942C75.1994 8.47533 75.1108 7.962 75.1108 7.402C75.1108 6.85133 75.1948 6.34733 75.3628 5.89C75.5401 5.42333 75.7828 5.01733 76.0908 4.672C76.4081 4.32667 76.7768 4.06067 77.1968 3.874C77.6168 3.678 78.0741 3.58 78.5688 3.58C79.0448 3.58 79.4834 3.66867 79.8848 3.846C80.2954 4.02333 80.6501 4.27067 80.9488 4.588C81.2474 4.90533 81.4761 5.28333 81.6348 5.722C81.8028 6.16067 81.8868 6.63667 81.8868 7.15V7.612H76.2728C76.3101 8.13467 76.4314 8.592 76.6368 8.984C76.8514 9.376 77.1361 9.67933 77.4908 9.894C77.8454 10.1087 78.2561 10.216 78.7228 10.216C79.1801 10.216 79.5768 10.1227 79.9128 9.936C80.2581 9.74 80.5521 9.45533 80.7948 9.082L81.7468 9.516C81.5601 9.87067 81.3174 10.174 81.0188 10.426C80.7201 10.678 80.3748 10.8693 79.9828 11C79.6001 11.14 79.1894 11.21 78.7508 11.21ZM78.5688 4.532C78.1861 4.532 77.8361 4.62533 77.5188 4.812C77.2108 4.99867 76.9494 5.26 76.7348 5.596C76.5294 5.92267 76.3941 6.30533 76.3288 6.744H80.7108C80.6734 6.30533 80.5568 5.92267 80.3608 5.596C80.1648 5.26 79.9128 4.99867 79.6048 4.812C79.2968 4.62533 78.9514 4.532 78.5688 4.532ZM85.5158 11.21C85.0958 11.21 84.6992 11.14 84.3258 11C83.9618 10.86 83.6445 10.6593 83.3738 10.398C83.1032 10.1367 82.8978 9.82867 82.7578 9.474L83.7658 9.11C83.9525 9.46467 84.1952 9.74 84.4938 9.936C84.7925 10.132 85.1332 10.23 85.5158 10.23C85.8238 10.23 86.0945 10.1787 86.3278 10.076C86.5612 9.97333 86.7432 9.83333 86.8738 9.656C87.0045 9.46933 87.0698 9.264 87.0698 9.04C87.0698 8.43333 86.6312 8.04133 85.7538 7.864L85.2078 7.752C84.4425 7.60267 83.8778 7.36 83.5138 7.024C83.1498 6.67867 82.9678 6.24467 82.9678 5.722C82.9678 5.302 83.0752 4.92867 83.2898 4.602C83.5045 4.27533 83.8032 4.02333 84.1858 3.846C84.5778 3.65933 85.0212 3.566 85.5158 3.566C85.9265 3.566 86.3045 3.636 86.6498 3.776C86.9952 3.90667 87.2892 4.10267 87.5318 4.364C87.7838 4.62533 87.9752 4.93333 88.1058 5.288L87.0978 5.624C86.9485 5.27867 86.7338 5.01267 86.4538 4.826C86.1832 4.63 85.8658 4.532 85.5018 4.532C85.2218 4.532 84.9745 4.57867 84.7598 4.672C84.5545 4.76533 84.3912 4.89133 84.2698 5.05C84.1485 5.20867 84.0878 5.39533 84.0878 5.61C84.0878 5.90867 84.1998 6.14667 84.4238 6.324C84.6572 6.50133 85.0305 6.64133 85.5438 6.744L86.0898 6.856C86.7805 6.996 87.3078 7.24333 87.6718 7.598C88.0358 7.94333 88.2178 8.38667 88.2178 8.928C88.2178 9.264 88.1478 9.572 88.0078 9.852C87.8772 10.1227 87.6905 10.3607 87.4478 10.566C87.2145 10.7713 86.9298 10.93 86.5938 11.042C86.2672 11.154 85.9078 11.21 85.5158 11.21ZM91.7026 11.21C91.2826 11.21 90.886 11.14 90.5126 11C90.1486 10.86 89.8313 10.6593 89.5606 10.398C89.29 10.1367 89.0846 9.82867 88.9446 9.474L89.9526 9.11C90.1393 9.46467 90.382 9.74 90.6806 9.936C90.9793 10.132 91.32 10.23 91.7026 10.23C92.0106 10.23 92.2813 10.1787 92.5146 10.076C92.748 9.97333 92.93 9.83333 93.0606 9.656C93.1913 9.46933 93.2566 9.264 93.2566 9.04C93.2566 8.43333 92.818 8.04133 91.9406 7.864L91.3946 7.752C90.6293 7.60267 90.0646 7.36 89.7006 7.024C89.3366 6.67867 89.1546 6.24467 89.1546 5.722C89.1546 5.302 89.262 4.92867 89.4766 4.602C89.6913 4.27533 89.99 4.02333 90.3726 3.846C90.7646 3.65933 91.208 3.566 91.7026 3.566C92.1133 3.566 92.4913 3.636 92.8366 3.776C93.182 3.90667 93.476 4.10267 93.7186 4.364C93.9706 4.62533 94.162 4.93333 94.2926 5.288L93.2846 5.624C93.1353 5.27867 92.9206 5.01267 92.6406 4.826C92.37 4.63 92.0526 4.532 91.6886 4.532C91.4086 4.532 91.1613 4.57867 90.9466 4.672C90.7413 4.76533 90.578 4.89133 90.4566 5.05C90.3353 5.20867 90.2746 5.39533 90.2746 5.61C90.2746 5.90867 90.3866 6.14667 90.6106 6.324C90.844 6.50133 91.2173 6.64133 91.7306 6.744L92.2766 6.856C92.9673 6.996 93.4946 7.24333 93.8586 7.598C94.2226 7.94333 94.4046 8.38667 94.4046 8.928C94.4046 9.264 94.3346 9.572 94.1946 9.852C94.064 10.1227 93.8773 10.3607 93.6346 10.566C93.4013 10.7713 93.1166 10.93 92.7806 11.042C92.454 11.154 92.0946 11.21 91.7026 11.21ZM99.7199 1.662C99.7199 1.802 99.6826 1.93267 99.6079 2.054C99.5426 2.166 99.4493 2.25933 99.3279 2.334C99.2159 2.39933 99.0899 2.432 98.9499 2.432C98.8099 2.432 98.6793 2.39933 98.5579 2.334C98.4459 2.25933 98.3526 2.166 98.2779 2.054C98.2126 1.93267 98.1799 1.802 98.1799 1.662C98.1799 1.522 98.2126 1.396 98.2779 1.284C98.3526 1.16267 98.4459 1.06933 98.5579 1.004C98.6793 0.929333 98.8099 0.891999 98.9499 0.891999C99.0899 0.891999 99.2159 0.929333 99.3279 1.004C99.4493 1.06933 99.5426 1.16267 99.6079 1.284C99.6826 1.396 99.7199 1.522 99.7199 1.662ZM98.3899 11V3.776H99.5099V11H98.3899ZM103.468 11.21C103.048 11.21 102.651 11.14 102.278 11C101.914 10.86 101.597 10.6593 101.326 10.398C101.055 10.1367 100.85 9.82867 100.71 9.474L101.718 9.11C101.905 9.46467 102.147 9.74 102.446 9.936C102.745 10.132 103.085 10.23 103.468 10.23C103.776 10.23 104.047 10.1787 104.28 10.076C104.513 9.97333 104.695 9.83333 104.826 9.656C104.957 9.46933 105.022 9.264 105.022 9.04C105.022 8.43333 104.583 8.04133 103.706 7.864L103.16 7.752C102.395 7.60267 101.83 7.36 101.466 7.024C101.102 6.67867 100.92 6.24467 100.92 5.722C100.92 5.302 101.027 4.92867 101.242 4.602C101.457 4.27533 101.755 4.02333 102.138 3.846C102.53 3.65933 102.973 3.566 103.468 3.566C103.879 3.566 104.257 3.636 104.602 3.776C104.947 3.90667 105.241 4.10267 105.484 4.364C105.736 4.62533 105.927 4.93333 106.058 5.288L105.05 5.624C104.901 5.27867 104.686 5.01267 104.406 4.826C104.135 4.63 103.818 4.532 103.454 4.532C103.174 4.532 102.927 4.57867 102.712 4.672C102.507 4.76533 102.343 4.89133 102.222 5.05C102.101 5.20867 102.04 5.39533 102.04 5.61C102.04 5.90867 102.152 6.14667 102.376 6.324C102.609 6.50133 102.983 6.64133 103.496 6.744L104.042 6.856C104.733 6.996 105.26 7.24333 105.624 7.598C105.988 7.94333 106.17 8.38667 106.17 8.928C106.17 9.264 106.1 9.572 105.96 9.852C105.829 10.1227 105.643 10.3607 105.4 10.566C105.167 10.7713 104.882 10.93 104.546 11.042C104.219 11.154 103.86 11.21 103.468 11.21ZM110.155 11V0.611999H111.275V4.826C111.49 4.44333 111.798 4.14 112.199 3.916C112.601 3.68267 113.053 3.566 113.557 3.566C114.108 3.566 114.589 3.69667 114.999 3.958C115.41 4.21933 115.723 4.59267 115.937 5.078C116.161 5.554 116.273 6.11867 116.273 6.772V11H115.153V6.842C115.153 6.12333 114.995 5.568 114.677 5.176C114.369 4.784 113.926 4.588 113.347 4.588C112.946 4.588 112.587 4.68133 112.269 4.868C111.961 5.04533 111.719 5.29733 111.541 5.624C111.364 5.94133 111.275 6.30533 111.275 6.716V11H110.155ZM121.177 11.21C120.645 11.21 120.155 11.1167 119.707 10.93C119.268 10.7433 118.885 10.482 118.559 10.146C118.232 9.80067 117.98 9.39933 117.803 8.942C117.625 8.47533 117.537 7.962 117.537 7.402C117.537 6.85133 117.621 6.34733 117.789 5.89C117.966 5.42333 118.209 5.01733 118.517 4.672C118.834 4.32667 119.203 4.06067 119.623 3.874C120.043 3.678 120.5 3.58 120.995 3.58C121.471 3.58 121.909 3.66867 122.311 3.846C122.721 4.02333 123.076 4.27067 123.375 4.588C123.673 4.90533 123.902 5.28333 124.061 5.722C124.229 6.16067 124.313 6.63667 124.313 7.15V7.612H118.699C118.736 8.13467 118.857 8.592 119.063 8.984C119.277 9.376 119.562 9.67933 119.917 9.894C120.271 10.1087 120.682 10.216 121.149 10.216C121.606 10.216 122.003 10.1227 122.339 9.936C122.684 9.74 122.978 9.45533 123.221 9.082L124.173 9.516C123.986 9.87067 123.743 10.174 123.445 10.426C123.146 10.678 122.801 10.8693 122.409 11C122.026 11.14 121.615 11.21 121.177 11.21ZM120.995 4.532C120.612 4.532 120.262 4.62533 119.945 4.812C119.637 4.99867 119.375 5.26 119.161 5.596C118.955 5.92267 118.82 6.30533 118.755 6.744H123.137C123.099 6.30533 122.983 5.92267 122.787 5.596C122.591 5.26 122.339 4.99867 122.031 4.812C121.723 4.62533 121.377 4.532 120.995 4.532ZM125.632 11V0.611999H126.752V11H125.632ZM128.429 13.856V3.776H129.437L129.493 5.148C129.754 4.65333 130.113 4.266 130.571 3.986C131.037 3.706 131.565 3.566 132.153 3.566C132.629 3.566 133.072 3.664 133.483 3.86C133.893 4.04667 134.253 4.31267 134.561 4.658C134.869 5.00333 135.107 5.40933 135.275 5.876C135.452 6.33333 135.541 6.83267 135.541 7.374C135.541 7.91533 135.452 8.41933 135.275 8.886C135.107 9.35267 134.864 9.75867 134.547 10.104C134.239 10.4493 133.875 10.72 133.455 10.916C133.035 11.112 132.582 11.21 132.097 11.21C131.546 11.21 131.047 11.084 130.599 10.832C130.16 10.58 129.81 10.2253 129.549 9.768V13.856H128.429ZM131.957 10.188C132.311 10.188 132.633 10.118 132.923 9.978C133.221 9.838 133.478 9.64667 133.693 9.404C133.917 9.152 134.089 8.858 134.211 8.522C134.332 8.17667 134.393 7.79867 134.393 7.388C134.393 6.97733 134.332 6.604 134.211 6.268C134.089 5.92267 133.917 5.62867 133.693 5.386C133.478 5.134 133.221 4.938 132.923 4.798C132.633 4.658 132.311 4.588 131.957 4.588C131.602 4.588 131.275 4.658 130.977 4.798C130.687 4.938 130.431 5.134 130.207 5.386C129.992 5.62867 129.824 5.92267 129.703 6.268C129.581 6.604 129.521 6.97733 129.521 7.388C129.521 7.79867 129.581 8.17667 129.703 8.522C129.824 8.858 129.992 9.152 130.207 9.404C130.431 9.64667 130.687 9.838 130.977 9.978C131.275 10.118 131.602 10.188 131.957 10.188ZM138.188 1.662C138.188 1.802 138.15 1.93267 138.076 2.054C138.01 2.166 137.917 2.25933 137.796 2.334C137.684 2.39933 137.558 2.432 137.418 2.432C137.278 2.432 137.147 2.39933 137.026 2.334C136.914 2.25933 136.82 2.166 136.746 2.054C136.68 1.93267 136.648 1.802 136.648 1.662C136.648 1.522 136.68 1.396 136.746 1.284C136.82 1.16267 136.914 1.06933 137.026 1.004C137.147 0.929333 137.278 0.891999 137.418 0.891999C137.558 0.891999 137.684 0.929333 137.796 1.004C137.917 1.06933 138.01 1.16267 138.076 1.284C138.15 1.396 138.188 1.522 138.188 1.662ZM136.858 11V3.776H137.978V11H136.858ZM139.654 11V3.776H140.662L140.718 4.924C140.932 4.51333 141.24 4.18667 141.642 3.944C142.052 3.692 142.524 3.566 143.056 3.566C143.606 3.566 144.087 3.69667 144.498 3.958C144.908 4.21933 145.221 4.59267 145.436 5.078C145.66 5.554 145.772 6.11867 145.772 6.772V11H144.652V6.842C144.652 6.12333 144.493 5.568 144.176 5.176C143.868 4.784 143.424 4.588 142.846 4.588C142.444 4.588 142.085 4.68133 141.768 4.868C141.46 5.04533 141.217 5.29733 141.04 5.624C140.862 5.94133 140.774 6.30533 140.774 6.716V11H139.654ZM150.381 10.93C149.905 10.93 149.462 10.8367 149.051 10.65C148.65 10.4633 148.295 10.2067 147.987 9.88C147.689 9.544 147.455 9.152 147.287 8.704C147.119 8.256 147.035 7.77533 147.035 7.262C147.035 6.73933 147.119 6.254 147.287 5.806C147.465 5.358 147.707 4.966 148.015 4.63C148.323 4.294 148.683 4.03267 149.093 3.846C149.513 3.65933 149.961 3.566 150.437 3.566C150.988 3.566 151.487 3.69667 151.935 3.958C152.393 4.21933 152.747 4.57867 152.999 5.036L153.055 3.776H154.063V10.384C154.063 10.9347 153.979 11.434 153.811 11.882C153.643 12.3393 153.405 12.7313 153.097 13.058C152.789 13.3847 152.421 13.632 151.991 13.8C151.562 13.9773 151.086 14.066 150.563 14.066C150.106 14.066 149.677 13.996 149.275 13.856C148.874 13.7253 148.515 13.5293 148.197 13.268C147.889 13.016 147.633 12.7127 147.427 12.358L148.365 11.882C148.636 12.274 148.953 12.5727 149.317 12.778C149.691 12.9927 150.106 13.1 150.563 13.1C151.049 13.1 151.469 12.988 151.823 12.764C152.187 12.5493 152.463 12.2413 152.649 11.84C152.845 11.4387 152.943 10.9673 152.943 10.426V9.502C152.682 9.95 152.327 10.3 151.879 10.552C151.431 10.804 150.932 10.93 150.381 10.93ZM150.577 9.908C150.923 9.908 151.24 9.84267 151.529 9.712C151.828 9.58133 152.085 9.39933 152.299 9.166C152.514 8.92333 152.677 8.63867 152.789 8.312C152.911 7.98533 152.971 7.63067 152.971 7.248C152.971 6.86533 152.911 6.51067 152.789 6.184C152.677 5.85733 152.514 5.57733 152.299 5.344C152.085 5.10133 151.828 4.91467 151.529 4.784C151.24 4.65333 150.923 4.588 150.577 4.588C150.232 4.588 149.91 4.65333 149.611 4.784C149.322 4.91467 149.07 5.10133 148.855 5.344C148.641 5.57733 148.473 5.85733 148.351 6.184C148.239 6.51067 148.183 6.86533 148.183 7.248C148.183 7.63067 148.239 7.98533 148.351 8.312C148.473 8.63867 148.641 8.92333 148.855 9.166C149.07 9.39933 149.322 9.58133 149.611 9.712C149.91 9.84267 150.232 9.908 150.577 9.908ZM160.811 11.21C160.391 11.21 159.994 11.14 159.621 11C159.257 10.86 158.939 10.6593 158.669 10.398C158.398 10.1367 158.193 9.82867 158.053 9.474L159.061 9.11C159.247 9.46467 159.49 9.74 159.789 9.936C160.087 10.132 160.428 10.23 160.811 10.23C161.119 10.23 161.389 10.1787 161.623 10.076C161.856 9.97333 162.038 9.83333 162.169 9.656C162.299 9.46933 162.365 9.264 162.365 9.04C162.365 8.43333 161.926 8.04133 161.049 7.864L160.503 7.752C159.737 7.60267 159.173 7.36 158.809 7.024C158.445 6.67867 158.263 6.24467 158.263 5.722C158.263 5.302 158.37 4.92867 158.585 4.602C158.799 4.27533 159.098 4.02333 159.481 3.846C159.873 3.65933 160.316 3.566 160.811 3.566C161.221 3.566 161.599 3.636 161.945 3.776C162.29 3.90667 162.584 4.10267 162.827 4.364C163.079 4.62533 163.27 4.93333 163.401 5.288L162.393 5.624C162.243 5.27867 162.029 5.01267 161.749 4.826C161.478 4.63 161.161 4.532 160.797 4.532C160.517 4.532 160.269 4.57867 160.055 4.672C159.849 4.76533 159.686 4.89133 159.565 5.05C159.443 5.20867 159.383 5.39533 159.383 5.61C159.383 5.90867 159.495 6.14667 159.719 6.324C159.952 6.50133 160.325 6.64133 160.839 6.744L161.385 6.856C162.075 6.996 162.603 7.24333 162.967 7.598C163.331 7.94333 163.513 8.38667 163.513 8.928C163.513 9.264 163.443 9.572 163.303 9.852C163.172 10.1227 162.985 10.3607 162.743 10.566C162.509 10.7713 162.225 10.93 161.889 11.042C161.562 11.154 161.203 11.21 160.811 11.21ZM167.921 11.21C167.408 11.21 166.932 11.1167 166.493 10.93C166.064 10.734 165.686 10.468 165.359 10.132C165.042 9.78667 164.795 9.38067 164.617 8.914C164.44 8.44733 164.351 7.93867 164.351 7.388C164.351 6.83733 164.44 6.32867 164.617 5.862C164.804 5.39533 165.056 4.994 165.373 4.658C165.7 4.31267 166.083 4.04667 166.521 3.86C166.96 3.664 167.436 3.566 167.949 3.566C168.463 3.566 168.934 3.664 169.363 3.86C169.802 4.04667 170.18 4.31267 170.497 4.658C170.824 4.994 171.076 5.39533 171.253 5.862C171.431 6.32867 171.519 6.83733 171.519 7.388C171.519 7.93867 171.426 8.44733 171.239 8.914C171.062 9.38067 170.81 9.78667 170.483 10.132C170.166 10.468 169.788 10.734 169.349 10.93C168.911 11.1167 168.435 11.21 167.921 11.21ZM167.935 10.188C168.29 10.188 168.612 10.118 168.901 9.978C169.2 9.838 169.457 9.64667 169.671 9.404C169.895 9.152 170.068 8.858 170.189 8.522C170.311 8.17667 170.371 7.79867 170.371 7.388C170.371 6.97733 170.311 6.604 170.189 6.268C170.068 5.92267 169.895 5.62867 169.671 5.386C169.457 5.134 169.2 4.938 168.901 4.798C168.612 4.658 168.29 4.588 167.935 4.588C167.581 4.588 167.254 4.658 166.955 4.798C166.666 4.938 166.409 5.134 166.185 5.386C165.971 5.62867 165.803 5.92267 165.681 6.268C165.56 6.604 165.499 6.97733 165.499 7.388C165.499 7.79867 165.56 8.17667 165.681 8.522C165.803 8.858 165.971 9.152 166.185 9.404C166.409 9.64667 166.666 9.838 166.955 9.978C167.254 10.118 167.581 10.188 167.935 10.188ZM172.83 11V0.611999H173.95V11H172.83ZM178.832 11.21C178.319 11.21 177.843 11.1167 177.404 10.93C176.975 10.734 176.597 10.468 176.27 10.132C175.953 9.78667 175.706 9.38067 175.528 8.914C175.351 8.44733 175.262 7.93867 175.262 7.388C175.262 6.83733 175.351 6.32867 175.528 5.862C175.715 5.39533 175.967 4.994 176.284 4.658C176.611 4.31267 176.994 4.04667 177.432 3.86C177.871 3.664 178.347 3.566 178.86 3.566C179.374 3.566 179.845 3.664 180.274 3.86C180.713 4.04667 181.091 4.31267 181.408 4.658C181.735 4.994 181.987 5.39533 182.164 5.862C182.342 6.32867 182.43 6.83733 182.43 7.388C182.43 7.93867 182.337 8.44733 182.15 8.914C181.973 9.38067 181.721 9.78667 181.394 10.132C181.077 10.468 180.699 10.734 180.26 10.93C179.822 11.1167 179.346 11.21 178.832 11.21ZM178.846 10.188C179.201 10.188 179.523 10.118 179.812 9.978C180.111 9.838 180.368 9.64667 180.582 9.404C180.806 9.152 180.979 8.858 181.1 8.522C181.222 8.17667 181.282 7.79867 181.282 7.388C181.282 6.97733 181.222 6.604 181.1 6.268C180.979 5.92267 180.806 5.62867 180.582 5.386C180.368 5.134 180.111 4.938 179.812 4.798C179.523 4.658 179.201 4.588 178.846 4.588C178.492 4.588 178.165 4.658 177.866 4.798C177.577 4.938 177.32 5.134 177.096 5.386C176.882 5.62867 176.714 5.92267 176.592 6.268C176.471 6.604 176.41 6.97733 176.41 7.388C176.41 7.79867 176.471 8.17667 176.592 8.522C176.714 8.858 176.882 9.152 177.096 9.404C177.32 9.64667 177.577 9.838 177.866 9.978C178.165 10.118 178.492 10.188 178.846 10.188ZM183.741 13.856V3.776H184.749L184.805 5.148C185.066 4.65333 185.425 4.266 185.883 3.986C186.349 3.706 186.877 3.566 187.465 3.566C187.941 3.566 188.384 3.664 188.795 3.86C189.205 4.04667 189.565 4.31267 189.873 4.658C190.181 5.00333 190.419 5.40933 190.587 5.876C190.764 6.33333 190.853 6.83267 190.853 7.374C190.853 7.91533 190.764 8.41933 190.587 8.886C190.419 9.35267 190.176 9.75867 189.859 10.104C189.551 10.4493 189.187 10.72 188.767 10.916C188.347 11.112 187.894 11.21 187.409 11.21C186.858 11.21 186.359 11.084 185.911 10.832C185.472 10.58 185.122 10.2253 184.861 9.768V13.856H183.741ZM187.269 10.188C187.623 10.188 187.945 10.118 188.235 9.978C188.533 9.838 188.79 9.64667 189.005 9.404C189.229 9.152 189.401 8.858 189.523 8.522C189.644 8.17667 189.705 7.79867 189.705 7.388C189.705 6.97733 189.644 6.604 189.523 6.268C189.401 5.92267 189.229 5.62867 189.005 5.386C188.79 5.134 188.533 4.938 188.235 4.798C187.945 4.658 187.623 4.588 187.269 4.588C186.914 4.588 186.587 4.658 186.289 4.798C185.999 4.938 185.743 5.134 185.519 5.386C185.304 5.62867 185.136 5.92267 185.015 6.268C184.893 6.604 184.833 6.97733 184.833 7.388C184.833 7.79867 184.893 8.17667 185.015 8.522C185.136 8.858 185.304 9.152 185.519 9.404C185.743 9.64667 185.999 9.838 186.289 9.978C186.587 10.118 186.914 10.188 187.269 10.188ZM192.17 11V3.776H193.178L193.248 5.12C193.425 4.672 193.691 4.322 194.046 4.07C194.4 3.80867 194.816 3.678 195.292 3.678C195.45 3.678 195.59 3.692 195.712 3.72C195.842 3.73867 195.954 3.76667 196.048 3.804L195.908 4.868C195.805 4.83067 195.698 4.80733 195.586 4.798C195.474 4.77933 195.362 4.77 195.25 4.77C194.858 4.77 194.512 4.868 194.214 5.064C193.924 5.26 193.696 5.54 193.528 5.904C193.369 6.25867 193.29 6.67867 193.29 7.164V11H192.17ZM200.156 11.21C199.624 11.21 199.134 11.1167 198.686 10.93C198.247 10.7433 197.865 10.482 197.538 10.146C197.211 9.80067 196.959 9.39933 196.782 8.942C196.605 8.47533 196.516 7.962 196.516 7.402C196.516 6.85133 196.6 6.34733 196.768 5.89C196.945 5.42333 197.188 5.01733 197.496 4.672C197.813 4.32667 198.182 4.06067 198.602 3.874C199.022 3.678 199.479 3.58 199.974 3.58C200.45 3.58 200.889 3.66867 201.29 3.846C201.701 4.02333 202.055 4.27067 202.354 4.588C202.653 4.90533 202.881 5.28333 203.04 5.722C203.208 6.16067 203.292 6.63667 203.292 7.15V7.612H197.678C197.715 8.13467 197.837 8.592 198.042 8.984C198.257 9.376 198.541 9.67933 198.896 9.894C199.251 10.1087 199.661 10.216 200.128 10.216C200.585 10.216 200.982 10.1227 201.318 9.936C201.663 9.74 201.957 9.45533 202.2 9.082L203.152 9.516C202.965 9.87067 202.723 10.174 202.424 10.426C202.125 10.678 201.78 10.8693 201.388 11C201.005 11.14 200.595 11.21 200.156 11.21ZM199.974 4.532C199.591 4.532 199.241 4.62533 198.924 4.812C198.616 4.99867 198.355 5.26 198.14 5.596C197.935 5.92267 197.799 6.30533 197.734 6.744H202.116C202.079 6.30533 201.962 5.92267 201.766 5.596C201.57 5.26 201.318 4.99867 201.01 4.812C200.702 4.62533 200.357 4.532 199.974 4.532ZM204.612 11V3.776H205.62L205.676 4.924C205.89 4.51333 206.198 4.18667 206.6 3.944C207.01 3.692 207.482 3.566 208.014 3.566C208.564 3.566 209.045 3.69667 209.456 3.958C209.866 4.21933 210.179 4.59267 210.394 5.078C210.618 5.554 210.73 6.11867 210.73 6.772V11H209.61V6.842C209.61 6.12333 209.451 5.568 209.134 5.176C208.826 4.784 208.382 4.588 207.804 4.588C207.402 4.588 207.043 4.68133 206.726 4.868C206.418 5.04533 206.175 5.29733 205.998 5.624C205.82 5.94133 205.732 6.30533 205.732 6.716V11H204.612ZM215.633 11.21C215.101 11.21 214.611 11.1167 214.163 10.93C213.724 10.7433 213.342 10.482 213.015 10.146C212.688 9.80067 212.436 9.39933 212.259 8.942C212.082 8.47533 211.993 7.962 211.993 7.402C211.993 6.85133 212.077 6.34733 212.245 5.89C212.422 5.42333 212.665 5.01733 212.973 4.672C213.29 4.32667 213.659 4.06067 214.079 3.874C214.499 3.678 214.956 3.58 215.451 3.58C215.927 3.58 216.366 3.66867 216.767 3.846C217.178 4.02333 217.532 4.27067 217.831 4.588C218.13 4.90533 218.358 5.28333 218.517 5.722C218.685 6.16067 218.769 6.63667 218.769 7.15V7.612H213.155C213.192 8.13467 213.314 8.592 213.519 8.984C213.734 9.376 214.018 9.67933 214.373 9.894C214.728 10.1087 215.138 10.216 215.605 10.216C216.062 10.216 216.459 10.1227 216.795 9.936C217.14 9.74 217.434 9.45533 217.677 9.082L218.629 9.516C218.442 9.87067 218.2 10.174 217.901 10.426C217.602 10.678 217.257 10.8693 216.865 11C216.482 11.14 216.072 11.21 215.633 11.21ZM215.451 4.532C215.068 4.532 214.718 4.62533 214.401 4.812C214.093 4.99867 213.832 5.26 213.617 5.596C213.412 5.92267 213.276 6.30533 213.211 6.744H217.593C217.556 6.30533 217.439 5.92267 217.243 5.596C217.047 5.26 216.795 4.99867 216.487 4.812C216.179 4.62533 215.834 4.532 215.451 4.532ZM223.029 11.21C222.413 11.21 221.881 11.0747 221.433 10.804C220.985 10.5333 220.639 10.1507 220.397 9.656C220.154 9.152 220.033 8.55467 220.033 7.864V3.776H221.153V7.878C221.153 8.354 221.227 8.76467 221.377 9.11C221.535 9.45533 221.755 9.72133 222.035 9.908C222.324 10.0947 222.665 10.188 223.057 10.188C223.449 10.188 223.785 10.0947 224.065 9.908C224.354 9.72133 224.573 9.45533 224.723 9.11C224.881 8.76467 224.961 8.354 224.961 7.878V3.776H226.081V7.864C226.081 8.536 225.955 9.124 225.703 9.628C225.451 10.132 225.096 10.524 224.639 10.804C224.181 11.0747 223.645 11.21 223.029 11.21ZM227.711 11V3.776H228.719L228.789 5.12C228.966 4.672 229.232 4.322 229.587 4.07C229.942 3.80867 230.357 3.678 230.833 3.678C230.992 3.678 231.132 3.692 231.253 3.72C231.384 3.73867 231.496 3.76667 231.589 3.804L231.449 4.868C231.346 4.83067 231.239 4.80733 231.127 4.798C231.015 4.77933 230.903 4.77 230.791 4.77C230.399 4.77 230.054 4.868 229.755 5.064C229.466 5.26 229.237 5.54 229.069 5.904C228.91 6.25867 228.831 6.67867 228.831 7.164V11H227.711ZM234.963 11.21C234.543 11.21 234.146 11.14 233.773 11C233.409 10.86 233.092 10.6593 232.821 10.398C232.55 10.1367 232.345 9.82867 232.205 9.474L233.213 9.11C233.4 9.46467 233.642 9.74 233.941 9.936C234.24 10.132 234.58 10.23 234.963 10.23C235.271 10.23 235.542 10.1787 235.775 10.076C236.008 9.97333 236.19 9.83333 236.321 9.656C236.452 9.46933 236.517 9.264 236.517 9.04C236.517 8.43333 236.078 8.04133 235.201 7.864L234.655 7.752C233.89 7.60267 233.325 7.36 232.961 7.024C232.597 6.67867 232.415 6.24467 232.415 5.722C232.415 5.302 232.522 4.92867 232.737 4.602C232.952 4.27533 233.25 4.02333 233.633 3.846C234.025 3.65933 234.468 3.566 234.963 3.566C235.374 3.566 235.752 3.636 236.097 3.776C236.442 3.90667 236.736 4.10267 236.979 4.364C237.231 4.62533 237.422 4.93333 237.553 5.288L236.545 5.624C236.396 5.27867 236.181 5.01267 235.901 4.826C235.63 4.63 235.313 4.532 234.949 4.532C234.669 4.532 234.422 4.57867 234.207 4.672C234.002 4.76533 233.838 4.89133 233.717 5.05C233.596 5.20867 233.535 5.39533 233.535 5.61C233.535 5.90867 233.647 6.14667 233.871 6.324C234.104 6.50133 234.478 6.64133 234.991 6.744L235.537 6.856C236.228 6.996 236.755 7.24333 237.119 7.598C237.483 7.94333 237.665 8.38667 237.665 8.928C237.665 9.264 237.595 9.572 237.455 9.852C237.324 10.1227 237.138 10.3607 236.895 10.566C236.662 10.7713 236.377 10.93 236.041 11.042C235.714 11.154 235.355 11.21 234.963 11.21ZM3.22 31.21C2.716 31.21 2.268 31.1167 1.876 30.93C1.484 30.734 1.176 30.468 0.952 30.132C0.737333 29.796 0.63 29.4087 0.63 28.97C0.63 28.494 0.751333 28.0833 0.994 27.738C1.246 27.3927 1.596 27.1267 2.044 26.94C2.492 26.744 3.01467 26.646 3.612 26.646C3.948 26.646 4.28867 26.6833 4.634 26.758C4.97933 26.8327 5.28733 26.9307 5.558 27.052V26.52C5.558 26.128 5.47867 25.7873 5.32 25.498C5.17067 25.1993 4.96067 24.9707 4.69 24.812C4.41933 24.644 4.102 24.56 3.738 24.56C3.29933 24.56 2.91667 24.6627 2.59 24.868C2.27267 25.0733 2.03467 25.3627 1.876 25.736L0.896 25.4C1.02667 25.0267 1.22733 24.7047 1.498 24.434C1.778 24.1633 2.10933 23.9533 2.492 23.804C2.884 23.6547 3.304 23.58 3.752 23.58C4.33067 23.58 4.83467 23.706 5.264 23.958C5.70267 24.2007 6.03867 24.546 6.272 24.994C6.51467 25.4327 6.636 25.9507 6.636 26.548V31H5.656L5.586 29.88C5.38067 30.2813 5.068 30.6033 4.648 30.846C4.23733 31.0887 3.76133 31.21 3.22 31.21ZM1.764 28.928C1.764 29.1987 1.834 29.4367 1.974 29.642C2.114 29.838 2.31 29.992 2.562 30.104C2.814 30.216 3.10333 30.272 3.43 30.272C3.83133 30.272 4.19067 30.1833 4.508 30.006C4.83467 29.8193 5.09133 29.572 5.278 29.264C5.46467 28.9467 5.558 28.5873 5.558 28.186V27.92C5.25 27.7987 4.93733 27.7053 4.62 27.64C4.312 27.5653 4.018 27.528 3.738 27.528C3.122 27.528 2.63667 27.654 2.282 27.906C1.93667 28.158 1.764 28.4987 1.764 28.928ZM8.26055 31V23.776H9.26855L9.32455 24.924C9.53921 24.5133 9.84721 24.1867 10.2485 23.944C10.6592 23.692 11.1305 23.566 11.6625 23.566C12.2132 23.566 12.6939 23.6967 13.1045 23.958C13.5152 24.2193 13.8279 24.5927 14.0425 25.078C14.2665 25.554 14.3785 26.1187 14.3785 26.772V31H13.2585V26.842C13.2585 26.1233 13.0999 25.568 12.7825 25.176C12.4745 24.784 12.0312 24.588 11.4525 24.588C11.0512 24.588 10.6919 24.6813 10.3745 24.868C10.0665 25.0453 9.82388 25.2973 9.64655 25.624C9.46921 25.9413 9.38055 26.3053 9.38055 26.716V31H8.26055ZM19.0299 31.21C18.5539 31.21 18.1106 31.1167 17.6999 30.93C17.2893 30.734 16.9299 30.4633 16.6219 30.118C16.3139 29.7727 16.0713 29.3713 15.8939 28.914C15.7259 28.4473 15.6419 27.9433 15.6419 27.402C15.6419 26.8607 15.7259 26.3567 15.8939 25.89C16.0713 25.4233 16.3139 25.0173 16.6219 24.672C16.9393 24.3267 17.3079 24.056 17.7279 23.86C18.1479 23.664 18.6006 23.566 19.0859 23.566C19.6366 23.566 20.1313 23.692 20.5699 23.944C21.0179 24.196 21.3726 24.5507 21.6339 25.008V20.612H22.7539V31H21.7459L21.6899 29.628C21.4286 30.1227 21.0646 30.51 20.5979 30.79C20.1406 31.07 19.6179 31.21 19.0299 31.21ZM19.2259 30.188C19.5806 30.188 19.9026 30.118 20.1919 29.978C20.4906 29.838 20.7473 29.6467 20.9619 29.404C21.1859 29.152 21.3586 28.858 21.4799 28.522C21.6013 28.1767 21.6619 27.7987 21.6619 27.388C21.6619 26.9773 21.6013 26.604 21.4799 26.268C21.3586 25.9227 21.1859 25.6287 20.9619 25.386C20.7473 25.134 20.4906 24.938 20.1919 24.798C19.9026 24.658 19.5806 24.588 19.2259 24.588C18.8713 24.588 18.5446 24.658 18.2459 24.798C17.9566 24.938 17.6999 25.134 17.4759 25.386C17.2613 25.6287 17.0933 25.9227 16.9719 26.268C16.8506 26.604 16.7899 26.9773 16.7899 27.388C16.7899 27.7987 16.8506 28.1767 16.9719 28.522C17.0933 28.858 17.2613 29.152 17.4759 29.404C17.6999 29.6467 17.9566 29.838 18.2459 29.978C18.5446 30.118 18.8713 30.188 19.2259 30.188ZM29.4994 31.21C29.0794 31.21 28.6828 31.14 28.3094 31C27.9454 30.86 27.6281 30.6593 27.3574 30.398C27.0868 30.1367 26.8814 29.8287 26.7414 29.474L27.7494 29.11C27.9361 29.4647 28.1788 29.74 28.4774 29.936C28.7761 30.132 29.1168 30.23 29.4994 30.23C29.8074 30.23 30.0781 30.1787 30.3114 30.076C30.5448 29.9733 30.7268 29.8333 30.8574 29.656C30.9881 29.4693 31.0534 29.264 31.0534 29.04C31.0534 28.4333 30.6148 28.0413 29.7374 27.864L29.1914 27.752C28.4261 27.6027 27.8614 27.36 27.4974 27.024C27.1334 26.6787 26.9514 26.2447 26.9514 25.722C26.9514 25.302 27.0588 24.9287 27.2734 24.602C27.4881 24.2753 27.7868 24.0233 28.1694 23.846C28.5614 23.6593 29.0048 23.566 29.4994 23.566C29.9101 23.566 30.2881 23.636 30.6334 23.776C30.9788 23.9067 31.2728 24.1027 31.5154 24.364C31.7674 24.6253 31.9588 24.9333 32.0894 25.288L31.0814 25.624C30.9321 25.2787 30.7174 25.0127 30.4374 24.826C30.1668 24.63 29.8494 24.532 29.4854 24.532C29.2054 24.532 28.9581 24.5787 28.7434 24.672C28.5381 24.7653 28.3748 24.8913 28.2534 25.05C28.1321 25.2087 28.0714 25.3953 28.0714 25.61C28.0714 25.9087 28.1834 26.1467 28.4074 26.324C28.6408 26.5013 29.0141 26.6413 29.5274 26.744L30.0734 26.856C30.7641 26.996 31.2914 27.2433 31.6554 27.598C32.0194 27.9433 32.2014 28.3867 32.2014 28.928C32.2014 29.264 32.1314 29.572 31.9914 29.852C31.8608 30.1227 31.6741 30.3607 31.4314 30.566C31.1981 30.7713 30.9134 30.93 30.5774 31.042C30.2508 31.154 29.8914 31.21 29.4994 31.21ZM33.4042 31V23.776H34.4122L34.4682 24.882C34.6736 24.4807 34.9722 24.1633 35.3642 23.93C35.7562 23.6873 36.2042 23.566 36.7082 23.566C37.2496 23.566 37.7209 23.706 38.1222 23.986C38.5236 24.266 38.8222 24.658 39.0182 25.162C39.1396 24.8447 39.3216 24.5693 39.5642 24.336C39.8069 24.0933 40.0916 23.9067 40.4182 23.776C40.7542 23.636 41.1136 23.566 41.4962 23.566C42.0376 23.566 42.5042 23.6967 42.8962 23.958C43.2976 24.21 43.6009 24.5693 43.8062 25.036C44.0209 25.5027 44.1282 26.0627 44.1282 26.716V31H43.0082V26.786C43.0082 26.0767 42.8636 25.5353 42.5742 25.162C42.2849 24.7793 41.8649 24.588 41.3142 24.588C40.9316 24.588 40.5909 24.6813 40.2922 24.868C39.9936 25.0453 39.7556 25.2927 39.5782 25.61C39.4102 25.918 39.3262 26.268 39.3262 26.66V31H38.2062V26.786C38.2062 26.0767 38.0569 25.5353 37.7582 25.162C37.4596 24.7793 37.0349 24.588 36.4842 24.588C36.1109 24.588 35.7749 24.6813 35.4762 24.868C35.1776 25.0453 34.9442 25.2927 34.7762 25.61C34.6082 25.918 34.5242 26.268 34.5242 26.66V31H33.4042ZM47.997 31.21C47.493 31.21 47.045 31.1167 46.653 30.93C46.261 30.734 45.953 30.468 45.729 30.132C45.5144 29.796 45.407 29.4087 45.407 28.97C45.407 28.494 45.5284 28.0833 45.771 27.738C46.023 27.3927 46.373 27.1267 46.821 26.94C47.269 26.744 47.7917 26.646 48.389 26.646C48.725 26.646 49.0657 26.6833 49.411 26.758C49.7564 26.8327 50.0644 26.9307 50.335 27.052V26.52C50.335 26.128 50.2557 25.7873 50.097 25.498C49.9477 25.1993 49.7377 24.9707 49.467 24.812C49.1964 24.644 48.879 24.56 48.515 24.56C48.0764 24.56 47.6937 24.6627 47.367 24.868C47.0497 25.0733 46.8117 25.3627 46.653 25.736L45.673 25.4C45.8037 25.0267 46.0044 24.7047 46.275 24.434C46.555 24.1633 46.8864 23.9533 47.269 23.804C47.661 23.6547 48.081 23.58 48.529 23.58C49.1077 23.58 49.6117 23.706 50.041 23.958C50.4797 24.2007 50.8157 24.546 51.049 24.994C51.2917 25.4327 51.413 25.9507 51.413 26.548V31H50.433L50.363 29.88C50.1577 30.2813 49.845 30.6033 49.425 30.846C49.0144 31.0887 48.5384 31.21 47.997 31.21ZM46.541 28.928C46.541 29.1987 46.611 29.4367 46.751 29.642C46.891 29.838 47.087 29.992 47.339 30.104C47.591 30.216 47.8804 30.272 48.207 30.272C48.6084 30.272 48.9677 30.1833 49.285 30.006C49.6117 29.8193 49.8684 29.572 50.055 29.264C50.2417 28.9467 50.335 28.5873 50.335 28.186V27.92C50.027 27.7987 49.7144 27.7053 49.397 27.64C49.089 27.5653 48.795 27.528 48.515 27.528C47.899 27.528 47.4137 27.654 47.059 27.906C46.7137 28.158 46.541 28.4987 46.541 28.928ZM53.0376 31V20.612H54.1576V31H53.0376ZM55.8337 31V20.612H56.9537V31H55.8337ZM61.4124 31V20.612H62.5324V25.05C62.7938 24.5927 63.1484 24.2333 63.5964 23.972C64.0538 23.7013 64.5671 23.566 65.1364 23.566C65.6124 23.566 66.0558 23.664 66.4664 23.86C66.8771 24.0467 67.2364 24.3127 67.5444 24.658C67.8524 25.0033 68.0904 25.4093 68.2584 25.876C68.4358 26.3333 68.5244 26.8327 68.5244 27.374C68.5244 27.9153 68.4358 28.4193 68.2584 28.886C68.0904 29.3527 67.8478 29.7587 67.5304 30.104C67.2224 30.4493 66.8584 30.72 66.4384 30.916C66.0184 31.112 65.5658 31.21 65.0804 31.21C64.5204 31.21 64.0118 31.0747 63.5544 30.804C63.0971 30.5333 62.7378 30.16 62.4764 29.684L62.4204 31H61.4124ZM64.9404 30.188C65.2951 30.188 65.6171 30.118 65.9064 29.978C66.2051 29.838 66.4618 29.6467 66.6764 29.404C66.9004 29.152 67.0731 28.858 67.1944 28.522C67.3158 28.1767 67.3764 27.7987 67.3764 27.388C67.3764 26.9773 67.3158 26.604 67.1944 26.268C67.0731 25.9227 66.9004 25.6287 66.6764 25.386C66.4618 25.134 66.2051 24.938 65.9064 24.798C65.6171 24.658 65.2951 24.588 64.9404 24.588C64.5858 24.588 64.2591 24.658 63.9604 24.798C63.6711 24.938 63.4144 25.134 63.1904 25.386C62.9758 25.6287 62.8078 25.9227 62.6864 26.268C62.5651 26.604 62.5044 26.9773 62.5044 27.388C62.5044 27.7987 62.5651 28.1767 62.6864 28.522C62.8078 28.858 62.9758 29.152 63.1904 29.404C63.4144 29.6467 63.6711 29.838 63.9604 29.978C64.2591 30.118 64.5858 30.188 64.9404 30.188ZM72.7814 31.21C72.1654 31.21 71.6334 31.0747 71.1854 30.804C70.7374 30.5333 70.3921 30.1507 70.1494 29.656C69.9067 29.152 69.7854 28.5547 69.7854 27.864V23.776H70.9054V27.878C70.9054 28.354 70.9801 28.7647 71.1294 29.11C71.2881 29.4553 71.5074 29.7213 71.7874 29.908C72.0767 30.0947 72.4174 30.188 72.8094 30.188C73.2014 30.188 73.5374 30.0947 73.8174 29.908C74.1067 29.7213 74.3261 29.4553 74.4754 29.11C74.6341 28.7647 74.7134 28.354 74.7134 27.878V23.776H75.8334V27.864C75.8334 28.536 75.7074 29.124 75.4554 29.628C75.2034 30.132 74.8487 30.524 74.3914 30.804C73.9341 31.0747 73.3974 31.21 72.7814 31.21ZM79.7457 31.21C79.3257 31.21 78.9291 31.14 78.5557 31C78.1917 30.86 77.8744 30.6593 77.6037 30.398C77.3331 30.1367 77.1277 29.8287 76.9877 29.474L77.9957 29.11C78.1824 29.4647 78.4251 29.74 78.7237 29.936C79.0224 30.132 79.3631 30.23 79.7457 30.23C80.0537 30.23 80.3244 30.1787 80.5577 30.076C80.7911 29.9733 80.9731 29.8333 81.1037 29.656C81.2344 29.4693 81.2997 29.264 81.2997 29.04C81.2997 28.4333 80.8611 28.0413 79.9837 27.864L79.4377 27.752C78.6724 27.6027 78.1077 27.36 77.7437 27.024C77.3797 26.6787 77.1977 26.2447 77.1977 25.722C77.1977 25.302 77.3051 24.9287 77.5197 24.602C77.7344 24.2753 78.0331 24.0233 78.4157 23.846C78.8077 23.6593 79.2511 23.566 79.7457 23.566C80.1564 23.566 80.5344 23.636 80.8797 23.776C81.2251 23.9067 81.5191 24.1027 81.7617 24.364C82.0137 24.6253 82.2051 24.9333 82.3357 25.288L81.3277 25.624C81.1784 25.2787 80.9637 25.0127 80.6837 24.826C80.4131 24.63 80.0957 24.532 79.7317 24.532C79.4517 24.532 79.2044 24.5787 78.9897 24.672C78.7844 24.7653 78.6211 24.8913 78.4997 25.05C78.3784 25.2087 78.3177 25.3953 78.3177 25.61C78.3177 25.9087 78.4297 26.1467 78.6537 26.324C78.8871 26.5013 79.2604 26.6413 79.7737 26.744L80.3197 26.856C81.0104 26.996 81.5377 27.2433 81.9017 27.598C82.2657 27.9433 82.4477 28.3867 82.4477 28.928C82.4477 29.264 82.3777 29.572 82.2377 29.852C82.1071 30.1227 81.9204 30.3607 81.6777 30.566C81.4444 30.7713 81.1597 30.93 80.8237 31.042C80.4971 31.154 80.1377 31.21 79.7457 31.21ZM84.9805 21.662C84.9805 21.802 84.9432 21.9327 84.8685 22.054C84.8032 22.166 84.7099 22.2593 84.5885 22.334C84.4765 22.3993 84.3505 22.432 84.2105 22.432C84.0705 22.432 83.9399 22.3993 83.8185 22.334C83.7065 22.2593 83.6132 22.166 83.5385 22.054C83.4732 21.9327 83.4405 21.802 83.4405 21.662C83.4405 21.522 83.4732 21.396 83.5385 21.284C83.6132 21.1627 83.7065 21.0693 83.8185 21.004C83.9399 20.9293 84.0705 20.892 84.2105 20.892C84.3505 20.892 84.4765 20.9293 84.5885 21.004C84.7099 21.0693 84.8032 21.1627 84.8685 21.284C84.9432 21.396 84.9805 21.522 84.9805 21.662ZM83.6505 31V23.776H84.7705V31H83.6505ZM86.4467 31V23.776H87.4547L87.5107 24.924C87.7254 24.5133 88.0334 24.1867 88.4347 23.944C88.8454 23.692 89.3167 23.566 89.8487 23.566C90.3994 23.566 90.8801 23.6967 91.2907 23.958C91.7014 24.2193 92.0141 24.5927 92.2287 25.078C92.4527 25.554 92.5647 26.1187 92.5647 26.772V31H91.4447V26.842C91.4447 26.1233 91.2861 25.568 90.9687 25.176C90.6607 24.784 90.2174 24.588 89.6387 24.588C89.2374 24.588 88.8781 24.6813 88.5607 24.868C88.2527 25.0453 88.0101 25.2973 87.8327 25.624C87.6554 25.9413 87.5667 26.3053 87.5667 26.716V31H86.4467ZM97.4681 31.21C96.9361 31.21 96.4461 31.1167 95.9981 30.93C95.5594 30.7433 95.1768 30.482 94.8501 30.146C94.5234 29.8007 94.2714 29.3993 94.0941 28.942C93.9168 28.4753 93.8281 27.962 93.8281 27.402C93.8281 26.8513 93.9121 26.3473 94.0801 25.89C94.2574 25.4233 94.5001 25.0173 94.8081 24.672C95.1254 24.3267 95.4941 24.0607 95.9141 23.874C96.3341 23.678 96.7914 23.58 97.2861 23.58C97.7621 23.58 98.2008 23.6687 98.6021 23.846C99.0128 24.0233 99.3674 24.2707 99.6661 24.588C99.9648 24.9053 100.193 25.2833 100.352 25.722C100.52 26.1607 100.604 26.6367 100.604 27.15V27.612H94.9901C95.0274 28.1347 95.1488 28.592 95.3541 28.984C95.5688 29.376 95.8534 29.6793 96.2081 29.894C96.5628 30.1087 96.9734 30.216 97.4401 30.216C97.8974 30.216 98.2941 30.1227 98.6301 29.936C98.9754 29.74 99.2694 29.4553 99.5121 29.082L100.464 29.516C100.277 29.8707 100.035 30.174 99.7361 30.426C99.4374 30.678 99.0921 30.8693 98.7001 31C98.3174 31.14 97.9068 31.21 97.4681 31.21ZM97.2861 24.532C96.9034 24.532 96.5534 24.6253 96.2361 24.812C95.9281 24.9987 95.6668 25.26 95.4521 25.596C95.2468 25.9227 95.1114 26.3053 95.0461 26.744H99.4281C99.3908 26.3053 99.2741 25.9227 99.0781 25.596C98.8821 25.26 98.6301 24.9987 98.3221 24.812C98.0141 24.6253 97.6688 24.532 97.2861 24.532ZM104.233 31.21C103.813 31.21 103.417 31.14 103.043 31C102.679 30.86 102.362 30.6593 102.091 30.398C101.821 30.1367 101.615 29.8287 101.475 29.474L102.483 29.11C102.67 29.4647 102.913 29.74 103.211 29.936C103.51 30.132 103.851 30.23 104.233 30.23C104.541 30.23 104.812 30.1787 105.045 30.076C105.279 29.9733 105.461 29.8333 105.591 29.656C105.722 29.4693 105.787 29.264 105.787 29.04C105.787 28.4333 105.349 28.0413 104.471 27.864L103.925 27.752C103.16 27.6027 102.595 27.36 102.231 27.024C101.867 26.6787 101.685 26.2447 101.685 25.722C101.685 25.302 101.793 24.9287 102.007 24.602C102.222 24.2753 102.521 24.0233 102.903 23.846C103.295 23.6593 103.739 23.566 104.233 23.566C104.644 23.566 105.022 23.636 105.367 23.776C105.713 23.9067 106.007 24.1027 106.249 24.364C106.501 24.6253 106.693 24.9333 106.823 25.288L105.815 25.624C105.666 25.2787 105.451 25.0127 105.171 24.826C104.901 24.63 104.583 24.532 104.219 24.532C103.939 24.532 103.692 24.5787 103.477 24.672C103.272 24.7653 103.109 24.8913 102.987 25.05C102.866 25.2087 102.805 25.3953 102.805 25.61C102.805 25.9087 102.917 26.1467 103.141 26.324C103.375 26.5013 103.748 26.6413 104.261 26.744L104.807 26.856C105.498 26.996 106.025 27.2433 106.389 27.598C106.753 27.9433 106.935 28.3867 106.935 28.928C106.935 29.264 106.865 29.572 106.725 29.852C106.595 30.1227 106.408 30.3607 106.165 30.566C105.932 30.7713 105.647 30.93 105.311 31.042C104.985 31.154 104.625 31.21 104.233 31.21ZM110.42 31.21C110 31.21 109.603 31.14 109.23 31C108.866 30.86 108.549 30.6593 108.278 30.398C108.007 30.1367 107.802 29.8287 107.662 29.474L108.67 29.11C108.857 29.4647 109.099 29.74 109.398 29.936C109.697 30.132 110.037 30.23 110.42 30.23C110.728 30.23 110.999 30.1787 111.232 30.076C111.465 29.9733 111.647 29.8333 111.778 29.656C111.909 29.4693 111.974 29.264 111.974 29.04C111.974 28.4333 111.535 28.0413 110.658 27.864L110.112 27.752C109.347 27.6027 108.782 27.36 108.418 27.024C108.054 26.6787 107.872 26.2447 107.872 25.722C107.872 25.302 107.979 24.9287 108.194 24.602C108.409 24.2753 108.707 24.0233 109.09 23.846C109.482 23.6593 109.925 23.566 110.42 23.566C110.831 23.566 111.209 23.636 111.554 23.776C111.899 23.9067 112.193 24.1027 112.436 24.364C112.688 24.6253 112.879 24.9333 113.01 25.288L112.002 25.624C111.853 25.2787 111.638 25.0127 111.358 24.826C111.087 24.63 110.77 24.532 110.406 24.532C110.126 24.532 109.879 24.5787 109.664 24.672C109.459 24.7653 109.295 24.8913 109.174 25.05C109.053 25.2087 108.992 25.3953 108.992 25.61C108.992 25.9087 109.104 26.1467 109.328 26.324C109.561 26.5013 109.935 26.6413 110.448 26.744L110.994 26.856C111.685 26.996 112.212 27.2433 112.576 27.598C112.94 27.9433 113.122 28.3867 113.122 28.928C113.122 29.264 113.052 29.572 112.912 29.852C112.781 30.1227 112.595 30.3607 112.352 30.566C112.119 30.7713 111.834 30.93 111.498 31.042C111.171 31.154 110.812 31.21 110.42 31.21ZM117.601 31.21C117.069 31.21 116.579 31.1167 116.131 30.93C115.692 30.7433 115.309 30.482 114.983 30.146C114.656 29.8007 114.404 29.3993 114.227 28.942C114.049 28.4753 113.961 27.962 113.961 27.402C113.961 26.8513 114.045 26.3473 114.213 25.89C114.39 25.4233 114.633 25.0173 114.941 24.672C115.258 24.3267 115.627 24.0607 116.047 23.874C116.467 23.678 116.924 23.58 117.419 23.58C117.895 23.58 118.333 23.6687 118.735 23.846C119.145 24.0233 119.5 24.2707 119.799 24.588C120.097 24.9053 120.326 25.2833 120.485 25.722C120.653 26.1607 120.737 26.6367 120.737 27.15V27.612H115.123C115.16 28.1347 115.281 28.592 115.487 28.984C115.701 29.376 115.986 29.6793 116.341 29.894C116.695 30.1087 117.106 30.216 117.573 30.216C118.03 30.216 118.427 30.1227 118.763 29.936C119.108 29.74 119.402 29.4553 119.645 29.082L120.597 29.516C120.41 29.8707 120.167 30.174 119.869 30.426C119.57 30.678 119.225 30.8693 118.833 31C118.45 31.14 118.039 31.21 117.601 31.21ZM117.419 24.532C117.036 24.532 116.686 24.6253 116.369 24.812C116.061 24.9987 115.799 25.26 115.585 25.596C115.379 25.9227 115.244 26.3053 115.179 26.744H119.561C119.523 26.3053 119.407 25.9227 119.211 25.596C119.015 25.26 118.763 24.9987 118.455 24.812C118.147 24.6253 117.801 24.532 117.419 24.532ZM124.366 31.21C123.946 31.21 123.549 31.14 123.176 31C122.812 30.86 122.494 30.6593 122.224 30.398C121.953 30.1367 121.748 29.8287 121.608 29.474L122.616 29.11C122.802 29.4647 123.045 29.74 123.344 29.936C123.642 30.132 123.983 30.23 124.366 30.23C124.674 30.23 124.944 30.1787 125.178 30.076C125.411 29.9733 125.593 29.8333 125.724 29.656C125.854 29.4693 125.92 29.264 125.92 29.04C125.92 28.4333 125.481 28.0413 124.604 27.864L124.058 27.752C123.292 27.6027 122.728 27.36 122.364 27.024C122 26.6787 121.818 26.2447 121.818 25.722C121.818 25.302 121.925 24.9287 122.14 24.602C122.354 24.2753 122.653 24.0233 123.036 23.846C123.428 23.6593 123.871 23.566 124.366 23.566C124.776 23.566 125.154 23.636 125.5 23.776C125.845 23.9067 126.139 24.1027 126.382 24.364C126.634 24.6253 126.825 24.9333 126.956 25.288L125.948 25.624C125.798 25.2787 125.584 25.0127 125.304 24.826C125.033 24.63 124.716 24.532 124.352 24.532C124.072 24.532 123.824 24.5787 123.61 24.672C123.404 24.7653 123.241 24.8913 123.12 25.05C122.998 25.2087 122.938 25.3953 122.938 25.61C122.938 25.9087 123.05 26.1467 123.274 26.324C123.507 26.5013 123.88 26.6413 124.394 26.744L124.94 26.856C125.63 26.996 126.158 27.2433 126.522 27.598C126.886 27.9433 127.068 28.3867 127.068 28.928C127.068 29.264 126.998 29.572 126.858 29.852C126.727 30.1227 126.54 30.3607 126.298 30.566C126.064 30.7713 125.78 30.93 125.444 31.042C125.117 31.154 124.758 31.21 124.366 31.21ZM134.035 30.93C133.559 30.93 133.116 30.8367 132.705 30.65C132.304 30.4633 131.949 30.2067 131.641 29.88C131.342 29.544 131.109 29.152 130.941 28.704C130.773 28.256 130.689 27.7753 130.689 27.262C130.689 26.7393 130.773 26.254 130.941 25.806C131.118 25.358 131.361 24.966 131.669 24.63C131.977 24.294 132.336 24.0327 132.747 23.846C133.167 23.6593 133.615 23.566 134.091 23.566C134.642 23.566 135.141 23.6967 135.589 23.958C136.046 24.2193 136.401 24.5787 136.653 25.036L136.709 23.776H137.717V30.384C137.717 30.9347 137.633 31.434 137.465 31.882C137.297 32.3393 137.059 32.7313 136.751 33.058C136.443 33.3847 136.074 33.632 135.645 33.8C135.216 33.9773 134.74 34.066 134.217 34.066C133.76 34.066 133.33 33.996 132.929 33.856C132.528 33.7253 132.168 33.5293 131.851 33.268C131.543 33.016 131.286 32.7127 131.081 32.358L132.019 31.882C132.29 32.274 132.607 32.5727 132.971 32.778C133.344 32.9927 133.76 33.1 134.217 33.1C134.702 33.1 135.122 32.988 135.477 32.764C135.841 32.5493 136.116 32.2413 136.303 31.84C136.499 31.4387 136.597 30.9673 136.597 30.426V29.502C136.336 29.95 135.981 30.3 135.533 30.552C135.085 30.804 134.586 30.93 134.035 30.93ZM134.231 29.908C134.576 29.908 134.894 29.8427 135.183 29.712C135.482 29.5813 135.738 29.3993 135.953 29.166C136.168 28.9233 136.331 28.6387 136.443 28.312C136.564 27.9853 136.625 27.6307 136.625 27.248C136.625 26.8653 136.564 26.5107 136.443 26.184C136.331 25.8573 136.168 25.5773 135.953 25.344C135.738 25.1013 135.482 24.9147 135.183 24.784C134.894 24.6533 134.576 24.588 134.231 24.588C133.886 24.588 133.564 24.6533 133.265 24.784C132.976 24.9147 132.724 25.1013 132.509 25.344C132.294 25.5773 132.126 25.8573 132.005 26.184C131.893 26.5107 131.837 26.8653 131.837 27.248C131.837 27.6307 131.893 27.9853 132.005 28.312C132.126 28.6387 132.294 28.9233 132.509 29.166C132.724 29.3993 132.976 29.5813 133.265 29.712C133.564 29.8427 133.886 29.908 134.231 29.908ZM139.4 31V23.776H140.408L140.478 25.12C140.655 24.672 140.921 24.322 141.276 24.07C141.631 23.8087 142.046 23.678 142.522 23.678C142.681 23.678 142.821 23.692 142.942 23.72C143.073 23.7387 143.185 23.7667 143.278 23.804L143.138 24.868C143.035 24.8307 142.928 24.8073 142.816 24.798C142.704 24.7793 142.592 24.77 142.48 24.77C142.088 24.77 141.743 24.868 141.444 25.064C141.155 25.26 140.926 25.54 140.758 25.904C140.599 26.2587 140.52 26.6787 140.52 27.164V31H139.4ZM147.316 31.21C146.803 31.21 146.327 31.1167 145.888 30.93C145.459 30.734 145.081 30.468 144.754 30.132C144.437 29.7867 144.19 29.3807 144.012 28.914C143.835 28.4473 143.746 27.9387 143.746 27.388C143.746 26.8373 143.835 26.3287 144.012 25.862C144.199 25.3953 144.451 24.994 144.768 24.658C145.095 24.3127 145.478 24.0467 145.916 23.86C146.355 23.664 146.831 23.566 147.344 23.566C147.858 23.566 148.329 23.664 148.758 23.86C149.197 24.0467 149.575 24.3127 149.892 24.658C150.219 24.994 150.471 25.3953 150.648 25.862C150.826 26.3287 150.914 26.8373 150.914 27.388C150.914 27.9387 150.821 28.4473 150.634 28.914C150.457 29.3807 150.205 29.7867 149.878 30.132C149.561 30.468 149.183 30.734 148.744 30.93C148.306 31.1167 147.83 31.21 147.316 31.21ZM147.33 30.188C147.685 30.188 148.007 30.118 148.296 29.978C148.595 29.838 148.852 29.6467 149.066 29.404C149.29 29.152 149.463 28.858 149.584 28.522C149.706 28.1767 149.766 27.7987 149.766 27.388C149.766 26.9773 149.706 26.604 149.584 26.268C149.463 25.9227 149.29 25.6287 149.066 25.386C148.852 25.134 148.595 24.938 148.296 24.798C148.007 24.658 147.685 24.588 147.33 24.588C146.976 24.588 146.649 24.658 146.35 24.798C146.061 24.938 145.804 25.134 145.58 25.386C145.366 25.6287 145.198 25.9227 145.076 26.268C144.955 26.604 144.894 26.9773 144.894 27.388C144.894 27.7987 144.955 28.1767 145.076 28.522C145.198 28.858 145.366 29.152 145.58 29.404C145.804 29.6467 146.061 29.838 146.35 29.978C146.649 30.118 146.976 30.188 147.33 30.188ZM153.769 31L151.333 23.776H152.509L154.315 29.628L156.177 23.776H157.185L159.033 29.628L160.839 23.776H161.987L159.551 31H158.473L156.667 25.218L154.847 31H153.769ZM167.05 21.662C167.05 21.802 167.012 21.9327 166.938 22.054C166.872 22.166 166.779 22.2593 166.658 22.334C166.546 22.3993 166.42 22.432 166.28 22.432C166.14 22.432 166.009 22.3993 165.888 22.334C165.776 22.2593 165.682 22.166 165.608 22.054C165.542 21.9327 165.51 21.802 165.51 21.662C165.51 21.522 165.542 21.396 165.608 21.284C165.682 21.1627 165.776 21.0693 165.888 21.004C166.009 20.9293 166.14 20.892 166.28 20.892C166.42 20.892 166.546 20.9293 166.658 21.004C166.779 21.0693 166.872 21.1627 166.938 21.284C167.012 21.396 167.05 21.522 167.05 21.662ZM165.72 31V23.776H166.84V31H165.72ZM168.516 31V23.776H169.524L169.58 24.924C169.794 24.5133 170.102 24.1867 170.504 23.944C170.914 23.692 171.386 23.566 171.918 23.566C172.468 23.566 172.949 23.6967 173.36 23.958C173.77 24.2193 174.083 24.5927 174.298 25.078C174.522 25.554 174.634 26.1187 174.634 26.772V31H173.514V26.842C173.514 26.1233 173.355 25.568 173.038 25.176C172.73 24.784 172.286 24.588 171.708 24.588C171.306 24.588 170.947 24.6813 170.63 24.868C170.322 25.0453 170.079 25.2973 169.902 25.624C169.724 25.9413 169.636 26.3053 169.636 26.716V31H168.516ZM178.758 31.21C178.319 31.21 177.941 31.1213 177.624 30.944C177.307 30.7667 177.059 30.5053 176.882 30.16C176.714 29.8147 176.63 29.3947 176.63 28.9V24.728H175.3V23.776H176.63V21.354H177.75V23.776H180.018V24.728H177.75V28.844C177.75 29.2733 177.839 29.6093 178.016 29.852C178.203 30.0853 178.483 30.202 178.856 30.202C179.052 30.202 179.248 30.174 179.444 30.118C179.649 30.0527 179.831 29.9687 179.99 29.866L180.326 30.734C180.13 30.874 179.901 30.986 179.64 31.07C179.379 31.1633 179.085 31.21 178.758 31.21ZM184.56 31.21C184.047 31.21 183.571 31.1167 183.132 30.93C182.703 30.734 182.325 30.468 181.998 30.132C181.681 29.7867 181.433 29.3807 181.256 28.914C181.079 28.4473 180.99 27.9387 180.99 27.388C180.99 26.8373 181.079 26.3287 181.256 25.862C181.443 25.3953 181.695 24.994 182.012 24.658C182.339 24.3127 182.721 24.0467 183.16 23.86C183.599 23.664 184.075 23.566 184.588 23.566C185.101 23.566 185.573 23.664 186.002 23.86C186.441 24.0467 186.819 24.3127 187.136 24.658C187.463 24.994 187.715 25.3953 187.892 25.862C188.069 26.3287 188.158 26.8373 188.158 27.388C188.158 27.9387 188.065 28.4473 187.878 28.914C187.701 29.3807 187.449 29.7867 187.122 30.132C186.805 30.468 186.427 30.734 185.988 30.93C185.549 31.1167 185.073 31.21 184.56 31.21ZM184.574 30.188C184.929 30.188 185.251 30.118 185.54 29.978C185.839 29.838 186.095 29.6467 186.31 29.404C186.534 29.152 186.707 28.858 186.828 28.522C186.949 28.1767 187.01 27.7987 187.01 27.388C187.01 26.9773 186.949 26.604 186.828 26.268C186.707 25.9227 186.534 25.6287 186.31 25.386C186.095 25.134 185.839 24.938 185.54 24.798C185.251 24.658 184.929 24.588 184.574 24.588C184.219 24.588 183.893 24.658 183.594 24.798C183.305 24.938 183.048 25.134 182.824 25.386C182.609 25.6287 182.441 25.9227 182.32 26.268C182.199 26.604 182.138 26.9773 182.138 27.388C182.138 27.7987 182.199 28.1767 182.32 28.522C182.441 28.858 182.609 29.152 182.824 29.404C183.048 29.6467 183.305 29.838 183.594 29.978C183.893 30.118 184.219 30.188 184.574 30.188ZM194.491 31.21C193.987 31.21 193.539 31.1167 193.147 30.93C192.755 30.734 192.447 30.468 192.223 30.132C192.009 29.796 191.901 29.4087 191.901 28.97C191.901 28.494 192.023 28.0833 192.265 27.738C192.517 27.3927 192.867 27.1267 193.315 26.94C193.763 26.744 194.286 26.646 194.883 26.646C195.219 26.646 195.56 26.6833 195.905 26.758C196.251 26.8327 196.559 26.9307 196.829 27.052V26.52C196.829 26.128 196.75 25.7873 196.591 25.498C196.442 25.1993 196.232 24.9707 195.961 24.812C195.691 24.644 195.373 24.56 195.009 24.56C194.571 24.56 194.188 24.6627 193.861 24.868C193.544 25.0733 193.306 25.3627 193.147 25.736L192.167 25.4C192.298 25.0267 192.499 24.7047 192.769 24.434C193.049 24.1633 193.381 23.9533 193.763 23.804C194.155 23.6547 194.575 23.58 195.023 23.58C195.602 23.58 196.106 23.706 196.535 23.958C196.974 24.2007 197.31 24.546 197.543 24.994C197.786 25.4327 197.907 25.9507 197.907 26.548V31H196.927L196.857 29.88C196.652 30.2813 196.339 30.6033 195.919 30.846C195.509 31.0887 195.033 31.21 194.491 31.21ZM193.035 28.928C193.035 29.1987 193.105 29.4367 193.245 29.642C193.385 29.838 193.581 29.992 193.833 30.104C194.085 30.216 194.375 30.272 194.701 30.272C195.103 30.272 195.462 30.1833 195.779 30.006C196.106 29.8193 196.363 29.572 196.549 29.264C196.736 28.9467 196.829 28.5873 196.829 28.186V27.92C196.521 27.7987 196.209 27.7053 195.891 27.64C195.583 27.5653 195.289 27.528 195.009 27.528C194.393 27.528 193.908 27.654 193.553 27.906C193.208 28.158 193.035 28.4987 193.035 28.928ZM199.532 31V23.776H200.54L200.596 24.924C200.81 24.5133 201.118 24.1867 201.52 23.944C201.93 23.692 202.402 23.566 202.934 23.566C203.484 23.566 203.965 23.6967 204.376 23.958C204.786 24.2193 205.099 24.5927 205.314 25.078C205.538 25.554 205.65 26.1187 205.65 26.772V31H204.53V26.842C204.53 26.1233 204.371 25.568 204.054 25.176C203.746 24.784 203.302 24.588 202.724 24.588C202.322 24.588 201.963 24.6813 201.646 24.868C201.338 25.0453 201.095 25.2973 200.918 25.624C200.74 25.9413 200.652 26.3053 200.652 26.716V31H199.532ZM212.3 31.21C211.796 31.21 211.348 31.1167 210.956 30.93C210.564 30.734 210.256 30.468 210.032 30.132C209.817 29.796 209.71 29.4087 209.71 28.97C209.71 28.494 209.831 28.0833 210.074 27.738C210.326 27.3927 210.676 27.1267 211.124 26.94C211.572 26.744 212.094 26.646 212.692 26.646C213.028 26.646 213.368 26.6833 213.714 26.758C214.059 26.8327 214.367 26.9307 214.638 27.052V26.52C214.638 26.128 214.558 25.7873 214.4 25.498C214.25 25.1993 214.04 24.9707 213.77 24.812C213.499 24.644 213.182 24.56 212.818 24.56C212.379 24.56 211.996 24.6627 211.67 24.868C211.352 25.0733 211.114 25.3627 210.956 25.736L209.976 25.4C210.106 25.0267 210.307 24.7047 210.578 24.434C210.858 24.1633 211.189 23.9533 211.572 23.804C211.964 23.6547 212.384 23.58 212.832 23.58C213.41 23.58 213.914 23.706 214.344 23.958C214.782 24.2007 215.118 24.546 215.352 24.994C215.594 25.4327 215.716 25.9507 215.716 26.548V31H214.736L214.666 29.88C214.46 30.2813 214.148 30.6033 213.728 30.846C213.317 31.0887 212.841 31.21 212.3 31.21ZM210.844 28.928C210.844 29.1987 210.914 29.4367 211.054 29.642C211.194 29.838 211.39 29.992 211.642 30.104C211.894 30.216 212.183 30.272 212.51 30.272C212.911 30.272 213.27 30.1833 213.588 30.006C213.914 29.8193 214.171 29.572 214.358 29.264C214.544 28.9467 214.638 28.5873 214.638 28.186V27.92C214.33 27.7987 214.017 27.7053 213.7 27.64C213.392 27.5653 213.098 27.528 212.818 27.528C212.202 27.528 211.716 27.654 211.362 27.906C211.016 28.158 210.844 28.4987 210.844 28.928ZM217.34 31V20.612H218.46V31H217.34ZM220.136 31V20.612H221.256V31H220.136ZM222.638 27.654V26.632H226.488V27.654H222.638ZM2.31 41.662C2.31 41.802 2.27267 41.9327 2.198 42.054C2.13267 42.166 2.03933 42.2593 1.918 42.334C1.806 42.3993 1.68 42.432 1.54 42.432C1.4 42.432 1.26933 42.3993 1.148 42.334C1.036 42.2593 0.942667 42.166 0.868 42.054C0.802667 41.9327 0.77 41.802 0.77 41.662C0.77 41.522 0.802667 41.396 0.868 41.284C0.942667 41.1627 1.036 41.0693 1.148 41.004C1.26933 40.9293 1.4 40.892 1.54 40.892C1.68 40.892 1.806 40.9293 1.918 41.004C2.03933 41.0693 2.13267 41.1627 2.198 41.284C2.27267 41.396 2.31 41.522 2.31 41.662ZM0.98 51V43.776H2.1V51H0.98ZM3.77617 51V43.776H4.78417L4.84017 44.924C5.05484 44.5133 5.36284 44.1867 5.76417 43.944C6.17484 43.692 6.64617 43.566 7.17817 43.566C7.72884 43.566 8.20951 43.6967 8.62017 43.958C9.03084 44.2193 9.34351 44.5927 9.55817 45.078C9.78217 45.554 9.89417 46.1187 9.89417 46.772V51H8.77417V46.842C8.77417 46.1233 8.61551 45.568 8.29817 45.176C7.99017 44.784 7.54684 44.588 6.96817 44.588C6.56684 44.588 6.20751 44.6813 5.89017 44.868C5.58217 45.0453 5.33951 45.2973 5.16217 45.624C4.98484 45.9413 4.89617 46.3053 4.89617 46.716V51H3.77617ZM14.6296 51.21C14.1349 51.21 13.6776 51.1167 13.2576 50.93C12.8376 50.7433 12.4689 50.482 12.1516 50.146C11.8342 49.8007 11.5869 49.3993 11.4096 48.942C11.2416 48.4847 11.1576 47.9853 11.1576 47.444C11.1576 46.9027 11.2462 46.3987 11.4236 45.932C11.6009 45.456 11.8482 45.0407 12.1656 44.686C12.4829 44.3313 12.8562 44.056 13.2856 43.86C13.7149 43.664 14.1816 43.566 14.6856 43.566C15.1522 43.566 15.5722 43.65 15.9456 43.818C16.3282 43.986 16.6549 44.2147 16.9256 44.504C17.2056 44.7933 17.4202 45.1247 17.5696 45.498L16.5476 45.848C16.3422 45.456 16.0762 45.148 15.7496 44.924C15.4229 44.7 15.0542 44.588 14.6436 44.588C14.3076 44.588 13.9996 44.6627 13.7196 44.812C13.4396 44.952 13.1922 45.148 12.9776 45.4C12.7629 45.652 12.5949 45.9553 12.4736 46.31C12.3616 46.6553 12.3056 47.0287 12.3056 47.43C12.3056 47.8313 12.3616 48.2 12.4736 48.536C12.5949 48.872 12.7582 49.166 12.9636 49.418C13.1689 49.6607 13.4116 49.852 13.6916 49.992C13.9809 50.1227 14.2936 50.188 14.6296 50.188C15.0589 50.188 15.4509 50.0807 15.8056 49.866C16.1696 49.642 16.4449 49.334 16.6316 48.942L17.6536 49.292C17.5042 49.684 17.2756 50.0247 16.9676 50.314C16.6689 50.594 16.3142 50.8133 15.9036 50.972C15.5022 51.1307 15.0776 51.21 14.6296 51.21ZM18.8841 51V40.612H20.0041V51H18.8841ZM24.6203 51.21C24.0043 51.21 23.4723 51.0747 23.0243 50.804C22.5763 50.5333 22.231 50.1507 21.9883 49.656C21.7456 49.152 21.6243 48.5547 21.6243 47.864V43.776H22.7443V47.878C22.7443 48.354 22.819 48.7647 22.9683 49.11C23.127 49.4553 23.3463 49.7213 23.6263 49.908C23.9156 50.0947 24.2563 50.188 24.6483 50.188C25.0403 50.188 25.3763 50.0947 25.6563 49.908C25.9456 49.7213 26.165 49.4553 26.3143 49.11C26.473 48.7647 26.5523 48.354 26.5523 47.878V43.776H27.6723V47.864C27.6723 48.536 27.5463 49.124 27.2943 49.628C27.0423 50.132 26.6876 50.524 26.2303 50.804C25.773 51.0747 25.2363 51.21 24.6203 51.21ZM31.5847 51.21C31.1647 51.21 30.768 51.14 30.3947 51C30.0307 50.86 29.7133 50.6593 29.4427 50.398C29.172 50.1367 28.9667 49.8287 28.8267 49.474L29.8347 49.11C30.0213 49.4647 30.264 49.74 30.5627 49.936C30.8613 50.132 31.202 50.23 31.5847 50.23C31.8927 50.23 32.1633 50.1787 32.3967 50.076C32.63 49.9733 32.812 49.8333 32.9427 49.656C33.0733 49.4693 33.1387 49.264 33.1387 49.04C33.1387 48.4333 32.7 48.0413 31.8227 47.864L31.2767 47.752C30.5113 47.6027 29.9467 47.36 29.5827 47.024C29.2187 46.6787 29.0367 46.2447 29.0367 45.722C29.0367 45.302 29.144 44.9287 29.3587 44.602C29.5733 44.2753 29.872 44.0233 30.2547 43.846C30.6467 43.6593 31.09 43.566 31.5847 43.566C31.9953 43.566 32.3733 43.636 32.7187 43.776C33.064 43.9067 33.358 44.1027 33.6007 44.364C33.8527 44.6253 34.044 44.9333 34.1747 45.288L33.1667 45.624C33.0173 45.2787 32.8027 45.0127 32.5227 44.826C32.252 44.63 31.9347 44.532 31.5707 44.532C31.2907 44.532 31.0433 44.5787 30.8287 44.672C30.6233 44.7653 30.46 44.8913 30.3387 45.05C30.2173 45.2087 30.1567 45.3953 30.1567 45.61C30.1567 45.9087 30.2687 46.1467 30.4927 46.324C30.726 46.5013 31.0993 46.6413 31.6127 46.744L32.1587 46.856C32.8493 46.996 33.3767 47.2433 33.7407 47.598C34.1047 47.9433 34.2867 48.3867 34.2867 48.928C34.2867 49.264 34.2167 49.572 34.0767 49.852C33.946 50.1227 33.7593 50.3607 33.5167 50.566C33.2833 50.7713 32.9987 50.93 32.6627 51.042C32.336 51.154 31.9767 51.21 31.5847 51.21ZM36.8195 41.662C36.8195 41.802 36.7821 41.9327 36.7075 42.054C36.6421 42.166 36.5488 42.2593 36.4275 42.334C36.3155 42.3993 36.1895 42.432 36.0495 42.432C35.9095 42.432 35.7788 42.3993 35.6575 42.334C35.5455 42.2593 35.4521 42.166 35.3775 42.054C35.3121 41.9327 35.2795 41.802 35.2795 41.662C35.2795 41.522 35.3121 41.396 35.3775 41.284C35.4521 41.1627 35.5455 41.0693 35.6575 41.004C35.7788 40.9293 35.9095 40.892 36.0495 40.892C36.1895 40.892 36.3155 40.9293 36.4275 41.004C36.5488 41.0693 36.6421 41.1627 36.7075 41.284C36.7821 41.396 36.8195 41.522 36.8195 41.662ZM35.4895 51V43.776H36.6095V51H35.4895ZM40.3856 51L37.5576 43.776H38.7896L40.9876 49.796L43.1856 43.776H44.3756L41.5476 51H40.3856ZM48.4457 51.21C47.9137 51.21 47.4237 51.1167 46.9757 50.93C46.537 50.7433 46.1544 50.482 45.8277 50.146C45.501 49.8007 45.249 49.3993 45.0717 48.942C44.8944 48.4753 44.8057 47.962 44.8057 47.402C44.8057 46.8513 44.8897 46.3473 45.0577 45.89C45.235 45.4233 45.4777 45.0173 45.7857 44.672C46.103 44.3267 46.4717 44.0607 46.8917 43.874C47.3117 43.678 47.769 43.58 48.2637 43.58C48.7397 43.58 49.1784 43.6687 49.5797 43.846C49.9904 44.0233 50.345 44.2707 50.6437 44.588C50.9424 44.9053 51.171 45.2833 51.3297 45.722C51.4977 46.1607 51.5817 46.6367 51.5817 47.15V47.612H45.9677C46.005 48.1347 46.1264 48.592 46.3317 48.984C46.5464 49.376 46.831 49.6793 47.1857 49.894C47.5404 50.1087 47.951 50.216 48.4177 50.216C48.875 50.216 49.2717 50.1227 49.6077 49.936C49.953 49.74 50.247 49.4553 50.4897 49.082L51.4417 49.516C51.255 49.8707 51.0124 50.174 50.7137 50.426C50.415 50.678 50.0697 50.8693 49.6777 51C49.295 51.14 48.8844 51.21 48.4457 51.21ZM48.2637 44.532C47.881 44.532 47.531 44.6253 47.2137 44.812C46.9057 44.9987 46.6444 45.26 46.4297 45.596C46.2244 45.9227 46.089 46.3053 46.0237 46.744H50.4057C50.3684 46.3053 50.2517 45.9227 50.0557 45.596C49.8597 45.26 49.6077 44.9987 49.2997 44.812C48.9917 44.6253 48.6464 44.532 48.2637 44.532ZM55.6839 51V40.612H56.8039V45.05C57.0652 44.5927 57.4199 44.2333 57.8679 43.972C58.3252 43.7013 58.8386 43.566 59.4079 43.566C59.8839 43.566 60.3272 43.664 60.7379 43.86C61.1486 44.0467 61.5079 44.3127 61.8159 44.658C62.1239 45.0033 62.3619 45.4093 62.5299 45.876C62.7072 46.3333 62.7959 46.8327 62.7959 47.374C62.7959 47.9153 62.7072 48.4193 62.5299 48.886C62.3619 49.3527 62.1192 49.7587 61.8019 50.104C61.4939 50.4493 61.1299 50.72 60.7099 50.916C60.2899 51.112 59.8372 51.21 59.3519 51.21C58.7919 51.21 58.2832 51.0747 57.8259 50.804C57.3686 50.5333 57.0092 50.16 56.7479 49.684L56.6919 51H55.6839ZM59.2119 50.188C59.5666 50.188 59.8886 50.118 60.1779 49.978C60.4766 49.838 60.7332 49.6467 60.9479 49.404C61.1719 49.152 61.3446 48.858 61.4659 48.522C61.5872 48.1767 61.6479 47.7987 61.6479 47.388C61.6479 46.9773 61.5872 46.604 61.4659 46.268C61.3446 45.9227 61.1719 45.6287 60.9479 45.386C60.7332 45.134 60.4766 44.938 60.1779 44.798C59.8886 44.658 59.5666 44.588 59.2119 44.588C58.8572 44.588 58.5306 44.658 58.2319 44.798C57.9426 44.938 57.6859 45.134 57.4619 45.386C57.2472 45.6287 57.0792 45.9227 56.9579 46.268C56.8366 46.604 56.7759 46.9773 56.7759 47.388C56.7759 47.7987 56.8366 48.1767 56.9579 48.522C57.0792 48.858 57.2472 49.152 57.4619 49.404C57.6859 49.6467 57.9426 49.838 58.2319 49.978C58.5306 50.118 58.8572 50.188 59.2119 50.188ZM66.3529 51.21C65.8489 51.21 65.4009 51.1167 65.0089 50.93C64.6169 50.734 64.3089 50.468 64.0849 50.132C63.8702 49.796 63.7629 49.4087 63.7629 48.97C63.7629 48.494 63.8842 48.0833 64.1269 47.738C64.3789 47.3927 64.7289 47.1267 65.1769 46.94C65.6249 46.744 66.1476 46.646 66.7449 46.646C67.0809 46.646 67.4216 46.6833 67.7669 46.758C68.1122 46.8327 68.4202 46.9307 68.6909 47.052V46.52C68.6909 46.128 68.6116 45.7873 68.4529 45.498C68.3036 45.1993 68.0936 44.9707 67.8229 44.812C67.5522 44.644 67.2349 44.56 66.8709 44.56C66.4322 44.56 66.0496 44.6627 65.7229 44.868C65.4056 45.0733 65.1676 45.3627 65.0089 45.736L64.0289 45.4C64.1596 45.0267 64.3602 44.7047 64.6309 44.434C64.9109 44.1633 65.2422 43.9533 65.6249 43.804C66.0169 43.6547 66.4369 43.58 66.8849 43.58C67.4636 43.58 67.9676 43.706 68.3969 43.958C68.8356 44.2007 69.1716 44.546 69.4049 44.994C69.6476 45.4327 69.7689 45.9507 69.7689 46.548V51H68.7889L68.7189 49.88C68.5136 50.2813 68.2009 50.6033 67.7809 50.846C67.3702 51.0887 66.8942 51.21 66.3529 51.21ZM64.8969 48.928C64.8969 49.1987 64.9669 49.4367 65.1069 49.642C65.2469 49.838 65.4429 49.992 65.6949 50.104C65.9469 50.216 66.2362 50.272 66.5629 50.272C66.9642 50.272 67.3236 50.1833 67.6409 50.006C67.9676 49.8193 68.2242 49.572 68.4109 49.264C68.5976 48.9467 68.6909 48.5873 68.6909 48.186V47.92C68.3829 47.7987 68.0702 47.7053 67.7529 47.64C67.4449 47.5653 67.1509 47.528 66.8709 47.528C66.2549 47.528 65.7696 47.654 65.4149 47.906C65.0696 48.158 64.8969 48.4987 64.8969 48.928ZM71.3934 51V43.776H72.4014L72.4574 44.924C72.6721 44.5133 72.9801 44.1867 73.3814 43.944C73.7921 43.692 74.2634 43.566 74.7954 43.566C75.3461 43.566 75.8268 43.6967 76.2374 43.958C76.6481 44.2193 76.9608 44.5927 77.1754 45.078C77.3994 45.554 77.5114 46.1187 77.5114 46.772V51H76.3914V46.842C76.3914 46.1233 76.2328 45.568 75.9154 45.176C75.6074 44.784 75.1641 44.588 74.5854 44.588C74.1841 44.588 73.8248 44.6813 73.5074 44.868C73.1994 45.0453 72.9568 45.2973 72.7794 45.624C72.6021 45.9413 72.5134 46.3053 72.5134 46.716V51H71.3934ZM79.1388 51V40.612H80.2588V46.8L83.6748 43.776H85.1168L81.4208 47.01L85.4528 51H83.9128L80.2588 47.304V51H79.1388ZM87.599 41.662C87.599 41.802 87.5617 41.9327 87.487 42.054C87.4217 42.166 87.3283 42.2593 87.207 42.334C87.095 42.3993 86.969 42.432 86.829 42.432C86.689 42.432 86.5583 42.3993 86.437 42.334C86.325 42.2593 86.2317 42.166 86.157 42.054C86.0917 41.9327 86.059 41.802 86.059 41.662C86.059 41.522 86.0917 41.396 86.157 41.284C86.2317 41.1627 86.325 41.0693 86.437 41.004C86.5583 40.9293 86.689 40.892 86.829 40.892C86.969 40.892 87.095 40.9293 87.207 41.004C87.3283 41.0693 87.4217 41.1627 87.487 41.284C87.5617 41.396 87.599 41.522 87.599 41.662ZM86.269 51V43.776H87.389V51H86.269ZM89.0652 51V43.776H90.0732L90.1292 44.924C90.3438 44.5133 90.6518 44.1867 91.0532 43.944C91.4638 43.692 91.9352 43.566 92.4672 43.566C93.0178 43.566 93.4985 43.6967 93.9092 43.958C94.3198 44.2193 94.6325 44.5927 94.8472 45.078C95.0712 45.554 95.1832 46.1187 95.1832 46.772V51H94.0632V46.842C94.0632 46.1233 93.9045 45.568 93.5872 45.176C93.2792 44.784 92.8358 44.588 92.2572 44.588C91.8558 44.588 91.4965 44.6813 91.1792 44.868C90.8712 45.0453 90.6285 45.2973 90.4512 45.624C90.2738 45.9413 90.1852 46.3053 90.1852 46.716V51H89.0652ZM99.7925 50.93C99.3165 50.93 98.8732 50.8367 98.4625 50.65C98.0612 50.4633 97.7065 50.2067 97.3985 49.88C97.0999 49.544 96.8665 49.152 96.6985 48.704C96.5305 48.256 96.4465 47.7753 96.4465 47.262C96.4465 46.7393 96.5305 46.254 96.6985 45.806C96.8759 45.358 97.1185 44.966 97.4265 44.63C97.7345 44.294 98.0939 44.0327 98.5045 43.846C98.9245 43.6593 99.3725 43.566 99.8485 43.566C100.399 43.566 100.899 43.6967 101.347 43.958C101.804 44.2193 102.159 44.5787 102.411 45.036L102.467 43.776H103.475V50.384C103.475 50.9347 103.391 51.434 103.223 51.882C103.055 52.3393 102.817 52.7313 102.509 53.058C102.201 53.3847 101.832 53.632 101.403 53.8C100.973 53.9773 100.497 54.066 99.9745 54.066C99.5172 54.066 99.0879 53.996 98.6865 53.856C98.2852 53.7253 97.9259 53.5293 97.6085 53.268C97.3005 53.016 97.0439 52.7127 96.8385 52.358L97.7765 51.882C98.0472 52.274 98.3645 52.5727 98.7285 52.778C99.1019 52.9927 99.5172 53.1 99.9745 53.1C100.46 53.1 100.88 52.988 101.235 52.764C101.599 52.5493 101.874 52.2413 102.061 51.84C102.257 51.4387 102.355 50.9673 102.355 50.426V49.502C102.093 49.95 101.739 50.3 101.291 50.552C100.843 50.804 100.343 50.93 99.7925 50.93ZM99.9885 49.908C100.334 49.908 100.651 49.8427 100.941 49.712C101.239 49.5813 101.496 49.3993 101.711 49.166C101.925 48.9233 102.089 48.6387 102.201 48.312C102.322 47.9853 102.383 47.6307 102.383 47.248C102.383 46.8653 102.322 46.5107 102.201 46.184C102.089 45.8573 101.925 45.5773 101.711 45.344C101.496 45.1013 101.239 44.9147 100.941 44.784C100.651 44.6533 100.334 44.588 99.9885 44.588C99.6432 44.588 99.3212 44.6533 99.0225 44.784C98.7332 44.9147 98.4812 45.1013 98.2665 45.344C98.0519 45.5773 97.8839 45.8573 97.7625 46.184C97.6505 46.5107 97.5945 46.8653 97.5945 47.248C97.5945 47.6307 97.6505 47.9853 97.7625 48.312C97.8839 48.6387 98.0519 48.9233 98.2665 49.166C98.4812 49.3993 98.7332 49.5813 99.0225 49.712C99.3212 49.8427 99.6432 49.908 99.9885 49.908ZM110.222 51.21C109.802 51.21 109.405 51.14 109.032 51C108.668 50.86 108.351 50.6593 108.08 50.398C107.809 50.1367 107.604 49.8287 107.464 49.474L108.472 49.11C108.659 49.4647 108.901 49.74 109.2 49.936C109.499 50.132 109.839 50.23 110.222 50.23C110.53 50.23 110.801 50.1787 111.034 50.076C111.267 49.9733 111.449 49.8333 111.58 49.656C111.711 49.4693 111.776 49.264 111.776 49.04C111.776 48.4333 111.337 48.0413 110.46 47.864L109.914 47.752C109.149 47.6027 108.584 47.36 108.22 47.024C107.856 46.6787 107.674 46.2447 107.674 45.722C107.674 45.302 107.781 44.9287 107.996 44.602C108.211 44.2753 108.509 44.0233 108.892 43.846C109.284 43.6593 109.727 43.566 110.222 43.566C110.633 43.566 111.011 43.636 111.356 43.776C111.701 43.9067 111.995 44.1027 112.238 44.364C112.49 44.6253 112.681 44.9333 112.812 45.288L111.804 45.624C111.655 45.2787 111.44 45.0127 111.16 44.826C110.889 44.63 110.572 44.532 110.208 44.532C109.928 44.532 109.681 44.5787 109.466 44.672C109.261 44.7653 109.097 44.8913 108.976 45.05C108.855 45.2087 108.794 45.3953 108.794 45.61C108.794 45.9087 108.906 46.1467 109.13 46.324C109.363 46.5013 109.737 46.6413 110.25 46.744L110.796 46.856C111.487 46.996 112.014 47.2433 112.378 47.598C112.742 47.9433 112.924 48.3867 112.924 48.928C112.924 49.264 112.854 49.572 112.714 49.852C112.583 50.1227 112.397 50.3607 112.154 50.566C111.921 50.7713 111.636 50.93 111.3 51.042C110.973 51.154 110.614 51.21 110.222 51.21ZM117.403 51.21C116.871 51.21 116.381 51.1167 115.933 50.93C115.494 50.7433 115.111 50.482 114.785 50.146C114.458 49.8007 114.206 49.3993 114.029 48.942C113.851 48.4753 113.763 47.962 113.763 47.402C113.763 46.8513 113.847 46.3473 114.015 45.89C114.192 45.4233 114.435 45.0173 114.743 44.672C115.06 44.3267 115.429 44.0607 115.849 43.874C116.269 43.678 116.726 43.58 117.221 43.58C117.697 43.58 118.135 43.6687 118.537 43.846C118.947 44.0233 119.302 44.2707 119.601 44.588C119.899 44.9053 120.128 45.2833 120.287 45.722C120.455 46.1607 120.539 46.6367 120.539 47.15V47.612H114.925C114.962 48.1347 115.083 48.592 115.289 48.984C115.503 49.376 115.788 49.6793 116.143 49.894C116.497 50.1087 116.908 50.216 117.375 50.216C117.832 50.216 118.229 50.1227 118.565 49.936C118.91 49.74 119.204 49.4553 119.447 49.082L120.399 49.516C120.212 49.8707 119.969 50.174 119.671 50.426C119.372 50.678 119.027 50.8693 118.635 51C118.252 51.14 117.841 51.21 117.403 51.21ZM117.221 44.532C116.838 44.532 116.488 44.6253 116.171 44.812C115.863 44.9987 115.601 45.26 115.387 45.596C115.181 45.9227 115.046 46.3053 114.981 46.744H119.363C119.325 46.3053 119.209 45.9227 119.013 45.596C118.817 45.26 118.565 44.9987 118.257 44.812C117.949 44.6253 117.603 44.532 117.221 44.532ZM121.859 51V43.776H122.867L122.937 45.12C123.114 44.672 123.38 44.322 123.735 44.07C124.089 43.8087 124.505 43.678 124.981 43.678C125.139 43.678 125.279 43.692 125.401 43.72C125.531 43.7387 125.643 43.7667 125.737 43.804L125.597 44.868C125.494 44.8307 125.387 44.8073 125.275 44.798C125.163 44.7793 125.051 44.77 124.939 44.77C124.547 44.77 124.201 44.868 123.903 45.064C123.613 45.26 123.385 45.54 123.217 45.904C123.058 46.2587 122.979 46.6787 122.979 47.164V51H121.859ZM129.093 51L126.265 43.776H127.497L129.695 49.796L131.893 43.776H133.083L130.255 51H129.093ZM135.371 41.662C135.371 41.802 135.333 41.9327 135.259 42.054C135.193 42.166 135.1 42.2593 134.979 42.334C134.867 42.3993 134.741 42.432 134.601 42.432C134.461 42.432 134.33 42.3993 134.209 42.334C134.097 42.2593 134.003 42.166 133.929 42.054C133.863 41.9327 133.831 41.802 133.831 41.662C133.831 41.522 133.863 41.396 133.929 41.284C134.003 41.1627 134.097 41.0693 134.209 41.004C134.33 40.9293 134.461 40.892 134.601 40.892C134.741 40.892 134.867 40.9293 134.979 41.004C135.1 41.0693 135.193 41.1627 135.259 41.284C135.333 41.396 135.371 41.522 135.371 41.662ZM134.041 51V43.776H135.161V51H134.041ZM139.945 51.21C139.45 51.21 138.993 51.1167 138.573 50.93C138.153 50.7433 137.784 50.482 137.467 50.146C137.15 49.8007 136.902 49.3993 136.725 48.942C136.557 48.4847 136.473 47.9853 136.473 47.444C136.473 46.9027 136.562 46.3987 136.739 45.932C136.916 45.456 137.164 45.0407 137.481 44.686C137.798 44.3313 138.172 44.056 138.601 43.86C139.03 43.664 139.497 43.566 140.001 43.566C140.468 43.566 140.888 43.65 141.261 43.818C141.644 43.986 141.97 44.2147 142.241 44.504C142.521 44.7933 142.736 45.1247 142.885 45.498L141.863 45.848C141.658 45.456 141.392 45.148 141.065 44.924C140.738 44.7 140.37 44.588 139.959 44.588C139.623 44.588 139.315 44.6627 139.035 44.812C138.755 44.952 138.508 45.148 138.293 45.4C138.078 45.652 137.91 45.9553 137.789 46.31C137.677 46.6553 137.621 47.0287 137.621 47.43C137.621 47.8313 137.677 48.2 137.789 48.536C137.91 48.872 138.074 49.166 138.279 49.418C138.484 49.6607 138.727 49.852 139.007 49.992C139.296 50.1227 139.609 50.188 139.945 50.188C140.374 50.188 140.766 50.0807 141.121 49.866C141.485 49.642 141.76 49.334 141.947 48.942L142.969 49.292C142.82 49.684 142.591 50.0247 142.283 50.314C141.984 50.594 141.63 50.8133 141.219 50.972C140.818 51.1307 140.393 51.21 139.945 51.21ZM147.448 51.21C146.916 51.21 146.426 51.1167 145.978 50.93C145.539 50.7433 145.157 50.482 144.83 50.146C144.503 49.8007 144.251 49.3993 144.074 48.942C143.897 48.4753 143.808 47.962 143.808 47.402C143.808 46.8513 143.892 46.3473 144.06 45.89C144.237 45.4233 144.48 45.0173 144.788 44.672C145.105 44.3267 145.474 44.0607 145.894 43.874C146.314 43.678 146.771 43.58 147.266 43.58C147.742 43.58 148.181 43.6687 148.582 43.846C148.993 44.0233 149.347 44.2707 149.646 44.588C149.945 44.9053 150.173 45.2833 150.332 45.722C150.5 46.1607 150.584 46.6367 150.584 47.15V47.612H144.97C145.007 48.1347 145.129 48.592 145.334 48.984C145.549 49.376 145.833 49.6793 146.188 49.894C146.543 50.1087 146.953 50.216 147.42 50.216C147.877 50.216 148.274 50.1227 148.61 49.936C148.955 49.74 149.249 49.4553 149.492 49.082L150.444 49.516C150.257 49.8707 150.015 50.174 149.716 50.426C149.417 50.678 149.072 50.8693 148.68 51C148.297 51.14 147.887 51.21 147.448 51.21ZM147.266 44.532C146.883 44.532 146.533 44.6253 146.216 44.812C145.908 44.9987 145.647 45.26 145.432 45.596C145.227 45.9227 145.091 46.3053 145.026 46.744H149.408C149.371 46.3053 149.254 45.9227 149.058 45.596C148.862 45.26 148.61 44.9987 148.302 44.812C147.994 44.6253 147.649 44.532 147.266 44.532ZM157.388 51.21C156.95 51.21 156.572 51.1213 156.254 50.944C155.937 50.7667 155.69 50.5053 155.512 50.16C155.344 49.8147 155.26 49.3947 155.26 48.9V44.728H153.93V43.776H155.26V41.354H156.38V43.776H158.648V44.728H156.38V48.844C156.38 49.2733 156.469 49.6093 156.646 49.852C156.833 50.0853 157.113 50.202 157.486 50.202C157.682 50.202 157.878 50.174 158.074 50.118C158.28 50.0527 158.462 49.9687 158.62 49.866L158.956 50.734C158.76 50.874 158.532 50.986 158.27 51.07C158.009 51.1633 157.715 51.21 157.388 51.21ZM160.121 51V40.612H161.241V44.826C161.456 44.4433 161.764 44.14 162.165 43.916C162.567 43.6827 163.019 43.566 163.523 43.566C164.074 43.566 164.555 43.6967 164.965 43.958C165.376 44.2193 165.689 44.5927 165.903 45.078C166.127 45.554 166.239 46.1187 166.239 46.772V51H165.119V46.842C165.119 46.1233 164.961 45.568 164.643 45.176C164.335 44.784 163.892 44.588 163.313 44.588C162.912 44.588 162.553 44.6813 162.235 44.868C161.927 45.0453 161.685 45.2973 161.507 45.624C161.33 45.9413 161.241 46.3053 161.241 46.716V51H160.121ZM170.107 51.21C169.603 51.21 169.155 51.1167 168.763 50.93C168.371 50.734 168.063 50.468 167.839 50.132C167.624 49.796 167.517 49.4087 167.517 48.97C167.517 48.494 167.638 48.0833 167.881 47.738C168.133 47.3927 168.483 47.1267 168.931 46.94C169.379 46.744 169.901 46.646 170.499 46.646C170.835 46.646 171.175 46.6833 171.521 46.758C171.866 46.8327 172.174 46.9307 172.445 47.052V46.52C172.445 46.128 172.365 45.7873 172.207 45.498C172.057 45.1993 171.847 44.9707 171.577 44.812C171.306 44.644 170.989 44.56 170.625 44.56C170.186 44.56 169.803 44.6627 169.477 44.868C169.159 45.0733 168.921 45.3627 168.763 45.736L167.783 45.4C167.913 45.0267 168.114 44.7047 168.385 44.434C168.665 44.1633 168.996 43.9533 169.379 43.804C169.771 43.6547 170.191 43.58 170.639 43.58C171.217 43.58 171.721 43.706 172.151 43.958C172.589 44.2007 172.925 44.546 173.159 44.994C173.401 45.4327 173.523 45.9507 173.523 46.548V51H172.543L172.473 49.88C172.267 50.2813 171.955 50.6033 171.535 50.846C171.124 51.0887 170.648 51.21 170.107 51.21ZM168.651 48.928C168.651 49.1987 168.721 49.4367 168.861 49.642C169.001 49.838 169.197 49.992 169.449 50.104C169.701 50.216 169.99 50.272 170.317 50.272C170.718 50.272 171.077 50.1833 171.395 50.006C171.721 49.8193 171.978 49.572 172.165 49.264C172.351 48.9467 172.445 48.5873 172.445 48.186V47.92C172.137 47.7987 171.824 47.7053 171.507 47.64C171.199 47.5653 170.905 47.528 170.625 47.528C170.009 47.528 169.523 47.654 169.169 47.906C168.823 48.158 168.651 48.4987 168.651 48.928ZM177.63 51.21C177.192 51.21 176.814 51.1213 176.496 50.944C176.179 50.7667 175.932 50.5053 175.754 50.16C175.586 49.8147 175.502 49.3947 175.502 48.9V44.728H174.172V43.776H175.502V41.354H176.622V43.776H178.89V44.728H176.622V48.844C176.622 49.2733 176.711 49.6093 176.888 49.852C177.075 50.0853 177.355 50.202 177.728 50.202C177.924 50.202 178.12 50.174 178.316 50.118C178.522 50.0527 178.704 49.9687 178.862 49.866L179.198 50.734C179.002 50.874 178.774 50.986 178.512 51.07C178.251 51.1633 177.957 51.21 177.63 51.21ZM184.854 51L182.418 43.776H183.594L185.4 49.628L187.262 43.776H188.27L190.118 49.628L191.924 43.776H193.072L190.636 51H189.558L187.752 45.218L185.932 51H184.854ZM197.064 51.21C196.551 51.21 196.075 51.1167 195.636 50.93C195.207 50.734 194.829 50.468 194.502 50.132C194.185 49.7867 193.937 49.3807 193.76 48.914C193.583 48.4473 193.494 47.9387 193.494 47.388C193.494 46.8373 193.583 46.3287 193.76 45.862C193.947 45.3953 194.199 44.994 194.516 44.658C194.843 44.3127 195.225 44.0467 195.664 43.86C196.103 43.664 196.579 43.566 197.092 43.566C197.605 43.566 198.077 43.664 198.506 43.86C198.945 44.0467 199.323 44.3127 199.64 44.658C199.967 44.994 200.219 45.3953 200.396 45.862C200.573 46.3287 200.662 46.8373 200.662 47.388C200.662 47.9387 200.569 48.4473 200.382 48.914C200.205 49.3807 199.953 49.7867 199.626 50.132C199.309 50.468 198.931 50.734 198.492 50.93C198.053 51.1167 197.577 51.21 197.064 51.21ZM197.078 50.188C197.433 50.188 197.755 50.118 198.044 49.978C198.343 49.838 198.599 49.6467 198.814 49.404C199.038 49.152 199.211 48.858 199.332 48.522C199.453 48.1767 199.514 47.7987 199.514 47.388C199.514 46.9773 199.453 46.604 199.332 46.268C199.211 45.9227 199.038 45.6287 198.814 45.386C198.599 45.134 198.343 44.938 198.044 44.798C197.755 44.658 197.433 44.588 197.078 44.588C196.723 44.588 196.397 44.658 196.098 44.798C195.809 44.938 195.552 45.134 195.328 45.386C195.113 45.6287 194.945 45.9227 194.824 46.268C194.703 46.604 194.642 46.9773 194.642 47.388C194.642 47.7987 194.703 48.1767 194.824 48.522C194.945 48.858 195.113 49.152 195.328 49.404C195.552 49.6467 195.809 49.838 196.098 49.978C196.397 50.118 196.723 50.188 197.078 50.188ZM201.972 51V43.776H202.98L203.05 45.12C203.228 44.672 203.494 44.322 203.848 44.07C204.203 43.8087 204.618 43.678 205.094 43.678C205.253 43.678 205.393 43.692 205.514 43.72C205.645 43.7387 205.757 43.7667 205.85 43.804L205.71 44.868C205.608 44.8307 205.5 44.8073 205.388 44.798C205.276 44.7793 205.164 44.77 205.052 44.77C204.66 44.77 204.315 44.868 204.016 45.064C203.727 45.26 203.498 45.54 203.33 45.904C203.172 46.2587 203.092 46.6787 203.092 47.164V51H201.972ZM206.942 51V40.612H208.062V46.8L211.478 43.776H212.92L209.224 47.01L213.256 51H211.716L208.062 47.304V51H206.942ZM216.327 51.21C215.907 51.21 215.511 51.14 215.137 51C214.773 50.86 214.456 50.6593 214.185 50.398C213.915 50.1367 213.709 49.8287 213.569 49.474L214.577 49.11C214.764 49.4647 215.007 49.74 215.305 49.936C215.604 50.132 215.945 50.23 216.327 50.23C216.635 50.23 216.906 50.1787 217.139 50.076C217.373 49.9733 217.555 49.8333 217.685 49.656C217.816 49.4693 217.881 49.264 217.881 49.04C217.881 48.4333 217.443 48.0413 216.565 47.864L216.019 47.752C215.254 47.6027 214.689 47.36 214.325 47.024C213.961 46.6787 213.779 46.2447 213.779 45.722C213.779 45.302 213.887 44.9287 214.101 44.602C214.316 44.2753 214.615 44.0233 214.997 43.846C215.389 43.6593 215.833 43.566 216.327 43.566C216.738 43.566 217.116 43.636 217.461 43.776C217.807 43.9067 218.101 44.1027 218.343 44.364C218.595 44.6253 218.787 44.9333 218.917 45.288L217.909 45.624C217.76 45.2787 217.545 45.0127 217.265 44.826C216.995 44.63 216.677 44.532 216.313 44.532C216.033 44.532 215.786 44.5787 215.571 44.672C215.366 44.7653 215.203 44.8913 215.081 45.05C214.96 45.2087 214.899 45.3953 214.899 45.61C214.899 45.9087 215.011 46.1467 215.235 46.324C215.469 46.5013 215.842 46.6413 216.355 46.744L216.901 46.856C217.592 46.996 218.119 47.2433 218.483 47.598C218.847 47.9433 219.029 48.3867 219.029 48.928C219.029 49.264 218.959 49.572 218.819 49.852C218.689 50.1227 218.502 50.3607 218.259 50.566C218.026 50.7713 217.741 50.93 217.405 51.042C217.079 51.154 216.719 51.21 216.327 51.21ZM220.876 51.042C220.727 51.042 220.587 51.0047 220.456 50.93C220.335 50.8553 220.237 50.7573 220.162 50.636C220.087 50.5053 220.05 50.3607 220.05 50.202C220.05 50.0433 220.087 49.9033 220.162 49.782C220.237 49.6513 220.335 49.5487 220.456 49.474C220.587 49.3993 220.727 49.362 220.876 49.362C221.025 49.362 221.161 49.3993 221.282 49.474C221.413 49.5487 221.515 49.6513 221.59 49.782C221.674 49.9033 221.716 50.0433 221.716 50.202C221.716 50.3607 221.674 50.5053 221.59 50.636C221.515 50.7573 221.413 50.8553 221.282 50.93C221.161 51.0047 221.025 51.042 220.876 51.042Z" fill="#6F6F6F"/>
</svg>
