<svg width="126" height="40" viewBox="0 0 126 40" fill="none" xmlns="http://www.w3.org/2000/svg">
<path d="M17.795 25V15.77H19.381V23.583H23.294V25H17.795ZM27.3566 25.195C26.8539 25.195 26.3902 25.1083 25.9656 24.935C25.5496 24.753 25.1856 24.5017 24.8736 24.181C24.5616 23.8603 24.3189 23.4833 24.1456 23.05C23.9809 22.608 23.8986 22.1227 23.8986 21.594C23.8986 21.0827 23.9809 20.6103 24.1456 20.177C24.3189 19.7437 24.5529 19.3667 24.8476 19.046C25.1509 18.7167 25.5062 18.461 25.9136 18.279C26.3209 18.097 26.7629 18.006 27.2396 18.006C27.7162 18.006 28.1496 18.0927 28.5396 18.266C28.9382 18.4307 29.2806 18.669 29.5666 18.981C29.8612 19.293 30.0866 19.6657 30.2426 20.099C30.3986 20.5237 30.4766 20.996 30.4766 21.516V21.958H25.4456C25.4889 22.3567 25.5929 22.7033 25.7576 22.998C25.9309 23.284 26.1519 23.505 26.4206 23.661C26.6892 23.817 27.0012 23.895 27.3566 23.895C28.0672 23.895 28.6219 23.5787 29.0206 22.946L30.3336 23.453C30.1776 23.8083 29.9479 24.1203 29.6446 24.389C29.3499 24.649 29.0032 24.8483 28.6046 24.987C28.2146 25.1257 27.7986 25.195 27.3566 25.195ZM27.2396 19.215C26.9362 19.215 26.6632 19.2843 26.4206 19.423C26.1866 19.5617 25.9872 19.7567 25.8226 20.008C25.6579 20.2593 25.5452 20.554 25.4846 20.892H28.9166C28.8646 20.554 28.7649 20.2593 28.6176 20.008C28.4702 19.7567 28.2752 19.5617 28.0326 19.423C27.7986 19.2843 27.5342 19.215 27.2396 19.215ZM33.5713 25.195C33.2246 25.195 32.9039 25.143 32.6093 25.039C32.3233 24.935 32.0719 24.7877 31.8553 24.597C31.6386 24.4063 31.4696 24.181 31.3483 23.921C31.2269 23.661 31.1663 23.375 31.1663 23.063C31.1663 22.6297 31.2789 22.2527 31.5043 21.932C31.7383 21.6027 32.0633 21.347 32.4793 21.165C32.8953 20.983 33.3806 20.892 33.9353 20.892C34.2386 20.892 34.5289 20.9223 34.8063 20.983C35.0836 21.035 35.3479 21.113 35.5993 21.217V20.788C35.5993 20.4847 35.5429 20.2203 35.4303 19.995C35.3176 19.761 35.1573 19.579 34.9493 19.449C34.7413 19.319 34.4899 19.254 34.1953 19.254C33.8833 19.254 33.6016 19.3363 33.3503 19.501C33.0989 19.6657 32.9126 19.8953 32.7913 20.19L31.4133 19.878C31.5173 19.4967 31.7036 19.1673 31.9723 18.89C32.2496 18.6127 32.5789 18.396 32.9603 18.24C33.3503 18.084 33.7706 18.006 34.2213 18.006C34.6459 18.006 35.0316 18.0753 35.3783 18.214C35.7336 18.3527 36.0369 18.5477 36.2883 18.799C36.5396 19.0503 36.7346 19.3493 36.8733 19.696C37.0119 20.0427 37.0813 20.4283 37.0813 20.853V25H35.7163L35.6643 24.103C35.4823 24.4323 35.2093 24.6967 34.8453 24.896C34.4813 25.0953 34.0566 25.195 33.5713 25.195ZM32.6743 22.998C32.6743 23.1887 32.7263 23.362 32.8303 23.518C32.9343 23.6653 33.0773 23.7823 33.2593 23.869C33.4499 23.9557 33.6709 23.999 33.9223 23.999C34.2429 23.999 34.5289 23.9297 34.7803 23.791C35.0316 23.6523 35.2309 23.466 35.3783 23.232C35.5256 22.9893 35.5993 22.7163 35.5993 22.413V22.257C35.3739 22.1617 35.1399 22.088 34.8973 22.036C34.6633 21.9753 34.4206 21.945 34.1693 21.945C33.7186 21.945 33.3546 22.0403 33.0773 22.231C32.8086 22.4217 32.6743 22.6773 32.6743 22.998ZM38.4295 25V18.201H39.7945L39.8595 19.319C40.0329 18.9377 40.2712 18.643 40.5745 18.435C40.8865 18.2183 41.2505 18.11 41.6665 18.11C41.7965 18.11 41.9222 18.1187 42.0435 18.136C42.1649 18.1533 42.2732 18.1837 42.3685 18.227L42.1995 19.683C42.1042 19.6483 42.0045 19.6267 41.9005 19.618C41.7965 19.6007 41.6925 19.592 41.5885 19.592C41.0685 19.592 40.6612 19.7653 40.3665 20.112C40.0719 20.4587 39.9245 20.9397 39.9245 21.555V25H38.4295ZM43.2096 25V18.201H44.5746L44.6266 19.137C44.8259 18.7903 45.1032 18.5173 45.4586 18.318C45.8226 18.11 46.2386 18.006 46.7066 18.006C47.2179 18.006 47.6599 18.1273 48.0326 18.37C48.4139 18.6127 48.7086 18.955 48.9166 19.397C49.1246 19.839 49.2286 20.359 49.2286 20.957V25H47.7336V21.126C47.7336 20.5713 47.6079 20.138 47.3566 19.826C47.1139 19.514 46.7716 19.358 46.3296 19.358C46.0176 19.358 45.7359 19.4317 45.4846 19.579C45.2419 19.7263 45.0512 19.9257 44.9126 20.177C44.7739 20.4283 44.7046 20.7187 44.7046 21.048V25H43.2096ZM53.087 25V18.201H54.452L54.504 19.111C54.7034 18.773 54.9764 18.5043 55.323 18.305C55.6697 18.1057 56.064 18.006 56.506 18.006C56.9827 18.006 57.403 18.1273 57.767 18.37C58.131 18.604 58.4127 18.929 58.612 19.345C58.742 19.0763 58.9154 18.8423 59.132 18.643C59.3574 18.4437 59.6174 18.2877 59.912 18.175C60.2154 18.0623 60.5404 18.006 60.887 18.006C61.3897 18.006 61.8274 18.1273 62.2 18.37C62.5727 18.604 62.8587 18.942 63.058 19.384C63.266 19.8173 63.37 20.3373 63.37 20.944V25H61.875V21.113C61.875 20.5497 61.7537 20.1163 61.511 19.813C61.2684 19.5097 60.9347 19.358 60.51 19.358C60.2154 19.358 59.951 19.4317 59.717 19.579C59.4917 19.7177 59.3097 19.917 59.171 20.177C59.041 20.4283 58.976 20.7143 58.976 21.035V25H57.481V21.113C57.481 20.5497 57.3597 20.1163 57.117 19.813C56.8744 19.5097 56.5407 19.358 56.116 19.358C55.8214 19.358 55.557 19.4317 55.323 19.579C55.0977 19.7177 54.9157 19.917 54.777 20.177C54.647 20.4283 54.582 20.7143 54.582 21.035V25H53.087ZM67.8815 25.195C67.3875 25.195 66.9282 25.1083 66.5035 24.935C66.0875 24.753 65.7235 24.5017 65.4115 24.181C65.0995 23.8517 64.8569 23.4703 64.6835 23.037C64.5102 22.595 64.4235 22.114 64.4235 21.594C64.4235 21.0827 64.5102 20.6103 64.6835 20.177C64.8569 19.735 65.0995 19.3537 65.4115 19.033C65.7322 18.7037 66.1049 18.4523 66.5295 18.279C66.9629 18.097 67.4309 18.006 67.9335 18.006C68.4275 18.006 68.8825 18.097 69.2985 18.279C69.7232 18.4523 70.0915 18.7037 70.4035 19.033C70.7155 19.3537 70.9582 19.7307 71.1315 20.164C71.3049 20.5973 71.3915 21.074 71.3915 21.594C71.3915 22.114 71.3049 22.595 71.1315 23.037C70.9582 23.4703 70.7112 23.8517 70.3905 24.181C70.0785 24.5017 69.7059 24.753 69.2725 24.935C68.8479 25.1083 68.3842 25.195 67.8815 25.195ZM67.9075 23.843C68.2802 23.843 68.6139 23.7477 68.9085 23.557C69.2032 23.3577 69.4329 23.089 69.5975 22.751C69.7709 22.413 69.8575 22.0273 69.8575 21.594C69.8575 21.1607 69.7709 20.7793 69.5975 20.45C69.4329 20.112 69.2032 19.8477 68.9085 19.657C68.6139 19.4577 68.2802 19.358 67.9075 19.358C67.5349 19.358 67.2012 19.4577 66.9065 19.657C66.6119 19.8477 66.3779 20.112 66.2045 20.45C66.0399 20.7793 65.9575 21.1607 65.9575 21.594C65.9575 22.0273 66.0399 22.413 66.2045 22.751C66.3779 23.089 66.6119 23.3577 66.9065 23.557C67.2012 23.7477 67.5349 23.843 67.9075 23.843ZM72.4479 25V18.201H73.8129L73.8779 19.319C74.0512 18.9377 74.2895 18.643 74.5929 18.435C74.9049 18.2183 75.2689 18.11 75.6849 18.11C75.8149 18.11 75.9405 18.1187 76.0619 18.136C76.1832 18.1533 76.2915 18.1837 76.3869 18.227L76.2179 19.683C76.1225 19.6483 76.0229 19.6267 75.9189 19.618C75.8149 19.6007 75.7109 19.592 75.6069 19.592C75.0869 19.592 74.6795 19.7653 74.3849 20.112C74.0902 20.4587 73.9429 20.9397 73.9429 21.555V25H72.4479ZM80.1838 25.195C79.6811 25.195 79.2175 25.1083 78.7928 24.935C78.3768 24.753 78.0128 24.5017 77.7008 24.181C77.3888 23.8603 77.1461 23.4833 76.9728 23.05C76.8081 22.608 76.7258 22.1227 76.7258 21.594C76.7258 21.0827 76.8081 20.6103 76.9728 20.177C77.1461 19.7437 77.3801 19.3667 77.6748 19.046C77.9781 18.7167 78.3335 18.461 78.7408 18.279C79.1481 18.097 79.5901 18.006 80.0668 18.006C80.5435 18.006 80.9768 18.0927 81.3668 18.266C81.7655 18.4307 82.1078 18.669 82.3938 18.981C82.6885 19.293 82.9138 19.6657 83.0698 20.099C83.2258 20.5237 83.3038 20.996 83.3038 21.516V21.958H78.2728C78.3161 22.3567 78.4201 22.7033 78.5848 22.998C78.7581 23.284 78.9791 23.505 79.2478 23.661C79.5165 23.817 79.8285 23.895 80.1838 23.895C80.8945 23.895 81.4491 23.5787 81.8478 22.946L83.1608 23.453C83.0048 23.8083 82.7751 24.1203 82.4718 24.389C82.1771 24.649 81.8305 24.8483 81.4318 24.987C81.0418 25.1257 80.6258 25.195 80.1838 25.195ZM80.0668 19.215C79.7635 19.215 79.4905 19.2843 79.2478 19.423C79.0138 19.5617 78.8145 19.7567 78.6498 20.008C78.4851 20.2593 78.3725 20.554 78.3118 20.892H81.7438C81.6918 20.554 81.5921 20.2593 81.4448 20.008C81.2975 19.7567 81.1025 19.5617 80.8598 19.423C80.6258 19.2843 80.3615 19.215 80.0668 19.215Z" fill="black"/>
<path fill-rule="evenodd" clip-rule="evenodd" d="M98.9774 24.1893C98.7348 23.9953 98.6954 23.6413 98.8895 23.3987L101.608 20.0001L98.8895 16.6015C98.6954 16.3589 98.7348 16.0049 98.9774 15.8109C99.2199 15.6168 99.5739 15.6561 99.768 15.8987L102.768 19.6487C102.932 19.8541 102.932 20.1461 102.768 20.3515L99.768 24.1015C99.5739 24.3441 99.2199 24.3834 98.9774 24.1893Z" fill="#6F6F6F"/>
</svg>
