<svg width="516" height="135" viewBox="0 0 516 135" fill="none" xmlns="http://www.w3.org/2000/svg">
<path d="M0.266309 104.34V4.93999H34.7063C41.2396 4.93999 46.8396 6.01332 51.5063 8.15999C56.2663 10.2133 59.953 13.1533 62.5663 16.98C65.1796 20.8067 66.4863 25.3333 66.4863 30.56C66.4863 35.32 65.3663 39.52 63.1263 43.16C60.9796 46.8 57.853 49.6467 53.7463 51.7C59.0663 53.5667 63.2196 56.6933 66.2063 61.08C69.193 65.3733 70.6863 70.4133 70.6863 76.2C70.6863 81.8933 69.2396 86.84 66.3463 91.04C63.453 95.24 59.3463 98.5067 54.0263 100.84C48.7996 103.173 42.593 104.34 35.4063 104.34H0.266309ZM16.7863 19.5V45.82H33.1663C38.393 45.82 42.4063 44.7 45.2063 42.46C48.0063 40.22 49.4063 36.9533 49.4063 32.66C49.4063 28.5533 47.9596 25.3333 45.0663 23C42.2663 20.6667 38.2996 19.5 33.1663 19.5H16.7863ZM16.7863 89.78H34.7063C40.6796 89.78 45.2996 88.4733 48.5663 85.86C51.833 83.1533 53.4663 79.4667 53.4663 74.8C53.4663 69.9467 51.833 66.2133 48.5663 63.6C45.2996 60.9867 40.6796 59.68 34.7063 59.68H16.7863V89.78ZM82.2057 104.34V31.12H96.9057L97.6057 43.16C99.4723 39.0533 102.039 35.88 105.306 33.64C108.666 31.3067 112.586 30.14 117.066 30.14C118.466 30.14 119.819 30.2333 121.126 30.42C122.432 30.6067 123.599 30.9333 124.626 31.4L122.806 47.08C121.779 46.7067 120.706 46.4733 119.586 46.38C118.466 46.1933 117.346 46.1 116.226 46.1C110.626 46.1 106.239 47.9667 103.066 51.7C99.8923 55.4333 98.3057 60.6133 98.3057 67.24V104.34H82.2057ZM151.463 10.68C151.463 12.4533 150.996 14.0867 150.063 15.58C149.223 17.0733 148.056 18.2867 146.563 19.22C145.07 20.06 143.436 20.48 141.663 20.48C139.89 20.48 138.256 20.06 136.763 19.22C135.27 18.2867 134.056 17.0733 133.123 15.58C132.283 14.0867 131.863 12.4533 131.863 10.68C131.863 8.90666 132.283 7.27332 133.123 5.77999C134.056 4.28666 135.27 3.11999 136.763 2.27999C138.256 1.34666 139.89 0.879993 141.663 0.879993C143.436 0.879993 145.07 1.34666 146.563 2.27999C148.056 3.11999 149.223 4.28666 150.063 5.77999C150.996 7.27332 151.463 8.90666 151.463 10.68ZM133.683 104.34V31.12H149.783V104.34H133.683ZM195.319 106.44C190.466 106.44 185.939 105.46 181.739 103.5C177.632 101.54 174.039 98.8333 170.959 95.38C167.879 91.9267 165.452 87.8667 163.679 83.2C161.999 78.5333 161.159 73.4933 161.159 68.08C161.159 62.5733 162.046 57.44 163.819 52.68C165.592 47.92 168.066 43.7667 171.239 40.22C174.412 36.6733 178.099 33.92 182.299 31.96C186.592 30 191.212 29.02 196.159 29.02C201.012 29.02 205.446 30.0467 209.459 32.1C213.472 34.1533 216.786 37.0467 219.399 40.78V0.179994H235.499V104.34H220.799L220.099 92.58C217.486 96.8733 214.032 100.28 209.739 102.8C205.446 105.227 200.639 106.44 195.319 106.44ZM198.679 91.88C202.692 91.88 206.286 90.8533 209.459 88.8C212.632 86.6533 215.106 83.76 216.879 80.12C218.746 76.48 219.679 72.3733 219.679 67.8C219.679 63.1333 218.746 58.98 216.879 55.34C215.106 51.7 212.632 48.8533 209.459 46.8C206.286 44.6533 202.692 43.58 198.679 43.58C194.666 43.58 191.072 44.6533 187.899 46.8C184.726 48.8533 182.206 51.7 180.339 55.34C178.566 58.98 177.679 63.1333 177.679 67.8C177.679 72.3733 178.566 76.48 180.339 80.12C182.206 83.76 184.726 86.6533 187.899 88.8C191.072 90.8533 194.666 91.88 198.679 91.88ZM280.556 102.94C275.796 102.94 271.363 102.007 267.256 100.14C263.149 98.2733 259.556 95.7067 256.476 92.44C253.396 89.08 251.016 85.2067 249.336 80.82C247.656 76.34 246.816 71.4867 246.816 66.26C246.816 61.0333 247.656 56.18 249.336 51.7C251.109 47.1267 253.583 43.16 256.756 39.8C259.929 36.44 263.616 33.8267 267.816 31.96C272.016 30 276.543 29.02 281.396 29.02C286.436 29.02 291.009 30.14 295.116 32.38C299.316 34.5267 302.676 37.56 305.196 41.48L305.756 31.12H320.456V96.64C320.456 102.24 319.569 107.327 317.796 111.9C316.023 116.567 313.503 120.533 310.236 123.8C306.969 127.16 303.049 129.727 298.476 131.5C293.996 133.273 288.956 134.16 283.356 134.16C275.889 134.16 269.356 132.48 263.756 129.12C258.156 125.76 253.769 121.093 250.596 115.12L265.856 109.8C267.909 113.16 270.476 115.68 273.556 117.36C276.636 119.133 280.089 120.02 283.916 120.02C288.023 120.02 291.616 119.087 294.696 117.22C297.776 115.447 300.156 112.88 301.836 109.52C303.516 106.253 304.356 102.38 304.356 97.9V90.9C301.743 94.6333 298.383 97.5733 294.276 99.72C290.169 101.867 285.596 102.94 280.556 102.94ZM283.916 88.38C287.836 88.38 291.336 87.4 294.416 85.44C297.589 83.48 300.063 80.82 301.836 77.46C303.703 74.1 304.636 70.2733 304.636 65.98C304.636 61.6867 303.703 57.86 301.836 54.5C300.063 51.14 297.589 48.48 294.416 46.52C291.336 44.56 287.836 43.58 283.916 43.58C279.996 43.58 276.496 44.56 273.416 46.52C270.336 48.48 267.863 51.14 265.996 54.5C264.223 57.86 263.336 61.6867 263.336 65.98C263.336 70.2733 264.223 74.1 265.996 77.46C267.863 80.82 270.336 83.48 273.416 85.44C276.496 87.4 279.996 88.38 283.916 88.38ZM352.79 10.68C352.79 12.4533 352.323 14.0867 351.39 15.58C350.55 17.0733 349.383 18.2867 347.89 19.22C346.396 20.06 344.763 20.48 342.99 20.48C341.216 20.48 339.583 20.06 338.09 19.22C336.596 18.2867 335.383 17.0733 334.45 15.58C333.61 14.0867 333.19 12.4533 333.19 10.68C333.19 8.90666 333.61 7.27332 334.45 5.77999C335.383 4.28666 336.596 3.11999 338.09 2.27999C339.583 1.34666 341.216 0.879993 342.99 0.879993C344.763 0.879993 346.396 1.34666 347.89 2.27999C349.383 3.11999 350.55 4.28666 351.39 5.77999C352.323 7.27332 352.79 8.90666 352.79 10.68ZM335.01 104.34V31.12H351.11V104.34H335.01ZM365.706 104.34V31.12H380.406L380.966 41.2C383.112 37.4667 386.099 34.5267 389.926 32.38C393.846 30.14 398.326 29.02 403.366 29.02C408.872 29.02 413.632 30.3267 417.646 32.94C421.752 35.5533 424.926 39.24 427.166 44C429.406 48.76 430.526 54.36 430.526 60.8V104.34H414.426V62.62C414.426 56.6467 413.072 51.98 410.366 48.62C407.752 45.26 404.066 43.58 399.306 43.58C395.946 43.58 392.912 44.3733 390.206 45.96C387.592 47.5467 385.539 49.6933 384.046 52.4C382.552 55.1067 381.806 58.2333 381.806 61.78V104.34H365.706ZM475.594 102.94C470.834 102.94 466.4 102.007 462.294 100.14C458.187 98.2733 454.594 95.7067 451.514 92.44C448.434 89.08 446.054 85.2067 444.374 80.82C442.694 76.34 441.854 71.4867 441.854 66.26C441.854 61.0333 442.694 56.18 444.374 51.7C446.147 47.1267 448.62 43.16 451.794 39.8C454.967 36.44 458.654 33.8267 462.854 31.96C467.054 30 471.58 29.02 476.434 29.02C481.474 29.02 486.047 30.14 490.154 32.38C494.354 34.5267 497.714 37.56 500.234 41.48L500.794 31.12H515.494V96.64C515.494 102.24 514.607 107.327 512.834 111.9C511.06 116.567 508.54 120.533 505.274 123.8C502.007 127.16 498.087 129.727 493.514 131.5C489.034 133.273 483.994 134.16 478.394 134.16C470.927 134.16 464.394 132.48 458.794 129.12C453.194 125.76 448.807 121.093 445.634 115.12L460.894 109.8C462.947 113.16 465.514 115.68 468.594 117.36C471.674 119.133 475.127 120.02 478.954 120.02C483.06 120.02 486.654 119.087 489.734 117.22C492.814 115.447 495.194 112.88 496.874 109.52C498.554 106.253 499.394 102.38 499.394 97.9V90.9C496.78 94.6333 493.42 97.5733 489.314 99.72C485.207 101.867 480.634 102.94 475.594 102.94ZM478.954 88.38C482.874 88.38 486.374 87.4 489.454 85.44C492.627 83.48 495.1 80.82 496.874 77.46C498.74 74.1 499.674 70.2733 499.674 65.98C499.674 61.6867 498.74 57.86 496.874 54.5C495.1 51.14 492.627 48.48 489.454 46.52C486.374 44.56 482.874 43.58 478.954 43.58C475.034 43.58 471.534 44.56 468.454 46.52C465.374 48.48 462.9 51.14 461.034 54.5C459.26 57.86 458.374 61.6867 458.374 65.98C458.374 70.2733 459.26 74.1 461.034 77.46C462.9 80.82 465.374 83.48 468.454 85.44C471.534 87.4 475.034 88.38 478.954 88.38Z" fill="white"/>
</svg>
