<svg width="537" height="251" viewBox="0 0 537 251" fill="none" xmlns="http://www.w3.org/2000/svg">
<path d="M3.53511 104.784V5.38399H62.4751V20.364H20.3351V48.924H58.1351V63.904H20.3351V104.784H3.53511ZM92.5904 11.124C92.5904 12.8973 92.1238 14.5307 91.1904 16.024C90.3504 17.5173 89.1838 18.7307 87.6904 19.664C86.1971 20.504 84.5638 20.924 82.7904 20.924C81.0171 20.924 79.3838 20.504 77.8904 19.664C76.3971 18.7307 75.1838 17.5173 74.2504 16.024C73.4104 14.5307 72.9904 12.8973 72.9904 11.124C72.9904 9.35066 73.4104 7.71733 74.2504 6.22399C75.1838 4.73066 76.3971 3.56399 77.8904 2.72399C79.3838 1.79066 81.0171 1.32399 82.7904 1.32399C84.5638 1.32399 86.1971 1.79066 87.6904 2.72399C89.1838 3.56399 90.3504 4.73066 91.1904 6.22399C92.1238 7.71733 92.5904 9.35066 92.5904 11.124ZM74.8104 104.784V31.564H90.9104V104.784H74.8104ZM105.507 104.784V31.564H120.207L120.767 41.644C122.913 37.9107 125.9 34.9707 129.727 32.824C133.647 30.584 138.127 29.464 143.167 29.464C148.673 29.464 153.433 30.7707 157.447 33.384C161.553 35.9973 164.727 39.684 166.967 44.444C169.207 49.204 170.327 54.804 170.327 61.244V104.784H154.227V63.064C154.227 57.0907 152.873 52.424 150.167 49.064C147.553 45.704 143.867 44.024 139.107 44.024C135.747 44.024 132.713 44.8173 130.007 46.404C127.393 47.9907 125.34 50.1373 123.847 52.844C122.353 55.5507 121.607 58.6773 121.607 62.224V104.784H105.507ZM207.274 106.884C203.541 106.884 200.088 106.324 196.914 105.204C193.834 104.084 191.128 102.497 188.794 100.444C186.461 98.3907 184.641 95.964 183.334 93.164C182.028 90.364 181.374 87.284 181.374 83.924C181.374 79.2573 182.588 75.1973 185.014 71.744C187.534 68.1973 191.034 65.444 195.514 63.484C199.994 61.524 205.221 60.544 211.194 60.544C214.461 60.544 217.588 60.8707 220.574 61.524C223.561 62.084 226.408 62.924 229.114 64.044V59.424C229.114 56.1573 228.508 53.3107 227.294 50.884C226.081 48.364 224.354 46.404 222.114 45.004C219.874 43.604 217.168 42.904 213.994 42.904C210.634 42.904 207.601 43.7907 204.894 45.564C202.188 47.3373 200.181 49.8107 198.874 52.984L184.034 49.624C185.154 45.5173 187.161 41.9707 190.054 38.984C193.041 35.9973 196.588 33.664 200.694 31.984C204.894 30.304 209.421 29.464 214.274 29.464C218.848 29.464 223.001 30.2107 226.734 31.704C230.561 33.1973 233.828 35.2973 236.534 38.004C239.241 40.7107 241.341 43.9307 242.834 47.664C244.328 51.3973 245.074 55.5507 245.074 60.124V104.784H230.374L229.814 95.124C227.854 98.6707 224.914 101.517 220.994 103.664C217.074 105.811 212.501 106.884 207.274 106.884ZM197.614 83.224C197.614 85.2773 198.174 87.144 199.294 88.824C200.414 90.4107 201.954 91.6707 203.914 92.604C205.968 93.5373 208.348 94.004 211.054 94.004C214.508 94.004 217.588 93.2573 220.294 91.764C223.001 90.2707 225.148 88.264 226.734 85.744C228.321 83.1307 229.114 80.1907 229.114 76.924V75.244C226.688 74.2173 224.168 73.424 221.554 72.864C219.034 72.2107 216.421 71.884 213.714 71.884C208.861 71.884 204.941 72.9107 201.954 74.964C199.061 77.0173 197.614 79.7707 197.614 83.224ZM259.594 104.784V31.564H274.294L274.854 41.644C277.001 37.9107 279.987 34.9707 283.814 32.824C287.734 30.584 292.214 29.464 297.254 29.464C302.761 29.464 307.521 30.7707 311.534 33.384C315.641 35.9973 318.814 39.684 321.054 44.444C323.294 49.204 324.414 54.804 324.414 61.244V104.784H308.314V63.064C308.314 57.0907 306.961 52.424 304.254 49.064C301.641 45.704 297.954 44.024 293.194 44.024C289.834 44.024 286.801 44.8173 284.094 46.404C281.481 47.9907 279.427 50.1373 277.934 52.844C276.441 55.5507 275.694 58.6773 275.694 62.224V104.784H259.594ZM372.002 106.884C366.775 106.884 361.969 105.951 357.582 104.084C353.195 102.124 349.369 99.464 346.102 96.104C342.835 92.6507 340.269 88.5907 338.402 83.924C336.629 79.2573 335.742 74.1707 335.742 68.664C335.742 63.1573 336.675 58.024 338.542 53.264C340.409 48.504 342.975 44.3507 346.242 40.804C349.509 37.2573 353.335 34.504 357.722 32.544C362.202 30.4907 367.055 29.464 372.282 29.464C377.322 29.464 381.942 30.3973 386.142 32.264C390.342 34.0373 393.935 36.604 396.922 39.964C400.002 43.2307 402.195 47.104 403.502 51.584L388.242 55.224C386.655 51.6773 384.415 48.924 381.522 46.964C378.722 45.004 375.549 44.024 372.002 44.024C368.269 44.024 364.909 45.0973 361.922 47.244C358.935 49.3907 356.555 52.3307 354.782 56.064C353.102 59.704 352.262 63.8573 352.262 68.524C352.262 73.0973 353.102 77.204 354.782 80.844C356.462 84.3907 358.749 87.1907 361.642 89.244C364.629 91.2973 368.082 92.324 372.002 92.324C375.735 92.324 379.142 91.3907 382.222 89.524C385.302 87.564 387.589 84.8107 389.082 81.264L404.202 84.764C402.895 89.244 400.655 93.164 397.482 96.524C394.309 99.7907 390.529 102.357 386.142 104.224C381.755 105.997 377.042 106.884 372.002 106.884ZM432.419 11.124C432.419 12.8973 431.952 14.5307 431.019 16.024C430.179 17.5173 429.012 18.7307 427.519 19.664C426.025 20.504 424.392 20.924 422.619 20.924C420.845 20.924 419.212 20.504 417.719 19.664C416.225 18.7307 415.012 17.5173 414.079 16.024C413.239 14.5307 412.819 12.8973 412.819 11.124C412.819 9.35066 413.239 7.71733 414.079 6.22399C415.012 4.73066 416.225 3.56399 417.719 2.72399C419.212 1.79066 420.845 1.32399 422.619 1.32399C424.392 1.32399 426.025 1.79066 427.519 2.72399C429.012 3.56399 430.179 4.73066 431.019 6.22399C431.952 7.71733 432.419 9.35066 432.419 11.124ZM414.639 104.784V31.564H430.739V104.784H414.639ZM467.735 106.884C464.001 106.884 460.548 106.324 457.375 105.204C454.295 104.084 451.588 102.497 449.255 100.444C446.921 98.3907 445.101 95.964 443.795 93.164C442.488 90.364 441.835 87.284 441.835 83.924C441.835 79.2573 443.048 75.1973 445.475 71.744C447.995 68.1973 451.495 65.444 455.975 63.484C460.455 61.524 465.681 60.544 471.655 60.544C474.921 60.544 478.048 60.8707 481.035 61.524C484.021 62.084 486.868 62.924 489.575 64.044V59.424C489.575 56.1573 488.968 53.3107 487.755 50.884C486.541 48.364 484.815 46.404 482.575 45.004C480.335 43.604 477.628 42.904 474.455 42.904C471.095 42.904 468.061 43.7907 465.355 45.564C462.648 47.3373 460.641 49.8107 459.335 52.984L444.495 49.624C445.615 45.5173 447.621 41.9707 450.515 38.984C453.501 35.9973 457.048 33.664 461.155 31.984C465.355 30.304 469.881 29.464 474.735 29.464C479.308 29.464 483.461 30.2107 487.195 31.704C491.021 33.1973 494.288 35.2973 496.995 38.004C499.701 40.7107 501.801 43.9307 503.295 47.664C504.788 51.3973 505.535 55.5507 505.535 60.124V104.784H490.835L490.275 95.124C488.315 98.6707 485.375 101.517 481.455 103.664C477.535 105.811 472.961 106.884 467.735 106.884ZM458.075 83.224C458.075 85.2773 458.635 87.144 459.755 88.824C460.875 90.4107 462.415 91.6707 464.375 92.604C466.428 93.5373 468.808 94.004 471.515 94.004C474.968 94.004 478.048 93.2573 480.755 91.764C483.461 90.2707 485.608 88.264 487.195 85.744C488.781 83.1307 489.575 80.1907 489.575 76.924V75.244C487.148 74.2173 484.628 73.424 482.015 72.864C479.495 72.2107 476.881 71.884 474.175 71.884C469.321 71.884 465.401 72.9107 462.415 74.964C459.521 77.0173 458.075 79.7707 458.075 83.224ZM520.054 104.784V0.623994H536.154V104.784H520.054ZM50.2951 225.584C44.5084 225.584 39.0484 224.744 33.9151 223.064C28.8751 221.384 24.3018 219.004 20.1951 215.924C16.0884 212.751 12.5418 209.017 9.55511 204.724C6.56844 200.431 4.23511 195.671 2.55511 190.444C0.968441 185.124 0.175108 179.431 0.175108 173.364C0.175108 167.297 0.968441 161.604 2.55511 156.284C4.23511 150.964 6.56844 146.111 9.55511 141.724C12.6351 137.337 16.2284 133.604 20.3351 130.524C24.5351 127.351 29.1551 124.924 34.1951 123.244C39.3284 121.471 44.7884 120.584 50.5751 120.584C56.8284 120.584 62.6618 121.611 68.0751 123.664C73.5818 125.717 78.4351 128.657 82.6351 132.484C86.8351 136.311 90.1484 140.837 92.5751 146.064L76.3351 151.524C73.6284 146.671 70.0351 142.937 65.5551 140.324C61.1684 137.617 56.1751 136.264 50.5751 136.264C45.9084 136.264 41.5684 137.197 37.5551 139.064C33.6351 140.931 30.1818 143.544 27.1951 146.904C24.2084 150.171 21.8751 154.044 20.1951 158.524C18.6084 163.004 17.8151 167.857 17.8151 173.084C17.8151 178.404 18.6084 183.351 20.1951 187.924C21.8751 192.404 24.2084 196.277 27.1951 199.544C30.1818 202.811 33.6818 205.377 37.6951 207.244C41.8018 209.017 46.2351 209.904 50.9951 209.904C56.5018 209.904 61.3551 208.831 65.5551 206.684C69.8484 204.444 73.2551 201.364 75.7751 197.444C78.2951 193.524 79.7418 188.951 80.1151 183.724H52.9551V169.444H97.6151V178.824C97.6151 185.731 96.4484 192.031 94.1151 197.724C91.8751 203.417 88.6084 208.364 84.3151 212.564C80.1151 216.671 75.1218 219.891 69.3351 222.224C63.6418 224.464 57.2951 225.584 50.2951 225.584ZM132.074 224.884C128.34 224.884 124.887 224.324 121.714 223.204C118.634 222.084 115.927 220.497 113.594 218.444C111.26 216.391 109.44 213.964 108.134 211.164C106.827 208.364 106.174 205.284 106.174 201.924C106.174 197.257 107.387 193.197 109.814 189.744C112.334 186.197 115.834 183.444 120.314 181.484C124.794 179.524 130.02 178.544 135.994 178.544C139.26 178.544 142.387 178.871 145.374 179.524C148.36 180.084 151.207 180.924 153.914 182.044V177.424C153.914 174.157 153.307 171.311 152.094 168.884C150.88 166.364 149.154 164.404 146.914 163.004C144.674 161.604 141.967 160.904 138.794 160.904C135.434 160.904 132.4 161.791 129.694 163.564C126.987 165.337 124.98 167.811 123.674 170.984L108.834 167.624C109.954 163.517 111.96 159.971 114.854 156.984C117.84 153.997 121.387 151.664 125.494 149.984C129.694 148.304 134.22 147.464 139.074 147.464C143.647 147.464 147.8 148.211 151.534 149.704C155.36 151.197 158.627 153.297 161.334 156.004C164.04 158.711 166.14 161.931 167.634 165.664C169.127 169.397 169.874 173.551 169.874 178.124V222.784H155.174L154.614 213.124C152.654 216.671 149.714 219.517 145.794 221.664C141.874 223.811 137.3 224.884 132.074 224.884ZM122.414 201.224C122.414 203.277 122.974 205.144 124.094 206.824C125.214 208.411 126.754 209.671 128.714 210.604C130.767 211.537 133.147 212.004 135.854 212.004C139.307 212.004 142.387 211.257 145.094 209.764C147.8 208.271 149.947 206.264 151.534 203.744C153.12 201.131 153.914 198.191 153.914 194.924V193.244C151.487 192.217 148.967 191.424 146.354 190.864C143.834 190.211 141.22 189.884 138.514 189.884C133.66 189.884 129.74 190.911 126.754 192.964C123.86 195.017 122.414 197.771 122.414 201.224ZM184.393 250.504V149.564H199.093L199.793 161.324C202.407 157.031 205.86 153.671 210.153 151.244C214.447 148.724 219.253 147.464 224.573 147.464C229.427 147.464 233.907 148.444 238.013 150.404C242.213 152.364 245.853 155.071 248.933 158.524C252.013 161.977 254.393 166.037 256.073 170.704C257.847 175.371 258.733 180.411 258.733 185.824C258.733 191.331 257.847 196.464 256.073 201.224C254.3 205.984 251.827 210.137 248.653 213.684C245.48 217.231 241.747 219.984 237.453 221.944C233.253 223.904 228.68 224.884 223.733 224.884C218.88 224.884 214.447 223.857 210.433 221.804C206.42 219.751 203.107 216.857 200.493 213.124V250.504H184.393ZM221.213 210.324C225.227 210.324 228.82 209.297 231.993 207.244C235.167 205.097 237.64 202.204 239.413 198.564C241.28 194.924 242.213 190.771 242.213 186.104C242.213 181.437 241.28 177.331 239.413 173.784C237.64 170.144 235.167 167.297 231.993 165.244C228.82 163.097 225.227 162.024 221.213 162.024C217.2 162.024 213.607 163.097 210.433 165.244C207.26 167.297 204.74 170.144 202.873 173.784C201.1 177.331 200.213 181.437 200.213 186.104C200.213 190.771 201.1 194.924 202.873 198.564C204.74 202.204 207.26 205.097 210.433 207.244C213.607 209.297 217.2 210.324 221.213 210.324ZM295.11 224.884C290.35 224.884 285.917 224.091 281.81 222.504C277.797 220.917 274.344 218.677 271.45 215.784C268.65 212.797 266.644 209.297 265.43 205.284L279.99 201.504C281.204 204.677 283.164 207.151 285.87 208.924C288.577 210.697 291.704 211.584 295.25 211.584C298.89 211.584 301.877 210.744 304.21 209.064C306.544 207.291 307.71 205.051 307.71 202.344C307.71 200.011 306.777 198.051 304.91 196.464C303.044 194.877 300.01 193.711 295.81 192.964L291.19 192.124C283.35 190.724 277.424 188.204 273.41 184.564C269.49 180.924 267.53 176.257 267.53 170.564C267.53 165.991 268.697 161.977 271.03 158.524C273.364 155.071 276.584 152.364 280.69 150.404C284.797 148.444 289.51 147.464 294.83 147.464C299.404 147.464 303.604 148.257 307.43 149.844C311.257 151.431 314.477 153.671 317.09 156.564C319.704 159.457 321.57 162.864 322.69 166.784L308.27 170.284C307.15 167.297 305.377 164.964 302.95 163.284C300.617 161.511 297.864 160.624 294.69 160.624C291.424 160.624 288.717 161.464 286.57 163.144C284.424 164.731 283.35 166.784 283.35 169.304C283.35 171.451 284.284 173.224 286.15 174.624C288.11 176.024 291.377 177.144 295.95 177.984L300.57 178.824C308.037 180.131 313.777 182.697 317.79 186.524C321.804 190.351 323.81 195.111 323.81 200.804C323.81 204.257 323.11 207.477 321.71 210.464C320.31 213.357 318.304 215.924 315.69 218.164C313.17 220.311 310.137 221.944 306.59 223.064C303.137 224.277 299.31 224.884 295.11 224.884Z" fill="white"/>
</svg>
