<svg width="165" height="60" viewBox="0 0 165 60" fill="none" xmlns="http://www.w3.org/2000/svg">
<path fill-rule="evenodd" clip-rule="evenodd" d="M21.2431 19.8601C21.2476 19.9041 21.2569 19.8921 21.2112 19.8921V19.9241C21.2157 19.9679 21.2248 19.956 21.1792 19.956V19.988C21.1837 20.0318 21.1929 20.0199 21.1472 20.0199V20.0519C21.1539 20.1584 21.1585 20.092 21.1153 20.1157V20.1477C21.1198 20.1916 21.129 20.1797 21.0835 20.1797V20.2116C21.09 20.3181 21.0947 20.2517 21.0515 20.2755V20.3075C21.058 20.4139 21.0627 20.3475 21.0196 20.3713V20.4352C21.0238 20.479 21.0332 20.4671 20.9877 20.4671V20.563C20.9919 20.6067 21.0012 20.5949 20.9557 20.5949V20.7226C20.9599 20.7665 20.9692 20.7545 20.9237 20.7545C20.9237 21.4293 20.8783 21.7198 21.0838 22.3838C21.4634 23.6099 22.3336 24.9188 22.982 25.9786C23.8976 27.4752 24.9193 28.9192 25.5429 30.7629C26.548 33.735 25.6828 36.9202 23.9675 39.3446C23.5162 39.9827 22.8371 40.8185 22.2679 41.3013C22.2679 41.8019 22.4093 43.2123 22.4576 43.8415L22.5555 45.1164C22.5666 45.5494 22.63 45.9568 22.6516 46.3932L22.9561 49.5051C23.0009 49.8228 23.1449 51.2451 23.1938 51.3377L23.8092 49.784C24.2558 48.7634 24.8011 47.8859 25.3677 46.9707C26.3298 45.4161 27.5057 44.0046 28.6457 42.586C28.8189 42.3703 28.983 42.2004 29.1614 41.9852C29.4961 41.5815 29.8255 41.2164 30.1671 40.787C32.2266 38.1995 33.9844 34.6191 32.6027 31.0754C32.3826 30.5108 32.1306 30.0865 31.8365 29.64C31.4516 29.0554 31.155 28.9029 30.8591 28.4142C30.3836 27.6284 29.5133 25.6991 31.1444 25.6127C32.2982 25.5515 33.835 25.9772 34.869 26.2555C37.7935 27.0428 41.5101 28.6761 44.0327 30.2471C44.5093 30.5438 44.9139 30.8152 45.3638 31.1201C45.822 31.4305 46.198 31.7561 46.6077 32.0795C47.3413 32.6585 48.144 33.6255 48.6222 34.4398C49.4394 35.8316 49.5254 37.711 49.5995 37.8473L50.004 37.0279C50.0811 36.8749 50.1335 36.7351 50.206 36.5914C50.2815 36.442 50.3404 36.3294 50.4112 36.1579C50.5588 35.8003 50.8563 35.2474 51.0089 34.8718C51.0613 34.7429 51.137 34.5686 51.2064 34.4308C51.3888 34.0691 52.6731 31.0746 52.6851 30.8762C52.685 30.1205 52.624 29.2212 52.4315 28.5236C52.2579 27.8946 51.9285 27.324 51.4811 26.8871C49.586 25.0367 46.361 24.7565 43.9501 24.0416C43.3631 23.8675 40.4852 22.9272 40.1801 22.663C39.5669 22.4829 37.1919 21.2075 36.6546 20.8953C36.4893 20.7992 33.4816 18.9953 33.405 18.9059C33.2105 18.833 32.8642 18.614 32.668 18.497C32.4424 18.3624 32.1913 18.2394 31.9568 18.1208C29.2792 16.7668 26.138 15.907 23.4319 17.6715C22.6782 18.163 21.5845 19.0378 21.2429 19.8605L21.2431 19.8601Z" fill="#89163B"/>
<path fill-rule="evenodd" clip-rule="evenodd" d="M23.1942 51.3374C23.1942 52.055 23.8522 55.06 24.0452 55.728C24.3787 56.8827 24.9028 58.3727 25.7723 59.2373C26.0281 59.4916 26.4611 59.8319 26.8429 59.9228C27.2822 60.0274 28.0027 59.9954 28.5399 59.9954C28.3329 59.5114 28.042 59.3223 28.0511 58.3342C28.0639 56.9638 29.2463 54.9224 29.8943 53.7626C30.126 53.3478 32.6838 49.1124 33.1652 48.5698C33.2153 48.5133 33.1696 48.5547 33.2281 48.5085C33.8268 47.6461 34.4106 46.7914 35.0215 45.9261C35.6312 45.0624 36.2415 44.2415 36.8553 43.3554C37.3928 42.5793 38.6438 40.8847 39.0444 40.0531C39.4313 39.2502 39.5054 38.7855 40.0897 37.7465C40.3725 37.2437 40.6806 36.8084 41.0592 36.5118C41.6212 36.0716 42.1498 36.2954 42.6557 36.6382C43.4539 37.1789 44.1105 38.0603 44.5316 39.2017C45.3101 41.3115 45.1522 43.7904 44.7432 46.006C44.6865 46.3132 44.5979 46.6334 44.5519 46.9363C44.7449 46.8032 46.877 43.111 47.1946 42.5195L49.3018 38.4644C49.4094 38.2492 49.516 38.0683 49.5998 37.847C49.5257 37.7106 49.4397 35.8313 48.6224 34.4394C48.1443 33.6252 47.3416 32.6582 46.6079 32.0791C46.1982 31.7558 45.8222 31.4302 45.3641 31.1198C44.9141 30.8148 44.5096 30.5435 44.033 30.2468C41.5104 28.6757 37.7938 27.0425 34.8692 26.2551C33.8353 25.9768 32.2984 25.5512 31.1447 25.6123C29.5136 25.6988 30.3839 27.6282 30.8594 28.4138C31.1553 28.9026 31.4519 29.0551 31.8368 29.6397C32.1308 30.0862 32.3829 30.5105 32.603 31.0751C33.9847 34.6188 32.2269 38.1991 30.1674 40.7867C29.8257 41.216 29.4964 41.5812 29.1617 41.9849C28.9833 42.2001 28.8192 42.3701 28.6459 42.5856C27.506 44.0043 26.3301 45.4158 25.368 46.9704C24.8014 47.8857 24.2561 48.7631 23.8095 49.7836L23.1941 51.3373L23.1942 51.3374Z" fill="#EE6B23"/>
<path fill-rule="evenodd" clip-rule="evenodd" d="M11.1015 8.33347L10.3764 8.9574C10.3446 8.98814 10.3075 9.0158 10.2721 9.0454C9.5822 9.62292 8.67172 10.9251 8.23965 11.6112C6.48592 14.3967 5.21341 17.6141 5.50311 21.1053C5.62345 22.5558 6.06999 23.9557 6.85933 25.1147C6.97176 25.2797 7.10858 25.4254 7.19871 25.5756C7.83925 25.8892 13.5296 26.469 14.5232 26.6154C15.2678 26.7251 15.8867 26.8226 16.5916 27.0056C16.7035 27.0346 16.7599 27.0667 16.8692 27.0762L15.7165 26.2204C15.5244 26.0802 15.3476 25.9364 15.1652 25.7822L13.6131 24.3652C13.2947 24.0102 13.008 23.6739 12.741 23.2569C11.5879 21.4561 11.8287 18.7817 12.7185 16.8868C13.1355 15.9987 13.8354 15.1411 14.4 14.6104C15.8071 13.2876 17.603 12.4069 19.5208 11.8107C20.239 11.5875 22.0254 11.1352 22.7419 11.0802C23.3459 11.0276 23.9881 10.9071 24.6137 10.8427C26.7605 10.6215 28.2434 10.6346 30.3825 11.1697C32.2801 11.6443 34.0158 12.3581 35.7341 13.2219C35.8559 13.2832 35.967 13.3409 36.0966 13.4026C36.2031 13.4534 36.3741 13.5166 36.4469 13.5961C37.1473 13.8733 41.36 16.3425 42.4752 16.9276C42.683 17.0366 43.1912 17.28 43.339 17.402C43.595 17.4961 43.9006 17.6764 44.1619 17.797C44.4535 17.9316 44.7202 18.0531 45.0227 18.1814C45.5314 18.3972 46.3035 18.7043 46.8859 18.8099C46.8613 18.7739 45.8847 18.045 45.7119 17.8732C45.6142 17.7759 45.5836 17.7475 45.4763 17.6618C45.1496 17.4012 44.536 16.6247 44.2601 16.2917C43.8158 15.7555 43.0869 14.4897 42.7878 13.9005L41.8197 11.8354C41.721 11.6236 41.6446 11.4448 41.5533 11.2396L41.2664 10.668L40.5162 9.91409C38.5924 8.14268 36.5935 7.02534 34.0225 6.09383C31.8176 5.29478 29.0519 4.77404 26.6112 4.63321C26.1424 4.60616 25.6761 4.59518 25.206 4.57643C24.9938 4.56799 23.8971 4.53397 23.7786 4.61326C23.4206 4.54877 22.2222 4.66958 21.8049 4.70982C18.9243 4.98807 16.2561 5.60879 13.6573 6.81071C13.0371 7.0976 12.2536 7.53797 11.698 7.9164L11.1016 8.33354L11.1015 8.33347Z" fill="url(#paint0_linear_66_610)"/>
<path fill-rule="evenodd" clip-rule="evenodd" d="M7.19865 25.5755C7.10852 25.4254 6.9717 25.2797 6.85927 25.1147C6.06993 23.9557 5.62339 22.5558 5.50305 21.1053C5.21328 17.614 6.48579 14.3966 8.23959 11.6112C8.67166 10.925 9.58214 9.62285 10.272 9.04533C10.3075 9.01573 10.3445 8.98807 10.3764 8.95733L11.1014 8.3334L11.6978 7.91627C12.2535 7.53784 13.0369 7.09746 13.6571 6.81058C16.2559 5.60865 18.9241 4.98794 21.8047 4.70969C22.222 4.66944 23.4203 4.54863 23.7784 4.61312C23.8969 4.53383 24.9936 4.56785 25.2058 4.57629C25.676 4.59511 26.1423 4.60602 26.611 4.63308C29.0517 4.77391 31.8174 5.29464 34.0223 6.09369C36.5933 7.0252 38.5922 8.14255 40.5161 9.91396L41.2662 10.6679C41.2287 10.4987 40.9564 10.0128 40.8617 9.82355C40.5511 9.20223 40.2966 8.79902 39.9436 8.21929C39.7027 7.82352 38.9165 6.79477 38.5602 6.44165C38.2204 6.10501 38.3878 6.21497 37.9378 5.81879L37.4421 5.35659C36.8786 4.85427 36.0529 4.29643 35.4093 3.9091C35.2701 3.82539 35.1659 3.76827 35.0265 3.68523C34.9469 3.63788 34.89 3.61625 34.8179 3.5746C33.7452 2.95442 32.2106 2.37214 31.0447 1.9836C30.2399 1.7154 28.8871 1.329 28.0714 1.15736C26.4865 0.823931 25.4669 0.61419 23.8105 0.37331C23.2545 0.292414 22.0947 0.154797 21.5344 0.127073L19.1391 -3.05176e-05C18.724 -3.05176e-05 18.3089 0.000505218 17.8938 -3.05176e-05L16.9669 0.0309082C16.8138 0.035462 16.8209 0.0569584 16.6806 0.0639229C15.4034 0.127608 13.7796 0.347394 12.5167 0.657317C12.4663 0.669706 12.4349 0.675197 12.3885 0.688792C12.3783 0.691805 12.3487 0.701113 12.3392 0.704462C12.3317 0.707141 12.3222 0.711159 12.3155 0.71377L12.2695 0.734329C12.1095 0.738146 11.3701 0.960878 11.1847 1.01767C10.079 1.35612 8.78604 1.89426 7.79399 2.44828C6.71924 3.04857 5.84217 3.67237 4.95499 4.49446L3.30667 6.26252C3.25115 6.33705 3.21238 6.38513 3.15218 6.45927C2.84627 6.83609 2.44541 7.48808 2.18644 7.92022C1.68988 8.7488 1.42798 9.3955 1.07647 10.2905C-0.0774403 13.2288 -0.490693 18.0012 0.780607 20.8809C1.3515 22.1741 2.12443 23.1368 3.2703 23.9469C4.16458 24.5791 5.52977 25.1582 6.63573 25.4348C6.81708 25.4801 7.01979 25.5608 7.19872 25.5755L7.19865 25.5755Z" fill="url(#paint1_radial_66_610)"/>
<path fill-rule="evenodd" clip-rule="evenodd" d="M40.372 52.6407C40.461 52.6007 40.5829 52.4167 40.6548 52.3278L41.4853 51.3063C41.674 51.0699 41.8451 50.8467 42.0277 50.6035C42.8227 49.5438 43.3512 48.7892 44.0758 47.7024C44.1578 47.5795 44.2306 47.4701 44.3187 47.3387C44.3727 47.2578 44.3892 47.224 44.4408 47.1414C44.4932 47.0574 44.5311 47.0294 44.5518 46.9361C44.5977 46.6333 44.6864 46.3131 44.743 46.0058C45.1521 43.7902 45.3099 41.3112 44.5314 39.2015C44.1104 38.0603 43.4538 37.1788 42.6556 36.638C42.1496 36.2953 41.621 36.0714 41.0591 36.5117C40.6804 36.8083 40.3723 37.2436 40.0895 37.7464C39.5053 38.7854 39.4312 39.2501 39.0443 40.053C38.6436 40.8845 37.3927 42.5792 36.8551 43.3553C36.2413 44.2413 35.6311 45.0623 35.0213 45.9259C34.4104 46.7913 33.8267 47.646 33.228 48.5083C33.1694 48.5546 33.2152 48.5131 33.1651 48.5697C32.6837 49.1122 30.1259 53.3478 29.8942 53.7624C29.2462 54.9222 28.0638 56.9636 28.051 58.3341C28.0418 59.3221 28.3328 59.5113 28.5398 59.9952C30.3081 59.9952 32.463 59.1401 33.9846 58.2695C34.2288 58.1298 34.4759 57.9766 34.7142 57.8177C34.961 57.6531 35.1995 57.5063 35.4366 57.3269C35.5577 57.2353 35.6537 57.1727 35.7697 57.0851C35.8925 56.9924 35.9856 56.9149 36.1114 56.8202C36.4668 56.5529 37.3897 55.7783 37.7299 55.4373L38.9436 54.2564C39.0561 54.1445 39.1127 54.0533 39.2305 53.9365C39.3448 53.8232 39.4219 53.7543 39.5234 53.6229C39.6517 53.4566 40.2602 52.8443 40.372 52.6407V52.6407Z" fill="url(#paint2_radial_66_610)"/>
<path fill-rule="evenodd" clip-rule="evenodd" d="M40.1803 22.6625C40.4854 22.9267 43.3632 23.867 43.9503 24.0411C46.3612 24.756 49.5862 25.0363 51.4813 26.8866C51.9287 27.3235 52.2581 27.8941 52.4317 28.5232C52.6242 29.2206 52.6851 30.12 52.6853 30.8757L53.4671 28.8362C54.1458 26.7802 54.5975 25.5348 54.9097 23.2543C55.007 22.5439 55.02 21.3924 54.7409 20.6895C54.6088 20.3568 54.4218 20.082 54.1477 19.8778C53.8241 19.6366 53.6378 19.519 53.2436 19.377C52.9033 19.2543 52.5269 19.1642 52.0931 19.1227C50.9145 19.0098 50.4591 19.0995 49.3757 19.0933C49.1198 19.0918 48.9779 19.1309 48.7044 19.1269L48.0396 19.0891C47.168 18.9956 47.1197 18.8523 46.8856 18.8097C46.3032 18.7041 45.5312 18.3971 45.0224 18.1812C44.7199 18.0529 44.4533 17.9314 44.1616 17.7969C43.9002 17.6763 43.5947 17.4959 43.3387 17.4018C43.1909 17.2797 42.6827 17.0364 42.4749 16.9274C41.3597 16.3423 37.147 13.8731 36.4466 13.596C36.3738 13.5165 36.2028 13.4532 36.0963 13.4024C35.9667 13.3407 35.8556 13.2831 35.7338 13.2217C34.0155 12.3579 32.2799 11.6441 30.3822 11.1695C28.2431 10.6343 26.7602 10.6214 24.6134 10.8425C23.9878 10.9069 23.3455 11.0274 22.7416 11.08C22.0251 11.1351 20.2387 11.5872 19.5205 11.8105C17.6027 12.4068 15.8069 13.2874 14.3997 14.6102C13.8352 15.1409 13.1353 15.9985 12.7182 16.8866C11.8284 18.7815 11.5876 21.4559 12.7407 23.2567C13.0077 23.6737 13.2944 24.01 13.6128 24.365L15.1649 25.782C15.3473 25.9363 15.5241 26.08 15.7162 26.2202L16.8689 27.076L17.7751 27.3861C18.0858 27.5099 18.3255 27.6261 18.5944 27.78C19.1035 28.0713 19.2188 28.1976 19.6101 28.5844C19.8649 28.8363 20.1974 29.381 20.3338 29.7126C20.3949 29.8612 20.4581 29.9821 20.5211 30.1319C20.5869 30.2881 20.6365 30.4343 20.6914 30.6002C21.2698 32.3498 21.6956 35.0074 21.8519 36.8154C21.9159 37.5553 22.0166 38.3143 22.0738 39.0519L22.2678 41.3007C22.8372 40.8179 23.5162 39.9821 23.9675 39.344C25.6828 36.9196 26.548 33.7343 25.5429 30.7623C24.9193 28.9186 23.8977 27.4746 22.982 25.978C22.3335 24.9183 21.4634 23.6093 21.0838 22.3832C20.8782 21.7191 20.9237 21.4287 20.9237 20.7539L20.9557 20.722V20.5943L20.9876 20.5623V20.4665L21.0196 20.4346V20.3707L21.0515 20.3068V20.2748L21.0835 20.211V20.1791L21.1153 20.1471V20.1151L21.1472 20.0513V20.0193L21.1792 19.9873V19.9554L21.2112 19.9235V19.8915L21.2431 19.8595C21.5847 19.0368 22.6784 18.162 23.4321 17.6706C26.1382 15.906 29.2794 16.7659 31.957 18.1198C32.1915 18.2384 32.4426 18.3614 32.6681 18.496C32.8644 18.6131 33.2106 18.832 33.4052 18.905C33.4817 18.9944 36.4894 20.7983 36.6548 20.8943C37.1921 21.2065 39.5671 22.4819 40.1803 22.662V22.6625Z" fill="url(#paint3_radial_66_610)"/>
<path fill-rule="evenodd" clip-rule="evenodd" d="M109.632 19.1896C109.632 18.1255 110.068 16.8871 110.741 16.1802C110.948 15.9636 110.983 15.892 111.26 15.6771C112.728 14.5381 114.554 14.5044 116.05 15.6448L116.816 16.4437C117.209 16.9667 117.48 17.5905 117.612 18.2338C117.899 19.6295 117.506 21.2872 116.568 22.2307C116.45 22.3495 116.463 22.3818 116.319 22.4921C115.991 22.7429 115.943 22.8694 115.4 23.1383C114.078 23.7942 112.464 23.6883 111.316 22.7414C110.71 22.2412 110.275 21.6898 109.978 20.9507C109.793 20.4914 109.632 19.8394 109.632 19.1896L109.632 19.1896ZM117.486 12.3567C117.123 12.1134 117.09 12.0605 116.643 11.7954C115.805 11.2982 114.423 10.8561 113.368 10.8561H112.761C111.156 10.8561 109.259 11.7086 108.171 12.7156C108.075 12.804 108.013 12.8881 107.912 12.9681C107.768 13.0829 107.772 13.0796 107.657 13.2236C107.577 13.3244 107.491 13.3823 107.406 13.4837C104.86 16.5244 104.555 20.6306 106.588 24.0532C106.922 24.615 107.119 24.787 107.465 25.2195C107.983 25.8662 109.011 26.6359 109.738 27.0021C111.599 27.9398 113.575 28.0804 115.562 27.2908C116.382 26.965 116.821 26.6494 117.518 26.1821C117.518 27.6188 117.497 28.4543 116.425 29.5267C116.221 29.7309 116.068 29.8473 115.835 30.023C115.726 30.1059 115.618 30.1712 115.505 30.2358C115.394 30.2995 115.249 30.3841 115.129 30.4338C114.288 30.781 114.027 30.8758 113.016 30.8758C111.578 30.8758 110.198 29.996 109.44 28.8643C108.236 29.6708 107.036 30.4845 105.832 31.2909C105.867 31.4222 106.343 31.9804 106.434 32.0939C106.782 32.5281 107.437 33.1093 107.889 33.4485C111.093 35.8502 115.381 35.7775 118.563 33.3892L118.937 33.0926C119.074 32.9853 119.144 32.9043 119.279 32.7964C119.471 32.6438 119.903 32.1536 120.08 31.9369C120.946 30.8766 121.646 29.5608 121.928 28.1649C122.074 27.4374 122.148 26.6484 122.148 25.7671C122.148 24.8818 122.18 24.0583 122.18 23.1489V10.7923H117.487V12.3568L117.486 12.3567Z" fill="white"/>
<path fill-rule="evenodd" clip-rule="evenodd" d="M75.1481 9.99401C75.1903 10.0426 75.181 10.0296 75.2084 10.0933L75.4873 10.932C75.5985 11.2654 75.6903 11.5584 75.8063 11.8902C76.0329 12.5382 76.2437 13.1686 76.4613 13.8214L77.7663 17.657H72.5618L75.1481 9.99401V9.99401ZM63.9729 27.3955H69.273C69.3287 27.1566 69.4254 26.9571 69.5008 26.7293C69.5731 26.511 69.6481 26.2867 69.7242 26.0585L71.093 21.9994H79.235C79.2844 22.2113 79.387 22.4716 79.4545 22.6741L81.055 27.3956H86.2913C86.282 27.2837 86.2233 27.1319 86.1821 27.0258C86.1303 26.8923 86.0975 26.784 86.0453 26.6518L84.4348 22.2275C84.3457 21.9891 84.2612 21.7315 84.1614 21.4792C83.9658 20.9844 83.8156 20.5053 83.6228 20.0064L83.0861 18.5315C82.9098 18.023 82.7179 17.5554 82.5516 17.0543C82.2761 16.2242 81.7788 14.9232 81.4745 14.1083L80.1412 10.4288C79.5585 8.74862 78.8166 6.91681 78.2568 5.2567C78.1916 5.06323 77.7463 3.9126 77.7342 3.76782H72.5935C72.5623 3.90202 72.5103 4.00093 72.4698 4.12295L71.5198 6.71705C71.3475 7.22787 71.1575 7.68338 70.9853 8.1942C70.6744 9.1162 70.2142 10.2156 69.9075 11.1395C69.8303 11.3722 69.7366 11.6188 69.6424 11.8643C69.2315 12.9349 68.8278 14.1696 68.4201 15.2079C67.9633 16.3711 67.5377 17.7117 67.079 18.8797L66.6681 20.0014C66.3024 20.9473 65.9636 22.0074 65.5916 22.948C65.493 23.1974 65.4244 23.4218 65.3271 23.6733C65.0491 24.3922 64.8005 25.1758 64.5154 25.8949L63.9727 27.3956L63.9729 27.3955Z" fill="white"/>
<path fill-rule="evenodd" clip-rule="evenodd" d="M130.769 24.394C128.669 24.394 128.936 22.3373 129.852 21.5617C130.975 20.6111 133.146 20.6746 134.509 20.1835C134.641 20.136 134.8 20.0476 134.92 20.0197C134.92 20.7816 134.875 21.3088 134.642 21.8491C134.534 22.0986 134.398 22.3132 134.249 22.5102C134.062 22.7588 133.846 23.0147 133.606 23.2082C133.55 23.2537 133.532 23.2772 133.469 23.327C132.736 23.9071 131.732 24.394 130.769 24.394H130.769ZM125.692 15.6455L129.46 16.6033C129.492 16.2147 130.13 15.3698 130.545 15.0704C131.546 14.3475 133.153 14.1711 134.113 14.8877C134.425 15.1208 134.888 15.6394 134.888 16.1562C134.888 17.0156 134.314 17.1611 133.579 17.3381C131.272 17.8939 128.659 18.0232 126.573 19.4639C125.97 19.8802 125.333 20.587 125.044 21.2556C124.347 22.8704 124.584 25.1706 125.763 26.3663C126.079 26.6861 126.435 26.9338 126.837 27.1446C127.14 27.3038 127.579 27.4432 127.921 27.5296C129.637 27.9626 131.681 27.5941 133.223 26.9757C133.776 26.754 134.147 26.5574 134.645 26.2268C134.732 26.1693 134.834 26.0772 134.92 26.0543V27.4273H139.39L139.39 19.3491C139.391 19.0781 139.356 18.9431 139.358 18.6789C139.365 17.2101 139.484 16.0139 138.987 14.5155C138.73 13.7421 138.346 12.9861 137.833 12.4764C137.615 12.2589 137.474 12.0934 137.212 11.9158C137.118 11.8519 137.064 11.8029 136.97 11.7434C135.363 10.7314 132.928 10.5811 131.088 10.8876C129.538 11.1458 128.387 11.797 127.296 12.8752L126.955 13.2687C126.751 13.5309 126.53 13.8256 126.364 14.1141C126.175 14.4411 125.719 15.3188 125.692 15.6454L125.692 15.6455Z" fill="white"/>
<path fill-rule="evenodd" clip-rule="evenodd" d="M155.833 24.3941C155.403 24.3941 154.981 24.2829 154.724 24.0986C154.457 23.9065 154.237 23.5927 154.237 23.1489C154.237 21.703 155.256 21.1904 156.401 20.8752C157.36 20.6116 158.685 20.5024 159.573 20.1835C159.705 20.136 159.864 20.0478 159.984 20.0198C159.984 20.8625 160.087 21.1241 159.718 21.8612C159.469 22.3594 159.183 22.7201 158.811 23.0936C158.459 23.4472 157.979 23.7351 157.536 23.9578C157.072 24.1911 156.383 24.3941 155.833 24.3941ZM150.757 15.6456C151.076 15.7199 151.373 15.8082 151.695 15.8884C152.025 15.9703 152.323 16.045 152.64 16.1244C153.263 16.2802 153.893 16.4563 154.524 16.6034C154.595 16.2989 154.818 15.9734 154.971 15.7411C155.059 15.6074 155.152 15.5122 155.253 15.3849C155.452 15.135 156.123 14.7348 156.468 14.6195C156.616 14.57 156.829 14.5214 157.009 14.4907C157.796 14.3571 158.553 14.4512 159.199 14.8975C159.874 15.3632 160.263 16.4399 159.656 16.946C159.484 17.09 159.158 17.204 158.924 17.2675C158.376 17.4166 157.77 17.5313 157.179 17.6293C156.073 17.8128 154.801 18.0921 153.746 18.4432C152.4 18.8912 151.057 19.6389 150.347 20.8236C150.284 20.9288 150.197 21.0712 150.154 21.1731C149.584 22.5107 149.579 23.9797 150.131 25.3067C150.235 25.5551 150.392 25.8117 150.542 26.0137C152.422 28.5498 156.962 27.8841 159.44 26.4038C159.539 26.3444 159.609 26.3019 159.711 26.2277C159.796 26.1655 159.891 26.0793 159.984 26.0543V27.4273H164.454L164.455 19.0927C164.455 18.881 164.422 18.7614 164.422 18.5191C164.423 18.1154 164.454 17.7713 164.454 17.3377C164.454 16.3255 164.318 15.3086 164.059 14.5399C163.922 14.1322 163.669 13.5117 163.446 13.1735C163.026 12.5379 162.674 12.1727 162.034 11.7435C161.728 11.5379 161.347 11.3495 160.962 11.2188C159.663 10.7773 158.823 10.7603 157.462 10.7603C155.874 10.7603 154.285 11.3048 153.119 12.1967L152.361 12.8752C151.912 13.3603 151.462 14.0088 151.172 14.5918C151.077 14.7809 150.775 15.4272 150.757 15.6455V15.6456Z" fill="white"/>
<path fill-rule="evenodd" clip-rule="evenodd" d="M92.7092 12.4845V10.7922H88.0156V27.3955H92.7092V17.7528C92.7092 17.38 92.8552 16.9463 92.9856 16.6882C93.1322 16.3983 93.295 16.1142 93.515 15.8765C93.8796 15.4827 94.5839 15.0069 95.3274 15.0069C96.2455 15.0069 96.7848 15.2074 97.3952 15.8128C97.8501 16.264 98.1692 16.9163 98.1692 17.5932V27.5232H102.639V17.657C102.639 15.0656 101.324 12.6373 99.3448 11.4366C97.772 10.4823 95.924 10.4609 94.2841 11.2813C93.4091 11.7192 92.9317 12.3354 92.7093 12.4844L92.7092 12.4845Z" fill="white"/>
<path fill-rule="evenodd" clip-rule="evenodd" d="M150.342 55.4294H154.493V47.926C154.493 46.8465 154.538 46.168 154.941 45.4683C155.246 44.9372 155.984 44.4138 156.823 44.4138C157.369 44.4138 157.808 44.3933 158.303 44.6585C159.126 45.1 159.537 46.0156 159.537 47.032V55.4294H163.72V46.2657C163.72 44.9435 163.566 43.9209 162.986 42.8492C162.685 42.2938 162.409 42.0069 161.957 41.6111C161.845 41.5129 161.723 41.4193 161.591 41.338C160.496 40.6607 159.686 40.6142 158.388 40.6142C157.968 40.6142 157.413 40.7493 157.111 40.8697C156.638 41.0576 156.513 41.0973 156.069 41.3929C155.473 41.7907 155.279 42.0478 154.868 42.4901L154.493 42.9132V35.6013H150.342V55.4295V55.4294Z" fill="white"/>
<path fill-rule="evenodd" clip-rule="evenodd" d="M64.4836 55.4294H68.6983V48.0856H77.7663V44.318H68.6983V40.1991H78.9796V36.4315H64.4836V55.4294Z" fill="white"/>
<path fill-rule="evenodd" clip-rule="evenodd" d="M124.447 43.9668C125.145 43.9668 125.479 43.9379 126.129 44.2643C126.446 44.4233 126.726 44.6664 126.933 44.9287L127.225 45.3396C127.468 45.7047 127.768 46.5282 127.768 47.0001H121.605C121.619 46.3888 122.094 45.4362 122.489 44.9465C122.934 44.3954 123.689 43.9668 124.447 43.9668ZM117.518 48.1815C117.518 50.2296 118.203 52.1707 119.554 53.5216C120.349 54.3163 121.004 54.774 122.039 55.1876C123.369 55.7197 124.157 55.7487 125.597 55.7487C126.424 55.7487 127.43 55.5237 128.151 55.2382C128.399 55.1401 128.603 55.027 128.843 54.9079C129.09 54.7852 129.257 54.6701 129.479 54.5226C129.707 54.3708 129.858 54.2458 130.062 54.0843C130.338 53.8667 130.898 53.3194 131.088 53.0347L128.726 50.9274C128.64 50.9846 128.501 51.113 128.413 51.1899C128.311 51.2792 128.201 51.3634 128.092 51.4432C127.371 51.9726 126.486 52.3961 125.501 52.3961C124.753 52.3961 124.347 52.4269 123.63 52.1275C122.961 51.8478 122.39 51.3825 122.063 50.7256C121.927 50.4536 121.698 49.9667 121.669 49.6184H131.216C131.9 49.6184 131.823 49.9069 131.823 48.1815C131.823 47.087 131.569 46.0074 131.292 45.1679C130.906 43.9986 130.083 42.7616 129.109 42.0186C128.936 41.886 128.778 41.7779 128.585 41.6488C127.678 41.043 126.389 40.6143 125.15 40.6143C124.221 40.6143 123.695 40.5871 122.768 40.8509C122.215 41.0083 121.984 41.1114 121.488 41.3593C120.631 41.7877 119.839 42.4234 119.247 43.1727C118.133 44.5802 117.518 46.267 117.518 48.1815L117.518 48.1815Z" fill="white"/>
<path fill-rule="evenodd" clip-rule="evenodd" d="M94.178 42.9131V40.8696H90.0271V55.4294H94.178V47.926C94.178 46.8464 94.2236 46.168 94.6259 45.4683C94.9312 44.9371 95.6699 44.4138 96.5088 44.4138C97.0547 44.4138 97.4935 44.3933 97.9882 44.6585C98.8116 45.0999 99.2228 46.0156 99.2228 47.032V55.4294H103.405V46.2656C103.405 45.2508 103.299 44.3432 102.977 43.5011L102.278 42.2522C102.172 42.1279 102.091 42.0292 101.977 41.9152C101.916 41.8548 101.879 41.8143 101.818 41.7549L101.277 41.3379C101.146 41.2573 101.01 41.1668 100.873 41.1031C99.8357 40.6227 99.2055 40.6141 98.0732 40.6141C97.6535 40.6141 97.0987 40.7491 96.796 40.8695C94.9077 41.6204 94.5531 42.6617 94.1778 42.913L94.178 42.9131Z" fill="white"/>
<path fill-rule="evenodd" clip-rule="evenodd" d="M142.551 27.3955C142.551 27.469 142.573 27.4913 142.647 27.4913H146.798C146.871 27.4913 146.893 27.469 146.893 27.3955V2.10743C146.893 2.03383 146.871 2.0116 146.798 2.0116H142.551V27.3955H142.551Z" fill="white"/>
<path fill-rule="evenodd" clip-rule="evenodd" d="M134.154 48.2134C134.154 49.4258 134.416 50.3926 134.778 51.2605C135.44 52.845 136.575 54.0203 138.059 54.8445L138.678 55.1514C140 55.7225 140.85 55.7487 142.264 55.7487C143.966 55.7487 145.366 55.133 146.648 54.0985C146.898 53.897 147.534 53.3337 147.692 53.0986L145.297 50.6401L144.826 51.0314C144.203 51.5877 143.164 52.1727 142.232 52.1727C141.35 52.1727 141.057 52.1898 140.252 51.7895C139.475 51.403 138.907 50.7385 138.587 49.9426C138.163 48.8891 138.153 47.5059 138.578 46.4433C138.751 46.0086 139.106 45.4493 139.414 45.1408C139.894 44.6611 140.772 44.1904 141.497 44.1904C142.486 44.1904 142.996 44.1909 143.854 44.7393C144.141 44.9226 144.564 45.2612 144.81 45.5075C144.905 45.6033 144.975 45.7415 145.137 45.7549C145.177 45.6068 145.33 45.5149 145.433 45.4122L146.981 43.7349C147.181 43.5354 147.468 43.1794 147.628 43.0728C147.513 42.9011 147.327 42.7078 147.162 42.5804C147.058 42.4997 147.012 42.429 146.916 42.3478C146.817 42.2645 146.73 42.2038 146.63 42.1222C145.459 41.1598 143.843 40.6142 142.295 40.6142C141.028 40.6142 140.285 40.6189 139.066 41.0571L138.119 41.4824C137.623 41.785 137.512 41.8152 136.995 42.2101C136.938 42.2533 136.929 42.2657 136.875 42.3135C136.812 42.3681 136.794 42.3719 136.732 42.4264C136.647 42.5009 136.594 42.5758 136.507 42.6482C136.194 42.9069 135.65 43.5741 135.437 43.909C134.647 45.1458 134.153 46.558 134.153 48.2133L134.154 48.2134Z" fill="white"/>
<path fill-rule="evenodd" clip-rule="evenodd" d="M107.652 40.8696H105.896V44.4138H107.652V51.6937C107.652 52.2496 107.77 52.957 107.93 53.3639C108.065 53.7094 108.208 54.0218 108.418 54.3121C108.77 54.7977 109.227 55.1435 109.809 55.3796C110.868 55.8085 112.786 55.7807 113.866 55.4174C114.477 55.2118 114.612 55.1424 115.156 54.8546V51.5339C115.053 51.5579 114.869 51.6496 114.772 51.6927C114.055 52.0093 113.648 52.0128 112.889 52.0128C112.546 52.0128 112.27 51.8399 112.098 51.6543C111.93 51.4741 111.803 51.1379 111.803 50.7995V44.4137H115.219V40.8695H111.803V37.1656H107.652V40.8695L107.652 40.8696Z" fill="white"/>
<path fill-rule="evenodd" clip-rule="evenodd" d="M82.0129 55.4294H86.1637V40.8696H82.0129V55.4294Z" fill="white"/>
<path fill-rule="evenodd" clip-rule="evenodd" d="M81.917 39.2732H86.2913V35.6013H81.917V39.2732Z" fill="white"/>
<defs>
<linearGradient id="paint0_linear_66_610" x1="5.46186" y1="15.819" x2="46.8857" y2="15.819" gradientUnits="userSpaceOnUse">
<stop stop-color="#C62B40"/>
<stop offset="1" stop-color="#D73738"/>
</linearGradient>
<radialGradient id="paint1_radial_66_610" cx="0" cy="0" r="1" gradientUnits="userSpaceOnUse" gradientTransform="translate(22.2861 8.43802) scale(20.6332 12.7878)">
<stop stop-color="#FFCC4C"/>
<stop offset="1" stop-color="#F49117"/>
</radialGradient>
<radialGradient id="paint2_radial_66_610" cx="0" cy="0" r="1" gradientUnits="userSpaceOnUse" gradientTransform="translate(36.5671 48.1313) scale(8.51603 11.8641)">
<stop stop-color="#F9BB09"/>
<stop offset="1" stop-color="#F8AA0E"/>
</radialGradient>
<radialGradient id="paint3_radial_66_610" cx="0" cy="0" r="1" gradientUnits="userSpaceOnUse" gradientTransform="translate(35.6176 25.3929) rotate(41.6716) scale(17.9733 18.3029)">
<stop stop-color="#FFD56B"/>
<stop offset="1" stop-color="#FF8C08"/>
</radialGradient>
</defs>
</svg>
