<svg width="567" height="44" viewBox="0 0 567 44" fill="none" xmlns="http://www.w3.org/2000/svg">
<path d="M0.527346 15.1501V0.950085H5.06735C5.96068 0.950085 6.73401 1.09675 7.38735 1.39008C8.04068 1.68342 8.54068 2.10342 8.88735 2.65009C9.24735 3.19675 9.42735 3.83675 9.42735 4.57008C9.42735 5.26342 9.26068 5.87008 8.92735 6.39008C8.59401 6.91009 8.12068 7.31675 7.50735 7.61009C8.30735 7.87675 8.92735 8.32342 9.36735 8.95009C9.80735 9.57675 10.0273 10.3168 10.0273 11.1701C10.0273 11.9834 9.82735 12.6901 9.42735 13.2901C9.02735 13.8768 8.46068 14.3368 7.72735 14.6701C7.00735 14.9901 6.15401 15.1501 5.16735 15.1501H0.527346ZM2.20735 2.45008V6.99009H4.98735C5.86735 6.99009 6.54068 6.79675 7.00735 6.41009C7.47401 6.02342 7.70735 5.46342 7.70735 4.73008C7.70735 3.99675 7.46735 3.43675 6.98735 3.05009C6.50735 2.65008 5.84068 2.45008 4.98735 2.45008H2.20735ZM2.20735 13.6501H5.12735C6.12735 13.6501 6.90735 13.4234 7.46735 12.9701C8.02735 12.5168 8.30735 11.8834 8.30735 11.0701C8.30735 10.2434 8.02735 9.60342 7.46735 9.15009C6.92068 8.68342 6.14068 8.45009 5.12735 8.45009H2.20735V13.6501ZM12.8395 19.4301C12.5595 19.4301 12.2995 19.3968 12.0595 19.3301C11.8195 19.2768 11.5729 19.1834 11.3195 19.0501L11.7795 17.7701C11.9129 17.8501 12.0595 17.9101 12.2195 17.9501C12.3929 17.9901 12.5729 18.0101 12.7595 18.0101C13.1729 18.0101 13.5329 17.8768 13.8395 17.6101C14.1595 17.3568 14.4329 16.9501 14.6595 16.3901L15.1995 15.0501L10.9195 4.83008H12.6795L15.9795 13.3101L18.9595 4.83008H20.6595L16.0595 16.7701C15.7129 17.6768 15.2729 18.3434 14.7395 18.7701C14.2062 19.2101 13.5729 19.4301 12.8395 19.4301ZM26.0033 15.1501V0.310085H27.6033V6.65009C27.9766 5.99675 28.4833 5.48342 29.1233 5.11008C29.7766 4.72342 30.51 4.53009 31.3233 4.53009C32.0033 4.53009 32.6366 4.67008 33.2233 4.95008C33.81 5.21675 34.3233 5.59675 34.7633 6.09009C35.2033 6.58342 35.5433 7.16342 35.7833 7.83008C36.0366 8.48342 36.1633 9.19675 36.1633 9.97009C36.1633 10.7434 36.0366 11.4634 35.7833 12.1301C35.5433 12.7968 35.1966 13.3768 34.7433 13.8701C34.3033 14.3634 33.7833 14.7501 33.1833 15.0301C32.5833 15.3101 31.9366 15.4501 31.2433 15.4501C30.4433 15.4501 29.7166 15.2568 29.0633 14.8701C28.41 14.4834 27.8966 13.9501 27.5233 13.2701L27.4433 15.1501H26.0033ZM31.0433 13.9901C31.55 13.9901 32.01 13.8901 32.4233 13.6901C32.85 13.4901 33.2166 13.2168 33.5233 12.8701C33.8433 12.5101 34.09 12.0901 34.2633 11.6101C34.4366 11.1168 34.5233 10.5768 34.5233 9.99009C34.5233 9.40342 34.4366 8.87009 34.2633 8.39008C34.09 7.89675 33.8433 7.47675 33.5233 7.13008C33.2166 6.77008 32.85 6.49008 32.4233 6.29009C32.01 6.09008 31.55 5.99008 31.0433 5.99008C30.5366 5.99008 30.07 6.09008 29.6433 6.29009C29.23 6.49008 28.8633 6.77008 28.5433 7.13008C28.2366 7.47675 27.9966 7.89675 27.8233 8.39008C27.65 8.87009 27.5633 9.40342 27.5633 9.99009C27.5633 10.5768 27.65 11.1168 27.8233 11.6101C27.9966 12.0901 28.2366 12.5101 28.5433 12.8701C28.8633 13.2168 29.23 13.4901 29.6433 13.6901C30.07 13.8901 30.5366 13.9901 31.0433 13.9901ZM38.0447 15.1501V4.83008H39.4847L39.5847 6.75009C39.838 6.11009 40.218 5.61008 40.7247 5.25008C41.2314 4.87675 41.8247 4.69009 42.5047 4.69009C42.7314 4.69009 42.9314 4.71009 43.1047 4.75008C43.2914 4.77675 43.4514 4.81675 43.5847 4.87009L43.3847 6.39008C43.238 6.33675 43.0847 6.30342 42.9247 6.29009C42.7647 6.26342 42.6047 6.25008 42.4447 6.25008C41.8847 6.25008 41.3914 6.39008 40.9647 6.67008C40.5514 6.95008 40.2247 7.35008 39.9847 7.87009C39.758 8.37675 39.6447 8.97675 39.6447 9.67009V15.1501H38.0447ZM47.0447 1.81008C47.0447 2.01008 46.9914 2.19675 46.8847 2.37008C46.7914 2.53008 46.658 2.66342 46.4847 2.77009C46.3247 2.86342 46.1447 2.91008 45.9447 2.91008C45.7447 2.91008 45.558 2.86342 45.3847 2.77009C45.2247 2.66342 45.0914 2.53008 44.9847 2.37008C44.8914 2.19675 44.8447 2.01008 44.8447 1.81008C44.8447 1.61008 44.8914 1.43008 44.9847 1.27009C45.0914 1.09675 45.2247 0.963418 45.3847 0.870085C45.558 0.763418 45.7447 0.710084 45.9447 0.710084C46.1447 0.710084 46.3247 0.763418 46.4847 0.870085C46.658 0.963418 46.7914 1.09675 46.8847 1.27009C46.9914 1.43008 47.0447 1.61008 47.0447 1.81008ZM45.1447 15.1501V4.83008H46.7447V15.1501H45.1447ZM53.4592 15.4501C52.7792 15.4501 52.1459 15.3168 51.5592 15.0501C50.9726 14.7701 50.4592 14.3834 50.0192 13.8901C49.5792 13.3968 49.2326 12.8234 48.9792 12.1701C48.7392 11.5034 48.6192 10.7834 48.6192 10.0101C48.6192 9.23675 48.7392 8.51675 48.9792 7.85009C49.2326 7.18342 49.5792 6.60342 50.0192 6.11009C50.4726 5.61675 50.9992 5.23008 51.5992 4.95008C52.1992 4.67008 52.8459 4.53009 53.5392 4.53009C54.3259 4.53009 55.0326 4.71009 55.6592 5.07009C56.2992 5.43009 56.8059 5.93675 57.1792 6.59008V0.310085H58.7792V15.1501H57.3392L57.2592 13.1901C56.8859 13.8968 56.3659 14.4501 55.6992 14.8501C55.0459 15.2501 54.2992 15.4501 53.4592 15.4501ZM53.7392 13.9901C54.2459 13.9901 54.7059 13.8901 55.1192 13.6901C55.5459 13.4901 55.9126 13.2168 56.2192 12.8701C56.5392 12.5101 56.7859 12.0901 56.9592 11.6101C57.1326 11.1168 57.2192 10.5768 57.2192 9.99009C57.2192 9.40342 57.1326 8.87009 56.9592 8.39008C56.7859 7.89675 56.5392 7.47675 56.2192 7.13008C55.9126 6.77008 55.5459 6.49008 55.1192 6.29009C54.7059 6.09008 54.2459 5.99008 53.7392 5.99008C53.2326 5.99008 52.7659 6.09008 52.3392 6.29009C51.9259 6.49008 51.5592 6.77008 51.2392 7.13008C50.9326 7.47675 50.6926 7.89675 50.5192 8.39008C50.3459 8.87009 50.2592 9.40342 50.2592 9.99009C50.2592 10.5768 50.3459 11.1168 50.5192 11.6101C50.6926 12.0901 50.9326 12.5101 51.2392 12.8701C51.5592 13.2168 51.9259 13.4901 52.3392 13.6901C52.7659 13.8901 53.2326 13.9901 53.7392 13.9901ZM65.4406 15.0501C64.7606 15.0501 64.1273 14.9168 63.5406 14.6501C62.9673 14.3834 62.4606 14.0168 62.0206 13.5501C61.594 13.0701 61.2606 12.5101 61.0206 11.8701C60.7806 11.2301 60.6606 10.5434 60.6606 9.81009C60.6606 9.06342 60.7806 8.37009 61.0206 7.73009C61.274 7.09008 61.6206 6.53008 62.0606 6.05009C62.5006 5.57009 63.014 5.19675 63.6006 4.93008C64.2006 4.66342 64.8406 4.53009 65.5206 4.53009C66.3073 4.53009 67.0206 4.71675 67.6606 5.09009C68.314 5.46342 68.8206 5.97675 69.1806 6.63008L69.2606 4.83008H70.7006V14.2701C70.7006 15.0568 70.5806 15.7701 70.3406 16.4101C70.1006 17.0634 69.7606 17.6234 69.3206 18.0901C68.8806 18.5568 68.354 18.9101 67.7406 19.1501C67.1273 19.4034 66.4473 19.5301 65.7006 19.5301C65.0473 19.5301 64.434 19.4301 63.8606 19.2301C63.2873 19.0434 62.774 18.7634 62.3206 18.3901C61.8806 18.0301 61.514 17.5968 61.2206 17.0901L62.5606 16.4101C62.9473 16.9701 63.4006 17.3968 63.9206 17.6901C64.454 17.9968 65.0473 18.1501 65.7006 18.1501C66.394 18.1501 66.994 17.9901 67.5006 17.6701C68.0206 17.3634 68.414 16.9234 68.6806 16.3501C68.9606 15.7768 69.1006 15.1034 69.1006 14.3301V13.0101C68.7273 13.6501 68.2206 14.1501 67.5806 14.5101C66.9406 14.8701 66.2273 15.0501 65.4406 15.0501ZM65.7206 13.5901C66.214 13.5901 66.6673 13.4968 67.0806 13.3101C67.5073 13.1234 67.874 12.8634 68.1806 12.5301C68.4873 12.1834 68.7206 11.7768 68.8806 11.3101C69.054 10.8434 69.1406 10.3368 69.1406 9.79009C69.1406 9.24342 69.054 8.73675 68.8806 8.27009C68.7206 7.80342 68.4873 7.40342 68.1806 7.07009C67.874 6.72342 67.5073 6.45675 67.0806 6.27008C66.6673 6.08342 66.214 5.99008 65.7206 5.99008C65.2273 5.99008 64.7673 6.08342 64.3406 6.27008C63.9273 6.45675 63.5673 6.72342 63.2606 7.07009C62.954 7.40342 62.714 7.80342 62.5406 8.27009C62.3806 8.73675 62.3006 9.24342 62.3006 9.79009C62.3006 10.3368 62.3806 10.8434 62.5406 11.3101C62.714 11.7768 62.954 12.1834 63.2606 12.5301C63.5673 12.8634 63.9273 13.1234 64.3406 13.3101C64.7673 13.4968 65.2273 13.5901 65.7206 13.5901ZM75.0048 1.81008C75.0048 2.01008 74.9515 2.19675 74.8448 2.37008C74.7515 2.53008 74.6182 2.66342 74.4448 2.77009C74.2848 2.86342 74.1048 2.91008 73.9048 2.91008C73.7048 2.91008 73.5182 2.86342 73.3448 2.77009C73.1848 2.66342 73.0515 2.53008 72.9448 2.37008C72.8515 2.19675 72.8048 2.01008 72.8048 1.81008C72.8048 1.61008 72.8515 1.43008 72.9448 1.27009C73.0515 1.09675 73.1848 0.963418 73.3448 0.870085C73.5182 0.763418 73.7048 0.710084 73.9048 0.710084C74.1048 0.710084 74.2848 0.763418 74.4448 0.870085C74.6182 0.963418 74.7515 1.09675 74.8448 1.27009C74.9515 1.43008 75.0048 1.61008 75.0048 1.81008ZM73.1048 15.1501V4.83008H74.7048V15.1501H73.1048ZM77.0994 15.1501V4.83008H78.5394L78.6194 6.47009C78.926 5.88342 79.366 5.41675 79.9394 5.07009C80.526 4.71009 81.1994 4.53009 81.9594 4.53009C82.746 4.53009 83.4327 4.71675 84.0194 5.09009C84.606 5.46342 85.0527 5.99675 85.3594 6.69009C85.6794 7.37009 85.8394 8.17675 85.8394 9.11009V15.1501H84.2394V9.21009C84.2394 8.18342 84.0127 7.39009 83.5594 6.83009C83.1194 6.27008 82.486 5.99008 81.6594 5.99008C81.086 5.99008 80.5727 6.12342 80.1194 6.39008C79.6794 6.64342 79.3327 7.00342 79.0794 7.47009C78.826 7.92342 78.6994 8.44342 78.6994 9.03008V15.1501H77.0994ZM92.4242 15.0501C91.7442 15.0501 91.1109 14.9168 90.5242 14.6501C89.9509 14.3834 89.4442 14.0168 89.0042 13.5501C88.5776 13.0701 88.2442 12.5101 88.0042 11.8701C87.7642 11.2301 87.6442 10.5434 87.6442 9.81009C87.6442 9.06342 87.7642 8.37009 88.0042 7.73009C88.2576 7.09008 88.6042 6.53008 89.0442 6.05009C89.4842 5.57009 89.9976 5.19675 90.5842 4.93008C91.1842 4.66342 91.8242 4.53009 92.5042 4.53009C93.2909 4.53009 94.0042 4.71675 94.6442 5.09009C95.2976 5.46342 95.8042 5.97675 96.1642 6.63008L96.2442 4.83008H97.6842V14.2701C97.6842 15.0568 97.5642 15.7701 97.3242 16.4101C97.0842 17.0634 96.7442 17.6234 96.3042 18.0901C95.8642 18.5568 95.3376 18.9101 94.7242 19.1501C94.1109 19.4034 93.4309 19.5301 92.6842 19.5301C92.0309 19.5301 91.4176 19.4301 90.8442 19.2301C90.2709 19.0434 89.7576 18.7634 89.3042 18.3901C88.8642 18.0301 88.4976 17.5968 88.2042 17.0901L89.5442 16.4101C89.9309 16.9701 90.3842 17.3968 90.9042 17.6901C91.4376 17.9968 92.0309 18.1501 92.6842 18.1501C93.3776 18.1501 93.9776 17.9901 94.4842 17.6701C95.0042 17.3634 95.3976 16.9234 95.6642 16.3501C95.9442 15.7768 96.0842 15.1034 96.0842 14.3301V13.0101C95.7109 13.6501 95.2042 14.1501 94.5642 14.5101C93.9242 14.8701 93.2109 15.0501 92.4242 15.0501ZM92.7042 13.5901C93.1976 13.5901 93.6509 13.4968 94.0642 13.3101C94.4909 13.1234 94.8576 12.8634 95.1642 12.5301C95.4709 12.1834 95.7042 11.7768 95.8642 11.3101C96.0376 10.8434 96.1242 10.3368 96.1242 9.79009C96.1242 9.24342 96.0376 8.73675 95.8642 8.27009C95.7042 7.80342 95.4709 7.40342 95.1642 7.07009C94.8576 6.72342 94.4909 6.45675 94.0642 6.27008C93.6509 6.08342 93.1976 5.99008 92.7042 5.99008C92.2109 5.99008 91.7509 6.08342 91.3242 6.27008C90.9109 6.45675 90.5509 6.72342 90.2442 7.07009C89.9376 7.40342 89.6976 7.80342 89.5242 8.27009C89.3642 8.73675 89.2842 9.24342 89.2842 9.79009C89.2842 10.3368 89.3642 10.8434 89.5242 11.3101C89.6976 11.7768 89.9376 12.1834 90.2442 12.5301C90.5509 12.8634 90.9109 13.1234 91.3242 13.3101C91.7509 13.4968 92.2109 13.5901 92.7042 13.5901ZM107.923 15.4501C107.297 15.4501 106.757 15.3234 106.303 15.0701C105.85 14.8168 105.497 14.4434 105.243 13.9501C105.003 13.4568 104.883 12.8568 104.883 12.1501V6.19009H102.983V4.83008H104.883V1.37009H106.483V4.83008H109.723V6.19009H106.483V12.0701C106.483 12.6834 106.61 13.1634 106.863 13.5101C107.13 13.8434 107.53 14.0101 108.063 14.0101C108.343 14.0101 108.623 13.9701 108.903 13.8901C109.197 13.7968 109.457 13.6768 109.683 13.5301L110.163 14.7701C109.883 14.9701 109.557 15.1301 109.183 15.2501C108.81 15.3834 108.39 15.4501 107.923 15.4501ZM111.828 15.1501V0.310085H113.428V6.33009C113.734 5.78342 114.174 5.35008 114.748 5.03008C115.321 4.69675 115.968 4.53009 116.688 4.53009C117.474 4.53009 118.161 4.71675 118.748 5.09009C119.334 5.46342 119.781 5.99675 120.088 6.69009C120.408 7.37009 120.568 8.17675 120.568 9.11009V15.1501H118.968V9.21009C118.968 8.18342 118.741 7.39009 118.288 6.83009C117.848 6.27008 117.214 5.99008 116.388 5.99008C115.814 5.99008 115.301 6.12342 114.848 6.39008C114.408 6.64342 114.061 7.00342 113.808 7.47009C113.554 7.92342 113.428 8.44342 113.428 9.03008V15.1501H111.828ZM127.572 15.4501C126.812 15.4501 126.112 15.3168 125.472 15.0501C124.846 14.7834 124.299 14.4101 123.832 13.9301C123.366 13.4368 123.006 12.8634 122.752 12.2101C122.499 11.5434 122.372 10.8101 122.372 10.0101C122.372 9.22342 122.492 8.50342 122.732 7.85009C122.986 7.18342 123.332 6.60342 123.772 6.11009C124.226 5.61675 124.752 5.23675 125.352 4.97009C125.952 4.69009 126.606 4.55008 127.312 4.55008C127.992 4.55008 128.619 4.67675 129.192 4.93008C129.779 5.18342 130.286 5.53675 130.712 5.99008C131.139 6.44342 131.466 6.98342 131.692 7.61009C131.932 8.23675 132.052 8.91675 132.052 9.65009V10.3101H124.032C124.086 11.0568 124.259 11.7101 124.552 12.2701C124.859 12.8301 125.266 13.2634 125.772 13.5701C126.279 13.8768 126.866 14.0301 127.532 14.0301C128.186 14.0301 128.752 13.8968 129.232 13.6301C129.726 13.3501 130.146 12.9434 130.492 12.4101L131.852 13.0301C131.586 13.5368 131.239 13.9701 130.812 14.3301C130.386 14.6901 129.892 14.9634 129.332 15.1501C128.786 15.3501 128.199 15.4501 127.572 15.4501ZM127.312 5.91009C126.766 5.91009 126.266 6.04342 125.812 6.31008C125.372 6.57675 124.999 6.95009 124.692 7.43009C124.399 7.89675 124.206 8.44342 124.112 9.07009H130.372C130.319 8.44342 130.152 7.89675 129.872 7.43009C129.592 6.95009 129.232 6.57675 128.792 6.31008C128.352 6.04342 127.859 5.91009 127.312 5.91009ZM142.173 15.0501C141.493 15.0501 140.859 14.9168 140.273 14.6501C139.699 14.3834 139.193 14.0168 138.753 13.5501C138.326 13.0701 137.993 12.5101 137.753 11.8701C137.513 11.2301 137.393 10.5434 137.393 9.81009C137.393 9.06342 137.513 8.37009 137.753 7.73009C138.006 7.09008 138.353 6.53008 138.793 6.05009C139.233 5.57009 139.746 5.19675 140.333 4.93008C140.933 4.66342 141.573 4.53009 142.253 4.53009C143.039 4.53009 143.753 4.71675 144.393 5.09009C145.046 5.46342 145.553 5.97675 145.913 6.63008L145.993 4.83008H147.433V14.2701C147.433 15.0568 147.313 15.7701 147.073 16.4101C146.833 17.0634 146.493 17.6234 146.053 18.0901C145.613 18.5568 145.086 18.9101 144.473 19.1501C143.859 19.4034 143.179 19.5301 142.433 19.5301C141.779 19.5301 141.166 19.4301 140.593 19.2301C140.019 19.0434 139.506 18.7634 139.053 18.3901C138.613 18.0301 138.246 17.5968 137.953 17.0901L139.293 16.4101C139.679 16.9701 140.133 17.3968 140.653 17.6901C141.186 17.9968 141.779 18.1501 142.433 18.1501C143.126 18.1501 143.726 17.9901 144.233 17.6701C144.753 17.3634 145.146 16.9234 145.413 16.3501C145.693 15.7768 145.833 15.1034 145.833 14.3301V13.0101C145.459 13.6501 144.953 14.1501 144.313 14.5101C143.673 14.8701 142.959 15.0501 142.173 15.0501ZM142.453 13.5901C142.946 13.5901 143.399 13.4968 143.813 13.3101C144.239 13.1234 144.606 12.8634 144.913 12.5301C145.219 12.1834 145.453 11.7768 145.613 11.3101C145.786 10.8434 145.873 10.3368 145.873 9.79009C145.873 9.24342 145.786 8.73675 145.613 8.27009C145.453 7.80342 145.219 7.40342 144.913 7.07009C144.606 6.72342 144.239 6.45675 143.813 6.27008C143.399 6.08342 142.946 5.99008 142.453 5.99008C141.959 5.99008 141.499 6.08342 141.073 6.27008C140.659 6.45675 140.299 6.72342 139.993 7.07009C139.686 7.40342 139.446 7.80342 139.273 8.27009C139.113 8.73675 139.033 9.24342 139.033 9.79009C139.033 10.3368 139.113 10.8434 139.273 11.3101C139.446 11.7768 139.686 12.1834 139.993 12.5301C140.299 12.8634 140.659 13.1234 141.073 13.3101C141.499 13.4968 141.959 13.5901 142.453 13.5901ZM153.037 15.4501C152.317 15.4501 151.677 15.3168 151.117 15.0501C150.557 14.7701 150.117 14.3901 149.797 13.9101C149.49 13.4301 149.337 12.8768 149.337 12.2501C149.337 11.5701 149.51 10.9834 149.857 10.4901C150.217 9.99675 150.717 9.61675 151.357 9.35009C151.997 9.07009 152.744 8.93009 153.597 8.93009C154.077 8.93009 154.564 8.98342 155.057 9.09009C155.55 9.19675 155.99 9.33675 156.377 9.51009V8.75008C156.377 8.19009 156.264 7.70342 156.037 7.29009C155.824 6.86342 155.524 6.53675 155.137 6.31008C154.75 6.07009 154.297 5.95009 153.777 5.95009C153.15 5.95009 152.604 6.09675 152.137 6.39008C151.684 6.68342 151.344 7.09675 151.117 7.63009L149.717 7.15009C149.904 6.61675 150.19 6.15675 150.577 5.77009C150.977 5.38342 151.45 5.08342 151.997 4.87009C152.557 4.65675 153.157 4.55008 153.797 4.55008C154.624 4.55008 155.344 4.73008 155.957 5.09009C156.584 5.43675 157.064 5.93008 157.397 6.57009C157.744 7.19675 157.917 7.93675 157.917 8.79009V15.1501H156.517L156.417 13.5501C156.124 14.1234 155.677 14.5834 155.077 14.9301C154.49 15.2768 153.81 15.4501 153.037 15.4501ZM150.957 12.1901C150.957 12.5768 151.057 12.9168 151.257 13.2101C151.457 13.4901 151.737 13.7101 152.097 13.8701C152.457 14.0301 152.87 14.1101 153.337 14.1101C153.91 14.1101 154.424 13.9834 154.877 13.7301C155.344 13.4634 155.71 13.1101 155.977 12.6701C156.244 12.2168 156.377 11.7034 156.377 11.1301V10.7501C155.937 10.5768 155.49 10.4434 155.037 10.3501C154.597 10.2434 154.177 10.1901 153.777 10.1901C152.897 10.1901 152.204 10.3701 151.697 10.7301C151.204 11.0901 150.957 11.5768 150.957 12.1901ZM160.238 19.2301V4.83008H161.678L161.758 6.79009C162.131 6.08342 162.644 5.53008 163.298 5.13008C163.964 4.73008 164.718 4.53009 165.558 4.53009C166.238 4.53009 166.871 4.67008 167.458 4.95008C168.044 5.21675 168.558 5.59675 168.998 6.09009C169.438 6.58342 169.778 7.16342 170.018 7.83008C170.271 8.48342 170.398 9.19675 170.398 9.97009C170.398 10.7434 170.271 11.4634 170.018 12.1301C169.778 12.7968 169.431 13.3768 168.978 13.8701C168.538 14.3634 168.018 14.7501 167.418 15.0301C166.818 15.3101 166.171 15.4501 165.478 15.4501C164.691 15.4501 163.978 15.2701 163.338 14.9101C162.711 14.5501 162.211 14.0434 161.838 13.3901V19.2301H160.238ZM165.278 13.9901C165.784 13.9901 166.244 13.8901 166.658 13.6901C167.084 13.4901 167.451 13.2168 167.758 12.8701C168.078 12.5101 168.324 12.0901 168.498 11.6101C168.671 11.1168 168.758 10.5768 168.758 9.99009C168.758 9.40342 168.671 8.87009 168.498 8.39008C168.324 7.89675 168.078 7.47675 167.758 7.13008C167.451 6.77008 167.084 6.49008 166.658 6.29009C166.244 6.09008 165.784 5.99008 165.278 5.99008C164.771 5.99008 164.304 6.09008 163.878 6.29009C163.464 6.49008 163.098 6.77008 162.778 7.13008C162.471 7.47675 162.231 7.89675 162.058 8.39008C161.884 8.87009 161.798 9.40342 161.798 9.99009C161.798 10.5768 161.884 11.1168 162.058 11.6101C162.231 12.0901 162.471 12.5101 162.778 12.8701C163.098 13.2168 163.464 13.4901 163.878 13.6901C164.304 13.8901 164.771 13.9901 165.278 13.9901ZM178.154 1.81008C178.154 2.01008 178.101 2.19675 177.994 2.37008C177.901 2.53008 177.767 2.66342 177.594 2.77009C177.434 2.86342 177.254 2.91008 177.054 2.91008C176.854 2.91008 176.667 2.86342 176.494 2.77009C176.334 2.66342 176.201 2.53008 176.094 2.37008C176.001 2.19675 175.954 2.01008 175.954 1.81008C175.954 1.61008 176.001 1.43008 176.094 1.27009C176.201 1.09675 176.334 0.963418 176.494 0.870085C176.667 0.763418 176.854 0.710084 177.054 0.710084C177.254 0.710084 177.434 0.763418 177.594 0.870085C177.767 0.963418 177.901 1.09675 177.994 1.27009C178.101 1.43008 178.154 1.61008 178.154 1.81008ZM176.254 15.1501V4.83008H177.854V15.1501H176.254ZM180.249 15.1501V4.83008H181.689L181.769 6.47009C182.075 5.88342 182.515 5.41675 183.089 5.07009C183.675 4.71009 184.349 4.53009 185.109 4.53009C185.895 4.53009 186.582 4.71675 187.169 5.09009C187.755 5.46342 188.202 5.99675 188.509 6.69009C188.829 7.37009 188.989 8.17675 188.989 9.11009V15.1501H187.389V9.21009C187.389 8.18342 187.162 7.39009 186.709 6.83009C186.269 6.27008 185.635 5.99008 184.809 5.99008C184.235 5.99008 183.722 6.12342 183.269 6.39008C182.829 6.64342 182.482 7.00342 182.229 7.47009C181.975 7.92342 181.849 8.44342 181.849 9.03008V15.1501H180.249ZM199.148 15.4501C198.522 15.4501 197.982 15.3234 197.528 15.0701C197.075 14.8168 196.722 14.4434 196.468 13.9501C196.228 13.4568 196.108 12.8568 196.108 12.1501V6.19009H194.208V4.83008H196.108V1.37009H197.708V4.83008H200.948V6.19009H197.708V12.0701C197.708 12.6834 197.835 13.1634 198.088 13.5101C198.355 13.8434 198.755 14.0101 199.288 14.0101C199.568 14.0101 199.848 13.9701 200.128 13.8901C200.422 13.7968 200.682 13.6768 200.908 13.5301L201.388 14.7701C201.108 14.9701 200.782 15.1301 200.408 15.2501C200.035 15.3834 199.615 15.4501 199.148 15.4501ZM203.052 15.1501V0.310085H204.652V6.33009C204.959 5.78342 205.399 5.35008 205.972 5.03008C206.546 4.69675 207.192 4.53009 207.912 4.53009C208.699 4.53009 209.386 4.71675 209.972 5.09009C210.559 5.46342 211.006 5.99675 211.312 6.69009C211.632 7.37009 211.792 8.17675 211.792 9.11009V15.1501H210.192V9.21009C210.192 8.18342 209.966 7.39009 209.512 6.83009C209.072 6.27008 208.439 5.99008 207.612 5.99008C207.039 5.99008 206.526 6.12342 206.072 6.39008C205.632 6.64342 205.286 7.00342 205.032 7.47009C204.779 7.92342 204.652 8.44342 204.652 9.03008V15.1501H203.052ZM218.797 15.4501C218.037 15.4501 217.337 15.3168 216.697 15.0501C216.071 14.7834 215.524 14.4101 215.057 13.9301C214.591 13.4368 214.231 12.8634 213.977 12.2101C213.724 11.5434 213.597 10.8101 213.597 10.0101C213.597 9.22342 213.717 8.50342 213.957 7.85009C214.211 7.18342 214.557 6.60342 214.997 6.11009C215.451 5.61675 215.977 5.23675 216.577 4.97009C217.177 4.69009 217.831 4.55008 218.537 4.55008C219.217 4.55008 219.844 4.67675 220.417 4.93008C221.004 5.18342 221.511 5.53675 221.937 5.99008C222.364 6.44342 222.691 6.98342 222.917 7.61009C223.157 8.23675 223.277 8.91675 223.277 9.65009V10.3101H215.257C215.311 11.0568 215.484 11.7101 215.777 12.2701C216.084 12.8301 216.491 13.2634 216.997 13.5701C217.504 13.8768 218.091 14.0301 218.757 14.0301C219.411 14.0301 219.977 13.8968 220.457 13.6301C220.951 13.3501 221.371 12.9434 221.717 12.4101L223.077 13.0301C222.811 13.5368 222.464 13.9701 222.037 14.3301C221.611 14.6901 221.117 14.9634 220.557 15.1501C220.011 15.3501 219.424 15.4501 218.797 15.4501ZM218.537 5.91009C217.991 5.91009 217.491 6.04342 217.037 6.31008C216.597 6.57675 216.224 6.95009 215.917 7.43009C215.624 7.89675 215.431 8.44342 215.337 9.07009H221.597C221.544 8.44342 221.377 7.89675 221.097 7.43009C220.817 6.95009 220.457 6.57675 220.017 6.31008C219.577 6.04342 219.084 5.91009 218.537 5.91009ZM229.958 15.1501V6.19009H228.058V4.83008H229.958V3.87009C229.958 3.11008 230.091 2.45008 230.358 1.89008C230.638 1.31675 231.018 0.876752 231.498 0.570085C231.991 0.263418 232.558 0.110085 233.198 0.110085C233.838 0.110085 234.404 0.263418 234.898 0.570085L234.438 1.81008C234.278 1.71675 234.098 1.64342 233.898 1.59008C233.711 1.53675 233.511 1.51008 233.298 1.51008C232.738 1.51008 232.304 1.71675 231.998 2.13008C231.704 2.53008 231.558 3.12342 231.558 3.91008V4.83008H238.198V15.1501H236.598V6.19009H231.558V15.1501H229.958ZM238.498 1.81008C238.498 2.01008 238.444 2.19675 238.338 2.37008C238.244 2.53008 238.111 2.66342 237.938 2.77009C237.778 2.86342 237.598 2.91008 237.398 2.91008C237.198 2.91008 237.011 2.86342 236.838 2.77009C236.678 2.66342 236.544 2.53008 236.438 2.37008C236.344 2.19675 236.298 2.01008 236.298 1.81008C236.298 1.61008 236.344 1.43008 236.438 1.27009C236.544 1.09675 236.678 0.963418 236.838 0.870085C237.011 0.763418 237.198 0.710084 237.398 0.710084C237.598 0.710084 237.778 0.763418 237.938 0.870085C238.111 0.963418 238.244 1.09675 238.338 1.27009C238.444 1.43008 238.498 1.61008 238.498 1.81008ZM240.593 15.1501V4.83008H242.033L242.113 6.47009C242.42 5.88342 242.86 5.41675 243.433 5.07009C244.02 4.71009 244.693 4.53009 245.453 4.53009C246.24 4.53009 246.926 4.71675 247.513 5.09009C248.1 5.46342 248.546 5.99675 248.853 6.69009C249.173 7.37009 249.333 8.17675 249.333 9.11009V15.1501H247.733V9.21009C247.733 8.18342 247.506 7.39009 247.053 6.83009C246.613 6.27008 245.98 5.99008 245.153 5.99008C244.58 5.99008 244.066 6.12342 243.613 6.39008C243.173 6.64342 242.826 7.00342 242.573 7.47009C242.32 7.92342 242.193 8.44342 242.193 9.03008V15.1501H240.593ZM254.858 15.4501C254.138 15.4501 253.498 15.3168 252.938 15.0501C252.378 14.7701 251.938 14.3901 251.618 13.9101C251.311 13.4301 251.158 12.8768 251.158 12.2501C251.158 11.5701 251.331 10.9834 251.678 10.4901C252.038 9.99675 252.538 9.61675 253.178 9.35009C253.818 9.07009 254.565 8.93009 255.418 8.93009C255.898 8.93009 256.385 8.98342 256.878 9.09009C257.371 9.19675 257.811 9.33675 258.198 9.51009V8.75008C258.198 8.19009 258.085 7.70342 257.858 7.29009C257.645 6.86342 257.345 6.53675 256.958 6.31008C256.571 6.07009 256.118 5.95009 255.598 5.95009C254.971 5.95009 254.425 6.09675 253.958 6.39008C253.505 6.68342 253.165 7.09675 252.938 7.63009L251.538 7.15009C251.725 6.61675 252.011 6.15675 252.398 5.77009C252.798 5.38342 253.271 5.08342 253.818 4.87009C254.378 4.65675 254.978 4.55008 255.618 4.55008C256.445 4.55008 257.165 4.73008 257.778 5.09009C258.405 5.43675 258.885 5.93008 259.218 6.57009C259.565 7.19675 259.738 7.93675 259.738 8.79009V15.1501H258.338L258.238 13.5501C257.945 14.1234 257.498 14.5834 256.898 14.9301C256.311 15.2768 255.631 15.4501 254.858 15.4501ZM252.778 12.1901C252.778 12.5768 252.878 12.9168 253.078 13.2101C253.278 13.4901 253.558 13.7101 253.918 13.8701C254.278 14.0301 254.691 14.1101 255.158 14.1101C255.731 14.1101 256.245 13.9834 256.698 13.7301C257.165 13.4634 257.531 13.1101 257.798 12.6701C258.065 12.2168 258.198 11.7034 258.198 11.1301V10.7501C257.758 10.5768 257.311 10.4434 256.858 10.3501C256.418 10.2434 255.998 10.1901 255.598 10.1901C254.718 10.1901 254.025 10.3701 253.518 10.7301C253.025 11.0901 252.778 11.5768 252.778 12.1901ZM262.059 15.1501V4.83008H263.499L263.579 6.47009C263.885 5.88342 264.325 5.41675 264.899 5.07009C265.485 4.71009 266.159 4.53009 266.919 4.53009C267.705 4.53009 268.392 4.71675 268.979 5.09009C269.565 5.46342 270.012 5.99675 270.319 6.69009C270.639 7.37009 270.799 8.17675 270.799 9.11009V15.1501H269.199V9.21009C269.199 8.18342 268.972 7.39009 268.519 6.83009C268.079 6.27008 267.445 5.99008 266.619 5.99008C266.045 5.99008 265.532 6.12342 265.079 6.39008C264.639 6.64342 264.292 7.00342 264.039 7.47009C263.785 7.92342 263.659 8.44342 263.659 9.03008V15.1501H262.059ZM277.564 15.4501C276.857 15.4501 276.204 15.3168 275.604 15.0501C275.004 14.7834 274.477 14.4101 274.024 13.9301C273.57 13.4368 273.217 12.8634 272.964 12.2101C272.724 11.5568 272.604 10.8434 272.604 10.0701C272.604 9.29675 272.73 8.57675 272.984 7.91009C273.237 7.23009 273.59 6.63675 274.044 6.13008C274.497 5.62342 275.03 5.23008 275.644 4.95008C276.257 4.67008 276.924 4.53009 277.644 4.53009C278.31 4.53009 278.91 4.65009 279.444 4.89009C279.99 5.13008 280.457 5.45675 280.844 5.87009C281.244 6.28342 281.55 6.75675 281.764 7.29009L280.304 7.79008C280.01 7.23008 279.63 6.79008 279.164 6.47009C278.697 6.15008 278.17 5.99008 277.584 5.99008C277.104 5.99008 276.664 6.09675 276.264 6.31008C275.864 6.51009 275.51 6.79009 275.204 7.15009C274.897 7.51009 274.657 7.94342 274.484 8.45009C274.324 8.94342 274.244 9.47675 274.244 10.0501C274.244 10.6234 274.324 11.1501 274.484 11.6301C274.657 12.1101 274.89 12.5301 275.184 12.8901C275.477 13.2368 275.824 13.5101 276.224 13.7101C276.637 13.8968 277.084 13.9901 277.564 13.9901C278.177 13.9901 278.737 13.8368 279.244 13.5301C279.764 13.2101 280.157 12.7701 280.424 12.2101L281.884 12.7101C281.67 13.2701 281.344 13.7568 280.904 14.1701C280.477 14.5701 279.97 14.8834 279.384 15.1101C278.81 15.3368 278.204 15.4501 277.564 15.4501ZM285.542 1.81008C285.542 2.01008 285.488 2.19675 285.382 2.37008C285.288 2.53008 285.155 2.66342 284.982 2.77009C284.822 2.86342 284.642 2.91008 284.442 2.91008C284.242 2.91008 284.055 2.86342 283.882 2.77009C283.722 2.66342 283.588 2.53008 283.482 2.37008C283.388 2.19675 283.342 2.01008 283.342 1.81008C283.342 1.61008 283.388 1.43008 283.482 1.27009C283.588 1.09675 283.722 0.963418 283.882 0.870085C284.055 0.763418 284.242 0.710084 284.442 0.710084C284.642 0.710084 284.822 0.763418 284.982 0.870085C285.155 0.963418 285.288 1.09675 285.382 1.27009C285.488 1.43008 285.542 1.61008 285.542 1.81008ZM283.642 15.1501V4.83008H285.242V15.1501H283.642ZM290.836 15.4501C290.116 15.4501 289.476 15.3168 288.916 15.0501C288.356 14.7701 287.916 14.3901 287.596 13.9101C287.289 13.4301 287.136 12.8768 287.136 12.2501C287.136 11.5701 287.309 10.9834 287.656 10.4901C288.016 9.99675 288.516 9.61675 289.156 9.35009C289.796 9.07009 290.543 8.93009 291.396 8.93009C291.876 8.93009 292.363 8.98342 292.856 9.09009C293.349 9.19675 293.789 9.33675 294.176 9.51009V8.75008C294.176 8.19009 294.063 7.70342 293.836 7.29009C293.623 6.86342 293.323 6.53675 292.936 6.31008C292.549 6.07009 292.096 5.95009 291.576 5.95009C290.949 5.95009 290.403 6.09675 289.936 6.39008C289.483 6.68342 289.143 7.09675 288.916 7.63009L287.516 7.15009C287.703 6.61675 287.989 6.15675 288.376 5.77009C288.776 5.38342 289.249 5.08342 289.796 4.87009C290.356 4.65675 290.956 4.55008 291.596 4.55008C292.423 4.55008 293.143 4.73008 293.756 5.09009C294.383 5.43675 294.863 5.93008 295.196 6.57009C295.543 7.19675 295.716 7.93675 295.716 8.79009V15.1501H294.316L294.216 13.5501C293.923 14.1234 293.476 14.5834 292.876 14.9301C292.289 15.2768 291.609 15.4501 290.836 15.4501ZM288.756 12.1901C288.756 12.5768 288.856 12.9168 289.056 13.2101C289.256 13.4901 289.536 13.7101 289.896 13.8701C290.256 14.0301 290.669 14.1101 291.136 14.1101C291.709 14.1101 292.223 13.9834 292.676 13.7301C293.143 13.4634 293.509 13.1101 293.776 12.6701C294.043 12.2168 294.176 11.7034 294.176 11.1301V10.7501C293.736 10.5768 293.289 10.4434 292.836 10.3501C292.396 10.2434 291.976 10.1901 291.576 10.1901C290.696 10.1901 290.003 10.3701 289.496 10.7301C289.003 11.0901 288.756 11.5768 288.756 12.1901ZM298.037 15.1501V0.310085H299.637V15.1501H298.037ZM309.266 15.4501C308.666 15.4501 308.1 15.3501 307.566 15.1501C307.046 14.9501 306.593 14.6634 306.206 14.2901C305.82 13.9168 305.526 13.4768 305.326 12.9701L306.766 12.4501C307.033 12.9568 307.38 13.3501 307.806 13.6301C308.233 13.9101 308.72 14.0501 309.266 14.0501C309.706 14.0501 310.093 13.9768 310.426 13.8301C310.76 13.6834 311.02 13.4834 311.206 13.2301C311.393 12.9634 311.486 12.6701 311.486 12.3501C311.486 11.4834 310.86 10.9234 309.606 10.6701L308.826 10.5101C307.733 10.2968 306.926 9.95009 306.406 9.47009C305.886 8.97675 305.626 8.35675 305.626 7.61009C305.626 7.01009 305.78 6.47675 306.086 6.01009C306.393 5.54342 306.82 5.18342 307.366 4.93008C307.926 4.66342 308.56 4.53009 309.266 4.53009C309.853 4.53009 310.393 4.63008 310.886 4.83008C311.38 5.01675 311.8 5.29675 312.146 5.67008C312.506 6.04342 312.78 6.48342 312.966 6.99009L311.526 7.47009C311.313 6.97675 311.006 6.59675 310.606 6.33009C310.22 6.05009 309.766 5.91009 309.246 5.91009C308.846 5.91009 308.493 5.97675 308.186 6.11009C307.893 6.24342 307.66 6.42342 307.486 6.65009C307.313 6.87675 307.226 7.14342 307.226 7.45009C307.226 7.87675 307.386 8.21675 307.706 8.47009C308.04 8.72342 308.573 8.92342 309.306 9.07009L310.086 9.23009C311.073 9.43009 311.826 9.78342 312.346 10.2901C312.866 10.7834 313.126 11.4168 313.126 12.1901C313.126 12.6701 313.026 13.1101 312.826 13.5101C312.64 13.8968 312.373 14.2368 312.026 14.5301C311.693 14.8234 311.286 15.0501 310.806 15.2101C310.34 15.3701 309.826 15.4501 309.266 15.4501ZM319.525 15.4501C318.765 15.4501 318.065 15.3168 317.425 15.0501C316.798 14.7834 316.251 14.4101 315.785 13.9301C315.318 13.4368 314.958 12.8634 314.705 12.2101C314.451 11.5434 314.325 10.8101 314.325 10.0101C314.325 9.22342 314.445 8.50342 314.685 7.85009C314.938 7.18342 315.285 6.60342 315.725 6.11009C316.178 5.61675 316.705 5.23675 317.305 4.97009C317.905 4.69009 318.558 4.55008 319.265 4.55008C319.945 4.55008 320.571 4.67675 321.145 4.93008C321.731 5.18342 322.238 5.53675 322.665 5.99008C323.091 6.44342 323.418 6.98342 323.645 7.61009C323.885 8.23675 324.005 8.91675 324.005 9.65009V10.3101H315.985C316.038 11.0568 316.211 11.7101 316.505 12.2701C316.811 12.8301 317.218 13.2634 317.725 13.5701C318.231 13.8768 318.818 14.0301 319.485 14.0301C320.138 14.0301 320.705 13.8968 321.185 13.6301C321.678 13.3501 322.098 12.9434 322.445 12.4101L323.805 13.0301C323.538 13.5368 323.191 13.9701 322.765 14.3301C322.338 14.6901 321.845 14.9634 321.285 15.1501C320.738 15.3501 320.151 15.4501 319.525 15.4501ZM319.265 5.91009C318.718 5.91009 318.218 6.04342 317.765 6.31008C317.325 6.57675 316.951 6.95009 316.645 7.43009C316.351 7.89675 316.158 8.44342 316.065 9.07009H322.325C322.271 8.44342 322.105 7.89675 321.825 7.43009C321.545 6.95009 321.185 6.57675 320.745 6.31008C320.305 6.04342 319.811 5.91009 319.265 5.91009ZM325.89 15.1501V4.83008H327.33L327.43 6.75009C327.683 6.11009 328.063 5.61008 328.57 5.25008C329.077 4.87675 329.67 4.69009 330.35 4.69009C330.577 4.69009 330.777 4.71009 330.95 4.75008C331.137 4.77675 331.297 4.81675 331.43 4.87009L331.23 6.39008C331.083 6.33675 330.93 6.30342 330.77 6.29009C330.61 6.26342 330.45 6.25008 330.29 6.25008C329.73 6.25008 329.237 6.39008 328.81 6.67008C328.397 6.95008 328.07 7.35008 327.83 7.87009C327.603 8.37675 327.49 8.97675 327.49 9.67009V15.1501H325.89ZM336.224 15.1501L332.184 4.83008H333.944L337.084 13.4301L340.224 4.83008H341.924L337.884 15.1501H336.224ZM345.193 1.81008C345.193 2.01008 345.14 2.19675 345.033 2.37008C344.94 2.53008 344.806 2.66342 344.633 2.77009C344.473 2.86342 344.293 2.91008 344.093 2.91008C343.893 2.91008 343.706 2.86342 343.533 2.77009C343.373 2.66342 343.24 2.53008 343.133 2.37008C343.04 2.19675 342.993 2.01008 342.993 1.81008C342.993 1.61008 343.04 1.43008 343.133 1.27009C343.24 1.09675 343.373 0.963418 343.533 0.870085C343.706 0.763418 343.893 0.710084 344.093 0.710084C344.293 0.710084 344.473 0.763418 344.633 0.870085C344.806 0.963418 344.94 1.09675 345.033 1.27009C345.14 1.43008 345.193 1.61008 345.193 1.81008ZM343.293 15.1501V4.83008H344.893V15.1501H343.293ZM351.728 15.4501C351.021 15.4501 350.368 15.3168 349.768 15.0501C349.168 14.7834 348.641 14.4101 348.188 13.9301C347.734 13.4368 347.381 12.8634 347.128 12.2101C346.888 11.5568 346.768 10.8434 346.768 10.0701C346.768 9.29675 346.894 8.57675 347.148 7.91009C347.401 7.23009 347.754 6.63675 348.208 6.13008C348.661 5.62342 349.194 5.23008 349.808 4.95008C350.421 4.67008 351.088 4.53009 351.808 4.53009C352.474 4.53009 353.074 4.65009 353.608 4.89009C354.154 5.13008 354.621 5.45675 355.008 5.87009C355.408 6.28342 355.714 6.75675 355.928 7.29009L354.468 7.79008C354.174 7.23008 353.794 6.79008 353.328 6.47009C352.861 6.15008 352.334 5.99008 351.748 5.99008C351.268 5.99008 350.828 6.09675 350.428 6.31008C350.028 6.51009 349.674 6.79009 349.368 7.15009C349.061 7.51009 348.821 7.94342 348.648 8.45009C348.488 8.94342 348.408 9.47675 348.408 10.0501C348.408 10.6234 348.488 11.1501 348.648 11.6301C348.821 12.1101 349.054 12.5301 349.348 12.8901C349.641 13.2368 349.988 13.5101 350.388 13.7101C350.801 13.8968 351.248 13.9901 351.728 13.9901C352.341 13.9901 352.901 13.8368 353.408 13.5301C353.928 13.2101 354.321 12.7701 354.588 12.2101L356.048 12.7101C355.834 13.2701 355.508 13.7568 355.068 14.1701C354.641 14.5701 354.134 14.8834 353.548 15.1101C352.974 15.3368 352.368 15.4501 351.728 15.4501ZM362.447 15.4501C361.687 15.4501 360.987 15.3168 360.347 15.0501C359.72 14.7834 359.173 14.4101 358.707 13.9301C358.24 13.4368 357.88 12.8634 357.627 12.2101C357.373 11.5434 357.247 10.8101 357.247 10.0101C357.247 9.22342 357.367 8.50342 357.607 7.85009C357.86 7.18342 358.207 6.60342 358.647 6.11009C359.1 5.61675 359.627 5.23675 360.227 4.97009C360.827 4.69009 361.48 4.55008 362.187 4.55008C362.867 4.55008 363.493 4.67675 364.067 4.93008C364.653 5.18342 365.16 5.53675 365.587 5.99008C366.013 6.44342 366.34 6.98342 366.567 7.61009C366.807 8.23675 366.927 8.91675 366.927 9.65009V10.3101H358.907C358.96 11.0568 359.133 11.7101 359.427 12.2701C359.733 12.8301 360.14 13.2634 360.647 13.5701C361.153 13.8768 361.74 14.0301 362.407 14.0301C363.06 14.0301 363.627 13.8968 364.107 13.6301C364.6 13.3501 365.02 12.9434 365.367 12.4101L366.727 13.0301C366.46 13.5368 366.113 13.9701 365.687 14.3301C365.26 14.6901 364.767 14.9634 364.207 15.1501C363.66 15.3501 363.073 15.4501 362.447 15.4501ZM362.187 5.91009C361.64 5.91009 361.14 6.04342 360.687 6.31008C360.247 6.57675 359.873 6.95009 359.567 7.43009C359.273 7.89675 359.08 8.44342 358.987 9.07009H365.247C365.193 8.44342 365.027 7.89675 364.747 7.43009C364.467 6.95009 364.107 6.57675 363.667 6.31008C363.227 6.04342 362.733 5.91009 362.187 5.91009ZM372.111 15.4501C371.511 15.4501 370.944 15.3501 370.411 15.1501C369.891 14.9501 369.438 14.6634 369.051 14.2901C368.664 13.9168 368.371 13.4768 368.171 12.9701L369.611 12.4501C369.878 12.9568 370.224 13.3501 370.651 13.6301C371.078 13.9101 371.564 14.0501 372.111 14.0501C372.551 14.0501 372.938 13.9768 373.271 13.8301C373.604 13.6834 373.864 13.4834 374.051 13.2301C374.238 12.9634 374.331 12.6701 374.331 12.3501C374.331 11.4834 373.704 10.9234 372.451 10.6701L371.671 10.5101C370.578 10.2968 369.771 9.95009 369.251 9.47009C368.731 8.97675 368.471 8.35675 368.471 7.61009C368.471 7.01009 368.624 6.47675 368.931 6.01009C369.238 5.54342 369.664 5.18342 370.211 4.93008C370.771 4.66342 371.404 4.53009 372.111 4.53009C372.698 4.53009 373.238 4.63008 373.731 4.83008C374.224 5.01675 374.644 5.29675 374.991 5.67008C375.351 6.04342 375.624 6.48342 375.811 6.99009L374.371 7.47009C374.158 6.97675 373.851 6.59675 373.451 6.33009C373.064 6.05009 372.611 5.91009 372.091 5.91009C371.691 5.91009 371.338 5.97675 371.031 6.11009C370.738 6.24342 370.504 6.42342 370.331 6.65009C370.158 6.87675 370.071 7.14342 370.071 7.45009C370.071 7.87675 370.231 8.21675 370.551 8.47009C370.884 8.72342 371.418 8.92342 372.151 9.07009L372.931 9.23009C373.918 9.43009 374.671 9.78342 375.191 10.2901C375.711 10.7834 375.971 11.4168 375.971 12.1901C375.971 12.6701 375.871 13.1101 375.671 13.5101C375.484 13.8968 375.218 14.2368 374.871 14.5301C374.538 14.8234 374.131 15.0501 373.651 15.2101C373.184 15.3701 372.671 15.4501 372.111 15.4501ZM386.344 15.4501C385.584 15.4501 384.884 15.3168 384.244 15.0501C383.618 14.7834 383.071 14.4101 382.604 13.9301C382.138 13.4368 381.778 12.8634 381.524 12.2101C381.271 11.5434 381.144 10.8101 381.144 10.0101C381.144 9.22342 381.264 8.50342 381.504 7.85009C381.758 7.18342 382.104 6.60342 382.544 6.11009C382.998 5.61675 383.524 5.23675 384.124 4.97009C384.724 4.69009 385.378 4.55008 386.084 4.55008C386.764 4.55008 387.391 4.67675 387.964 4.93008C388.551 5.18342 389.058 5.53675 389.484 5.99008C389.911 6.44342 390.238 6.98342 390.464 7.61009C390.704 8.23675 390.824 8.91675 390.824 9.65009V10.3101H382.804C382.858 11.0568 383.031 11.7101 383.324 12.2701C383.631 12.8301 384.038 13.2634 384.544 13.5701C385.051 13.8768 385.638 14.0301 386.304 14.0301C386.958 14.0301 387.524 13.8968 388.004 13.6301C388.498 13.3501 388.918 12.9434 389.264 12.4101L390.624 13.0301C390.358 13.5368 390.011 13.9701 389.584 14.3301C389.158 14.6901 388.664 14.9634 388.104 15.1501C387.558 15.3501 386.971 15.4501 386.344 15.4501ZM386.084 5.91009C385.538 5.91009 385.038 6.04342 384.584 6.31008C384.144 6.57675 383.771 6.95009 383.464 7.43009C383.171 7.89675 382.978 8.44342 382.884 9.07009H389.144C389.091 8.44342 388.924 7.89675 388.644 7.43009C388.364 6.95009 388.004 6.57675 387.564 6.31008C387.124 6.04342 386.631 5.91009 386.084 5.91009ZM397.247 15.4501C396.541 15.4501 395.887 15.3168 395.287 15.0501C394.687 14.7834 394.161 14.4101 393.707 13.9301C393.254 13.4368 392.901 12.8634 392.647 12.2101C392.407 11.5568 392.287 10.8434 392.287 10.0701C392.287 9.29675 392.414 8.57675 392.667 7.91009C392.921 7.23009 393.274 6.63675 393.727 6.13008C394.181 5.62342 394.714 5.23008 395.327 4.95008C395.941 4.67008 396.607 4.53009 397.327 4.53009C397.994 4.53009 398.594 4.65009 399.127 4.89009C399.674 5.13008 400.141 5.45675 400.527 5.87009C400.927 6.28342 401.234 6.75675 401.447 7.29009L399.987 7.79008C399.694 7.23008 399.314 6.79008 398.847 6.47009C398.381 6.15008 397.854 5.99008 397.267 5.99008C396.787 5.99008 396.347 6.09675 395.947 6.31008C395.547 6.51009 395.194 6.79009 394.887 7.15009C394.581 7.51009 394.341 7.94342 394.167 8.45009C394.007 8.94342 393.927 9.47675 393.927 10.0501C393.927 10.6234 394.007 11.1501 394.167 11.6301C394.341 12.1101 394.574 12.5301 394.867 12.8901C395.161 13.2368 395.507 13.5101 395.907 13.7101C396.321 13.8968 396.767 13.9901 397.247 13.9901C397.861 13.9901 398.421 13.8368 398.927 13.5301C399.447 13.2101 399.841 12.7701 400.107 12.2101L401.567 12.7101C401.354 13.2701 401.027 13.7568 400.587 14.1701C400.161 14.5701 399.654 14.8834 399.067 15.1101C398.494 15.3368 397.887 15.4501 397.247 15.4501ZM407.866 15.4501C407.133 15.4501 406.453 15.3168 405.826 15.0501C405.213 14.7701 404.673 14.3901 404.206 13.9101C403.753 13.4168 403.399 12.8368 403.146 12.1701C402.893 11.5034 402.766 10.7768 402.766 9.99009C402.766 9.20342 402.893 8.47675 403.146 7.81009C403.413 7.14342 403.773 6.57009 404.226 6.09009C404.693 5.59675 405.239 5.21675 405.866 4.95008C406.493 4.67008 407.173 4.53009 407.906 4.53009C408.639 4.53009 409.313 4.67008 409.926 4.95008C410.553 5.21675 411.093 5.59675 411.546 6.09009C412.013 6.57009 412.373 7.14342 412.626 7.81009C412.879 8.47675 413.006 9.20342 413.006 9.99009C413.006 10.7768 412.873 11.5034 412.606 12.1701C412.353 12.8368 411.993 13.4168 411.526 13.9101C411.073 14.3901 410.533 14.7701 409.906 15.0501C409.279 15.3168 408.599 15.4501 407.866 15.4501ZM407.886 13.9901C408.393 13.9901 408.853 13.8901 409.266 13.6901C409.693 13.4901 410.059 13.2168 410.366 12.8701C410.686 12.5101 410.933 12.0901 411.106 11.6101C411.279 11.1168 411.366 10.5768 411.366 9.99009C411.366 9.40342 411.279 8.87009 411.106 8.39008C410.933 7.89675 410.686 7.47675 410.366 7.13008C410.059 6.77008 409.693 6.49008 409.266 6.29009C408.853 6.09008 408.393 5.99008 407.886 5.99008C407.379 5.99008 406.913 6.09008 406.486 6.29009C406.073 6.49008 405.706 6.77008 405.386 7.13008C405.079 7.47675 404.839 7.89675 404.666 8.39008C404.493 8.87009 404.406 9.40342 404.406 9.99009C404.406 10.5768 404.493 11.1168 404.666 11.6101C404.839 12.0901 405.079 12.5101 405.386 12.8701C405.706 13.2168 406.073 13.4901 406.486 13.6901C406.913 13.8901 407.379 13.9901 407.886 13.9901ZM418.138 15.4501C417.538 15.4501 416.972 15.3501 416.438 15.1501C415.918 14.9501 415.465 14.6634 415.078 14.2901C414.692 13.9168 414.398 13.4768 414.198 12.9701L415.638 12.4501C415.905 12.9568 416.252 13.3501 416.678 13.6301C417.105 13.9101 417.592 14.0501 418.138 14.0501C418.578 14.0501 418.965 13.9768 419.298 13.8301C419.632 13.6834 419.892 13.4834 420.078 13.2301C420.265 12.9634 420.358 12.6701 420.358 12.3501C420.358 11.4834 419.732 10.9234 418.478 10.6701L417.698 10.5101C416.605 10.2968 415.798 9.95009 415.278 9.47009C414.758 8.97675 414.498 8.35675 414.498 7.61009C414.498 7.01009 414.652 6.47675 414.958 6.01009C415.265 5.54342 415.692 5.18342 416.238 4.93008C416.798 4.66342 417.432 4.53009 418.138 4.53009C418.725 4.53009 419.265 4.63008 419.758 4.83008C420.252 5.01675 420.672 5.29675 421.018 5.67008C421.378 6.04342 421.652 6.48342 421.838 6.99009L420.398 7.47009C420.185 6.97675 419.878 6.59675 419.478 6.33009C419.092 6.05009 418.638 5.91009 418.118 5.91009C417.718 5.91009 417.365 5.97675 417.058 6.11009C416.765 6.24342 416.532 6.42342 416.358 6.65009C416.185 6.87675 416.098 7.14342 416.098 7.45009C416.098 7.87675 416.258 8.21675 416.578 8.47009C416.912 8.72342 417.445 8.92342 418.178 9.07009L418.958 9.23009C419.945 9.43009 420.698 9.78342 421.218 10.2901C421.738 10.7834 421.998 11.4168 421.998 12.1901C421.998 12.6701 421.898 13.1101 421.698 13.5101C421.512 13.8968 421.245 14.2368 420.898 14.5301C420.565 14.8234 420.158 15.0501 419.678 15.2101C419.212 15.3701 418.698 15.4501 418.138 15.4501ZM424.538 19.4301C424.258 19.4301 423.998 19.3968 423.758 19.3301C423.518 19.2768 423.271 19.1834 423.018 19.0501L423.478 17.7701C423.611 17.8501 423.758 17.9101 423.918 17.9501C424.091 17.9901 424.271 18.0101 424.458 18.0101C424.871 18.0101 425.231 17.8768 425.538 17.6101C425.858 17.3568 426.131 16.9501 426.358 16.3901L426.898 15.0501L422.618 4.83008H424.378L427.678 13.3101L430.658 4.83008H432.358L427.758 16.7701C427.411 17.6768 426.971 18.3434 426.438 18.7701C425.905 19.2101 425.271 19.4301 424.538 19.4301ZM436.987 15.4501C436.387 15.4501 435.82 15.3501 435.287 15.1501C434.767 14.9501 434.313 14.6634 433.927 14.2901C433.54 13.9168 433.247 13.4768 433.047 12.9701L434.487 12.4501C434.753 12.9568 435.1 13.3501 435.527 13.6301C435.953 13.9101 436.44 14.0501 436.987 14.0501C437.427 14.0501 437.813 13.9768 438.147 13.8301C438.48 13.6834 438.74 13.4834 438.927 13.2301C439.113 12.9634 439.207 12.6701 439.207 12.3501C439.207 11.4834 438.58 10.9234 437.327 10.6701L436.547 10.5101C435.453 10.2968 434.647 9.95009 434.127 9.47009C433.607 8.97675 433.347 8.35675 433.347 7.61009C433.347 7.01009 433.5 6.47675 433.807 6.01009C434.113 5.54342 434.54 5.18342 435.087 4.93008C435.647 4.66342 436.28 4.53009 436.987 4.53009C437.573 4.53009 438.113 4.63008 438.607 4.83008C439.1 5.01675 439.52 5.29675 439.867 5.67008C440.227 6.04342 440.5 6.48342 440.687 6.99009L439.247 7.47009C439.033 6.97675 438.727 6.59675 438.327 6.33009C437.94 6.05009 437.487 5.91009 436.967 5.91009C436.567 5.91009 436.213 5.97675 435.907 6.11009C435.613 6.24342 435.38 6.42342 435.207 6.65009C435.033 6.87675 434.947 7.14342 434.947 7.45009C434.947 7.87675 435.107 8.21675 435.427 8.47009C435.76 8.72342 436.293 8.92342 437.027 9.07009L437.807 9.23009C438.793 9.43009 439.547 9.78342 440.067 10.2901C440.587 10.7834 440.847 11.4168 440.847 12.1901C440.847 12.6701 440.747 13.1101 440.547 13.5101C440.36 13.8968 440.093 14.2368 439.747 14.5301C439.413 14.8234 439.007 15.0501 438.527 15.2101C438.06 15.3701 437.547 15.4501 436.987 15.4501ZM446.386 15.4501C445.759 15.4501 445.219 15.3234 444.766 15.0701C444.313 14.8168 443.959 14.4434 443.706 13.9501C443.466 13.4568 443.346 12.8568 443.346 12.1501V6.19009H441.446V4.83008H443.346V1.37009H444.946V4.83008H448.186V6.19009H444.946V12.0701C444.946 12.6834 445.073 13.1634 445.326 13.5101C445.593 13.8434 445.993 14.0101 446.526 14.0101C446.806 14.0101 447.086 13.9701 447.366 13.8901C447.659 13.7968 447.919 13.6768 448.146 13.5301L448.626 14.7701C448.346 14.9701 448.019 15.1301 447.646 15.2501C447.273 15.3834 446.853 15.4501 446.386 15.4501ZM454.775 15.4501C454.015 15.4501 453.315 15.3168 452.675 15.0501C452.048 14.7834 451.501 14.4101 451.035 13.9301C450.568 13.4368 450.208 12.8634 449.955 12.2101C449.701 11.5434 449.575 10.8101 449.575 10.0101C449.575 9.22342 449.695 8.50342 449.935 7.85009C450.188 7.18342 450.535 6.60342 450.975 6.11009C451.428 5.61675 451.955 5.23675 452.555 4.97009C453.155 4.69009 453.808 4.55008 454.515 4.55008C455.195 4.55008 455.821 4.67675 456.395 4.93008C456.981 5.18342 457.488 5.53675 457.915 5.99008C458.341 6.44342 458.668 6.98342 458.895 7.61009C459.135 8.23675 459.255 8.91675 459.255 9.65009V10.3101H451.235C451.288 11.0568 451.461 11.7101 451.755 12.2701C452.061 12.8301 452.468 13.2634 452.975 13.5701C453.481 13.8768 454.068 14.0301 454.735 14.0301C455.388 14.0301 455.955 13.8968 456.435 13.6301C456.928 13.3501 457.348 12.9434 457.695 12.4101L459.055 13.0301C458.788 13.5368 458.441 13.9701 458.015 14.3301C457.588 14.6901 457.095 14.9634 456.535 15.1501C455.988 15.3501 455.401 15.4501 454.775 15.4501ZM454.515 5.91009C453.968 5.91009 453.468 6.04342 453.015 6.31008C452.575 6.57675 452.201 6.95009 451.895 7.43009C451.601 7.89675 451.408 8.44342 451.315 9.07009H457.575C457.521 8.44342 457.355 7.89675 457.075 7.43009C456.795 6.95009 456.435 6.57675 455.995 6.31008C455.555 6.04342 455.061 5.91009 454.515 5.91009ZM461.14 15.1501V4.83008H462.58L462.66 6.41009C462.953 5.83675 463.38 5.38342 463.94 5.05009C464.5 4.70342 465.14 4.53009 465.86 4.53009C466.633 4.53009 467.307 4.73008 467.88 5.13008C468.453 5.53008 468.88 6.09009 469.16 6.81008C469.333 6.35675 469.593 5.96342 469.94 5.63009C470.287 5.28342 470.693 5.01675 471.16 4.83008C471.64 4.63008 472.153 4.53009 472.7 4.53009C473.473 4.53009 474.14 4.71675 474.7 5.09009C475.273 5.45009 475.707 5.96342 476 6.63008C476.307 7.29675 476.46 8.09675 476.46 9.03008V15.1501H474.86V9.13008C474.86 8.11675 474.653 7.34342 474.24 6.81008C473.827 6.26342 473.227 5.99008 472.44 5.99008C471.893 5.99008 471.407 6.12342 470.98 6.39008C470.553 6.64342 470.213 6.99675 469.96 7.45009C469.72 7.89008 469.6 8.39009 469.6 8.95009V15.1501H468V9.13008C468 8.11675 467.787 7.34342 467.36 6.81008C466.933 6.26342 466.327 5.99008 465.54 5.99008C465.007 5.99008 464.527 6.12342 464.1 6.39008C463.673 6.64342 463.34 6.99675 463.1 7.45009C462.86 7.89008 462.74 8.39009 462.74 8.95009V15.1501H461.14ZM479.707 15.2101C479.494 15.2101 479.294 15.1568 479.107 15.0501C478.934 14.9434 478.794 14.8034 478.687 14.6301C478.58 14.4434 478.527 14.2368 478.527 14.0101C478.527 13.7834 478.58 13.5834 478.687 13.4101C478.794 13.2234 478.934 13.0768 479.107 12.9701C479.294 12.8634 479.494 12.8101 479.707 12.8101C479.92 12.8101 480.114 12.8634 480.287 12.9701C480.474 13.0768 480.62 13.2234 480.727 13.4101C480.847 13.5834 480.907 13.7834 480.907 14.0101C480.907 14.2368 480.847 14.4434 480.727 14.6301C480.62 14.8034 480.474 14.9434 480.287 15.0501C480.114 15.1568 479.92 15.2101 479.707 15.2101ZM487.19 15.1501V0.950085H488.77L493.97 10.4701L499.19 0.950085H500.71V15.1501H499.07V4.07009L494.61 12.1901H493.29L488.83 4.07009V15.1501H487.19ZM506.47 15.4501C505.75 15.4501 505.11 15.3168 504.55 15.0501C503.99 14.7701 503.55 14.3901 503.23 13.9101C502.924 13.4301 502.77 12.8768 502.77 12.2501C502.77 11.5701 502.944 10.9834 503.29 10.4901C503.65 9.99675 504.15 9.61675 504.79 9.35009C505.43 9.07009 506.177 8.93009 507.03 8.93009C507.51 8.93009 507.997 8.98342 508.49 9.09009C508.984 9.19675 509.424 9.33675 509.81 9.51009V8.75008C509.81 8.19009 509.697 7.70342 509.47 7.29009C509.257 6.86342 508.957 6.53675 508.57 6.31008C508.184 6.07009 507.73 5.95009 507.21 5.95009C506.584 5.95009 506.037 6.09675 505.57 6.39008C505.117 6.68342 504.777 7.09675 504.55 7.63009L503.15 7.15009C503.337 6.61675 503.624 6.15675 504.01 5.77009C504.41 5.38342 504.884 5.08342 505.43 4.87009C505.99 4.65675 506.59 4.55008 507.23 4.55008C508.057 4.55008 508.777 4.73008 509.39 5.09009C510.017 5.43675 510.497 5.93008 510.83 6.57009C511.177 7.19675 511.35 7.93675 511.35 8.79009V15.1501H509.95L509.85 13.5501C509.557 14.1234 509.11 14.5834 508.51 14.9301C507.924 15.2768 507.244 15.4501 506.47 15.4501ZM504.39 12.1901C504.39 12.5768 504.49 12.9168 504.69 13.2101C504.89 13.4901 505.17 13.7101 505.53 13.8701C505.89 14.0301 506.304 14.1101 506.77 14.1101C507.344 14.1101 507.857 13.9834 508.31 13.7301C508.777 13.4634 509.144 13.1101 509.41 12.6701C509.677 12.2168 509.81 11.7034 509.81 11.1301V10.7501C509.37 10.5768 508.924 10.4434 508.47 10.3501C508.03 10.2434 507.61 10.1901 507.21 10.1901C506.33 10.1901 505.637 10.3701 505.13 10.7301C504.637 11.0901 504.39 11.5768 504.39 12.1901ZM513.671 15.1501V0.310085H515.271V9.15009L520.151 4.83008H522.211L516.931 9.45008L522.691 15.1501H520.491L515.271 9.87009V15.1501H513.671ZM528.186 15.4501C527.426 15.4501 526.726 15.3168 526.086 15.0501C525.459 14.7834 524.912 14.4101 524.446 13.9301C523.979 13.4368 523.619 12.8634 523.366 12.2101C523.112 11.5434 522.986 10.8101 522.986 10.0101C522.986 9.22342 523.106 8.50342 523.346 7.85009C523.599 7.18342 523.946 6.60342 524.386 6.11009C524.839 5.61675 525.366 5.23675 525.966 4.97009C526.566 4.69009 527.219 4.55008 527.926 4.55008C528.606 4.55008 529.232 4.67675 529.806 4.93008C530.392 5.18342 530.899 5.53675 531.326 5.99008C531.752 6.44342 532.079 6.98342 532.306 7.61009C532.546 8.23675 532.666 8.91675 532.666 9.65009V10.3101H524.646C524.699 11.0568 524.872 11.7101 525.166 12.2701C525.472 12.8301 525.879 13.2634 526.386 13.5701C526.892 13.8768 527.479 14.0301 528.146 14.0301C528.799 14.0301 529.366 13.8968 529.846 13.6301C530.339 13.3501 530.759 12.9434 531.106 12.4101L532.466 13.0301C532.199 13.5368 531.852 13.9701 531.426 14.3301C530.999 14.6901 530.506 14.9634 529.946 15.1501C529.399 15.3501 528.812 15.4501 528.186 15.4501ZM527.926 5.91009C527.379 5.91009 526.879 6.04342 526.426 6.31008C525.986 6.57675 525.612 6.95009 525.306 7.43009C525.012 7.89675 524.819 8.44342 524.726 9.07009H530.986C530.932 8.44342 530.766 7.89675 530.486 7.43009C530.206 6.95009 529.846 6.57675 529.406 6.31008C528.966 6.04342 528.472 5.91009 527.926 5.91009ZM542.386 15.4501C541.759 15.4501 541.219 15.3234 540.766 15.0701C540.313 14.8168 539.959 14.4434 539.706 13.9501C539.466 13.4568 539.346 12.8568 539.346 12.1501V6.19009H537.446V4.83008H539.346V1.37009H540.946V4.83008H544.186V6.19009H540.946V12.0701C540.946 12.6834 541.073 13.1634 541.326 13.5101C541.593 13.8434 541.993 14.0101 542.526 14.0101C542.806 14.0101 543.086 13.9701 543.366 13.8901C543.659 13.7968 543.919 13.6768 544.146 13.5301L544.626 14.7701C544.346 14.9701 544.019 15.1301 543.646 15.2501C543.273 15.3834 542.853 15.4501 542.386 15.4501ZM546.29 15.1501V0.310085H547.89V6.33009C548.197 5.78342 548.637 5.35008 549.21 5.03008C549.783 4.69675 550.43 4.53009 551.15 4.53009C551.937 4.53009 552.623 4.71675 553.21 5.09009C553.797 5.46342 554.243 5.99675 554.55 6.69009C554.87 7.37009 555.03 8.17675 555.03 9.11009V15.1501H553.43V9.21009C553.43 8.18342 553.203 7.39009 552.75 6.83009C552.31 6.27008 551.677 5.99008 550.85 5.99008C550.277 5.99008 549.763 6.12342 549.31 6.39008C548.87 6.64342 548.523 7.00342 548.27 7.47009C548.017 7.92342 547.89 8.44342 547.89 9.03008V15.1501H546.29ZM562.035 15.4501C561.275 15.4501 560.575 15.3168 559.935 15.0501C559.308 14.7834 558.762 14.4101 558.295 13.9301C557.828 13.4368 557.468 12.8634 557.215 12.2101C556.962 11.5434 556.835 10.8101 556.835 10.0101C556.835 9.22342 556.955 8.50342 557.195 7.85009C557.448 7.18342 557.795 6.60342 558.235 6.11009C558.688 5.61675 559.215 5.23675 559.815 4.97009C560.415 4.69009 561.068 4.55008 561.775 4.55008C562.455 4.55008 563.082 4.67675 563.655 4.93008C564.242 5.18342 564.748 5.53675 565.175 5.99008C565.602 6.44342 565.928 6.98342 566.155 7.61009C566.395 8.23675 566.515 8.91675 566.515 9.65009V10.3101H558.495C558.548 11.0568 558.722 11.7101 559.015 12.2701C559.322 12.8301 559.728 13.2634 560.235 13.5701C560.742 13.8768 561.328 14.0301 561.995 14.0301C562.648 14.0301 563.215 13.8968 563.695 13.6301C564.188 13.3501 564.608 12.9434 564.955 12.4101L566.315 13.0301C566.048 13.5368 565.702 13.9701 565.275 14.3301C564.848 14.6901 564.355 14.9634 563.795 15.1501C563.248 15.3501 562.662 15.4501 562.035 15.4501ZM561.775 5.91009C561.228 5.91009 560.728 6.04342 560.275 6.31008C559.835 6.57675 559.462 6.95009 559.155 7.43009C558.862 7.89675 558.668 8.44342 558.575 9.07009H564.835C564.782 8.44342 564.615 7.89675 564.335 7.43009C564.055 6.95009 563.695 6.57675 563.255 6.31008C562.815 6.04342 562.322 5.91009 561.775 5.91009ZM185.874 39.1501V24.3101H187.474V30.3301C187.78 29.7834 188.22 29.3501 188.794 29.0301C189.367 28.6968 190.014 28.5301 190.734 28.5301C191.52 28.5301 192.207 28.7168 192.794 29.0901C193.38 29.4634 193.827 29.9968 194.134 30.6901C194.454 31.3701 194.614 32.1768 194.614 33.1101V39.1501H193.014V33.2101C193.014 32.1834 192.787 31.3901 192.334 30.8301C191.894 30.2701 191.26 29.9901 190.434 29.9901C189.86 29.9901 189.347 30.1234 188.894 30.3901C188.454 30.6434 188.107 31.0034 187.854 31.4701C187.6 31.9234 187.474 32.4434 187.474 33.0301V39.1501H185.874ZM200.138 39.4501C199.418 39.4501 198.778 39.3168 198.218 39.0501C197.658 38.7701 197.218 38.3901 196.898 37.9101C196.592 37.4301 196.438 36.8768 196.438 36.2501C196.438 35.5701 196.612 34.9834 196.958 34.4901C197.318 33.9968 197.818 33.6168 198.458 33.3501C199.098 33.0701 199.845 32.9301 200.698 32.9301C201.178 32.9301 201.665 32.9834 202.158 33.0901C202.652 33.1968 203.092 33.3368 203.478 33.5101V32.7501C203.478 32.1901 203.365 31.7034 203.138 31.2901C202.925 30.8634 202.625 30.5368 202.238 30.3101C201.852 30.0701 201.398 29.9501 200.878 29.9501C200.252 29.9501 199.705 30.0968 199.238 30.3901C198.785 30.6834 198.445 31.0968 198.218 31.6301L196.818 31.1501C197.005 30.6168 197.292 30.1568 197.678 29.7701C198.078 29.3834 198.552 29.0834 199.098 28.8701C199.658 28.6568 200.258 28.5501 200.898 28.5501C201.725 28.5501 202.445 28.7301 203.058 29.0901C203.685 29.4368 204.165 29.9301 204.498 30.5701C204.845 31.1968 205.018 31.9368 205.018 32.7901V39.1501H203.618L203.518 37.5501C203.225 38.1234 202.778 38.5834 202.178 38.9301C201.592 39.2768 200.912 39.4501 200.138 39.4501ZM198.058 36.1901C198.058 36.5768 198.158 36.9168 198.358 37.2101C198.558 37.4901 198.838 37.7101 199.198 37.8701C199.558 38.0301 199.972 38.1101 200.438 38.1101C201.012 38.1101 201.525 37.9834 201.978 37.7301C202.445 37.4634 202.812 37.1101 203.078 36.6701C203.345 36.2168 203.478 35.7034 203.478 35.1301V34.7501C203.038 34.5768 202.592 34.4434 202.138 34.3501C201.698 34.2434 201.278 34.1901 200.878 34.1901C199.998 34.1901 199.305 34.3701 198.798 34.7301C198.305 35.0901 198.058 35.5768 198.058 36.1901ZM207.339 39.1501V28.8301H208.779L208.879 30.7501C209.133 30.1101 209.513 29.6101 210.019 29.2501C210.526 28.8768 211.119 28.6901 211.799 28.6901C212.026 28.6901 212.226 28.7101 212.399 28.7501C212.586 28.7768 212.746 28.8168 212.879 28.8701L212.679 30.3901C212.533 30.3368 212.379 30.3034 212.219 30.2901C212.059 30.2634 211.899 30.2501 211.739 30.2501C211.179 30.2501 210.686 30.3901 210.259 30.6701C209.846 30.9501 209.519 31.3501 209.279 31.8701C209.053 32.3768 208.939 32.9768 208.939 33.6701V39.1501H207.339ZM218.388 39.4501C217.708 39.4501 217.075 39.3168 216.488 39.0501C215.901 38.7701 215.388 38.3834 214.948 37.8901C214.508 37.3968 214.161 36.8234 213.908 36.1701C213.668 35.5034 213.548 34.7834 213.548 34.0101C213.548 33.2368 213.668 32.5168 213.908 31.8501C214.161 31.1834 214.508 30.6034 214.948 30.1101C215.401 29.6168 215.928 29.2301 216.528 28.9501C217.128 28.6701 217.775 28.5301 218.468 28.5301C219.255 28.5301 219.961 28.7101 220.588 29.0701C221.228 29.4301 221.735 29.9368 222.108 30.5901V24.3101H223.708V39.1501H222.268L222.188 37.1901C221.815 37.8968 221.295 38.4501 220.628 38.8501C219.975 39.2501 219.228 39.4501 218.388 39.4501ZM218.668 37.9901C219.175 37.9901 219.635 37.8901 220.048 37.6901C220.475 37.4901 220.841 37.2168 221.148 36.8701C221.468 36.5101 221.715 36.0901 221.888 35.6101C222.061 35.1168 222.148 34.5768 222.148 33.9901C222.148 33.4034 222.061 32.8701 221.888 32.3901C221.715 31.8968 221.468 31.4768 221.148 31.1301C220.841 30.7701 220.475 30.4901 220.048 30.2901C219.635 30.0901 219.175 29.9901 218.668 29.9901C218.161 29.9901 217.695 30.0901 217.268 30.2901C216.855 30.4901 216.488 30.7701 216.168 31.1301C215.861 31.4768 215.621 31.8968 215.448 32.3901C215.275 32.8701 215.188 33.4034 215.188 33.9901C215.188 34.5768 215.275 35.1168 215.448 35.6101C215.621 36.0901 215.861 36.5101 216.168 36.8701C216.488 37.2168 216.855 37.4901 217.268 37.6901C217.695 37.8901 218.161 37.9901 218.668 37.9901ZM230.79 39.4501C230.03 39.4501 229.33 39.3168 228.69 39.0501C228.063 38.7834 227.516 38.4101 227.05 37.9301C226.583 37.4368 226.223 36.8634 225.97 36.2101C225.716 35.5434 225.59 34.8101 225.59 34.0101C225.59 33.2234 225.71 32.5034 225.95 31.8501C226.203 31.1834 226.55 30.6034 226.99 30.1101C227.443 29.6168 227.97 29.2368 228.57 28.9701C229.17 28.6901 229.823 28.5501 230.53 28.5501C231.21 28.5501 231.836 28.6768 232.41 28.9301C232.996 29.1834 233.503 29.5368 233.93 29.9901C234.356 30.4434 234.683 30.9834 234.91 31.6101C235.15 32.2368 235.27 32.9168 235.27 33.6501V34.3101H227.25C227.303 35.0568 227.476 35.7101 227.77 36.2701C228.076 36.8301 228.483 37.2634 228.99 37.5701C229.496 37.8768 230.083 38.0301 230.75 38.0301C231.403 38.0301 231.97 37.8968 232.45 37.6301C232.943 37.3501 233.363 36.9434 233.71 36.4101L235.07 37.0301C234.803 37.5368 234.456 37.9701 234.03 38.3301C233.603 38.6901 233.11 38.9634 232.55 39.1501C232.003 39.3501 231.416 39.4501 230.79 39.4501ZM230.53 29.9101C229.983 29.9101 229.483 30.0434 229.03 30.3101C228.59 30.5768 228.216 30.9501 227.91 31.4301C227.616 31.8968 227.423 32.4434 227.33 33.0701H233.59C233.536 32.4434 233.37 31.8968 233.09 31.4301C232.81 30.9501 232.45 30.5768 232.01 30.3101C231.57 30.0434 231.076 29.9101 230.53 29.9101ZM240.454 39.4501C239.854 39.4501 239.287 39.3501 238.754 39.1501C238.234 38.9501 237.781 38.6634 237.394 38.2901C237.007 37.9168 236.714 37.4768 236.514 36.9701L237.954 36.4501C238.221 36.9568 238.567 37.3501 238.994 37.6301C239.421 37.9101 239.907 38.0501 240.454 38.0501C240.894 38.0501 241.281 37.9768 241.614 37.8301C241.947 37.6834 242.207 37.4834 242.394 37.2301C242.581 36.9634 242.674 36.6701 242.674 36.3501C242.674 35.4834 242.047 34.9234 240.794 34.6701L240.014 34.5101C238.921 34.2968 238.114 33.9501 237.594 33.4701C237.074 32.9768 236.814 32.3568 236.814 31.6101C236.814 31.0101 236.967 30.4768 237.274 30.0101C237.581 29.5434 238.007 29.1834 238.554 28.9301C239.114 28.6634 239.747 28.5301 240.454 28.5301C241.041 28.5301 241.581 28.6301 242.074 28.8301C242.567 29.0168 242.987 29.2968 243.334 29.6701C243.694 30.0434 243.967 30.4834 244.154 30.9901L242.714 31.4701C242.501 30.9768 242.194 30.5968 241.794 30.3301C241.407 30.0501 240.954 29.9101 240.434 29.9101C240.034 29.9101 239.681 29.9768 239.374 30.1101C239.081 30.2434 238.847 30.4234 238.674 30.6501C238.501 30.8768 238.414 31.1434 238.414 31.4501C238.414 31.8768 238.574 32.2168 238.894 32.4701C239.227 32.7234 239.761 32.9234 240.494 33.0701L241.274 33.2301C242.261 33.4301 243.014 33.7834 243.534 34.2901C244.054 34.7834 244.314 35.4168 244.314 36.1901C244.314 36.6701 244.214 37.1101 244.014 37.5101C243.827 37.8968 243.561 38.2368 243.214 38.5301C242.881 38.8234 242.474 39.0501 241.994 39.2101C241.527 39.3701 241.014 39.4501 240.454 39.4501ZM249.853 39.4501C249.227 39.4501 248.687 39.3234 248.233 39.0701C247.78 38.8168 247.427 38.4434 247.173 37.9501C246.933 37.4568 246.813 36.8568 246.813 36.1501V30.1901H244.913V28.8301H246.813V25.3701H248.413V28.8301H251.653V30.1901H248.413V36.0701C248.413 36.6834 248.54 37.1634 248.793 37.5101C249.06 37.8434 249.46 38.0101 249.993 38.0101C250.273 38.0101 250.553 37.9701 250.833 37.8901C251.127 37.7968 251.387 37.6768 251.613 37.5301L252.093 38.7701C251.813 38.9701 251.487 39.1301 251.113 39.2501C250.74 39.3834 250.32 39.4501 249.853 39.4501ZM257.732 43.2301V28.8301H259.172L259.252 30.7901C259.626 30.0834 260.139 29.5301 260.792 29.1301C261.459 28.7301 262.212 28.5301 263.052 28.5301C263.732 28.5301 264.366 28.6701 264.952 28.9501C265.539 29.2168 266.052 29.5968 266.492 30.0901C266.932 30.5834 267.272 31.1634 267.512 31.8301C267.766 32.4834 267.892 33.1968 267.892 33.9701C267.892 34.7434 267.766 35.4634 267.512 36.1301C267.272 36.7968 266.926 37.3768 266.472 37.8701C266.032 38.3634 265.512 38.7501 264.912 39.0301C264.312 39.3101 263.666 39.4501 262.972 39.4501C262.186 39.4501 261.472 39.2701 260.832 38.9101C260.206 38.5501 259.706 38.0434 259.332 37.3901V43.2301H257.732ZM262.772 37.9901C263.279 37.9901 263.739 37.8901 264.152 37.6901C264.579 37.4901 264.946 37.2168 265.252 36.8701C265.572 36.5101 265.819 36.0901 265.992 35.6101C266.166 35.1168 266.252 34.5768 266.252 33.9901C266.252 33.4034 266.166 32.8701 265.992 32.3901C265.819 31.8968 265.572 31.4768 265.252 31.1301C264.946 30.7701 264.579 30.4901 264.152 30.2901C263.739 30.0901 263.279 29.9901 262.772 29.9901C262.266 29.9901 261.799 30.0901 261.372 30.2901C260.959 30.4901 260.592 30.7701 260.272 31.1301C259.966 31.4768 259.726 31.8968 259.552 32.3901C259.379 32.8701 259.292 33.4034 259.292 33.9901C259.292 34.5768 259.379 35.1168 259.552 35.6101C259.726 36.0901 259.966 36.5101 260.272 36.8701C260.592 37.2168 260.959 37.4901 261.372 37.6901C261.799 37.8901 262.266 37.9901 262.772 37.9901ZM272.974 39.4501C272.254 39.4501 271.614 39.3168 271.054 39.0501C270.494 38.7701 270.054 38.3901 269.734 37.9101C269.427 37.4301 269.274 36.8768 269.274 36.2501C269.274 35.5701 269.447 34.9834 269.794 34.4901C270.154 33.9968 270.654 33.6168 271.294 33.3501C271.934 33.0701 272.68 32.9301 273.534 32.9301C274.014 32.9301 274.5 32.9834 274.994 33.0901C275.487 33.1968 275.927 33.3368 276.314 33.5101V32.7501C276.314 32.1901 276.2 31.7034 275.974 31.2901C275.76 30.8634 275.46 30.5368 275.074 30.3101C274.687 30.0701 274.234 29.9501 273.714 29.9501C273.087 29.9501 272.54 30.0968 272.074 30.3901C271.62 30.6834 271.28 31.0968 271.054 31.6301L269.654 31.1501C269.84 30.6168 270.127 30.1568 270.514 29.7701C270.914 29.3834 271.387 29.0834 271.934 28.8701C272.494 28.6568 273.094 28.5501 273.734 28.5501C274.56 28.5501 275.28 28.7301 275.894 29.0901C276.52 29.4368 277 29.9301 277.334 30.5701C277.68 31.1968 277.854 31.9368 277.854 32.7901V39.1501H276.454L276.354 37.5501C276.06 38.1234 275.614 38.5834 275.014 38.9301C274.427 39.2768 273.747 39.4501 272.974 39.4501ZM270.894 36.1901C270.894 36.5768 270.994 36.9168 271.194 37.2101C271.394 37.4901 271.674 37.7101 272.034 37.8701C272.394 38.0301 272.807 38.1101 273.274 38.1101C273.847 38.1101 274.36 37.9834 274.814 37.7301C275.28 37.4634 275.647 37.1101 275.914 36.6701C276.18 36.2168 276.314 35.7034 276.314 35.1301V34.7501C275.874 34.5768 275.427 34.4434 274.974 34.3501C274.534 34.2434 274.114 34.1901 273.714 34.1901C272.834 34.1901 272.14 34.3701 271.634 34.7301C271.14 35.0901 270.894 35.5768 270.894 36.1901ZM280.174 39.1501V28.8301H281.614L281.714 30.7501C281.968 30.1101 282.348 29.6101 282.854 29.2501C283.361 28.8768 283.954 28.6901 284.634 28.6901C284.861 28.6901 285.061 28.7101 285.234 28.7501C285.421 28.7768 285.581 28.8168 285.714 28.8701L285.514 30.3901C285.368 30.3368 285.214 30.3034 285.054 30.2901C284.894 30.2634 284.734 30.2501 284.574 30.2501C284.014 30.2501 283.521 30.3901 283.094 30.6701C282.681 30.9501 282.354 31.3501 282.114 31.8701C281.888 32.3768 281.774 32.9768 281.774 33.6701V39.1501H280.174ZM291.506 39.4501C290.879 39.4501 290.339 39.3234 289.886 39.0701C289.432 38.8168 289.079 38.4434 288.826 37.9501C288.586 37.4568 288.466 36.8568 288.466 36.1501V30.1901H286.566V28.8301H288.466V25.3701H290.066V28.8301H293.306V30.1901H290.066V36.0701C290.066 36.6834 290.192 37.1634 290.446 37.5101C290.712 37.8434 291.112 38.0101 291.646 38.0101C291.926 38.0101 292.206 37.9701 292.486 37.8901C292.779 37.7968 293.039 37.6768 293.266 37.5301L293.746 38.7701C293.466 38.9701 293.139 39.1301 292.766 39.2501C292.392 39.3834 291.972 39.4501 291.506 39.4501ZM298.67 39.4501C298.07 39.4501 297.503 39.3501 296.97 39.1501C296.45 38.9501 295.996 38.6634 295.61 38.2901C295.223 37.9168 294.93 37.4768 294.73 36.9701L296.17 36.4501C296.436 36.9568 296.783 37.3501 297.21 37.6301C297.636 37.9101 298.123 38.0501 298.67 38.0501C299.11 38.0501 299.496 37.9768 299.83 37.8301C300.163 37.6834 300.423 37.4834 300.61 37.2301C300.796 36.9634 300.89 36.6701 300.89 36.3501C300.89 35.4834 300.263 34.9234 299.01 34.6701L298.23 34.5101C297.136 34.2968 296.33 33.9501 295.81 33.4701C295.29 32.9768 295.03 32.3568 295.03 31.6101C295.03 31.0101 295.183 30.4768 295.49 30.0101C295.796 29.5434 296.223 29.1834 296.77 28.9301C297.33 28.6634 297.963 28.5301 298.67 28.5301C299.256 28.5301 299.796 28.6301 300.29 28.8301C300.783 29.0168 301.203 29.2968 301.55 29.6701C301.91 30.0434 302.183 30.4834 302.37 30.9901L300.93 31.4701C300.716 30.9768 300.41 30.5968 300.01 30.3301C299.623 30.0501 299.17 29.9101 298.65 29.9101C298.25 29.9101 297.896 29.9768 297.59 30.1101C297.296 30.2434 297.063 30.4234 296.89 30.6501C296.716 30.8768 296.63 31.1434 296.63 31.4501C296.63 31.8768 296.79 32.2168 297.11 32.4701C297.443 32.7234 297.976 32.9234 298.71 33.0701L299.49 33.2301C300.476 33.4301 301.23 33.7834 301.75 34.2901C302.27 34.7834 302.53 35.4168 302.53 36.1901C302.53 36.6701 302.43 37.1101 302.23 37.5101C302.043 37.8968 301.776 38.2368 301.43 38.5301C301.096 38.8234 300.69 39.0501 300.21 39.2101C299.743 39.3701 299.23 39.4501 298.67 39.4501ZM312.803 39.4501C312.07 39.4501 311.39 39.3168 310.763 39.0501C310.15 38.7701 309.61 38.3901 309.143 37.9101C308.69 37.4168 308.336 36.8368 308.083 36.1701C307.83 35.5034 307.703 34.7768 307.703 33.9901C307.703 33.2034 307.83 32.4768 308.083 31.8101C308.35 31.1434 308.71 30.5701 309.163 30.0901C309.63 29.5968 310.176 29.2168 310.803 28.9501C311.43 28.6701 312.11 28.5301 312.843 28.5301C313.576 28.5301 314.25 28.6701 314.863 28.9501C315.49 29.2168 316.03 29.5968 316.483 30.0901C316.95 30.5701 317.31 31.1434 317.563 31.8101C317.816 32.4768 317.943 33.2034 317.943 33.9901C317.943 34.7768 317.81 35.5034 317.543 36.1701C317.29 36.8368 316.93 37.4168 316.463 37.9101C316.01 38.3901 315.47 38.7701 314.843 39.0501C314.216 39.3168 313.536 39.4501 312.803 39.4501ZM312.823 37.9901C313.33 37.9901 313.79 37.8901 314.203 37.6901C314.63 37.4901 314.996 37.2168 315.303 36.8701C315.623 36.5101 315.87 36.0901 316.043 35.6101C316.216 35.1168 316.303 34.5768 316.303 33.9901C316.303 33.4034 316.216 32.8701 316.043 32.3901C315.87 31.8968 315.623 31.4768 315.303 31.1301C314.996 30.7701 314.63 30.4901 314.203 30.2901C313.79 30.0901 313.33 29.9901 312.823 29.9901C312.316 29.9901 311.85 30.0901 311.423 30.2901C311.01 30.4901 310.643 30.7701 310.323 31.1301C310.016 31.4768 309.776 31.8968 309.603 32.3901C309.43 32.8701 309.343 33.4034 309.343 33.9901C309.343 34.5768 309.43 35.1168 309.603 35.6101C309.776 36.0901 310.016 36.5101 310.323 36.8701C310.643 37.2168 311.01 37.4901 311.423 37.6901C311.85 37.8901 312.316 37.9901 312.823 37.9901ZM320.401 39.1501V30.1901H318.501V28.8301H320.401V27.8701C320.401 27.1101 320.541 26.4501 320.821 25.8901C321.101 25.3168 321.494 24.8768 322.001 24.5701C322.521 24.2634 323.121 24.1101 323.801 24.1101C324.521 24.1101 325.167 24.2834 325.741 24.6301L325.281 25.8701C325.081 25.7634 324.861 25.6768 324.621 25.6101C324.381 25.5434 324.141 25.5101 323.901 25.5101C323.274 25.5101 322.801 25.7168 322.481 26.1301C322.161 26.5434 322.001 27.1368 322.001 27.9101V28.8301H325.261V30.1901H322.001V39.1501H320.401ZM330.714 39.1501V28.8301H332.154L332.254 30.7501C332.508 30.1101 332.888 29.6101 333.394 29.2501C333.901 28.8768 334.494 28.6901 335.174 28.6901C335.401 28.6901 335.601 28.7101 335.774 28.7501C335.961 28.7768 336.121 28.8168 336.254 28.8701L336.054 30.3901C335.908 30.3368 335.754 30.3034 335.594 30.2901C335.434 30.2634 335.274 30.2501 335.114 30.2501C334.554 30.2501 334.061 30.3901 333.634 30.6701C333.221 30.9501 332.894 31.3501 332.654 31.8701C332.428 32.3768 332.314 32.9768 332.314 33.6701V39.1501H330.714ZM342.014 39.4501C341.134 39.4501 340.374 39.2568 339.734 38.8701C339.094 38.4834 338.601 37.9368 338.254 37.2301C337.908 36.5101 337.734 35.6568 337.734 34.6701V28.8301H339.334V34.6901C339.334 35.3701 339.441 35.9568 339.654 36.4501C339.881 36.9434 340.194 37.3234 340.594 37.5901C341.008 37.8568 341.494 37.9901 342.054 37.9901C342.614 37.9901 343.094 37.8568 343.494 37.5901C343.908 37.3234 344.221 36.9434 344.434 36.4501C344.661 35.9568 344.774 35.3701 344.774 34.6901V28.8301H346.374V34.6701C346.374 35.6301 346.194 36.4701 345.834 37.1901C345.474 37.9101 344.968 38.4701 344.314 38.8701C343.661 39.2568 342.894 39.4501 342.014 39.4501ZM348.703 39.1501V28.8301H350.143L350.223 30.4701C350.53 29.8834 350.97 29.4168 351.543 29.0701C352.13 28.7101 352.803 28.5301 353.563 28.5301C354.35 28.5301 355.037 28.7168 355.623 29.0901C356.21 29.4634 356.657 29.9968 356.963 30.6901C357.283 31.3701 357.443 32.1768 357.443 33.1101V39.1501H355.843V33.2101C355.843 32.1834 355.617 31.3901 355.163 30.8301C354.723 30.2701 354.09 29.9901 353.263 29.9901C352.69 29.9901 352.177 30.1234 351.723 30.3901C351.283 30.6434 350.937 31.0034 350.683 31.4701C350.43 31.9234 350.303 32.4434 350.303 33.0301V39.1501H348.703ZM359.768 39.1501V28.8301H361.208L361.288 30.4701C361.595 29.8834 362.035 29.4168 362.608 29.0701C363.195 28.7101 363.868 28.5301 364.628 28.5301C365.415 28.5301 366.101 28.7168 366.688 29.0901C367.275 29.4634 367.721 29.9968 368.028 30.6901C368.348 31.3701 368.508 32.1768 368.508 33.1101V39.1501H366.908V33.2101C366.908 32.1834 366.681 31.3901 366.228 30.8301C365.788 30.2701 365.155 29.9901 364.328 29.9901C363.755 29.9901 363.241 30.1234 362.788 30.3901C362.348 30.6434 362.001 31.0034 361.748 31.4701C361.495 31.9234 361.368 32.4434 361.368 33.0301V39.1501H359.768ZM372.733 25.8101C372.733 26.0101 372.68 26.1968 372.573 26.3701C372.48 26.5301 372.346 26.6634 372.173 26.7701C372.013 26.8634 371.833 26.9101 371.633 26.9101C371.433 26.9101 371.246 26.8634 371.073 26.7701C370.913 26.6634 370.78 26.5301 370.673 26.3701C370.58 26.1968 370.533 26.0101 370.533 25.8101C370.533 25.6101 370.58 25.4301 370.673 25.2701C370.78 25.0968 370.913 24.9634 371.073 24.8701C371.246 24.7634 371.433 24.7101 371.633 24.7101C371.833 24.7101 372.013 24.7634 372.173 24.8701C372.346 24.9634 372.48 25.0968 372.573 25.2701C372.68 25.4301 372.733 25.6101 372.733 25.8101ZM370.833 39.1501V28.8301H372.433V39.1501H370.833ZM374.828 39.1501V28.8301H376.268L376.348 30.4701C376.654 29.8834 377.094 29.4168 377.668 29.0701C378.254 28.7101 378.928 28.5301 379.688 28.5301C380.474 28.5301 381.161 28.7168 381.748 29.0901C382.334 29.4634 382.781 29.9968 383.088 30.6901C383.408 31.3701 383.568 32.1768 383.568 33.1101V39.1501H381.968V33.2101C381.968 32.1834 381.741 31.3901 381.288 30.8301C380.848 30.2701 380.214 29.9901 379.388 29.9901C378.814 29.9901 378.301 30.1234 377.848 30.3901C377.408 30.6434 377.061 31.0034 376.808 31.4701C376.554 31.9234 376.428 32.4434 376.428 33.0301V39.1501H374.828ZM390.152 39.0501C389.472 39.0501 388.839 38.9168 388.252 38.6501C387.679 38.3834 387.172 38.0168 386.732 37.5501C386.306 37.0701 385.972 36.5101 385.732 35.8701C385.492 35.2301 385.372 34.5434 385.372 33.8101C385.372 33.0634 385.492 32.3701 385.732 31.7301C385.986 31.0901 386.332 30.5301 386.772 30.0501C387.212 29.5701 387.726 29.1968 388.312 28.9301C388.912 28.6634 389.552 28.5301 390.232 28.5301C391.019 28.5301 391.732 28.7168 392.372 29.0901C393.026 29.4634 393.532 29.9768 393.892 30.6301L393.972 28.8301H395.412V38.2701C395.412 39.0568 395.292 39.7701 395.052 40.4101C394.812 41.0634 394.472 41.6234 394.032 42.0901C393.592 42.5568 393.066 42.9101 392.452 43.1501C391.839 43.4034 391.159 43.5301 390.412 43.5301C389.759 43.5301 389.146 43.4301 388.572 43.2301C387.999 43.0434 387.486 42.7634 387.032 42.3901C386.592 42.0301 386.226 41.5968 385.932 41.0901L387.272 40.4101C387.659 40.9701 388.112 41.3968 388.632 41.6901C389.166 41.9968 389.759 42.1501 390.412 42.1501C391.106 42.1501 391.706 41.9901 392.212 41.6701C392.732 41.3634 393.126 40.9234 393.392 40.3501C393.672 39.7768 393.812 39.1034 393.812 38.3301V37.0101C393.439 37.6501 392.932 38.1501 392.292 38.5101C391.652 38.8701 390.939 39.0501 390.152 39.0501ZM390.432 37.5901C390.926 37.5901 391.379 37.4968 391.792 37.3101C392.219 37.1234 392.586 36.8634 392.892 36.5301C393.199 36.1834 393.432 35.7768 393.592 35.3101C393.766 34.8434 393.852 34.3368 393.852 33.7901C393.852 33.2434 393.766 32.7368 393.592 32.2701C393.432 31.8034 393.199 31.4034 392.892 31.0701C392.586 30.7234 392.219 30.4568 391.792 30.2701C391.379 30.0834 390.926 29.9901 390.432 29.9901C389.939 29.9901 389.479 30.0834 389.052 30.2701C388.639 30.4568 388.279 30.7234 387.972 31.0701C387.666 31.4034 387.426 31.8034 387.252 32.2701C387.092 32.7368 387.012 33.2434 387.012 33.7901C387.012 34.3368 387.092 34.8434 387.252 35.3101C387.426 35.7768 387.666 36.1834 387.972 36.5301C388.279 36.8634 388.639 37.1234 389.052 37.3101C389.479 37.4968 389.939 37.5901 390.432 37.5901ZM402.672 43.4301C402.392 43.4301 402.132 43.3968 401.892 43.3301C401.652 43.2768 401.405 43.1834 401.152 43.0501L401.612 41.7701C401.745 41.8501 401.892 41.9101 402.052 41.9501C402.225 41.9901 402.405 42.0101 402.592 42.0101C403.005 42.0101 403.365 41.8768 403.672 41.6101C403.992 41.3568 404.265 40.9501 404.492 40.3901L405.032 39.0501L400.752 28.8301H402.512L405.812 37.3101L408.792 28.8301H410.492L405.892 40.7701C405.545 41.6768 405.105 42.3434 404.572 42.7701C404.038 43.2101 403.405 43.4301 402.672 43.4301ZM416.206 39.4501C415.473 39.4501 414.793 39.3168 414.166 39.0501C413.553 38.7701 413.013 38.3901 412.546 37.9101C412.093 37.4168 411.739 36.8368 411.486 36.1701C411.233 35.5034 411.106 34.7768 411.106 33.9901C411.106 33.2034 411.233 32.4768 411.486 31.8101C411.753 31.1434 412.113 30.5701 412.566 30.0901C413.033 29.5968 413.579 29.2168 414.206 28.9501C414.833 28.6701 415.513 28.5301 416.246 28.5301C416.979 28.5301 417.653 28.6701 418.266 28.9501C418.893 29.2168 419.433 29.5968 419.886 30.0901C420.353 30.5701 420.713 31.1434 420.966 31.8101C421.219 32.4768 421.346 33.2034 421.346 33.9901C421.346 34.7768 421.213 35.5034 420.946 36.1701C420.693 36.8368 420.333 37.4168 419.866 37.9101C419.413 38.3901 418.873 38.7701 418.246 39.0501C417.619 39.3168 416.939 39.4501 416.206 39.4501ZM416.226 37.9901C416.733 37.9901 417.193 37.8901 417.606 37.6901C418.033 37.4901 418.399 37.2168 418.706 36.8701C419.026 36.5101 419.273 36.0901 419.446 35.6101C419.619 35.1168 419.706 34.5768 419.706 33.9901C419.706 33.4034 419.619 32.8701 419.446 32.3901C419.273 31.8968 419.026 31.4768 418.706 31.1301C418.399 30.7701 418.033 30.4901 417.606 30.2901C417.193 30.0901 416.733 29.9901 416.226 29.9901C415.719 29.9901 415.253 30.0901 414.826 30.2901C414.413 30.4901 414.046 30.7701 413.726 31.1301C413.419 31.4768 413.179 31.8968 413.006 32.3901C412.833 32.8701 412.746 33.4034 412.746 33.9901C412.746 34.5768 412.833 35.1168 413.006 35.6101C413.179 36.0901 413.419 36.5101 413.726 36.8701C414.046 37.2168 414.413 37.4901 414.826 37.6901C415.253 37.8901 415.719 37.9901 416.226 37.9901ZM427.418 39.4501C426.538 39.4501 425.778 39.2568 425.138 38.8701C424.498 38.4834 424.005 37.9368 423.658 37.2301C423.312 36.5101 423.138 35.6568 423.138 34.6701V28.8301H424.738V34.6901C424.738 35.3701 424.845 35.9568 425.058 36.4501C425.285 36.9434 425.598 37.3234 425.998 37.5901C426.412 37.8568 426.898 37.9901 427.458 37.9901C428.018 37.9901 428.498 37.8568 428.898 37.5901C429.312 37.3234 429.625 36.9434 429.838 36.4501C430.065 35.9568 430.178 35.3701 430.178 34.6901V28.8301H431.778V34.6701C431.778 35.6301 431.598 36.4701 431.238 37.1901C430.878 37.9101 430.372 38.4701 429.718 38.8701C429.065 39.2568 428.298 39.4501 427.418 39.4501ZM434.107 39.1501V28.8301H435.547L435.647 30.7501C435.901 30.1101 436.281 29.6101 436.787 29.2501C437.294 28.8768 437.887 28.6901 438.567 28.6901C438.794 28.6901 438.994 28.7101 439.167 28.7501C439.354 28.7768 439.514 28.8168 439.647 28.8701L439.447 30.3901C439.301 30.3368 439.147 30.3034 438.987 30.2901C438.827 30.2634 438.667 30.2501 438.507 30.2501C437.947 30.2501 437.454 30.3901 437.027 30.6701C436.614 30.9501 436.287 31.3501 436.047 31.8701C435.821 32.3768 435.707 32.9768 435.707 33.6701V39.1501H434.107ZM445.182 39.1501V24.3101H446.782V30.6501C447.156 29.9968 447.662 29.4834 448.302 29.1101C448.956 28.7234 449.689 28.5301 450.502 28.5301C451.182 28.5301 451.816 28.6701 452.402 28.9501C452.989 29.2168 453.502 29.5968 453.942 30.0901C454.382 30.5834 454.722 31.1634 454.962 31.8301C455.216 32.4834 455.342 33.1968 455.342 33.9701C455.342 34.7434 455.216 35.4634 454.962 36.1301C454.722 36.7968 454.376 37.3768 453.922 37.8701C453.482 38.3634 452.962 38.7501 452.362 39.0301C451.762 39.3101 451.116 39.4501 450.422 39.4501C449.622 39.4501 448.896 39.2568 448.242 38.8701C447.589 38.4834 447.076 37.9501 446.702 37.2701L446.622 39.1501H445.182ZM450.222 37.9901C450.729 37.9901 451.189 37.8901 451.602 37.6901C452.029 37.4901 452.396 37.2168 452.702 36.8701C453.022 36.5101 453.269 36.0901 453.442 35.6101C453.616 35.1168 453.702 34.5768 453.702 33.9901C453.702 33.4034 453.616 32.8701 453.442 32.3901C453.269 31.8968 453.022 31.4768 452.702 31.1301C452.396 30.7701 452.029 30.4901 451.602 30.2901C451.189 30.0901 450.729 29.9901 450.222 29.9901C449.716 29.9901 449.249 30.0901 448.822 30.2901C448.409 30.4901 448.042 30.7701 447.722 31.1301C447.416 31.4768 447.176 31.8968 447.002 32.3901C446.829 32.8701 446.742 33.4034 446.742 33.9901C446.742 34.5768 446.829 35.1168 447.002 35.6101C447.176 36.0901 447.416 36.5101 447.722 36.8701C448.042 37.2168 448.409 37.4901 448.822 37.6901C449.249 37.8901 449.716 37.9901 450.222 37.9901ZM461.424 39.4501C460.544 39.4501 459.784 39.2568 459.144 38.8701C458.504 38.4834 458.01 37.9368 457.664 37.2301C457.317 36.5101 457.144 35.6568 457.144 34.6701V28.8301H458.744V34.6901C458.744 35.3701 458.85 35.9568 459.064 36.4501C459.29 36.9434 459.604 37.3234 460.004 37.5901C460.417 37.8568 460.904 37.9901 461.464 37.9901C462.024 37.9901 462.504 37.8568 462.904 37.5901C463.317 37.3234 463.63 36.9434 463.844 36.4501C464.07 35.9568 464.184 35.3701 464.184 34.6901V28.8301H465.784V34.6701C465.784 35.6301 465.604 36.4701 465.244 37.1901C464.884 37.9101 464.377 38.4701 463.724 38.8701C463.07 39.2568 462.304 39.4501 461.424 39.4501ZM471.373 39.4501C470.773 39.4501 470.206 39.3501 469.673 39.1501C469.153 38.9501 468.699 38.6634 468.313 38.2901C467.926 37.9168 467.633 37.4768 467.433 36.9701L468.873 36.4501C469.139 36.9568 469.486 37.3501 469.913 37.6301C470.339 37.9101 470.826 38.0501 471.373 38.0501C471.813 38.0501 472.199 37.9768 472.533 37.8301C472.866 37.6834 473.126 37.4834 473.313 37.2301C473.499 36.9634 473.593 36.6701 473.593 36.3501C473.593 35.4834 472.966 34.9234 471.713 34.6701L470.933 34.5101C469.839 34.2968 469.033 33.9501 468.513 33.4701C467.993 32.9768 467.733 32.3568 467.733 31.6101C467.733 31.0101 467.886 30.4768 468.193 30.0101C468.499 29.5434 468.926 29.1834 469.473 28.9301C470.033 28.6634 470.666 28.5301 471.373 28.5301C471.959 28.5301 472.499 28.6301 472.993 28.8301C473.486 29.0168 473.906 29.2968 474.253 29.6701C474.613 30.0434 474.886 30.4834 475.073 30.9901L473.633 31.4701C473.419 30.9768 473.113 30.5968 472.713 30.3301C472.326 30.0501 471.873 29.9101 471.353 29.9101C470.953 29.9101 470.599 29.9768 470.293 30.1101C469.999 30.2434 469.766 30.4234 469.593 30.6501C469.419 30.8768 469.333 31.1434 469.333 31.4501C469.333 31.8768 469.493 32.2168 469.813 32.4701C470.146 32.7234 470.679 32.9234 471.413 33.0701L472.193 33.2301C473.179 33.4301 473.933 33.7834 474.453 34.2901C474.973 34.7834 475.233 35.4168 475.233 36.1901C475.233 36.6701 475.133 37.1101 474.933 37.5101C474.746 37.8968 474.479 38.2368 474.133 38.5301C473.799 38.8234 473.393 39.0501 472.913 39.2101C472.446 39.3701 471.933 39.4501 471.373 39.4501ZM478.851 25.8101C478.851 26.0101 478.798 26.1968 478.691 26.3701C478.598 26.5301 478.464 26.6634 478.291 26.7701C478.131 26.8634 477.951 26.9101 477.751 26.9101C477.551 26.9101 477.364 26.8634 477.191 26.7701C477.031 26.6634 476.898 26.5301 476.791 26.3701C476.698 26.1968 476.651 26.0101 476.651 25.8101C476.651 25.6101 476.698 25.4301 476.791 25.2701C476.898 25.0968 477.031 24.9634 477.191 24.8701C477.364 24.7634 477.551 24.7101 477.751 24.7101C477.951 24.7101 478.131 24.7634 478.291 24.8701C478.464 24.9634 478.598 25.0968 478.691 25.2701C478.798 25.4301 478.851 25.6101 478.851 25.8101ZM476.951 39.1501V28.8301H478.551V39.1501H476.951ZM480.946 39.1501V28.8301H482.386L482.466 30.4701C482.772 29.8834 483.212 29.4168 483.786 29.0701C484.372 28.7101 485.046 28.5301 485.806 28.5301C486.592 28.5301 487.279 28.7168 487.866 29.0901C488.452 29.4634 488.899 29.9968 489.206 30.6901C489.526 31.3701 489.686 32.1768 489.686 33.1101V39.1501H488.086V33.2101C488.086 32.1834 487.859 31.3901 487.406 30.8301C486.966 30.2701 486.332 29.9901 485.506 29.9901C484.932 29.9901 484.419 30.1234 483.966 30.3901C483.526 30.6434 483.179 31.0034 482.926 31.4701C482.672 31.9234 482.546 32.4434 482.546 33.0301V39.1501H480.946ZM496.69 39.4501C495.93 39.4501 495.23 39.3168 494.59 39.0501C493.964 38.7834 493.417 38.4101 492.95 37.9301C492.484 37.4368 492.124 36.8634 491.87 36.2101C491.617 35.5434 491.49 34.8101 491.49 34.0101C491.49 33.2234 491.61 32.5034 491.85 31.8501C492.104 31.1834 492.45 30.6034 492.89 30.1101C493.344 29.6168 493.87 29.2368 494.47 28.9701C495.07 28.6901 495.724 28.5501 496.43 28.5501C497.11 28.5501 497.737 28.6768 498.31 28.9301C498.897 29.1834 499.404 29.5368 499.83 29.9901C500.257 30.4434 500.584 30.9834 500.81 31.6101C501.05 32.2368 501.17 32.9168 501.17 33.6501V34.3101H493.15C493.204 35.0568 493.377 35.7101 493.67 36.2701C493.977 36.8301 494.384 37.2634 494.89 37.5701C495.397 37.8768 495.984 38.0301 496.65 38.0301C497.304 38.0301 497.87 37.8968 498.35 37.6301C498.844 37.3501 499.264 36.9434 499.61 36.4101L500.97 37.0301C500.704 37.5368 500.357 37.9701 499.93 38.3301C499.504 38.6901 499.01 38.9634 498.45 39.1501C497.904 39.3501 497.317 39.4501 496.69 39.4501ZM496.43 29.9101C495.884 29.9101 495.384 30.0434 494.93 30.3101C494.49 30.5768 494.117 30.9501 493.81 31.4301C493.517 31.8968 493.324 32.4434 493.23 33.0701H499.49C499.437 32.4434 499.27 31.8968 498.99 31.4301C498.71 30.9501 498.35 30.5768 497.91 30.3101C497.47 30.0434 496.977 29.9101 496.43 29.9101ZM506.355 39.4501C505.755 39.4501 505.188 39.3501 504.655 39.1501C504.135 38.9501 503.681 38.6634 503.295 38.2901C502.908 37.9168 502.615 37.4768 502.415 36.9701L503.855 36.4501C504.121 36.9568 504.468 37.3501 504.895 37.6301C505.321 37.9101 505.808 38.0501 506.355 38.0501C506.795 38.0501 507.181 37.9768 507.515 37.8301C507.848 37.6834 508.108 37.4834 508.295 37.2301C508.481 36.9634 508.575 36.6701 508.575 36.3501C508.575 35.4834 507.948 34.9234 506.695 34.6701L505.915 34.5101C504.821 34.2968 504.015 33.9501 503.495 33.4701C502.975 32.9768 502.715 32.3568 502.715 31.6101C502.715 31.0101 502.868 30.4768 503.175 30.0101C503.481 29.5434 503.908 29.1834 504.455 28.9301C505.015 28.6634 505.648 28.5301 506.355 28.5301C506.941 28.5301 507.481 28.6301 507.975 28.8301C508.468 29.0168 508.888 29.2968 509.235 29.6701C509.595 30.0434 509.868 30.4834 510.055 30.9901L508.615 31.4701C508.401 30.9768 508.095 30.5968 507.695 30.3301C507.308 30.0501 506.855 29.9101 506.335 29.9101C505.935 29.9101 505.581 29.9768 505.275 30.1101C504.981 30.2434 504.748 30.4234 504.575 30.6501C504.401 30.8768 504.315 31.1434 504.315 31.4501C504.315 31.8768 504.475 32.2168 504.795 32.4701C505.128 32.7234 505.661 32.9234 506.395 33.0701L507.175 33.2301C508.161 33.4301 508.915 33.7834 509.435 34.2901C509.955 34.7834 510.215 35.4168 510.215 36.1901C510.215 36.6701 510.115 37.1101 509.915 37.5101C509.728 37.8968 509.461 38.2368 509.115 38.5301C508.781 38.8234 508.375 39.0501 507.895 39.2101C507.428 39.3701 506.915 39.4501 506.355 39.4501ZM515.193 39.4501C514.593 39.4501 514.026 39.3501 513.493 39.1501C512.973 38.9501 512.52 38.6634 512.133 38.2901C511.746 37.9168 511.453 37.4768 511.253 36.9701L512.693 36.4501C512.96 36.9568 513.306 37.3501 513.733 37.6301C514.16 37.9101 514.646 38.0501 515.193 38.0501C515.633 38.0501 516.02 37.9768 516.353 37.8301C516.686 37.6834 516.946 37.4834 517.133 37.2301C517.32 36.9634 517.413 36.6701 517.413 36.3501C517.413 35.4834 516.786 34.9234 515.533 34.6701L514.753 34.5101C513.66 34.2968 512.853 33.9501 512.333 33.4701C511.813 32.9768 511.553 32.3568 511.553 31.6101C511.553 31.0101 511.706 30.4768 512.013 30.0101C512.32 29.5434 512.746 29.1834 513.293 28.9301C513.853 28.6634 514.486 28.5301 515.193 28.5301C515.78 28.5301 516.32 28.6301 516.813 28.8301C517.306 29.0168 517.726 29.2968 518.073 29.6701C518.433 30.0434 518.706 30.4834 518.893 30.9901L517.453 31.4701C517.24 30.9768 516.933 30.5968 516.533 30.3301C516.146 30.0501 515.693 29.9101 515.173 29.9101C514.773 29.9101 514.42 29.9768 514.113 30.1101C513.82 30.2434 513.586 30.4234 513.413 30.6501C513.24 30.8768 513.153 31.1434 513.153 31.4501C513.153 31.8768 513.313 32.2168 513.633 32.4701C513.966 32.7234 514.5 32.9234 515.233 33.0701L516.013 33.2301C517 33.4301 517.753 33.7834 518.273 34.2901C518.793 34.7834 519.053 35.4168 519.053 36.1901C519.053 36.6701 518.953 37.1101 518.753 37.5101C518.566 37.8968 518.3 38.2368 517.953 38.5301C517.62 38.8234 517.213 39.0501 516.733 39.2101C516.266 39.3701 515.753 39.4501 515.193 39.4501ZM529.426 39.4501C528.666 39.4501 527.966 39.3168 527.326 39.0501C526.7 38.7834 526.153 38.4101 525.686 37.9301C525.22 37.4368 524.86 36.8634 524.606 36.2101C524.353 35.5434 524.226 34.8101 524.226 34.0101C524.226 33.2234 524.346 32.5034 524.586 31.8501C524.84 31.1834 525.186 30.6034 525.626 30.1101C526.08 29.6168 526.606 29.2368 527.206 28.9701C527.806 28.6901 528.46 28.5501 529.166 28.5501C529.846 28.5501 530.473 28.6768 531.046 28.9301C531.633 29.1834 532.14 29.5368 532.566 29.9901C532.993 30.4434 533.32 30.9834 533.546 31.6101C533.786 32.2368 533.906 32.9168 533.906 33.6501V34.3101H525.886C525.94 35.0568 526.113 35.7101 526.406 36.2701C526.713 36.8301 527.12 37.2634 527.626 37.5701C528.133 37.8768 528.72 38.0301 529.386 38.0301C530.04 38.0301 530.606 37.8968 531.086 37.6301C531.58 37.3501 532 36.9434 532.346 36.4101L533.706 37.0301C533.44 37.5368 533.093 37.9701 532.666 38.3301C532.24 38.6901 531.746 38.9634 531.186 39.1501C530.64 39.3501 530.053 39.4501 529.426 39.4501ZM529.166 29.9101C528.62 29.9101 528.12 30.0434 527.666 30.3101C527.226 30.5768 526.853 30.9501 526.546 31.4301C526.253 31.8968 526.06 32.4434 525.966 33.0701H532.226C532.173 32.4434 532.006 31.8968 531.726 31.4301C531.446 30.9501 531.086 30.5768 530.646 30.3101C530.206 30.0434 529.713 29.9101 529.166 29.9101ZM538.992 39.4501C538.272 39.4501 537.632 39.3168 537.072 39.0501C536.512 38.7701 536.072 38.3901 535.752 37.9101C535.445 37.4301 535.292 36.8768 535.292 36.2501C535.292 35.5701 535.465 34.9834 535.812 34.4901C536.172 33.9968 536.672 33.6168 537.312 33.3501C537.952 33.0701 538.698 32.9301 539.552 32.9301C540.032 32.9301 540.518 32.9834 541.012 33.0901C541.505 33.1968 541.945 33.3368 542.332 33.5101V32.7501C542.332 32.1901 542.218 31.7034 541.992 31.2901C541.778 30.8634 541.478 30.5368 541.092 30.3101C540.705 30.0701 540.252 29.9501 539.732 29.9501C539.105 29.9501 538.558 30.0968 538.092 30.3901C537.638 30.6834 537.298 31.0968 537.072 31.6301L535.672 31.1501C535.858 30.6168 536.145 30.1568 536.532 29.7701C536.932 29.3834 537.405 29.0834 537.952 28.8701C538.512 28.6568 539.112 28.5501 539.752 28.5501C540.578 28.5501 541.298 28.7301 541.912 29.0901C542.538 29.4368 543.018 29.9301 543.352 30.5701C543.698 31.1968 543.872 31.9368 543.872 32.7901V39.1501H542.472L542.372 37.5501C542.078 38.1234 541.632 38.5834 541.032 38.9301C540.445 39.2768 539.765 39.4501 538.992 39.4501ZM536.912 36.1901C536.912 36.5768 537.012 36.9168 537.212 37.2101C537.412 37.4901 537.692 37.7101 538.052 37.8701C538.412 38.0301 538.825 38.1101 539.292 38.1101C539.865 38.1101 540.378 37.9834 540.832 37.7301C541.298 37.4634 541.665 37.1101 541.932 36.6701C542.198 36.2168 542.332 35.7034 542.332 35.1301V34.7501C541.892 34.5768 541.445 34.4434 540.992 34.3501C540.552 34.2434 540.132 34.1901 539.732 34.1901C538.852 34.1901 538.158 34.3701 537.652 34.7301C537.158 35.0901 536.912 35.5768 536.912 36.1901ZM549.452 39.4501C548.852 39.4501 548.286 39.3501 547.752 39.1501C547.232 38.9501 546.779 38.6634 546.392 38.2901C546.006 37.9168 545.712 37.4768 545.512 36.9701L546.952 36.4501C547.219 36.9568 547.566 37.3501 547.992 37.6301C548.419 37.9101 548.906 38.0501 549.452 38.0501C549.892 38.0501 550.279 37.9768 550.612 37.8301C550.946 37.6834 551.206 37.4834 551.392 37.2301C551.579 36.9634 551.672 36.6701 551.672 36.3501C551.672 35.4834 551.046 34.9234 549.792 34.6701L549.012 34.5101C547.919 34.2968 547.112 33.9501 546.592 33.4701C546.072 32.9768 545.812 32.3568 545.812 31.6101C545.812 31.0101 545.966 30.4768 546.272 30.0101C546.579 29.5434 547.006 29.1834 547.552 28.9301C548.112 28.6634 548.746 28.5301 549.452 28.5301C550.039 28.5301 550.579 28.6301 551.072 28.8301C551.566 29.0168 551.986 29.2968 552.332 29.6701C552.692 30.0434 552.966 30.4834 553.152 30.9901L551.712 31.4701C551.499 30.9768 551.192 30.5968 550.792 30.3301C550.406 30.0501 549.952 29.9101 549.432 29.9101C549.032 29.9101 548.679 29.9768 548.372 30.1101C548.079 30.2434 547.846 30.4234 547.672 30.6501C547.499 30.8768 547.412 31.1434 547.412 31.4501C547.412 31.8768 547.572 32.2168 547.892 32.4701C548.226 32.7234 548.759 32.9234 549.492 33.0701L550.272 33.2301C551.259 33.4301 552.012 33.7834 552.532 34.2901C553.052 34.7834 553.312 35.4168 553.312 36.1901C553.312 36.6701 553.212 37.1101 553.012 37.5101C552.826 37.8968 552.559 38.2368 552.212 38.5301C551.879 38.8234 551.472 39.0501 550.992 39.2101C550.526 39.3701 550.012 39.4501 549.452 39.4501ZM555.852 43.4301C555.572 43.4301 555.312 43.3968 555.072 43.3301C554.832 43.2768 554.585 43.1834 554.332 43.0501L554.792 41.7701C554.925 41.8501 555.072 41.9101 555.232 41.9501C555.405 41.9901 555.585 42.0101 555.772 42.0101C556.185 42.0101 556.545 41.8768 556.852 41.6101C557.172 41.3568 557.445 40.9501 557.672 40.3901L558.212 39.0501L553.932 28.8301H555.692L558.992 37.3101L561.972 28.8301H563.672L559.072 40.7701C558.725 41.6768 558.285 42.3434 557.752 42.7701C557.219 43.2101 556.585 43.4301 555.852 43.4301ZM564.652 39.2101C564.439 39.2101 564.239 39.1568 564.052 39.0501C563.879 38.9434 563.739 38.8034 563.632 38.6301C563.526 38.4434 563.472 38.2368 563.472 38.0101C563.472 37.7834 563.526 37.5834 563.632 37.4101C563.739 37.2234 563.879 37.0768 564.052 36.9701C564.239 36.8634 564.439 36.8101 564.652 36.8101C564.866 36.8101 565.059 36.8634 565.232 36.9701C565.419 37.0768 565.566 37.2234 565.672 37.4101C565.792 37.5834 565.852 37.7834 565.852 38.0101C565.852 38.2368 565.792 38.4434 565.672 38.6301C565.566 38.8034 565.419 38.9434 565.232 39.0501C565.059 39.1568 564.866 39.2101 564.652 39.2101Z" fill="white"/>
</svg>
