<svg width="16" height="16" viewBox="0 0 16 16" fill="none" xmlns="http://www.w3.org/2000/svg">
<path fill-rule="evenodd" clip-rule="evenodd" d="M4.4384 1.33361C5.18306 1.34361 5.71373 1.90161 6.38506 2.60761C6.55106 2.78161 6.7304 2.97161 6.93106 3.17161C7.90373 4.14495 7.62706 4.93895 7.40373 5.57628C7.16106 6.27161 6.95106 6.87161 8.2084 8.12895C9.46573 9.38628 10.0651 9.17628 10.7597 8.93161C11.3977 8.70895 12.1897 8.43028 13.1644 9.40361C13.3624 9.60161 13.5491 9.77894 13.7224 9.94361C14.4311 10.6183 14.9911 11.1509 15.0005 11.8976C15.0077 12.5336 14.6211 13.1829 13.6664 14.1376L13.2437 13.8509L13.6017 14.1996C13.3904 14.4163 12.8284 14.9936 11.7277 15.0003H11.7077C10.0464 15.0003 7.8804 13.6776 5.26973 11.0676C2.6484 8.44695 1.32373 6.27428 1.33367 4.60961C1.33973 3.50961 1.9164 2.94628 2.13306 2.73495L2.15156 2.71475L2.1964 2.66961C3.15306 1.71295 3.8104 1.31961 4.4384 1.33361ZM4.42573 2.33361H4.4204C4.12102 2.33361 3.66637 2.63361 3.03228 3.24954L2.90495 3.37459L2.9064 3.37428C2.9072 3.37428 2.89552 3.38676 2.87697 3.40567L2.8324 3.45028C2.67106 3.60695 2.33706 3.93295 2.3337 4.61495C2.3284 5.56895 2.95573 7.34028 5.9764 10.3603C8.9824 13.3656 10.7511 14.0003 11.7077 14.0003H11.7217C12.4037 13.9963 12.7291 13.6623 12.8857 13.5016C12.9331 13.4529 12.9717 13.4163 12.9991 13.3943C13.6637 12.7256 14.0037 12.2289 14.0004 11.9096C13.9964 11.5843 13.5917 11.2003 13.0324 10.6676C12.8544 10.4989 12.6611 10.3143 12.4571 10.1103C11.9277 9.58295 11.6671 9.67295 11.0904 9.87561C10.2937 10.1549 9.2024 10.5376 7.50173 8.83561C5.8004 7.13495 6.18173 6.04361 6.45973 5.24628C6.66106 4.67028 6.75306 4.40828 6.2244 3.87895C6.01773 3.67228 5.83173 3.47628 5.6604 3.29628C5.13106 2.74028 4.74906 2.33828 4.42573 2.33361ZM10.1645 3.70528C11.5518 3.97461 12.6231 5.04528 12.8931 6.43328C12.9458 6.70528 12.7691 6.96728 12.4985 7.01995C12.4658 7.02595 12.4338 7.02928 12.4018 7.02928C12.1671 7.02928 11.9585 6.86395 11.9118 6.62528C11.7198 5.63861 10.9591 4.87795 9.9738 4.68661C9.70246 4.63395 9.5258 4.37195 9.57846 4.10061C9.63113 3.82928 9.8978 3.65195 10.1645 3.70528ZM10.1245 1.33741C12.8432 1.63941 14.9545 3.74808 15.2592 6.46608C15.2899 6.74075 15.0925 6.98808 14.8185 7.01875C14.7999 7.02075 14.7805 7.02208 14.7619 7.02208C14.5105 7.02208 14.2945 6.83341 14.2659 6.57808C14.0132 4.32741 12.2652 2.58075 10.0139 2.33075C9.73986 2.30008 9.54186 2.05341 9.57253 1.77875C9.60253 1.50475 9.8472 1.30275 10.1245 1.33741Z" fill="#F5BD00"/>
</svg>
