<svg width="173" height="18" viewBox="0 0 173 18" fill="none" xmlns="http://www.w3.org/2000/svg">
<path d="M0.404 14V1.22H1.916V14H0.404ZM5.32222 14V5.936H3.61222V4.712H5.32222V3.848C5.32222 3.164 5.44822 2.57 5.70022 2.066C5.95222 1.55 6.30622 1.154 6.76222 0.877999C7.23022 0.601999 7.77022 0.463999 8.38222 0.463999C9.03022 0.463999 9.61222 0.62 10.1282 0.932L9.71422 2.048C9.53422 1.952 9.33622 1.874 9.12022 1.814C8.90422 1.754 8.68822 1.724 8.47222 1.724C7.90822 1.724 7.48222 1.91 7.19422 2.282C6.90622 2.654 6.76222 3.188 6.76222 3.884V4.712H9.69622V5.936H6.76222V14H5.32222ZM17.0345 1.994C17.0345 2.174 16.9865 2.342 16.8905 2.498C16.8065 2.642 16.6865 2.762 16.5305 2.858C16.3865 2.942 16.2245 2.984 16.0445 2.984C15.8645 2.984 15.6965 2.942 15.5405 2.858C15.3965 2.762 15.2765 2.642 15.1805 2.498C15.0965 2.342 15.0545 2.174 15.0545 1.994C15.0545 1.814 15.0965 1.652 15.1805 1.508C15.2765 1.352 15.3965 1.232 15.5405 1.148C15.6965 1.052 15.8645 1.004 16.0445 1.004C16.2245 1.004 16.3865 1.052 16.5305 1.148C16.6865 1.232 16.8065 1.352 16.8905 1.508C16.9865 1.652 17.0345 1.814 17.0345 1.994ZM15.3245 14V4.712H16.7645V14H15.3245ZM22.7535 14.27C22.1895 14.27 21.7035 14.156 21.2955 13.928C20.8875 13.7 20.5695 13.364 20.3415 12.92C20.1255 12.476 20.0175 11.936 20.0175 11.3V5.936H18.3075V4.712H20.0175V1.598H21.4575V4.712H24.3735V5.936H21.4575V11.228C21.4575 11.78 21.5715 12.212 21.7995 12.524C22.0395 12.824 22.3995 12.974 22.8795 12.974C23.1315 12.974 23.3835 12.938 23.6355 12.866C23.8995 12.782 24.1335 12.674 24.3375 12.542L24.7695 13.658C24.5175 13.838 24.2235 13.982 23.8875 14.09C23.5515 14.21 23.1735 14.27 22.7535 14.27ZM27.2752 1.166C27.5392 1.166 27.7792 1.256 27.9952 1.436C28.2232 1.604 28.3972 1.838 28.5172 2.138C28.6492 2.438 28.7152 2.774 28.7152 3.146C28.7152 3.758 28.5352 4.316 28.1752 4.82C27.8152 5.312 27.3172 5.702 26.6812 5.99L26.3032 5.162C26.7352 4.958 27.0712 4.688 27.3112 4.352C27.5632 4.016 27.6892 3.656 27.6892 3.272C27.6892 3.044 27.6532 2.84 27.5812 2.66C27.4612 2.78 27.3112 2.84 27.1312 2.84C26.9032 2.84 26.7112 2.762 26.5552 2.606C26.3992 2.45 26.3212 2.252 26.3212 2.012C26.3212 1.772 26.4112 1.574 26.5912 1.418C26.7832 1.25 27.0112 1.166 27.2752 1.166ZM33.3053 14.27C32.7653 14.27 32.2553 14.18 31.7753 14C31.3073 13.82 30.8993 13.562 30.5513 13.226C30.2033 12.89 29.9393 12.494 29.7593 12.038L31.0553 11.57C31.2953 12.026 31.6073 12.38 31.9913 12.632C32.3753 12.884 32.8133 13.01 33.3053 13.01C33.7013 13.01 34.0493 12.944 34.3493 12.812C34.6493 12.68 34.8833 12.5 35.0513 12.272C35.2193 12.032 35.3033 11.768 35.3033 11.48C35.3033 10.7 34.7393 10.196 33.6113 9.968L32.9093 9.824C31.9253 9.632 31.1993 9.32 30.7313 8.888C30.2633 8.444 30.0293 7.886 30.0293 7.214C30.0293 6.674 30.1673 6.194 30.4433 5.774C30.7193 5.354 31.1033 5.03 31.5953 4.802C32.0993 4.562 32.6693 4.442 33.3053 4.442C33.8333 4.442 34.3193 4.532 34.7633 4.712C35.2073 4.88 35.5853 5.132 35.8973 5.468C36.2213 5.804 36.4673 6.2 36.6353 6.656L35.3393 7.088C35.1473 6.644 34.8713 6.302 34.5113 6.062C34.1633 5.81 33.7553 5.684 33.2873 5.684C32.9273 5.684 32.6093 5.744 32.3333 5.864C32.0693 5.984 31.8593 6.146 31.7033 6.35C31.5473 6.554 31.4693 6.794 31.4693 7.07C31.4693 7.454 31.6133 7.76 31.9013 7.988C32.2013 8.216 32.6813 8.396 33.3413 8.528L34.0433 8.672C34.9313 8.852 35.6093 9.17 36.0773 9.626C36.5453 10.07 36.7793 10.64 36.7793 11.336C36.7793 11.768 36.6893 12.164 36.5093 12.524C36.3413 12.872 36.1013 13.178 35.7893 13.442C35.4893 13.706 35.1233 13.91 34.6913 14.054C34.2713 14.198 33.8093 14.27 33.3053 14.27ZM46.8353 14.27C46.1513 14.27 45.5213 14.15 44.9453 13.91C44.3813 13.67 43.8893 13.334 43.4693 12.902C43.0493 12.458 42.7253 11.942 42.4973 11.354C42.2693 10.754 42.1553 10.094 42.1553 9.374C42.1553 8.666 42.2633 8.018 42.4793 7.43C42.7073 6.83 43.0193 6.308 43.4153 5.864C43.8233 5.42 44.2973 5.078 44.8373 4.838C45.3773 4.586 45.9653 4.46 46.6013 4.46C47.2133 4.46 47.7773 4.574 48.2933 4.802C48.8213 5.03 49.2773 5.348 49.6613 5.756C50.0453 6.164 50.3393 6.65 50.5433 7.214C50.7593 7.778 50.8673 8.39 50.8673 9.05V9.644H43.6493C43.6973 10.316 43.8533 10.904 44.1173 11.408C44.3933 11.912 44.7593 12.302 45.2153 12.578C45.6713 12.854 46.1993 12.992 46.7993 12.992C47.3873 12.992 47.8973 12.872 48.3293 12.632C48.7733 12.38 49.1513 12.014 49.4633 11.534L50.6873 12.092C50.4473 12.548 50.1353 12.938 49.7513 13.262C49.3673 13.586 48.9233 13.832 48.4193 14C47.9273 14.18 47.3993 14.27 46.8353 14.27ZM46.6013 5.684C46.1093 5.684 45.6593 5.804 45.2513 6.044C44.8553 6.284 44.5193 6.62 44.2433 7.052C43.9793 7.472 43.8053 7.964 43.7213 8.528H49.3553C49.3073 7.964 49.1573 7.472 48.9053 7.052C48.6533 6.62 48.3293 6.284 47.9333 6.044C47.5373 5.804 47.0933 5.684 46.6013 5.684ZM55.8041 14.27C55.1561 14.27 54.5801 14.15 54.0761 13.91C53.5721 13.658 53.1761 13.316 52.8881 12.884C52.6121 12.452 52.4741 11.954 52.4741 11.39C52.4741 10.778 52.6301 10.25 52.9421 9.806C53.2661 9.362 53.7161 9.02 54.2921 8.78C54.8681 8.528 55.5401 8.402 56.3081 8.402C56.7401 8.402 57.1781 8.45 57.6221 8.546C58.0661 8.642 58.4621 8.768 58.8101 8.924V8.24C58.8101 7.736 58.7081 7.298 58.5041 6.926C58.3121 6.542 58.0421 6.248 57.6941 6.044C57.3461 5.828 56.9381 5.72 56.4701 5.72C55.9061 5.72 55.4141 5.852 54.9941 6.116C54.5861 6.38 54.2801 6.752 54.0761 7.232L52.8161 6.8C52.9841 6.32 53.2421 5.906 53.5901 5.558C53.9501 5.21 54.3761 4.94 54.8681 4.748C55.3721 4.556 55.9121 4.46 56.4881 4.46C57.2321 4.46 57.8801 4.622 58.4321 4.946C58.9961 5.258 59.4281 5.702 59.7281 6.278C60.0401 6.842 60.1961 7.508 60.1961 8.276V14H58.9361L58.8461 12.56C58.5821 13.076 58.1801 13.49 57.6401 13.802C57.1121 14.114 56.5001 14.27 55.8041 14.27ZM53.9321 11.336C53.9321 11.684 54.0221 11.99 54.2021 12.254C54.3821 12.506 54.6341 12.704 54.9581 12.848C55.2821 12.992 55.6541 13.064 56.0741 13.064C56.5901 13.064 57.0521 12.95 57.4601 12.722C57.8801 12.482 58.2101 12.164 58.4501 11.768C58.6901 11.36 58.8101 10.898 58.8101 10.382V10.04C58.4141 9.884 58.0121 9.764 57.6041 9.68C57.2081 9.584 56.8301 9.536 56.4701 9.536C55.6781 9.536 55.0541 9.698 54.5981 10.022C54.1541 10.346 53.9321 10.784 53.9321 11.336ZM65.5788 14.27C65.0388 14.27 64.5288 14.18 64.0488 14C63.5808 13.82 63.1728 13.562 62.8248 13.226C62.4768 12.89 62.2128 12.494 62.0328 12.038L63.3288 11.57C63.5688 12.026 63.8808 12.38 64.2648 12.632C64.6488 12.884 65.0868 13.01 65.5788 13.01C65.9748 13.01 66.3228 12.944 66.6228 12.812C66.9228 12.68 67.1568 12.5 67.3248 12.272C67.4928 12.032 67.5768 11.768 67.5768 11.48C67.5768 10.7 67.0128 10.196 65.8848 9.968L65.1828 9.824C64.1988 9.632 63.4728 9.32 63.0048 8.888C62.5368 8.444 62.3028 7.886 62.3028 7.214C62.3028 6.674 62.4408 6.194 62.7168 5.774C62.9928 5.354 63.3768 5.03 63.8688 4.802C64.3728 4.562 64.9428 4.442 65.5788 4.442C66.1068 4.442 66.5928 4.532 67.0368 4.712C67.4808 4.88 67.8588 5.132 68.1708 5.468C68.4948 5.804 68.7408 6.2 68.9088 6.656L67.6128 7.088C67.4208 6.644 67.1448 6.302 66.7848 6.062C66.4368 5.81 66.0288 5.684 65.5608 5.684C65.2008 5.684 64.8828 5.744 64.6068 5.864C64.3428 5.984 64.1328 6.146 63.9768 6.35C63.8208 6.554 63.7428 6.794 63.7428 7.07C63.7428 7.454 63.8868 7.76 64.1748 7.988C64.4748 8.216 64.9548 8.396 65.6148 8.528L66.3168 8.672C67.2048 8.852 67.8828 9.17 68.3508 9.626C68.8188 10.07 69.0528 10.64 69.0528 11.336C69.0528 11.768 68.9628 12.164 68.7828 12.524C68.6148 12.872 68.3748 13.178 68.0628 13.442C67.7628 13.706 67.3968 13.91 66.9648 14.054C66.5448 14.198 66.0828 14.27 65.5788 14.27ZM72.6692 1.994C72.6692 2.174 72.6212 2.342 72.5252 2.498C72.4412 2.642 72.3212 2.762 72.1652 2.858C72.0212 2.942 71.8592 2.984 71.6792 2.984C71.4992 2.984 71.3312 2.942 71.1752 2.858C71.0312 2.762 70.9112 2.642 70.8152 2.498C70.7312 2.342 70.6892 2.174 70.6892 1.994C70.6892 1.814 70.7312 1.652 70.8152 1.508C70.9112 1.352 71.0312 1.232 71.1752 1.148C71.3312 1.052 71.4992 1.004 71.6792 1.004C71.8592 1.004 72.0212 1.052 72.1652 1.148C72.3212 1.232 72.4412 1.352 72.5252 1.508C72.6212 1.652 72.6692 1.814 72.6692 1.994ZM70.9592 14V4.712H72.3992V14H70.9592ZM79.1263 14.27C78.4423 14.27 77.8123 14.15 77.2363 13.91C76.6723 13.67 76.1803 13.334 75.7603 12.902C75.3403 12.458 75.0163 11.942 74.7883 11.354C74.5603 10.754 74.4463 10.094 74.4463 9.374C74.4463 8.666 74.5543 8.018 74.7703 7.43C74.9983 6.83 75.3103 6.308 75.7063 5.864C76.1143 5.42 76.5883 5.078 77.1283 4.838C77.6683 4.586 78.2563 4.46 78.8923 4.46C79.5043 4.46 80.0683 4.574 80.5843 4.802C81.1123 5.03 81.5683 5.348 81.9523 5.756C82.3363 6.164 82.6303 6.65 82.8343 7.214C83.0503 7.778 83.1583 8.39 83.1583 9.05V9.644H75.9403C75.9883 10.316 76.1443 10.904 76.4083 11.408C76.6843 11.912 77.0503 12.302 77.5063 12.578C77.9623 12.854 78.4903 12.992 79.0903 12.992C79.6783 12.992 80.1883 12.872 80.6203 12.632C81.0643 12.38 81.4423 12.014 81.7543 11.534L82.9783 12.092C82.7383 12.548 82.4263 12.938 82.0423 13.262C81.6583 13.586 81.2143 13.832 80.7103 14C80.2183 14.18 79.6903 14.27 79.1263 14.27ZM78.8923 5.684C78.4003 5.684 77.9503 5.804 77.5423 6.044C77.1463 6.284 76.8103 6.62 76.5343 7.052C76.2703 7.472 76.0963 7.964 76.0123 8.528H81.6463C81.5983 7.964 81.4483 7.472 81.1963 7.052C80.9443 6.62 80.6203 6.284 80.2243 6.044C79.8283 5.804 79.3843 5.684 78.8923 5.684ZM85.2151 14V4.712H86.5111L86.6011 6.44C86.8291 5.864 87.1711 5.414 87.6271 5.09C88.0831 4.754 88.6171 4.586 89.2291 4.586C89.4331 4.586 89.6131 4.604 89.7691 4.64C89.9371 4.664 90.0811 4.7 90.2011 4.748L90.0211 6.116C89.8891 6.068 89.7511 6.038 89.6071 6.026C89.4631 6.002 89.3191 5.99 89.1751 5.99C88.6711 5.99 88.2271 6.116 87.8431 6.368C87.4711 6.62 87.1771 6.98 86.9611 7.448C86.7571 7.904 86.6551 8.444 86.6551 9.068V14H85.2151ZM90.5957 17.24L90.1997 16.358C90.6797 16.13 91.0577 15.83 91.3337 15.458C91.6217 15.086 91.7657 14.678 91.7657 14.234C91.7657 13.97 91.7177 13.736 91.6217 13.532C91.4897 13.676 91.3157 13.748 91.0997 13.748C90.8597 13.748 90.6497 13.658 90.4697 13.478C90.3017 13.298 90.2177 13.082 90.2177 12.83C90.2177 12.662 90.2657 12.506 90.3617 12.362C90.4577 12.218 90.5837 12.104 90.7397 12.02C90.8957 11.936 91.0697 11.894 91.2617 11.894C91.5617 11.894 91.8317 11.996 92.0717 12.2C92.3117 12.392 92.5037 12.656 92.6477 12.992C92.7917 13.316 92.8637 13.682 92.8637 14.09C92.8637 14.546 92.7737 14.972 92.5937 15.368C92.4137 15.776 92.1497 16.142 91.8017 16.466C91.4657 16.79 91.0637 17.048 90.5957 17.24ZM102.874 14.27C102.19 14.27 101.56 14.15 100.984 13.91C100.42 13.67 99.9283 13.334 99.5083 12.902C99.0883 12.458 98.7643 11.942 98.5363 11.354C98.3083 10.754 98.1943 10.094 98.1943 9.374C98.1943 8.666 98.3023 8.018 98.5183 7.43C98.7463 6.83 99.0583 6.308 99.4543 5.864C99.8623 5.42 100.336 5.078 100.876 4.838C101.416 4.586 102.004 4.46 102.64 4.46C103.252 4.46 103.816 4.574 104.332 4.802C104.86 5.03 105.316 5.348 105.7 5.756C106.084 6.164 106.378 6.65 106.582 7.214C106.798 7.778 106.906 8.39 106.906 9.05V9.644H99.6883C99.7363 10.316 99.8923 10.904 100.156 11.408C100.432 11.912 100.798 12.302 101.254 12.578C101.71 12.854 102.238 12.992 102.838 12.992C103.426 12.992 103.936 12.872 104.368 12.632C104.812 12.38 105.19 12.014 105.502 11.534L106.726 12.092C106.486 12.548 106.174 12.938 105.79 13.262C105.406 13.586 104.962 13.832 104.458 14C103.966 14.18 103.438 14.27 102.874 14.27ZM102.64 5.684C102.148 5.684 101.698 5.804 101.29 6.044C100.894 6.284 100.558 6.62 100.282 7.052C100.018 7.472 99.8443 7.964 99.7603 8.528H105.394C105.346 7.964 105.196 7.472 104.944 7.052C104.692 6.62 104.368 6.284 103.972 6.044C103.576 5.804 103.132 5.684 102.64 5.684ZM108.963 14V4.712H110.259L110.331 6.134C110.595 5.618 110.979 5.21 111.483 4.91C111.987 4.598 112.563 4.442 113.211 4.442C113.907 4.442 114.513 4.622 115.029 4.982C115.545 5.342 115.929 5.846 116.181 6.494C116.337 6.086 116.571 5.732 116.883 5.432C117.195 5.12 117.561 4.88 117.981 4.712C118.413 4.532 118.875 4.442 119.367 4.442C120.063 4.442 120.663 4.61 121.167 4.946C121.683 5.27 122.073 5.732 122.337 6.332C122.613 6.932 122.751 7.652 122.751 8.492V14H121.311V8.582C121.311 7.67 121.125 6.974 120.753 6.494C120.381 6.002 119.841 5.756 119.133 5.756C118.641 5.756 118.203 5.876 117.819 6.116C117.435 6.344 117.129 6.662 116.901 7.07C116.685 7.466 116.577 7.916 116.577 8.42V14H115.137V8.582C115.137 7.67 114.945 6.974 114.561 6.494C114.177 6.002 113.631 5.756 112.923 5.756C112.443 5.756 112.011 5.876 111.627 6.116C111.243 6.344 110.943 6.662 110.727 7.07C110.511 7.466 110.403 7.916 110.403 8.42V14H108.963ZM128.085 14.27C127.437 14.27 126.861 14.15 126.357 13.91C125.853 13.658 125.457 13.316 125.169 12.884C124.893 12.452 124.755 11.954 124.755 11.39C124.755 10.778 124.911 10.25 125.223 9.806C125.547 9.362 125.997 9.02 126.573 8.78C127.149 8.528 127.821 8.402 128.589 8.402C129.021 8.402 129.459 8.45 129.903 8.546C130.347 8.642 130.743 8.768 131.091 8.924V8.24C131.091 7.736 130.989 7.298 130.785 6.926C130.593 6.542 130.323 6.248 129.975 6.044C129.627 5.828 129.219 5.72 128.751 5.72C128.187 5.72 127.695 5.852 127.275 6.116C126.867 6.38 126.561 6.752 126.357 7.232L125.097 6.8C125.265 6.32 125.523 5.906 125.871 5.558C126.231 5.21 126.657 4.94 127.149 4.748C127.653 4.556 128.193 4.46 128.769 4.46C129.513 4.46 130.161 4.622 130.713 4.946C131.277 5.258 131.709 5.702 132.009 6.278C132.321 6.842 132.477 7.508 132.477 8.276V14H131.217L131.127 12.56C130.863 13.076 130.461 13.49 129.921 13.802C129.393 14.114 128.781 14.27 128.085 14.27ZM126.213 11.336C126.213 11.684 126.303 11.99 126.483 12.254C126.663 12.506 126.915 12.704 127.239 12.848C127.563 12.992 127.935 13.064 128.355 13.064C128.871 13.064 129.333 12.95 129.741 12.722C130.161 12.482 130.491 12.164 130.731 11.768C130.971 11.36 131.091 10.898 131.091 10.382V10.04C130.695 9.884 130.293 9.764 129.885 9.68C129.489 9.584 129.111 9.536 128.751 9.536C127.959 9.536 127.335 9.698 126.879 10.022C126.435 10.346 126.213 10.784 126.213 11.336ZM136.636 1.994C136.636 2.174 136.588 2.342 136.492 2.498C136.408 2.642 136.288 2.762 136.132 2.858C135.988 2.942 135.826 2.984 135.646 2.984C135.466 2.984 135.298 2.942 135.142 2.858C134.998 2.762 134.878 2.642 134.782 2.498C134.698 2.342 134.656 2.174 134.656 1.994C134.656 1.814 134.698 1.652 134.782 1.508C134.878 1.352 134.998 1.232 135.142 1.148C135.298 1.052 135.466 1.004 135.646 1.004C135.826 1.004 135.988 1.052 136.132 1.148C136.288 1.232 136.408 1.352 136.492 1.508C136.588 1.652 136.636 1.814 136.636 1.994ZM134.926 14V4.712H136.366V14H134.926ZM138.881 14V0.643999H140.321V14H138.881ZM150.554 14.27C149.762 14.27 149.078 14.096 148.502 13.748C147.926 13.4 147.482 12.908 147.17 12.272C146.858 11.624 146.702 10.856 146.702 9.968V4.712H148.142V9.986C148.142 10.598 148.238 11.126 148.43 11.57C148.634 12.014 148.916 12.356 149.276 12.596C149.648 12.836 150.086 12.956 150.59 12.956C151.094 12.956 151.526 12.836 151.886 12.596C152.258 12.356 152.54 12.014 152.732 11.57C152.936 11.126 153.038 10.598 153.038 9.986V4.712H154.478V9.968C154.478 10.832 154.316 11.588 153.992 12.236C153.668 12.884 153.212 13.388 152.624 13.748C152.036 14.096 151.346 14.27 150.554 14.27ZM159.868 14.27C159.328 14.27 158.818 14.18 158.338 14C157.87 13.82 157.462 13.562 157.114 13.226C156.766 12.89 156.502 12.494 156.322 12.038L157.618 11.57C157.858 12.026 158.17 12.38 158.554 12.632C158.938 12.884 159.376 13.01 159.868 13.01C160.264 13.01 160.612 12.944 160.912 12.812C161.212 12.68 161.446 12.5 161.614 12.272C161.782 12.032 161.866 11.768 161.866 11.48C161.866 10.7 161.302 10.196 160.174 9.968L159.472 9.824C158.488 9.632 157.762 9.32 157.294 8.888C156.826 8.444 156.592 7.886 156.592 7.214C156.592 6.674 156.73 6.194 157.006 5.774C157.282 5.354 157.666 5.03 158.158 4.802C158.662 4.562 159.232 4.442 159.868 4.442C160.396 4.442 160.882 4.532 161.326 4.712C161.77 4.88 162.148 5.132 162.46 5.468C162.784 5.804 163.03 6.2 163.198 6.656L161.902 7.088C161.71 6.644 161.434 6.302 161.074 6.062C160.726 5.81 160.318 5.684 159.85 5.684C159.49 5.684 159.172 5.744 158.896 5.864C158.632 5.984 158.422 6.146 158.266 6.35C158.11 6.554 158.032 6.794 158.032 7.07C158.032 7.454 158.176 7.76 158.464 7.988C158.764 8.216 159.244 8.396 159.904 8.528L160.606 8.672C161.494 8.852 162.172 9.17 162.64 9.626C163.108 10.07 163.342 10.64 163.342 11.336C163.342 11.768 163.252 12.164 163.072 12.524C162.904 12.872 162.664 13.178 162.352 13.442C162.052 13.706 161.686 13.91 161.254 14.054C160.834 14.198 160.372 14.27 159.868 14.27ZM167.2 10.598V7.79C168.256 7.538 169.066 7.142 169.63 6.602C170.194 6.062 170.476 5.42 170.476 4.676C170.476 4.22 170.368 3.812 170.152 3.452C169.948 3.08 169.66 2.792 169.288 2.588C168.916 2.384 168.49 2.282 168.01 2.282C167.59 2.282 167.2 2.366 166.84 2.534C166.48 2.69 166.168 2.924 165.904 3.236C165.652 3.548 165.466 3.914 165.346 4.334L164.014 3.956C164.17 3.356 164.434 2.828 164.806 2.372C165.19 1.916 165.658 1.568 166.21 1.328C166.762 1.076 167.368 0.95 168.028 0.95C168.604 0.95 169.132 1.046 169.612 1.238C170.104 1.418 170.53 1.676 170.89 2.012C171.25 2.336 171.526 2.72 171.718 3.164C171.922 3.608 172.024 4.088 172.024 4.604C172.024 5.228 171.886 5.81 171.61 6.35C171.334 6.878 170.938 7.34 170.422 7.736C169.906 8.132 169.3 8.438 168.604 8.654V10.598H167.2ZM167.902 14.054C167.71 14.054 167.536 14.006 167.38 13.91C167.224 13.814 167.098 13.688 167.002 13.532C166.906 13.364 166.858 13.19 166.858 13.01C166.858 12.83 166.906 12.662 167.002 12.506C167.098 12.338 167.224 12.206 167.38 12.11C167.536 12.014 167.71 11.966 167.902 11.966C168.094 11.966 168.268 12.014 168.424 12.11C168.58 12.206 168.706 12.338 168.802 12.506C168.898 12.662 168.946 12.83 168.946 13.01C168.946 13.19 168.898 13.364 168.802 13.532C168.706 13.688 168.58 13.814 168.424 13.91C168.268 14.006 168.094 14.054 167.902 14.054Z" fill="#202D3F"/>
</svg>
