<svg width="202" height="18" viewBox="0 0 202 18" fill="none" xmlns="http://www.w3.org/2000/svg">
<path d="M2.97 1.994C2.97 2.174 2.922 2.342 2.826 2.498C2.742 2.642 2.622 2.762 2.466 2.858C2.322 2.942 2.16 2.984 1.98 2.984C1.8 2.984 1.632 2.942 1.476 2.858C1.332 2.762 1.212 2.642 1.116 2.498C1.032 2.342 0.99 2.174 0.99 1.994C0.99 1.814 1.032 1.652 1.116 1.508C1.212 1.352 1.332 1.232 1.476 1.148C1.632 1.052 1.8 1.004 1.98 1.004C2.16 1.004 2.322 1.052 2.466 1.148C2.622 1.232 2.742 1.352 2.826 1.508C2.922 1.652 2.97 1.814 2.97 1.994ZM1.26 14V4.712H2.7V14H1.26ZM5.21508 14V4.712H6.51108L6.58308 6.188C6.85908 5.66 7.25508 5.24 7.77108 4.928C8.29908 4.604 8.90508 4.442 9.58908 4.442C10.2971 4.442 10.9151 4.61 11.4431 4.946C11.9711 5.282 12.3731 5.762 12.6491 6.386C12.9371 6.998 13.0811 7.724 13.0811 8.564V14H11.6411V8.654C11.6411 7.73 11.4371 7.016 11.0291 6.512C10.6331 6.008 10.0631 5.756 9.31908 5.756C8.80308 5.756 8.34108 5.876 7.93308 6.116C7.53708 6.344 7.22508 6.668 6.99708 7.088C6.76908 7.496 6.65508 7.964 6.65508 8.492V14H5.21508ZM16.0078 14V5.936H14.2978V4.712H16.0078V3.848C16.0078 3.164 16.1338 2.57 16.3858 2.066C16.6378 1.55 16.9918 1.154 17.4478 0.877999C17.9158 0.601999 18.4558 0.463999 19.0678 0.463999C19.7158 0.463999 20.2978 0.62 20.8138 0.932L20.3998 2.048C20.2198 1.952 20.0218 1.874 19.8058 1.814C19.5898 1.754 19.3738 1.724 19.1578 1.724C18.5938 1.724 18.1678 1.91 17.8798 2.282C17.5918 2.654 17.4478 3.188 17.4478 3.884V4.712H20.3818V5.936H17.4478V14H16.0078ZM25.9308 14.27C25.2708 14.27 24.6588 14.15 24.0948 13.91C23.5428 13.658 23.0568 13.316 22.6368 12.884C22.2288 12.44 21.9108 11.918 21.6828 11.318C21.4548 10.718 21.3408 10.064 21.3408 9.356C21.3408 8.648 21.4548 7.994 21.6828 7.394C21.9228 6.794 22.2468 6.278 22.6548 5.846C23.0748 5.402 23.5668 5.06 24.1308 4.82C24.6948 4.568 25.3068 4.442 25.9668 4.442C26.6268 4.442 27.2328 4.568 27.7848 4.82C28.3488 5.06 28.8348 5.402 29.2428 5.846C29.6628 6.278 29.9868 6.794 30.2148 7.394C30.4428 7.994 30.5568 8.648 30.5568 9.356C30.5568 10.064 30.4368 10.718 30.1968 11.318C29.9688 11.918 29.6448 12.44 29.2248 12.884C28.8168 13.316 28.3308 13.658 27.7668 13.91C27.2028 14.15 26.5908 14.27 25.9308 14.27ZM25.9488 12.956C26.4048 12.956 26.8188 12.866 27.1908 12.686C27.5748 12.506 27.9048 12.26 28.1808 11.948C28.4688 11.624 28.6908 11.246 28.8468 10.814C29.0028 10.37 29.0808 9.884 29.0808 9.356C29.0808 8.828 29.0028 8.348 28.8468 7.916C28.6908 7.472 28.4688 7.094 28.1808 6.782C27.9048 6.458 27.5748 6.206 27.1908 6.026C26.8188 5.846 26.4048 5.756 25.9488 5.756C25.4928 5.756 25.0728 5.846 24.6888 6.026C24.3168 6.206 23.9868 6.458 23.6988 6.782C23.4228 7.094 23.2068 7.472 23.0508 7.916C22.8948 8.348 22.8168 8.828 22.8168 9.356C22.8168 9.884 22.8948 10.37 23.0508 10.814C23.2068 11.246 23.4228 11.624 23.6988 11.948C23.9868 12.26 24.3168 12.506 24.6888 12.686C25.0728 12.866 25.4928 12.956 25.9488 12.956ZM40.0898 13.532C39.5498 13.532 39.0518 13.43 38.5958 13.226C38.1398 13.01 37.7378 12.71 37.3898 12.326C37.0538 11.942 36.7898 11.498 36.5978 10.994C36.4058 10.478 36.3098 9.926 36.3098 9.338C36.3098 8.75 36.4058 8.198 36.5978 7.682C36.7898 7.166 37.0538 6.716 37.3898 6.332C37.7378 5.936 38.1338 5.63 38.5778 5.414C39.0338 5.198 39.5258 5.09 40.0538 5.09C40.6778 5.09 41.2418 5.24 41.7458 5.54C42.2498 5.84 42.6398 6.248 42.9158 6.764L42.9878 5.324H44.2478V10.778C44.2478 11.258 44.3558 11.636 44.5718 11.912C44.7878 12.188 45.0638 12.326 45.3998 12.326C45.7478 12.326 46.0538 12.176 46.3178 11.876C46.5818 11.576 46.7858 11.168 46.9298 10.652C47.0858 10.136 47.1638 9.554 47.1638 8.906C47.1638 7.958 47.0018 7.094 46.6778 6.314C46.3658 5.522 45.9158 4.844 45.3278 4.28C44.7518 3.704 44.0678 3.26 43.2758 2.948C42.4838 2.636 41.6138 2.48 40.6658 2.48C39.8618 2.48 39.0998 2.594 38.3798 2.822C37.6718 3.05 37.0238 3.374 36.4358 3.794C35.8598 4.214 35.3618 4.712 34.9418 5.288C34.5338 5.852 34.2158 6.482 33.9878 7.178C33.7598 7.874 33.6458 8.612 33.6458 9.392C33.6458 10.16 33.7538 10.892 33.9698 11.588C34.1978 12.272 34.5158 12.902 34.9238 13.478C35.3318 14.042 35.8178 14.528 36.3818 14.936C36.9578 15.356 37.5938 15.674 38.2898 15.89C38.9858 16.118 39.7298 16.232 40.5218 16.232C41.2178 16.232 41.9078 16.142 42.5918 15.962C43.2758 15.782 43.9118 15.518 44.4998 15.17L45.0938 16.25C43.7498 17.054 42.1838 17.456 40.3958 17.456C39.4718 17.456 38.6018 17.324 37.7858 17.06C36.9698 16.796 36.2258 16.418 35.5538 15.926C34.8818 15.446 34.2998 14.87 33.8078 14.198C33.3158 13.538 32.9378 12.8 32.6738 11.984C32.4098 11.168 32.2778 10.304 32.2778 9.392C32.2778 8.468 32.4098 7.598 32.6738 6.782C32.9498 5.966 33.3398 5.222 33.8438 4.55C34.3478 3.866 34.9478 3.278 35.6438 2.786C36.3398 2.294 37.1078 1.916 37.9478 1.652C38.7998 1.388 39.7058 1.256 40.6658 1.256C41.5658 1.256 42.4118 1.376 43.2038 1.616C44.0078 1.856 44.7338 2.204 45.3818 2.66C46.0298 3.104 46.5878 3.644 47.0558 4.28C47.5238 4.904 47.8838 5.606 48.1358 6.386C48.3878 7.154 48.5138 7.988 48.5138 8.888C48.5138 9.572 48.4358 10.202 48.2798 10.778C48.1358 11.342 47.9258 11.828 47.6498 12.236C47.3738 12.644 47.0378 12.962 46.6418 13.19C46.2578 13.418 45.8258 13.532 45.3458 13.532C44.7818 13.532 44.2898 13.376 43.8698 13.064C43.4618 12.74 43.1858 12.278 43.0418 11.678C42.7658 12.266 42.3698 12.722 41.8538 13.046C41.3498 13.37 40.7618 13.532 40.0898 13.532ZM40.3058 12.254C40.8098 12.254 41.2538 12.128 41.6378 11.876C42.0338 11.624 42.3398 11.276 42.5558 10.832C42.7838 10.388 42.8978 9.884 42.8978 9.32C42.8978 8.744 42.7838 8.234 42.5558 7.79C42.3398 7.346 42.0338 6.998 41.6378 6.746C41.2538 6.494 40.8098 6.368 40.3058 6.368C39.8018 6.368 39.3518 6.494 38.9558 6.746C38.5718 6.998 38.2658 7.346 38.0378 7.79C37.8218 8.234 37.7138 8.744 37.7138 9.32C37.7138 9.884 37.8218 10.388 38.0378 10.832C38.2658 11.276 38.5718 11.624 38.9558 11.876C39.3518 12.128 39.8018 12.254 40.3058 12.254ZM53.5873 14.27C52.9393 14.27 52.3633 14.15 51.8593 13.91C51.3553 13.658 50.9593 13.316 50.6713 12.884C50.3953 12.452 50.2573 11.954 50.2573 11.39C50.2573 10.778 50.4133 10.25 50.7253 9.806C51.0493 9.362 51.4993 9.02 52.0753 8.78C52.6513 8.528 53.3233 8.402 54.0913 8.402C54.5233 8.402 54.9613 8.45 55.4053 8.546C55.8493 8.642 56.2453 8.768 56.5933 8.924V8.24C56.5933 7.736 56.4913 7.298 56.2873 6.926C56.0953 6.542 55.8253 6.248 55.4773 6.044C55.1293 5.828 54.7213 5.72 54.2533 5.72C53.6893 5.72 53.1973 5.852 52.7773 6.116C52.3693 6.38 52.0633 6.752 51.8593 7.232L50.5993 6.8C50.7673 6.32 51.0253 5.906 51.3733 5.558C51.7333 5.21 52.1593 4.94 52.6513 4.748C53.1553 4.556 53.6953 4.46 54.2713 4.46C55.0153 4.46 55.6633 4.622 56.2153 4.946C56.7793 5.258 57.2113 5.702 57.5113 6.278C57.8233 6.842 57.9793 7.508 57.9793 8.276V14H56.7193L56.6293 12.56C56.3653 13.076 55.9633 13.49 55.4233 13.802C54.8953 14.114 54.2833 14.27 53.5873 14.27ZM51.7153 11.336C51.7153 11.684 51.8053 11.99 51.9853 12.254C52.1653 12.506 52.4173 12.704 52.7413 12.848C53.0653 12.992 53.4373 13.064 53.8573 13.064C54.3733 13.064 54.8353 12.95 55.2433 12.722C55.6633 12.482 55.9933 12.164 56.2333 11.768C56.4733 11.36 56.5933 10.898 56.5933 10.382V10.04C56.1973 9.884 55.7953 9.764 55.3873 9.68C54.9913 9.584 54.6133 9.536 54.2533 9.536C53.4613 9.536 52.8373 9.698 52.3813 10.022C51.9373 10.346 51.7153 10.784 51.7153 11.336ZM60.428 14V4.712H61.724L61.796 6.188C62.072 5.66 62.468 5.24 62.984 4.928C63.512 4.604 64.118 4.442 64.802 4.442C65.51 4.442 66.128 4.61 66.656 4.946C67.184 5.282 67.586 5.762 67.862 6.386C68.15 6.998 68.294 7.724 68.294 8.564V14H66.854V8.654C66.854 7.73 66.65 7.016 66.242 6.512C65.846 6.008 65.276 5.756 64.532 5.756C64.016 5.756 63.554 5.876 63.146 6.116C62.75 6.344 62.438 6.668 62.21 7.088C61.982 7.496 61.868 7.964 61.868 8.492V14H60.428ZM74.5803 13.91C73.9683 13.91 73.3983 13.79 72.8703 13.55C72.3543 13.31 71.8983 12.98 71.5023 12.56C71.1183 12.128 70.8183 11.624 70.6023 11.048C70.3863 10.472 70.2783 9.854 70.2783 9.194C70.2783 8.522 70.3863 7.898 70.6023 7.322C70.8303 6.746 71.1423 6.242 71.5383 5.81C71.9343 5.378 72.3963 5.042 72.9243 4.802C73.4643 4.562 74.0403 4.442 74.6523 4.442C75.3603 4.442 76.0023 4.61 76.5783 4.946C77.1663 5.282 77.6223 5.744 77.9463 6.332L78.0183 4.712H79.3143V13.208C79.3143 13.916 79.2063 14.558 78.9903 15.134C78.7743 15.722 78.4683 16.226 78.0723 16.646C77.6763 17.066 77.2023 17.384 76.6503 17.6C76.0983 17.828 75.4863 17.942 74.8143 17.942C74.2263 17.942 73.6743 17.852 73.1583 17.672C72.6423 17.504 72.1803 17.252 71.7723 16.916C71.3763 16.592 71.0463 16.202 70.7823 15.746L71.9883 15.134C72.3363 15.638 72.7443 16.022 73.2123 16.286C73.6923 16.562 74.2263 16.7 74.8143 16.7C75.4383 16.7 75.9783 16.556 76.4343 16.268C76.9023 15.992 77.2563 15.596 77.4963 15.08C77.7483 14.564 77.8743 13.958 77.8743 13.262V12.074C77.5383 12.65 77.0823 13.1 76.5063 13.424C75.9303 13.748 75.2883 13.91 74.5803 13.91ZM74.8323 12.596C75.2763 12.596 75.6843 12.512 76.0563 12.344C76.4403 12.176 76.7703 11.942 77.0463 11.642C77.3223 11.33 77.5323 10.964 77.6763 10.544C77.8323 10.124 77.9103 9.668 77.9103 9.176C77.9103 8.684 77.8323 8.228 77.6763 7.808C77.5323 7.388 77.3223 7.028 77.0463 6.728C76.7703 6.416 76.4403 6.176 76.0563 6.008C75.6843 5.84 75.2763 5.756 74.8323 5.756C74.3883 5.756 73.9743 5.84 73.5903 6.008C73.2183 6.176 72.8943 6.416 72.6183 6.728C72.3423 7.028 72.1263 7.388 71.9703 7.808C71.8263 8.228 71.7543 8.684 71.7543 9.176C71.7543 9.668 71.8263 10.124 71.9703 10.544C72.1263 10.964 72.3423 11.33 72.6183 11.642C72.8943 11.942 73.2183 12.176 73.5903 12.344C73.9743 12.512 74.3883 12.596 74.8323 12.596ZM84.7181 14.27C84.0701 14.27 83.4941 14.15 82.9901 13.91C82.4861 13.658 82.0901 13.316 81.8021 12.884C81.5261 12.452 81.3881 11.954 81.3881 11.39C81.3881 10.778 81.5441 10.25 81.8561 9.806C82.1801 9.362 82.6301 9.02 83.2061 8.78C83.7821 8.528 84.4541 8.402 85.2221 8.402C85.6541 8.402 86.0921 8.45 86.5361 8.546C86.9801 8.642 87.3761 8.768 87.7241 8.924V8.24C87.7241 7.736 87.6221 7.298 87.4181 6.926C87.2261 6.542 86.9561 6.248 86.6081 6.044C86.2601 5.828 85.8521 5.72 85.3841 5.72C84.8201 5.72 84.3281 5.852 83.9081 6.116C83.5001 6.38 83.1941 6.752 82.9901 7.232L81.7301 6.8C81.8981 6.32 82.1561 5.906 82.5041 5.558C82.8641 5.21 83.2901 4.94 83.7821 4.748C84.2861 4.556 84.8261 4.46 85.4021 4.46C86.1461 4.46 86.7941 4.622 87.3461 4.946C87.9101 5.258 88.3421 5.702 88.6421 6.278C88.9541 6.842 89.1101 7.508 89.1101 8.276V14H87.8501L87.7601 12.56C87.4961 13.076 87.0941 13.49 86.5541 13.802C86.0261 14.114 85.4141 14.27 84.7181 14.27ZM82.8461 11.336C82.8461 11.684 82.9361 11.99 83.1161 12.254C83.2961 12.506 83.5481 12.704 83.8721 12.848C84.1961 12.992 84.5681 13.064 84.9881 13.064C85.5041 13.064 85.9661 12.95 86.3741 12.722C86.7941 12.482 87.1241 12.164 87.3641 11.768C87.6041 11.36 87.7241 10.898 87.7241 10.382V10.04C87.3281 9.884 86.9261 9.764 86.5181 9.68C86.1221 9.584 85.7441 9.536 85.3841 9.536C84.5921 9.536 83.9681 9.698 83.5121 10.022C83.0681 10.346 82.8461 10.784 82.8461 11.336ZM91.5588 14V0.643999H92.9988V14H91.5588ZM98.3939 14.27C97.7459 14.27 97.1699 14.15 96.6659 13.91C96.1619 13.658 95.7659 13.316 95.4779 12.884C95.2019 12.452 95.0639 11.954 95.0639 11.39C95.0639 10.778 95.2199 10.25 95.5319 9.806C95.8559 9.362 96.3059 9.02 96.8819 8.78C97.4579 8.528 98.1299 8.402 98.8979 8.402C99.3299 8.402 99.7679 8.45 100.212 8.546C100.656 8.642 101.052 8.768 101.4 8.924V8.24C101.4 7.736 101.298 7.298 101.094 6.926C100.902 6.542 100.632 6.248 100.284 6.044C99.9359 5.828 99.5279 5.72 99.0599 5.72C98.4959 5.72 98.0039 5.852 97.5839 6.116C97.1759 6.38 96.8699 6.752 96.6659 7.232L95.4059 6.8C95.5739 6.32 95.8319 5.906 96.1799 5.558C96.5399 5.21 96.9659 4.94 97.4579 4.748C97.9619 4.556 98.5019 4.46 99.0779 4.46C99.8219 4.46 100.47 4.622 101.022 4.946C101.586 5.258 102.018 5.702 102.318 6.278C102.63 6.842 102.786 7.508 102.786 8.276V14H101.526L101.436 12.56C101.172 13.076 100.77 13.49 100.23 13.802C99.7019 14.114 99.0899 14.27 98.3939 14.27ZM96.5219 11.336C96.5219 11.684 96.6119 11.99 96.7919 12.254C96.9719 12.506 97.2239 12.704 97.5479 12.848C97.8719 12.992 98.2439 13.064 98.6639 13.064C99.1799 13.064 99.6419 12.95 100.05 12.722C100.47 12.482 100.8 12.164 101.04 11.768C101.28 11.36 101.4 10.898 101.4 10.382V10.04C101.004 9.884 100.602 9.764 100.194 9.68C99.7979 9.584 99.4199 9.536 99.0599 9.536C98.2679 9.536 97.6439 9.698 97.1879 10.022C96.7439 10.346 96.5219 10.784 96.5219 11.336ZM105.691 14V5.936H103.981V4.712H105.691V3.848C105.691 3.164 105.811 2.57 106.051 2.066C106.303 1.55 106.645 1.154 107.077 0.877999C107.521 0.601999 108.031 0.463999 108.607 0.463999C109.183 0.463999 109.693 0.601999 110.137 0.877999L109.723 1.994C109.579 1.91 109.417 1.844 109.237 1.796C109.069 1.748 108.889 1.724 108.697 1.724C108.193 1.724 107.803 1.91 107.527 2.282C107.263 2.642 107.131 3.176 107.131 3.884V4.712H113.107V14H111.667V5.936H107.131V14H105.691ZM113.377 1.994C113.377 2.174 113.329 2.342 113.233 2.498C113.149 2.642 113.029 2.762 112.873 2.858C112.729 2.942 112.567 2.984 112.387 2.984C112.207 2.984 112.039 2.942 111.883 2.858C111.739 2.762 111.619 2.642 111.523 2.498C111.439 2.342 111.397 2.174 111.397 1.994C111.397 1.814 111.439 1.652 111.523 1.508C111.619 1.352 111.739 1.232 111.883 1.148C112.039 1.052 112.207 1.004 112.387 1.004C112.567 1.004 112.729 1.052 112.873 1.148C113.029 1.232 113.149 1.352 113.233 1.508C113.329 1.652 113.377 1.814 113.377 1.994ZM115.623 14V4.712H116.919L116.991 6.188C117.267 5.66 117.663 5.24 118.179 4.928C118.707 4.604 119.313 4.442 119.997 4.442C120.705 4.442 121.323 4.61 121.851 4.946C122.379 5.282 122.781 5.762 123.057 6.386C123.345 6.998 123.489 7.724 123.489 8.564V14H122.049V8.654C122.049 7.73 121.845 7.016 121.437 6.512C121.041 6.008 120.471 5.756 119.727 5.756C119.211 5.756 118.749 5.876 118.341 6.116C117.945 6.344 117.633 6.668 117.405 7.088C117.177 7.496 117.063 7.964 117.063 8.492V14H115.623ZM129.152 14.27C128.588 14.27 128.102 14.156 127.694 13.928C127.286 13.7 126.968 13.364 126.74 12.92C126.524 12.476 126.416 11.936 126.416 11.3V5.936H124.706V4.712H126.416V1.598H127.856V4.712H130.772V5.936H127.856V11.228C127.856 11.78 127.97 12.212 128.198 12.524C128.438 12.824 128.798 12.974 129.278 12.974C129.53 12.974 129.782 12.938 130.034 12.866C130.298 12.782 130.532 12.674 130.736 12.542L131.168 13.658C130.916 13.838 130.622 13.982 130.286 14.09C129.95 14.21 129.572 14.27 129.152 14.27ZM137.062 14.27C136.378 14.27 135.748 14.15 135.172 13.91C134.608 13.67 134.116 13.334 133.696 12.902C133.276 12.458 132.952 11.942 132.724 11.354C132.496 10.754 132.382 10.094 132.382 9.374C132.382 8.666 132.49 8.018 132.706 7.43C132.934 6.83 133.246 6.308 133.642 5.864C134.05 5.42 134.524 5.078 135.064 4.838C135.604 4.586 136.192 4.46 136.828 4.46C137.44 4.46 138.004 4.574 138.52 4.802C139.048 5.03 139.504 5.348 139.888 5.756C140.272 6.164 140.566 6.65 140.77 7.214C140.986 7.778 141.094 8.39 141.094 9.05V9.644H133.876C133.924 10.316 134.08 10.904 134.344 11.408C134.62 11.912 134.986 12.302 135.442 12.578C135.898 12.854 136.426 12.992 137.026 12.992C137.614 12.992 138.124 12.872 138.556 12.632C139 12.38 139.378 12.014 139.69 11.534L140.914 12.092C140.674 12.548 140.362 12.938 139.978 13.262C139.594 13.586 139.15 13.832 138.646 14C138.154 14.18 137.626 14.27 137.062 14.27ZM136.828 5.684C136.336 5.684 135.886 5.804 135.478 6.044C135.082 6.284 134.746 6.62 134.47 7.052C134.206 7.472 134.032 7.964 133.948 8.528H139.582C139.534 7.964 139.384 7.472 139.132 7.052C138.88 6.62 138.556 6.284 138.16 6.044C137.764 5.804 137.32 5.684 136.828 5.684ZM147.235 14.27C146.599 14.27 146.011 14.15 145.471 13.91C144.931 13.67 144.457 13.334 144.049 12.902C143.641 12.458 143.323 11.942 143.095 11.354C142.879 10.766 142.771 10.124 142.771 9.428C142.771 8.732 142.885 8.084 143.113 7.484C143.341 6.872 143.659 6.338 144.067 5.882C144.475 5.426 144.955 5.072 145.507 4.82C146.059 4.568 146.659 4.442 147.307 4.442C147.907 4.442 148.447 4.55 148.927 4.766C149.419 4.982 149.839 5.276 150.187 5.648C150.547 6.02 150.823 6.446 151.015 6.926L149.701 7.376C149.437 6.872 149.095 6.476 148.675 6.188C148.255 5.9 147.781 5.756 147.253 5.756C146.821 5.756 146.425 5.852 146.065 6.044C145.705 6.224 145.387 6.476 145.111 6.8C144.835 7.124 144.619 7.514 144.463 7.97C144.319 8.414 144.247 8.894 144.247 9.41C144.247 9.926 144.319 10.4 144.463 10.832C144.619 11.264 144.829 11.642 145.093 11.966C145.357 12.278 145.669 12.524 146.029 12.704C146.401 12.872 146.803 12.956 147.235 12.956C147.787 12.956 148.291 12.818 148.747 12.542C149.215 12.254 149.569 11.858 149.809 11.354L151.123 11.804C150.931 12.308 150.637 12.746 150.241 13.118C149.857 13.478 149.401 13.76 148.873 13.964C148.357 14.168 147.811 14.27 147.235 14.27ZM153.065 14V0.643999H154.505V6.062C154.781 5.57 155.177 5.18 155.693 4.892C156.209 4.592 156.791 4.442 157.439 4.442C158.147 4.442 158.765 4.61 159.293 4.946C159.821 5.282 160.223 5.762 160.499 6.386C160.787 6.998 160.931 7.724 160.931 8.564V14H159.491V8.654C159.491 7.73 159.287 7.016 158.879 6.512C158.483 6.008 157.913 5.756 157.169 5.756C156.653 5.756 156.191 5.876 155.783 6.116C155.387 6.344 155.075 6.668 154.847 7.088C154.619 7.496 154.505 7.964 154.505 8.492V14H153.065ZM164.211 14.054C164.019 14.054 163.839 14.006 163.671 13.91C163.515 13.814 163.389 13.688 163.293 13.532C163.197 13.364 163.149 13.178 163.149 12.974C163.149 12.77 163.197 12.59 163.293 12.434C163.389 12.266 163.515 12.134 163.671 12.038C163.839 11.942 164.019 11.894 164.211 11.894C164.403 11.894 164.577 11.942 164.733 12.038C164.901 12.134 165.033 12.266 165.129 12.434C165.237 12.59 165.291 12.77 165.291 12.974C165.291 13.178 165.237 13.364 165.129 13.532C165.033 13.688 164.901 13.814 164.733 13.91C164.577 14.006 164.403 14.054 164.211 14.054ZM171.317 14.27C170.681 14.27 170.093 14.15 169.553 13.91C169.013 13.67 168.539 13.334 168.131 12.902C167.723 12.458 167.405 11.942 167.177 11.354C166.961 10.766 166.853 10.124 166.853 9.428C166.853 8.732 166.967 8.084 167.195 7.484C167.423 6.872 167.741 6.338 168.149 5.882C168.557 5.426 169.037 5.072 169.589 4.82C170.141 4.568 170.741 4.442 171.389 4.442C171.989 4.442 172.529 4.55 173.009 4.766C173.501 4.982 173.921 5.276 174.269 5.648C174.629 6.02 174.905 6.446 175.097 6.926L173.783 7.376C173.519 6.872 173.177 6.476 172.757 6.188C172.337 5.9 171.863 5.756 171.335 5.756C170.903 5.756 170.507 5.852 170.147 6.044C169.787 6.224 169.469 6.476 169.193 6.8C168.917 7.124 168.701 7.514 168.545 7.97C168.401 8.414 168.329 8.894 168.329 9.41C168.329 9.926 168.401 10.4 168.545 10.832C168.701 11.264 168.911 11.642 169.175 11.966C169.439 12.278 169.751 12.524 170.111 12.704C170.483 12.872 170.885 12.956 171.317 12.956C171.869 12.956 172.373 12.818 172.829 12.542C173.297 12.254 173.651 11.858 173.891 11.354L175.205 11.804C175.013 12.308 174.719 12.746 174.323 13.118C173.939 13.478 173.483 13.76 172.955 13.964C172.439 14.168 171.893 14.27 171.317 14.27ZM181.234 14.27C180.574 14.27 179.962 14.15 179.398 13.91C178.846 13.658 178.36 13.316 177.94 12.884C177.532 12.44 177.214 11.918 176.986 11.318C176.758 10.718 176.644 10.064 176.644 9.356C176.644 8.648 176.758 7.994 176.986 7.394C177.226 6.794 177.55 6.278 177.958 5.846C178.378 5.402 178.87 5.06 179.434 4.82C179.998 4.568 180.61 4.442 181.27 4.442C181.93 4.442 182.536 4.568 183.088 4.82C183.652 5.06 184.138 5.402 184.546 5.846C184.966 6.278 185.29 6.794 185.518 7.394C185.746 7.994 185.86 8.648 185.86 9.356C185.86 10.064 185.74 10.718 185.5 11.318C185.272 11.918 184.948 12.44 184.528 12.884C184.12 13.316 183.634 13.658 183.07 13.91C182.506 14.15 181.894 14.27 181.234 14.27ZM181.252 12.956C181.708 12.956 182.122 12.866 182.494 12.686C182.878 12.506 183.208 12.26 183.484 11.948C183.772 11.624 183.994 11.246 184.15 10.814C184.306 10.37 184.384 9.884 184.384 9.356C184.384 8.828 184.306 8.348 184.15 7.916C183.994 7.472 183.772 7.094 183.484 6.782C183.208 6.458 182.878 6.206 182.494 6.026C182.122 5.846 181.708 5.756 181.252 5.756C180.796 5.756 180.376 5.846 179.992 6.026C179.62 6.206 179.29 6.458 179.002 6.782C178.726 7.094 178.51 7.472 178.354 7.916C178.198 8.348 178.12 8.828 178.12 9.356C178.12 9.884 178.198 10.37 178.354 10.814C178.51 11.246 178.726 11.624 179.002 11.948C179.29 12.26 179.62 12.506 179.992 12.686C180.376 12.866 180.796 12.956 181.252 12.956ZM187.905 14V4.712H189.201L189.273 6.134C189.537 5.618 189.921 5.21 190.425 4.91C190.929 4.598 191.505 4.442 192.153 4.442C192.849 4.442 193.455 4.622 193.971 4.982C194.487 5.342 194.871 5.846 195.123 6.494C195.279 6.086 195.513 5.732 195.825 5.432C196.137 5.12 196.503 4.88 196.923 4.712C197.355 4.532 197.817 4.442 198.309 4.442C199.005 4.442 199.605 4.61 200.109 4.946C200.625 5.27 201.015 5.732 201.279 6.332C201.555 6.932 201.693 7.652 201.693 8.492V14H200.253V8.582C200.253 7.67 200.067 6.974 199.695 6.494C199.323 6.002 198.783 5.756 198.075 5.756C197.583 5.756 197.145 5.876 196.761 6.116C196.377 6.344 196.071 6.662 195.843 7.07C195.627 7.466 195.519 7.916 195.519 8.42V14H194.079V8.582C194.079 7.67 193.887 6.974 193.503 6.494C193.119 6.002 192.573 5.756 191.865 5.756C191.385 5.756 190.953 5.876 190.569 6.116C190.185 6.344 189.885 6.662 189.669 7.07C189.453 7.466 189.345 7.916 189.345 8.42V14H187.905Z" fill="#202D3F"/>
</svg>
