<svg width="187" height="68" viewBox="0 0 187 68" fill="none" xmlns="http://www.w3.org/2000/svg">
<path fill-rule="evenodd" clip-rule="evenodd" d="M24.0751 22.5082C24.0802 22.558 24.0907 22.5444 24.0389 22.5444V22.5807C24.044 22.6304 24.0544 22.6169 24.0027 22.6169V22.6531C24.0077 22.7028 24.0182 22.6893 23.9664 22.6893V22.7255C23.974 22.8462 23.9792 22.7709 23.9302 22.7979V22.8341C23.9353 22.8838 23.9458 22.8703 23.8942 22.8703V22.9065C23.9015 23.0272 23.9068 22.9519 23.858 22.9789V23.0152C23.8653 23.1358 23.8706 23.0605 23.8218 23.0875V23.1599C23.8265 23.2095 23.8372 23.1961 23.7856 23.1961V23.3047C23.7903 23.3543 23.801 23.3409 23.7494 23.3409V23.4856C23.7541 23.5353 23.7647 23.5218 23.7131 23.5218C23.7131 24.2866 23.6616 24.6158 23.8945 25.3683C24.3247 26.7579 25.3109 28.2413 26.0458 29.4425C27.0835 31.1386 28.2415 32.7751 28.9481 34.8646C30.0873 38.2329 29.1067 41.8429 27.1628 44.5905C26.6512 45.3137 25.8816 46.2609 25.2365 46.8081C25.2365 47.3754 25.3968 48.9739 25.4515 49.6869L25.5625 51.1318C25.575 51.6226 25.6469 52.0843 25.6713 52.5789L26.0165 56.1056C26.0673 56.4657 26.2304 58.0777 26.2859 58.1826L26.9833 56.4217C27.4894 55.2651 28.1074 54.2706 28.7496 53.2334C29.84 51.4715 31.1727 49.8718 32.4646 48.264C32.6609 48.0196 32.8469 47.8271 33.0491 47.5832C33.4284 47.1257 33.8017 46.7118 34.189 46.2252C36.523 43.2927 38.5152 39.235 36.9493 35.2188C36.6998 34.5789 36.4141 34.098 36.0809 33.592C35.6446 32.9295 35.3085 32.7567 34.9732 32.2027C34.4342 31.3122 33.4479 29.1257 35.2965 29.0277C36.6041 28.9584 38.3458 29.4408 39.5177 29.7562C42.8321 30.6485 47.0442 32.4995 49.9032 34.28C50.4434 34.6163 50.9018 34.9239 51.4118 35.2694C51.9311 35.6213 52.3571 35.9903 52.8215 36.3567C53.6529 37.0129 54.5627 38.1089 55.1046 39.0317C56.0308 40.6091 56.1283 42.7391 56.2122 42.8936L56.6706 41.9649C56.758 41.7915 56.8174 41.6331 56.8996 41.4702C56.9851 41.3008 57.0519 41.1733 57.1321 40.979C57.2994 40.5737 57.6365 39.947 57.8095 39.5214C57.8689 39.3752 57.9547 39.1777 58.0334 39.0215C58.2401 38.6116 59.6956 35.2179 59.7092 34.993C59.7091 34.1366 59.6399 33.1173 59.4218 32.3268C59.2251 31.6139 58.8518 30.9672 58.3447 30.4721C56.1969 28.375 52.5419 28.0574 49.8096 27.2472C49.1443 27.0498 45.8827 25.9841 45.5369 25.6847C44.842 25.4806 42.1503 24.0352 41.5414 23.6814C41.354 23.5725 37.9453 21.5281 37.8585 21.4267C37.638 21.3441 37.2457 21.0959 37.0232 20.9632C36.7676 20.8107 36.483 20.6713 36.2172 20.5369C33.1827 19.0024 29.6226 18.028 26.5557 20.0278C25.7015 20.5848 24.462 21.5762 24.0749 22.5086L24.0751 22.5082Z" fill="#89163B"/>
<path fill-rule="evenodd" clip-rule="evenodd" d="M26.2873 58.1825C26.2873 58.9957 27.0329 62.4013 27.2517 63.1584C27.6297 64.4671 28.2236 66.1557 29.2091 67.1356C29.4989 67.4238 29.9898 67.8095 30.4224 67.9125C30.9203 68.031 31.7369 67.9948 32.3457 67.9948C32.1111 67.4463 31.7813 67.2319 31.7917 66.1121C31.8062 64.559 33.1462 62.2454 33.8807 60.9309C34.1433 60.4609 37.0421 55.6608 37.5877 55.0458C37.6444 54.9818 37.5926 55.0288 37.659 54.9763C38.3374 53.999 38.9991 53.0303 39.6914 52.0496C40.3824 51.0708 41.0741 50.1404 41.7697 49.1362C42.3789 48.2567 43.7967 46.3361 44.2508 45.3937C44.6892 44.4837 44.7732 43.957 45.4353 42.7795C45.7558 42.2097 46.105 41.7163 46.5342 41.3802C47.1711 40.8812 47.7701 41.1349 48.3435 41.5234C49.2482 42.1362 49.9923 43.1352 50.4695 44.4287C51.3518 46.8197 51.1729 49.6292 50.7093 52.1402C50.6451 52.4884 50.5446 52.8513 50.4926 53.1945C50.7113 53.0437 53.1277 48.8592 53.4876 48.1889L55.8757 43.5931C55.9977 43.3492 56.1185 43.1442 56.2134 42.8934C56.1295 42.7388 56.032 40.6089 55.1058 39.0315C54.5639 38.1087 53.6542 37.0127 52.8227 36.3565C52.3584 35.9901 51.9322 35.6211 51.413 35.2692C50.9031 34.9236 50.4446 34.6161 49.9044 34.2798C47.0455 32.4993 42.8334 30.6483 39.5189 29.756C38.3471 29.4406 36.6053 28.9582 35.2977 29.0275C33.4491 29.1255 34.4355 31.3121 34.9744 32.2025C35.3097 32.7564 35.6459 32.9293 36.0821 33.5918C36.4154 34.0978 36.701 34.5787 36.9505 35.2186C38.5164 39.2347 36.5242 43.2924 34.1902 46.225C33.8029 46.7116 33.4296 47.1255 33.0503 47.583C32.8481 47.8269 32.6622 48.0195 32.4658 48.2638C31.1739 49.8716 29.8412 51.4713 28.7508 53.2332C28.1088 54.2705 27.4907 55.265 26.9845 56.4215L26.2871 58.1824L26.2873 58.1825Z" fill="#EE6B23"/>
<path fill-rule="evenodd" clip-rule="evenodd" d="M124.389 21.7485C124.389 20.5424 124.883 19.1389 125.647 18.3378C125.881 18.0923 125.92 18.0111 126.234 17.7676C127.898 16.4767 129.967 16.4385 131.663 17.731L132.531 18.6364C132.976 19.2291 133.283 19.9361 133.433 20.6652C133.759 22.247 133.313 24.1257 132.25 25.195C132.117 25.3297 132.131 25.3662 131.968 25.4912C131.596 25.7755 131.541 25.9188 130.927 26.2236C129.428 26.967 127.599 26.8469 126.298 25.7738C125.611 25.2069 125.118 24.5819 124.781 23.7444C124.572 23.2238 124.389 22.4849 124.389 21.7484L124.389 21.7485ZM133.291 14.0045C132.879 13.7287 132.841 13.6688 132.335 13.3684C131.385 12.8048 129.819 12.3039 128.623 12.3039H127.935C126.117 12.3039 123.967 13.2699 122.733 14.4112C122.625 14.5114 122.554 14.6068 122.44 14.6974C122.277 14.8275 122.281 14.8237 122.151 14.9869C122.06 15.1012 121.963 15.1668 121.867 15.2818C118.981 18.7278 118.635 23.3816 120.94 27.2605C121.318 27.8971 121.541 28.0921 121.934 28.5823C122.52 29.3152 123.685 30.1875 124.509 30.6026C126.619 31.6653 128.858 31.8246 131.11 30.9298C132.039 30.5605 132.537 30.2028 133.327 29.6732C133.327 31.3015 133.303 32.2484 132.088 33.4638C131.856 33.6952 131.683 33.8271 131.42 34.0262C131.296 34.1202 131.174 34.1942 131.046 34.2674C130.92 34.3396 130.755 34.4355 130.619 34.4918C129.666 34.8853 129.371 34.9928 128.225 34.9928C126.595 34.9928 125.031 33.9956 124.172 32.713C122.807 33.627 121.448 34.5492 120.083 35.4632C120.123 35.6119 120.662 36.2446 120.765 36.3732C121.159 36.8653 121.902 37.524 122.414 37.9084C126.045 40.6304 130.905 40.5479 134.511 37.8412L134.935 37.5051C135.09 37.3835 135.17 37.2916 135.323 37.1694C135.54 36.9965 136.03 36.4409 136.23 36.1953C137.212 34.9936 138.006 33.5024 138.324 31.9204C138.49 31.0959 138.574 30.2017 138.574 29.2029C138.574 28.1996 138.61 27.2662 138.61 26.2356V12.2314H133.291V14.0046L133.291 14.0045Z" fill="#171637"/>
<path fill-rule="evenodd" clip-rule="evenodd" d="M85.3071 11.3259C85.3549 11.3809 85.3444 11.3662 85.3754 11.4384L85.6915 12.3889C85.8175 12.7668 85.9216 13.0988 86.053 13.4748C86.3098 14.2093 86.5488 14.9237 86.7954 15.6636L88.2744 20.0106H82.376L85.3071 11.3259ZM72.6418 31.0475H78.6487C78.7118 30.7767 78.8214 30.5506 78.9069 30.2924C78.9888 30.045 79.0738 29.7908 79.16 29.5322L80.7114 24.932H89.9389C89.9948 25.1721 90.1111 25.4671 90.1876 25.6965L92.0015 31.0476H97.936C97.9255 30.9207 97.8589 30.7488 97.8122 30.6285C97.7535 30.4772 97.7164 30.3545 97.6572 30.2046L95.832 25.1905C95.731 24.9202 95.6352 24.6283 95.5221 24.3423C95.3004 23.7816 95.1302 23.2386 94.9117 22.6732L94.3034 21.0016C94.1036 20.4254 93.8862 19.8954 93.6977 19.3275C93.3854 18.3867 92.8218 16.9122 92.477 15.9887L90.9658 11.8186C90.3055 9.91442 89.4647 7.83837 88.8303 5.95692C88.7564 5.73766 88.2517 4.43362 88.2379 4.26953H82.4119C82.3765 4.42163 82.3175 4.53372 82.2716 4.67201L81.195 7.61197C80.9998 8.19091 80.7844 8.70715 80.5892 9.28608C80.2369 10.331 79.7154 11.577 79.3678 12.6241C79.2803 12.8878 79.1741 13.1672 79.0673 13.4455C78.6016 14.6588 78.144 16.0582 77.6821 17.2349C77.1643 18.5532 76.682 20.0725 76.1622 21.3963L75.6965 22.6675C75.282 23.7396 74.8981 24.941 74.4765 26.007C74.3647 26.2897 74.2869 26.5439 74.1767 26.829C73.8616 27.6438 73.5798 28.5318 73.2567 29.3468L72.6416 31.0476L72.6418 31.0475Z" fill="#171637"/>
<path fill-rule="evenodd" clip-rule="evenodd" d="M12.5822 9.44431L11.7604 10.1514C11.7244 10.1863 11.6823 10.2176 11.6422 10.2512C10.8603 10.9057 9.82844 12.3815 9.33876 13.1591C7.35121 16.3159 5.90904 19.9623 6.23736 23.919C6.37375 25.5629 6.87982 27.1495 7.7744 28.463C7.90183 28.65 8.05689 28.8151 8.15904 28.9853C8.88498 29.3407 15.3341 29.9978 16.4601 30.1637C17.3039 30.2881 18.0054 30.3986 18.8043 30.606C18.9311 30.6388 18.995 30.6753 19.1189 30.686L17.8125 29.7161C17.5948 29.5572 17.3944 29.3942 17.1877 29.2194L15.4287 27.6135C15.0678 27.2112 14.7428 26.8301 14.4402 26.3575C13.1335 24.3166 13.4063 21.2855 14.4147 19.1381C14.8874 18.1316 15.6806 17.1596 16.3205 16.5582C17.9152 15.059 19.9506 14.0609 22.1241 13.3851C22.938 13.1322 24.9626 12.6196 25.7746 12.5572C26.4591 12.4977 27.187 12.3611 27.896 12.288C30.329 12.0374 32.0096 12.0522 34.434 12.6586C36.5845 13.1966 38.5516 14.0056 40.4991 14.9845C40.6371 15.054 40.763 15.1193 40.9098 15.1893C41.0306 15.2468 41.2244 15.3186 41.3068 15.4086C42.1007 15.7228 46.8751 18.5212 48.139 19.1843C48.3745 19.3079 48.9504 19.5837 49.1179 19.7219C49.408 19.8286 49.7543 20.033 50.0505 20.1697C50.381 20.3222 50.6833 20.4598 51.0261 20.6052C51.6026 20.8498 52.4776 21.1979 53.1377 21.3176C53.1098 21.2767 52.0029 20.4507 51.8071 20.2559C51.6964 20.1457 51.6618 20.1135 51.5401 20.0164C51.1698 19.721 50.4745 18.841 50.1618 18.4636C49.6582 17.8559 48.8322 16.4214 48.4932 15.7536L47.396 13.4131C47.2841 13.1731 47.1975 12.9704 47.0941 12.738L46.769 12.0901L45.9188 11.2357C43.7384 9.22809 41.473 7.96177 38.5593 6.90606C36.0603 6.00048 32.9259 5.41031 30.1597 5.2507C29.6285 5.22004 29.1 5.20759 28.5672 5.18634C28.3267 5.17678 27.0838 5.13823 26.9495 5.22809C26.5438 5.155 25.1856 5.29191 24.7126 5.33753C21.448 5.65287 18.4241 6.35635 15.4788 7.71853C14.7758 8.04366 13.8879 8.54275 13.2582 8.97164L12.5823 9.44439L12.5822 9.44431Z" fill="url(#paint0_linear_248_554)"/>
<path fill-rule="evenodd" clip-rule="evenodd" d="M148.344 27.6464C145.963 27.6464 146.266 25.3155 147.305 24.4364C148.577 23.3592 151.038 23.4311 152.582 22.8746C152.732 22.8207 152.913 22.7205 153.048 22.6889C153.048 23.5524 152.998 24.1498 152.733 24.7622C152.611 25.045 152.456 25.2881 152.288 25.5115C152.076 25.7932 151.831 26.0832 151.559 26.3025C151.495 26.3541 151.476 26.3807 151.404 26.4371C150.573 27.0946 149.435 27.6464 148.344 27.6464H148.344ZM142.59 17.7314L146.86 18.817C146.897 18.3765 147.62 17.419 148.09 17.0797C149.225 16.2604 151.046 16.0605 152.133 16.8726C152.487 17.1368 153.012 17.7246 153.012 18.3103C153.012 19.2843 152.361 19.4492 151.529 19.6498C148.913 20.2796 145.953 20.4262 143.588 22.0589C142.905 22.5308 142.183 23.3318 141.856 24.0896C141.065 25.9197 141.334 28.5265 142.671 29.8816C143.028 30.2441 143.432 30.5249 143.887 30.7638C144.231 30.9442 144.728 31.1022 145.116 31.2C147.06 31.6908 149.377 31.2732 151.125 30.5723C151.751 30.3211 152.173 30.0982 152.737 29.7235C152.835 29.6584 152.95 29.5541 153.048 29.528V31.0841H158.114L158.114 21.9288C158.115 21.6218 158.076 21.4688 158.077 21.1693C158.086 19.5047 158.221 18.149 157.657 16.4508C157.367 15.5743 156.931 14.7175 156.35 14.1398C156.102 13.8934 155.943 13.7058 155.646 13.5045C155.54 13.4321 155.478 13.3765 155.371 13.3091C153.55 12.1621 150.791 11.9918 148.705 12.3392C146.949 12.6319 145.644 13.3699 144.408 14.5919L144.022 15.0377C143.79 15.3349 143.54 15.669 143.351 15.9959C143.138 16.3665 142.621 17.3612 142.59 17.7314L142.59 17.7314Z" fill="#171637"/>
<path fill-rule="evenodd" clip-rule="evenodd" d="M176.75 27.6458C176.262 27.6458 175.783 27.5197 175.493 27.3108C175.19 27.0931 174.94 26.7374 174.94 26.2345C174.94 24.5958 176.095 24.0148 177.394 23.6577C178.48 23.3589 179.982 23.2352 180.988 22.8737C181.138 22.8199 181.318 22.7199 181.454 22.6882C181.454 23.6433 181.57 23.9398 181.153 24.7752C180.87 25.3397 180.546 25.7486 180.125 26.1718C179.726 26.5726 179.182 26.8989 178.68 27.1513C178.154 27.4157 177.372 27.6458 176.75 27.6458ZM170.996 17.7308C171.358 17.815 171.695 17.9151 172.06 18.0059C172.434 18.0988 172.771 18.1835 173.131 18.2735C173.837 18.45 174.55 18.6496 175.266 18.8163C175.347 18.4712 175.599 18.1023 175.773 17.8391C175.872 17.6875 175.978 17.5796 176.092 17.4353C176.317 17.1521 177.078 16.6986 177.469 16.5679C177.637 16.5118 177.879 16.4567 178.083 16.4219C178.974 16.2705 179.832 16.3772 180.565 16.8829C181.329 17.4108 181.77 18.631 181.082 19.2046C180.887 19.3677 180.518 19.497 180.253 19.5689C179.631 19.7379 178.945 19.8679 178.274 19.979C177.021 20.187 175.58 20.5034 174.384 20.9014C172.858 21.4091 171.337 22.2566 170.532 23.5992C170.461 23.7185 170.362 23.8798 170.313 23.9953C169.667 25.5112 169.661 27.1761 170.287 28.6801C170.405 28.9616 170.583 29.2524 170.753 29.4813C172.884 32.3555 178.029 31.601 180.837 29.9234C180.95 29.8561 181.028 29.8079 181.144 29.7238C181.241 29.6533 181.348 29.5556 181.454 29.5273V31.0834H186.52L186.521 21.6375C186.521 21.3976 186.483 21.262 186.484 20.9874C186.485 20.5299 186.52 20.1399 186.52 19.6485C186.52 18.5013 186.365 17.3488 186.072 16.4776C185.917 16.0156 185.63 15.3124 185.377 14.9291C184.901 14.2087 184.502 13.7949 183.777 13.3085C183.43 13.0754 182.998 12.8619 182.563 12.7138C181.09 12.2134 180.138 12.1941 178.595 12.1941C176.796 12.1941 174.995 12.8113 173.674 13.8221L172.814 14.591C172.306 15.1408 171.796 15.8758 171.467 16.5365C171.36 16.7509 171.017 17.4833 170.996 17.7307V17.7308Z" fill="#171637"/>
<path fill-rule="evenodd" clip-rule="evenodd" d="M105.21 14.1496V12.2317H99.8904V31.0487H105.21V20.1204C105.21 19.6979 105.375 19.2064 105.523 18.9139C105.689 18.5853 105.874 18.2633 106.123 17.9939C106.536 17.5476 107.334 17.0083 108.177 17.0083C109.218 17.0083 109.829 17.2356 110.52 17.9217C111.036 18.4331 111.398 19.1723 111.398 19.9394V31.1935H116.464V20.0118C116.464 17.0748 114.973 14.3228 112.73 12.962C110.948 11.8805 108.853 11.8562 106.995 12.786C106.003 13.2822 105.462 13.9807 105.21 14.1495L105.21 14.1496Z" fill="#171637"/>
<path fill-rule="evenodd" clip-rule="evenodd" d="M170.527 62.8204H175.231V54.3166C175.231 53.0931 175.283 52.3242 175.739 51.5312C176.085 50.9292 176.922 50.3361 177.872 50.3361C178.491 50.3361 178.988 50.3129 179.549 50.6134C180.482 51.1137 180.948 52.1515 180.948 53.3034V62.8204H185.689V52.4348C185.689 50.9364 185.514 49.7774 184.856 48.5629C184.516 47.9335 184.202 47.6083 183.69 47.1597C183.563 47.0484 183.425 46.9424 183.276 46.8502C182.034 46.0825 181.117 46.0299 179.646 46.0299C179.17 46.0299 178.541 46.183 178.198 46.3194C177.662 46.5324 177.52 46.5775 177.018 46.9125C176.342 47.3632 176.122 47.6546 175.656 48.1559L175.231 48.6354V40.3486H170.527V62.8205V62.8204Z" fill="#171637"/>
<path fill-rule="evenodd" clip-rule="evenodd" d="M73.2209 62.8202H77.9976V54.4973H88.2745V50.2273H77.9976V45.5593H89.6497V41.2893H73.2209V62.8202Z" fill="#171637"/>
<path fill-rule="evenodd" clip-rule="evenodd" d="M8.15845 28.9855C8.05629 28.8154 7.90124 28.6502 7.77381 28.4632C6.87923 27.1497 6.37315 25.5632 6.23677 23.9193C5.90837 19.9625 7.35054 16.3161 9.33817 13.1593C9.82785 12.3817 10.8597 10.9059 11.6416 10.2514C11.6817 10.2178 11.7237 10.1865 11.7598 10.1516L12.5816 9.44453L13.2575 8.97177C13.8872 8.54289 14.7751 8.0438 15.478 7.71866C18.4233 6.35648 21.4472 5.65301 24.7119 5.33766C25.1848 5.29205 26.5429 5.15513 26.9488 5.22822C27.083 5.13836 28.326 5.17692 28.5665 5.18648C29.0993 5.2078 29.6278 5.22018 30.159 5.25084C32.9252 5.41045 36.0596 6.00061 38.5585 6.9062C41.4722 7.96191 43.7376 9.22822 45.918 11.2358L46.7682 12.0902C46.7257 11.8985 46.417 11.3478 46.3098 11.1334C45.9578 10.4292 45.6693 9.97223 45.2693 9.3152C44.9963 8.86666 44.1053 7.70075 43.7014 7.30055C43.3163 6.91902 43.506 7.04364 42.9961 6.59465L42.4343 6.07081C41.7956 5.50152 40.8598 4.86931 40.1304 4.43033C39.9726 4.33546 39.8546 4.27072 39.6966 4.17661C39.6063 4.12295 39.5418 4.09844 39.4601 4.05123C38.2444 3.34836 36.5052 2.68845 35.1839 2.2481C34.2718 1.94414 32.7386 1.50622 31.8141 1.3117C30.018 0.93382 28.8624 0.696115 26.9852 0.423118C26.355 0.331436 25.0405 0.175471 24.4056 0.14405L21.6909 0C21.2205 0 20.75 0.000607165 20.2796 0L19.229 0.0350638C19.0555 0.0402247 19.0637 0.0645872 18.9047 0.0724803C17.4572 0.144657 15.6168 0.393746 14.1855 0.744991C14.1285 0.759032 14.0928 0.765255 14.0403 0.780662C14.0287 0.784078 13.9951 0.794627 13.9844 0.798422C13.9759 0.801458 13.9651 0.806011 13.9576 0.808971L13.9053 0.832271C13.724 0.836597 12.8861 1.08903 12.6759 1.15339C11.4228 1.53696 9.95748 2.14686 8.83316 2.77474C7.61511 3.45507 6.6211 4.16204 5.61564 5.09373L3.74754 7.09753C3.68463 7.182 3.64068 7.23649 3.57245 7.32051C3.22576 7.74758 2.77145 8.4865 2.47796 8.97625C1.9152 9.91531 1.61837 10.6482 1.21999 11.6626C-0.0877653 14.9926 -0.556117 20.4013 0.884685 23.665C1.5317 25.1306 2.40768 26.2216 3.70633 27.1398C4.71984 27.8563 6.26705 28.5126 7.52047 28.826C7.72599 28.8774 7.95573 28.9688 8.15852 28.9854L8.15845 28.9855Z" fill="url(#paint1_radial_248_554)"/>
<path fill-rule="evenodd" clip-rule="evenodd" d="M141.18 49.8297C141.971 49.8297 142.349 49.797 143.086 50.1669C143.445 50.3471 143.762 50.6226 143.998 50.9199L144.328 51.3856C144.603 51.7993 144.943 52.7327 144.943 53.2674H137.959C137.975 52.5747 138.513 51.4951 138.961 50.9401C139.465 50.3155 140.32 49.8297 141.18 49.8297ZM133.327 54.6063C133.327 56.9276 134.103 59.1274 135.634 60.6585C136.535 61.5591 137.278 62.0779 138.45 62.5466C139.958 63.1496 140.851 63.1824 142.482 63.1824C143.421 63.1824 144.561 62.9275 145.378 62.604C145.659 62.4928 145.889 62.3646 146.161 62.2297C146.442 62.0905 146.631 61.9601 146.883 61.7929C147.141 61.6209 147.312 61.4793 147.544 61.2961C147.856 61.0496 148.49 60.4293 148.706 60.1066L146.029 57.7183C145.932 57.7832 145.775 57.9287 145.675 58.0159C145.559 58.1171 145.434 58.2125 145.311 58.303C144.494 58.9029 143.491 59.3829 142.374 59.3829C141.527 59.3829 141.066 59.4178 140.254 59.0785C139.495 58.7615 138.848 58.2341 138.477 57.4897C138.324 57.1814 138.064 56.6296 138.032 56.2348H148.851C149.626 56.2348 149.539 56.5618 149.539 54.6064C149.539 53.366 149.252 52.1424 148.937 51.191C148.5 49.8657 147.567 48.4638 146.464 47.6217C146.267 47.4715 146.089 47.349 145.869 47.2027C144.841 46.5162 143.381 46.0302 141.976 46.0302C140.923 46.0302 140.328 45.9995 139.277 46.2984C138.65 46.4768 138.388 46.5936 137.826 46.8745C136.855 47.3601 135.958 48.0806 135.286 48.9298C134.024 50.5249 133.327 52.4366 133.327 54.6064L133.327 54.6063Z" fill="#171637"/>
<path fill-rule="evenodd" clip-rule="evenodd" d="M106.874 48.6348V46.3188H102.17V62.8199H106.874V54.3161C106.874 53.0926 106.926 52.3237 107.382 51.5307C107.728 50.9287 108.565 50.3356 109.516 50.3356C110.135 50.3356 110.632 50.3124 111.192 50.6129C112.126 51.1132 112.592 52.151 112.592 53.3029V62.8199H117.332V52.4344C117.332 51.2842 117.212 50.2556 116.847 49.3012L116.054 47.8859C115.935 47.745 115.843 47.633 115.713 47.5039C115.644 47.4355 115.602 47.3896 115.532 47.3223L114.919 46.8497C114.772 46.7583 114.617 46.6557 114.462 46.5836C113.286 46.0391 112.572 46.0293 111.289 46.0293C110.813 46.0293 110.184 46.1823 109.841 46.3188C107.701 47.1698 107.299 48.35 106.874 48.6347L106.874 48.6348Z" fill="#171637"/>
<path fill-rule="evenodd" clip-rule="evenodd" d="M45.756 59.6604C45.8569 59.615 45.995 59.4065 46.0765 59.3057L47.0177 58.1481C47.2315 57.8801 47.4255 57.6272 47.6325 57.3515C48.5334 56.1505 49.1324 55.2954 49.9536 54.0637C50.0466 53.9243 50.1291 53.8004 50.2289 53.6514C50.2901 53.5598 50.3088 53.5215 50.3672 53.4278C50.4267 53.3326 50.4696 53.3008 50.4931 53.1952C50.5451 52.852 50.6456 52.4891 50.7098 52.1408C51.1734 49.6298 51.3523 46.8203 50.47 44.4293C49.9928 43.1359 49.2487 42.1369 48.344 41.524C47.7706 41.1356 47.1716 40.8818 46.5347 41.3808C46.1055 41.717 45.7563 42.2104 45.4358 42.7802C44.7737 43.9577 44.6897 44.4843 44.2513 45.3943C43.7972 46.3367 42.3794 48.2573 41.7702 49.1369C41.0746 50.1411 40.3829 51.0715 39.6919 52.0503C38.9996 53.031 38.338 53.9997 37.6595 54.977C37.5931 55.0294 37.645 54.9824 37.5882 55.0465C37.0426 55.6614 34.1438 60.4617 33.8812 60.9316C33.1467 62.246 31.8067 64.5596 31.7922 66.1128C31.7818 67.2325 32.1116 67.4469 32.3462 67.9954C34.3503 67.9954 36.7925 67.0263 38.517 66.0396C38.7937 65.8813 39.0737 65.7076 39.3438 65.5275C39.6236 65.341 39.8939 65.1746 40.1626 64.9713C40.2998 64.8675 40.4086 64.7966 40.54 64.6973C40.6792 64.5923 40.7847 64.5044 40.9273 64.3971C41.3301 64.0942 42.3761 63.2162 42.7616 62.8298L44.1372 61.4914C44.2646 61.3646 44.3287 61.2612 44.4622 61.1289C44.5919 61.0005 44.6792 60.9224 44.7942 60.7734C44.9396 60.585 45.6293 59.8911 45.756 59.6603V59.6604Z" fill="url(#paint2_radial_248_554)"/>
<path fill-rule="evenodd" clip-rule="evenodd" d="M161.696 31.0483C161.696 31.1317 161.721 31.1569 161.805 31.1569H166.509C166.592 31.1569 166.618 31.1317 166.618 31.0483V2.38864C166.618 2.30523 166.592 2.28003 166.509 2.28003H161.696V31.0483H161.696Z" fill="#171637"/>
<path fill-rule="evenodd" clip-rule="evenodd" d="M152.18 54.6417C152.18 56.0158 152.477 57.1115 152.888 58.095C153.638 59.8909 154.925 61.2228 156.606 62.157L157.308 62.5048C158.806 63.1519 159.769 63.1817 161.371 63.1817C163.301 63.1817 164.888 62.4838 166.34 61.3115C166.623 61.0831 167.344 60.4447 167.523 60.1783L164.809 57.3919L164.276 57.8355C163.57 58.4659 162.392 59.1289 161.335 59.1289C160.335 59.1289 160.004 59.1483 159.091 58.6946C158.211 58.2566 157.567 57.5034 157.204 56.6015C156.724 55.4075 156.712 53.8399 157.194 52.6356C157.391 52.1429 157.792 51.5091 158.142 51.1594C158.686 50.6157 159.681 50.0823 160.503 50.0823C161.624 50.0823 162.201 50.0829 163.174 50.7044C163.499 50.9121 163.978 51.2959 164.257 51.575C164.365 51.6836 164.444 51.8402 164.628 51.8554C164.673 51.6876 164.846 51.5834 164.963 51.467L166.717 49.5661C166.945 49.3399 167.27 48.9366 167.451 48.8157C167.32 48.6211 167.11 48.402 166.923 48.2577C166.805 48.1662 166.753 48.0861 166.644 47.994C166.532 47.8996 166.433 47.8308 166.32 47.7384C164.993 46.6477 163.161 46.0293 161.407 46.0293C159.971 46.0293 159.129 46.0346 157.748 46.5313L156.674 47.0133C156.112 47.3563 155.986 47.3905 155.4 47.838C155.336 47.887 155.326 47.901 155.264 47.9551C155.193 48.017 155.172 48.0213 155.102 48.0831C155.006 48.1676 154.946 48.2524 154.847 48.3345C154.493 48.6277 153.876 49.3839 153.634 49.7634C152.739 51.1652 152.18 52.7656 152.18 54.6416L152.18 54.6417Z" fill="#171637"/>
<path fill-rule="evenodd" clip-rule="evenodd" d="M122.146 46.3189H120.155V50.3357H122.146V58.5861C122.146 59.2161 122.279 60.0179 122.46 60.479C122.614 60.8706 122.776 61.2246 123.014 61.5537C123.412 62.104 123.93 62.496 124.59 62.7635C125.79 63.2495 127.964 63.2181 129.188 62.8063C129.881 62.5733 130.033 62.4947 130.649 62.1685V58.4051C130.533 58.4322 130.325 58.5362 130.214 58.5851C129.402 58.9438 128.941 58.9478 128.08 58.9478C127.691 58.9478 127.38 58.7519 127.184 58.5415C126.994 58.3372 126.85 57.9563 126.85 57.5728V50.3355H130.722V46.3187H126.85V42.1211H122.145L122.146 46.3189Z" fill="#171637"/>
<path fill-rule="evenodd" clip-rule="evenodd" d="M45.5382 25.6833C45.884 25.9827 49.1455 27.0485 49.8108 27.2458C52.5432 28.056 56.1982 28.3736 58.3459 30.4707C58.853 30.9658 59.2263 31.6125 59.4231 32.3254C59.6412 33.1159 59.7102 34.1352 59.7105 34.9916L60.5966 32.6802C61.3657 30.3501 61.8776 28.9386 62.2315 26.3541C62.3417 25.549 62.3565 24.2439 62.0402 23.4473C61.8904 23.0702 61.6784 22.7588 61.3679 22.5274C61.0012 22.254 60.79 22.1208 60.3432 21.9598C59.9575 21.8207 59.5309 21.7186 59.0393 21.6716C57.7036 21.5436 57.1875 21.6453 55.9596 21.6382C55.6696 21.6366 55.5088 21.6809 55.1988 21.6763L54.4454 21.6335C53.4575 21.5275 53.4028 21.3651 53.1375 21.3169C52.4775 21.1972 51.6025 20.8492 51.0259 20.6045C50.6831 20.4591 50.3809 20.3215 50.0503 20.169C49.7541 20.0324 49.4078 19.8279 49.1177 19.7213C48.9501 19.5829 48.3743 19.3071 48.1388 19.1836C46.8749 18.5204 42.1005 15.7221 41.3066 15.408C41.2242 15.3179 41.0304 15.2462 40.9096 15.1886C40.7628 15.1187 40.6369 15.0534 40.4989 14.9839C38.5514 14.0049 36.5844 13.1958 34.4338 12.658C32.0094 12.0515 30.3288 12.0368 27.8958 12.2874C27.1868 12.3604 26.4589 12.497 25.7744 12.5566C24.9624 12.619 22.9378 13.1314 22.1239 13.3844C19.9504 14.0602 17.9151 15.0583 16.3203 16.5575C15.6805 17.1589 14.8873 18.1309 14.4145 19.1374C13.4061 21.2849 13.1333 24.3159 14.4401 26.3568C14.7426 26.8294 15.0676 27.2105 15.4285 27.6128L17.1875 29.2188C17.3942 29.3936 17.5946 29.5565 17.8123 29.7154L19.1187 30.6853L20.1457 31.0367C20.4978 31.177 20.7695 31.3088 21.0743 31.4832C21.6513 31.8133 21.7819 31.9564 22.2254 32.3948C22.5142 32.6803 22.8909 33.2976 23.0455 33.6734C23.1148 33.8418 23.1864 33.9789 23.2579 34.1486C23.3324 34.3256 23.3887 34.4914 23.4509 34.6794C24.1064 36.6623 24.589 39.6742 24.7661 41.7233C24.8386 42.5617 24.9527 43.4219 25.0176 44.2579L25.2375 46.8066C25.8828 46.2594 26.6523 45.3121 27.1638 44.589C29.1077 41.8413 30.0883 38.2314 28.9492 34.863C28.2425 32.7736 27.0846 31.137 26.0468 29.4409C25.3119 28.2399 24.3258 26.7564 23.8956 25.3668C23.6626 24.6142 23.7141 24.285 23.7141 23.5203L23.7504 23.4841V23.3394L23.7866 23.3032V23.1946L23.8228 23.1584V23.0859L23.859 23.0136V22.9773L23.8953 22.905V22.8688L23.9312 22.8325V22.7963L23.9674 22.724V22.6877L24.0037 22.6515V22.6153L24.0399 22.5791V22.5428L24.0761 22.5066C24.4633 21.5743 25.7027 20.5828 26.5569 20.0258C29.6239 18.0261 33.1839 19.0006 36.2184 20.535C36.4843 20.6694 36.7688 20.8088 37.0245 20.9613C37.2468 21.094 37.6393 21.3422 37.8598 21.4248C37.9465 21.5261 41.3552 23.5705 41.5427 23.6795C42.1516 24.0333 44.8432 25.4787 45.5382 25.6828V25.6833Z" fill="url(#paint3_radial_248_554)"/>
<path fill-rule="evenodd" clip-rule="evenodd" d="M93.0867 62.8194H97.7909V46.3184H93.0867V62.8194Z" fill="#171637"/>
<path fill-rule="evenodd" clip-rule="evenodd" d="M92.9785 44.5101H97.9361V40.3486H92.9785V44.5101Z" fill="#171637"/>
<defs>
<linearGradient id="paint0_linear_248_554" x1="6.19061" y1="17.9278" x2="53.1375" y2="17.9278" gradientUnits="userSpaceOnUse">
<stop stop-color="#C62B40"/>
<stop offset="1" stop-color="#D73738"/>
</linearGradient>
<radialGradient id="paint1_radial_248_554" cx="0" cy="0" r="1" gradientUnits="userSpaceOnUse" gradientTransform="translate(25.2575 9.56309) scale(23.3843 14.4928)">
<stop stop-color="#FFCC4C"/>
<stop offset="1" stop-color="#F49117"/>
</radialGradient>
<radialGradient id="paint2_radial_248_554" cx="0" cy="0" r="1" gradientUnits="userSpaceOnUse" gradientTransform="translate(41.4438 54.5497) scale(9.65146 13.4459)">
<stop stop-color="#F9BB09"/>
<stop offset="1" stop-color="#F8AA0E"/>
</radialGradient>
<radialGradient id="paint3_radial_248_554" cx="0" cy="0" r="1" gradientUnits="userSpaceOnUse" gradientTransform="translate(40.3672 28.7778) rotate(41.6716) scale(20.3697 20.7432)">
<stop stop-color="#FFD56B"/>
<stop offset="1" stop-color="#FF8C08"/>
</radialGradient>
</defs>
</svg>
