<svg width="188" height="23" viewBox="0 0 188 23" fill="none" xmlns="http://www.w3.org/2000/svg">
<path d="M8.696 18.48C7.704 18.48 6.768 18.336 5.888 18.048C5.024 17.76 4.24 17.352 3.536 16.824C2.832 16.28 2.224 15.64 1.712 14.904C1.2 14.168 0.8 13.352 0.512 12.456C0.24 11.544 0.104 10.568 0.104 9.528C0.104 8.488 0.24 7.512 0.512 6.6C0.8 5.688 1.2 4.856 1.712 4.104C2.24 3.352 2.856 2.712 3.56 2.184C4.28 1.64 5.072 1.224 5.936 0.935999C6.816 0.631999 7.752 0.48 8.744 0.48C9.816 0.48 10.816 0.656 11.744 1.008C12.688 1.36 13.52 1.864 14.24 2.52C14.96 3.176 15.528 3.952 15.944 4.848L13.16 5.784C12.696 4.952 12.08 4.312 11.312 3.864C10.56 3.4 9.704 3.168 8.744 3.168C7.944 3.168 7.2 3.328 6.512 3.648C5.84 3.968 5.248 4.416 4.736 4.992C4.224 5.552 3.824 6.216 3.536 6.984C3.264 7.752 3.128 8.584 3.128 9.48C3.128 10.392 3.264 11.24 3.536 12.024C3.824 12.792 4.224 13.456 4.736 14.016C5.248 14.576 5.848 15.016 6.536 15.336C7.24 15.64 8 15.792 8.816 15.792C9.76 15.792 10.592 15.608 11.312 15.24C12.048 14.856 12.632 14.328 13.064 13.656C13.496 12.984 13.744 12.2 13.808 11.304H9.152V8.856H16.808V10.464C16.808 11.648 16.608 12.728 16.208 13.704C15.824 14.68 15.264 15.528 14.528 16.248C13.808 16.952 12.952 17.504 11.96 17.904C10.984 18.288 9.896 18.48 8.696 18.48ZM25.2809 18.36C24.3529 18.36 23.4969 18.2 22.7129 17.88C21.9449 17.544 21.2729 17.08 20.6969 16.488C20.1209 15.896 19.6729 15.2 19.3529 14.4C19.0489 13.584 18.8969 12.688 18.8969 11.712C18.8969 10.768 19.0489 9.896 19.3529 9.096C19.6729 8.296 20.1049 7.6 20.6489 7.008C21.2089 6.4 21.8649 5.928 22.6169 5.592C23.3689 5.256 24.1849 5.088 25.0649 5.088C25.9449 5.088 26.7449 5.248 27.4649 5.568C28.2009 5.872 28.8329 6.312 29.3609 6.888C29.9049 7.464 30.3209 8.152 30.6089 8.952C30.8969 9.736 31.0409 10.608 31.0409 11.568V12.384H21.7529C21.8329 13.12 22.0249 13.76 22.3289 14.304C22.6489 14.832 23.0569 15.24 23.5529 15.528C24.0489 15.816 24.6249 15.96 25.2809 15.96C26.5929 15.96 27.6169 15.376 28.3529 14.208L30.7769 15.144C30.4889 15.8 30.0649 16.376 29.5049 16.872C28.9609 17.352 28.3209 17.72 27.5849 17.976C26.8649 18.232 26.0969 18.36 25.2809 18.36ZM25.0649 7.32C24.5049 7.32 24.0009 7.448 23.5529 7.704C23.1209 7.96 22.7529 8.32 22.4489 8.784C22.1449 9.248 21.9369 9.792 21.8249 10.416H28.1609C28.0649 9.792 27.8809 9.248 27.6089 8.784C27.3369 8.32 26.9769 7.96 26.5289 7.704C26.0969 7.448 25.6089 7.32 25.0649 7.32ZM33.3943 18V5.448H35.9143L36.0103 7.176C36.3783 6.536 36.8903 6.032 37.5463 5.664C38.2183 5.28 38.9863 5.088 39.8503 5.088C40.7943 5.088 41.6103 5.312 42.2983 5.76C43.0023 6.208 43.5463 6.84 43.9303 7.656C44.3143 8.472 44.5063 9.432 44.5063 10.536V18H41.7463V10.848C41.7463 9.824 41.5143 9.024 41.0503 8.448C40.6023 7.872 39.9703 7.584 39.1543 7.584C38.5783 7.584 38.0583 7.72 37.5943 7.992C37.1463 8.264 36.7943 8.632 36.5383 9.096C36.2823 9.56 36.1543 10.096 36.1543 10.704V18H33.3943ZM53.3122 18.36C52.3842 18.36 51.5282 18.2 50.7442 17.88C49.9762 17.544 49.3042 17.08 48.7282 16.488C48.1522 15.896 47.7042 15.2 47.3842 14.4C47.0802 13.584 46.9282 12.688 46.9282 11.712C46.9282 10.768 47.0802 9.896 47.3842 9.096C47.7042 8.296 48.1362 7.6 48.6802 7.008C49.2402 6.4 49.8962 5.928 50.6482 5.592C51.4002 5.256 52.2162 5.088 53.0962 5.088C53.9762 5.088 54.7762 5.248 55.4962 5.568C56.2322 5.872 56.8642 6.312 57.3922 6.888C57.9362 7.464 58.3522 8.152 58.6402 8.952C58.9282 9.736 59.0722 10.608 59.0722 11.568V12.384H49.7842C49.8642 13.12 50.0562 13.76 50.3602 14.304C50.6802 14.832 51.0882 15.24 51.5842 15.528C52.0802 15.816 52.6562 15.96 53.3122 15.96C54.6242 15.96 55.6482 15.376 56.3842 14.208L58.8082 15.144C58.5202 15.8 58.0962 16.376 57.5362 16.872C56.9922 17.352 56.3522 17.72 55.6162 17.976C54.8962 18.232 54.1282 18.36 53.3122 18.36ZM53.0962 7.32C52.5362 7.32 52.0322 7.448 51.5842 7.704C51.1522 7.96 50.7842 8.32 50.4802 8.784C50.1762 9.248 49.9682 9.792 49.8562 10.416H56.1922C56.0962 9.792 55.9122 9.248 55.6402 8.784C55.3682 8.32 55.0082 7.96 54.5602 7.704C54.1282 7.448 53.6402 7.32 53.0962 7.32ZM61.4255 18V5.448H63.9455L64.0655 7.512C64.3855 6.808 64.8255 6.264 65.3855 5.88C65.9615 5.48 66.6335 5.28 67.4015 5.28C67.6415 5.28 67.8735 5.296 68.0975 5.328C68.3215 5.36 68.5215 5.416 68.6975 5.496L68.3855 8.184C68.2095 8.12 68.0255 8.08 67.8335 8.064C67.6415 8.032 67.4495 8.016 67.2575 8.016C66.2975 8.016 65.5455 8.336 65.0015 8.976C64.4575 9.616 64.1855 10.504 64.1855 11.64V18H61.4255ZM74.2655 18.36C73.6255 18.36 73.0335 18.264 72.4895 18.072C71.9615 17.88 71.4975 17.608 71.0975 17.256C70.6975 16.904 70.3855 16.488 70.1615 16.008C69.9375 15.528 69.8255 15 69.8255 14.424C69.8255 13.624 70.0335 12.928 70.4495 12.336C70.8815 11.728 71.4815 11.256 72.2495 10.92C73.0175 10.584 73.9135 10.416 74.9375 10.416C75.4975 10.416 76.0335 10.472 76.5455 10.584C77.0575 10.68 77.5455 10.824 78.0095 11.016V10.224C78.0095 9.664 77.9055 9.176 77.6975 8.76C77.4895 8.328 77.1935 7.992 76.8095 7.752C76.4255 7.512 75.9615 7.392 75.4175 7.392C74.8415 7.392 74.3215 7.544 73.8575 7.848C73.3935 8.152 73.0495 8.576 72.8255 9.12L70.2815 8.544C70.4735 7.84 70.8175 7.232 71.3135 6.72C71.8255 6.208 72.4335 5.808 73.1375 5.52C73.8575 5.232 74.6335 5.088 75.4655 5.088C76.2495 5.088 76.9615 5.216 77.6015 5.472C78.2575 5.728 78.8175 6.088 79.2815 6.552C79.7455 7.016 80.1055 7.568 80.3615 8.208C80.6175 8.848 80.7455 9.56 80.7455 10.344V18H78.2255L78.1295 16.344C77.7935 16.952 77.2895 17.44 76.6175 17.808C75.9455 18.176 75.1615 18.36 74.2655 18.36ZM72.6095 14.304C72.6095 14.656 72.7055 14.976 72.8975 15.264C73.0895 15.536 73.3535 15.752 73.6895 15.912C74.0415 16.072 74.4495 16.152 74.9135 16.152C75.5055 16.152 76.0335 16.024 76.4975 15.768C76.9615 15.512 77.3295 15.168 77.6015 14.736C77.8735 14.288 78.0095 13.784 78.0095 13.224V12.936C77.5935 12.76 77.1615 12.624 76.7135 12.528C76.2815 12.416 75.8335 12.36 75.3695 12.36C74.5375 12.36 73.8655 12.536 73.3535 12.888C72.8575 13.24 72.6095 13.712 72.6095 14.304ZM83.7146 18V0.144H86.4746V18H83.7146ZM97.6141 1.944C97.6141 2.248 97.5341 2.528 97.3741 2.784C97.2301 3.04 97.0301 3.248 96.7741 3.408C96.5181 3.552 96.2381 3.624 95.9341 3.624C95.6301 3.624 95.3501 3.552 95.0941 3.408C94.8381 3.248 94.6301 3.04 94.4701 2.784C94.3261 2.528 94.2541 2.248 94.2541 1.944C94.2541 1.64 94.3261 1.36 94.4701 1.104C94.6301 0.847999 94.8381 0.647999 95.0941 0.503999C95.3501 0.343999 95.6301 0.263999 95.9341 0.263999C96.2381 0.263999 96.5181 0.343999 96.7741 0.503999C97.0301 0.647999 97.2301 0.847999 97.3741 1.104C97.5341 1.36 97.6141 1.64 97.6141 1.944ZM94.5661 18V5.448H97.3261V18H94.5661ZM100.308 18V5.448H102.828L102.924 7.176C103.292 6.536 103.804 6.032 104.46 5.664C105.132 5.28 105.9 5.088 106.764 5.088C107.708 5.088 108.524 5.312 109.212 5.76C109.916 6.208 110.46 6.84 110.844 7.656C111.228 8.472 111.42 9.432 111.42 10.536V18H108.66V10.848C108.66 9.824 108.428 9.024 107.964 8.448C107.516 7.872 106.884 7.584 106.068 7.584C105.492 7.584 104.972 7.72 104.508 7.992C104.06 8.264 103.708 8.632 103.452 9.096C103.196 9.56 103.068 10.096 103.068 10.704V18H100.308ZM119.698 18.36C118.866 18.36 118.09 18.192 117.37 17.856C116.666 17.52 116.05 17.056 115.522 16.464C114.994 15.872 114.578 15.176 114.274 14.376C113.986 13.576 113.842 12.712 113.842 11.784C113.842 10.84 113.994 9.96 114.298 9.144C114.602 8.328 115.026 7.616 115.57 7.008C116.114 6.4 116.746 5.928 117.466 5.592C118.202 5.256 118.994 5.088 119.842 5.088C120.722 5.088 121.514 5.28 122.218 5.664C122.938 6.048 123.514 6.592 123.946 7.296L124.066 5.448H126.586V22.752H123.826V16.176C123.378 16.864 122.794 17.4 122.074 17.784C121.354 18.168 120.562 18.36 119.698 18.36ZM120.274 15.864C120.962 15.864 121.578 15.688 122.122 15.336C122.666 14.968 123.09 14.472 123.394 13.848C123.714 13.224 123.874 12.52 123.874 11.736C123.874 10.936 123.714 10.224 123.394 9.6C123.09 8.976 122.666 8.488 122.122 8.136C121.578 7.768 120.962 7.584 120.274 7.584C119.586 7.584 118.97 7.768 118.426 8.136C117.882 8.488 117.45 8.976 117.13 9.6C116.826 10.224 116.674 10.936 116.674 11.736C116.674 12.52 116.826 13.224 117.13 13.848C117.45 14.472 117.882 14.968 118.426 15.336C118.97 15.688 119.586 15.864 120.274 15.864ZM135.078 18.36C133.958 18.36 132.982 18.12 132.15 17.64C131.334 17.16 130.694 16.48 130.23 15.6C129.782 14.704 129.558 13.656 129.558 12.456V5.448H132.318V12.504C132.318 13.544 132.566 14.368 133.062 14.976C133.558 15.568 134.238 15.864 135.102 15.864C135.966 15.864 136.646 15.568 137.142 14.976C137.638 14.368 137.886 13.544 137.886 12.504V5.448H140.646V12.456C140.646 13.64 140.414 14.68 139.95 15.576C139.502 16.456 138.862 17.144 138.03 17.64C137.198 18.12 136.214 18.36 135.078 18.36ZM146.669 1.944C146.669 2.248 146.589 2.528 146.429 2.784C146.285 3.04 146.085 3.248 145.829 3.408C145.573 3.552 145.293 3.624 144.989 3.624C144.685 3.624 144.405 3.552 144.149 3.408C143.893 3.248 143.685 3.04 143.525 2.784C143.381 2.528 143.309 2.248 143.309 1.944C143.309 1.64 143.381 1.36 143.525 1.104C143.685 0.847999 143.893 0.647999 144.149 0.503999C144.405 0.343999 144.685 0.263999 144.989 0.263999C145.293 0.263999 145.573 0.343999 145.829 0.503999C146.085 0.647999 146.285 0.847999 146.429 1.104C146.589 1.36 146.669 1.64 146.669 1.944ZM143.621 18V5.448H146.381V18H143.621ZM149.363 18V5.448H151.883L152.003 7.512C152.323 6.808 152.763 6.264 153.323 5.88C153.899 5.48 154.571 5.28 155.339 5.28C155.579 5.28 155.811 5.296 156.035 5.328C156.259 5.36 156.459 5.416 156.635 5.496L156.323 8.184C156.147 8.12 155.963 8.08 155.771 8.064C155.579 8.032 155.387 8.016 155.195 8.016C154.235 8.016 153.483 8.336 152.939 8.976C152.395 9.616 152.123 10.504 152.123 11.64V18H149.363ZM161.716 1.944C161.716 2.248 161.636 2.528 161.476 2.784C161.332 3.04 161.132 3.248 160.876 3.408C160.62 3.552 160.34 3.624 160.036 3.624C159.732 3.624 159.452 3.552 159.196 3.408C158.94 3.248 158.732 3.04 158.572 2.784C158.428 2.528 158.356 2.248 158.356 1.944C158.356 1.64 158.428 1.36 158.572 1.104C158.732 0.847999 158.94 0.647999 159.196 0.503999C159.452 0.343999 159.732 0.263999 160.036 0.263999C160.34 0.263999 160.62 0.343999 160.876 0.503999C161.132 0.647999 161.332 0.847999 161.476 1.104C161.636 1.36 161.716 1.64 161.716 1.944ZM158.668 18V5.448H161.428V18H158.668ZM170.242 18.36C169.314 18.36 168.458 18.2 167.674 17.88C166.906 17.544 166.234 17.08 165.658 16.488C165.082 15.896 164.634 15.2 164.314 14.4C164.01 13.584 163.858 12.688 163.858 11.712C163.858 10.768 164.01 9.896 164.314 9.096C164.634 8.296 165.066 7.6 165.61 7.008C166.17 6.4 166.826 5.928 167.578 5.592C168.33 5.256 169.146 5.088 170.026 5.088C170.906 5.088 171.706 5.248 172.426 5.568C173.162 5.872 173.794 6.312 174.322 6.888C174.866 7.464 175.282 8.152 175.57 8.952C175.858 9.736 176.002 10.608 176.002 11.568V12.384H166.714C166.794 13.12 166.986 13.76 167.29 14.304C167.61 14.832 168.018 15.24 168.514 15.528C169.01 15.816 169.586 15.96 170.242 15.96C171.554 15.96 172.578 15.376 173.314 14.208L175.738 15.144C175.45 15.8 175.026 16.376 174.466 16.872C173.922 17.352 173.282 17.72 172.546 17.976C171.826 18.232 171.058 18.36 170.242 18.36ZM170.026 7.32C169.466 7.32 168.962 7.448 168.514 7.704C168.082 7.96 167.714 8.32 167.41 8.784C167.106 9.248 166.898 9.792 166.786 10.416H173.122C173.026 9.792 172.842 9.248 172.57 8.784C172.298 8.32 171.938 7.96 171.49 7.704C171.058 7.448 170.57 7.32 170.026 7.32ZM182.745 18.36C181.929 18.36 181.169 18.224 180.465 17.952C179.777 17.68 179.185 17.296 178.689 16.8C178.209 16.288 177.865 15.688 177.657 15L180.153 14.352C180.361 14.896 180.697 15.32 181.161 15.624C181.625 15.928 182.161 16.08 182.769 16.08C183.393 16.08 183.905 15.936 184.305 15.648C184.705 15.344 184.905 14.96 184.905 14.496C184.905 14.096 184.745 13.76 184.425 13.488C184.105 13.216 183.585 13.016 182.865 12.888L182.073 12.744C180.729 12.504 179.713 12.072 179.025 11.448C178.353 10.824 178.017 10.024 178.017 9.048C178.017 8.264 178.217 7.576 178.617 6.984C179.017 6.392 179.569 5.928 180.273 5.592C180.977 5.256 181.785 5.088 182.697 5.088C183.481 5.088 184.201 5.224 184.857 5.496C185.513 5.768 186.065 6.152 186.513 6.648C186.961 7.144 187.281 7.728 187.473 8.4L185.001 9C184.809 8.488 184.505 8.088 184.089 7.8C183.689 7.496 183.217 7.344 182.673 7.344C182.113 7.344 181.649 7.488 181.281 7.776C180.913 8.048 180.729 8.4 180.729 8.832C180.729 9.2 180.889 9.504 181.209 9.744C181.545 9.984 182.105 10.176 182.889 10.32L183.681 10.464C184.961 10.688 185.945 11.128 186.633 11.784C187.321 12.44 187.665 13.256 187.665 14.232C187.665 14.824 187.545 15.376 187.305 15.888C187.065 16.384 186.721 16.824 186.273 17.208C185.841 17.576 185.321 17.856 184.713 18.048C184.121 18.256 183.465 18.36 182.745 18.36Z" fill="#202D3F"/>
</svg>
