<svg width="146" height="23" viewBox="0 0 146 23" fill="none" xmlns="http://www.w3.org/2000/svg">
<path d="M0.68 18V0.959999H3.608V7.872H11.936V0.959999H14.864V18H11.936V10.488H3.608V18H0.68ZM23.8747 18.36C22.9467 18.36 22.0907 18.2 21.3067 17.88C20.5387 17.544 19.8667 17.08 19.2907 16.488C18.7147 15.896 18.2667 15.2 17.9467 14.4C17.6427 13.584 17.4907 12.688 17.4907 11.712C17.4907 10.768 17.6427 9.896 17.9467 9.096C18.2667 8.296 18.6987 7.6 19.2427 7.008C19.8027 6.4 20.4587 5.928 21.2107 5.592C21.9627 5.256 22.7787 5.088 23.6587 5.088C24.5387 5.088 25.3387 5.248 26.0587 5.568C26.7947 5.872 27.4267 6.312 27.9547 6.888C28.4987 7.464 28.9147 8.152 29.2027 8.952C29.4907 9.736 29.6347 10.608 29.6347 11.568V12.384H20.3467C20.4267 13.12 20.6187 13.76 20.9227 14.304C21.2427 14.832 21.6507 15.24 22.1467 15.528C22.6427 15.816 23.2187 15.96 23.8747 15.96C25.1867 15.96 26.2107 15.376 26.9467 14.208L29.3707 15.144C29.0827 15.8 28.6587 16.376 28.0987 16.872C27.5547 17.352 26.9147 17.72 26.1787 17.976C25.4587 18.232 24.6907 18.36 23.8747 18.36ZM23.6587 7.32C23.0987 7.32 22.5947 7.448 22.1467 7.704C21.7147 7.96 21.3467 8.32 21.0427 8.784C20.7387 9.248 20.5307 9.792 20.4187 10.416H26.7547C26.6587 9.792 26.4747 9.248 26.2027 8.784C25.9307 8.32 25.5707 7.96 25.1227 7.704C24.6907 7.448 24.2027 7.32 23.6587 7.32ZM35.828 18.36C35.188 18.36 34.596 18.264 34.052 18.072C33.524 17.88 33.06 17.608 32.66 17.256C32.26 16.904 31.948 16.488 31.724 16.008C31.5 15.528 31.388 15 31.388 14.424C31.388 13.624 31.596 12.928 32.012 12.336C32.444 11.728 33.044 11.256 33.812 10.92C34.58 10.584 35.476 10.416 36.5 10.416C37.06 10.416 37.596 10.472 38.108 10.584C38.62 10.68 39.108 10.824 39.572 11.016V10.224C39.572 9.664 39.468 9.176 39.26 8.76C39.052 8.328 38.756 7.992 38.372 7.752C37.988 7.512 37.524 7.392 36.98 7.392C36.404 7.392 35.884 7.544 35.42 7.848C34.956 8.152 34.612 8.576 34.388 9.12L31.844 8.544C32.036 7.84 32.38 7.232 32.876 6.72C33.388 6.208 33.996 5.808 34.7 5.52C35.42 5.232 36.196 5.088 37.028 5.088C37.812 5.088 38.524 5.216 39.164 5.472C39.82 5.728 40.38 6.088 40.844 6.552C41.308 7.016 41.668 7.568 41.924 8.208C42.18 8.848 42.308 9.56 42.308 10.344V18H39.788L39.692 16.344C39.356 16.952 38.852 17.44 38.18 17.808C37.508 18.176 36.724 18.36 35.828 18.36ZM34.172 14.304C34.172 14.656 34.268 14.976 34.46 15.264C34.652 15.536 34.916 15.752 35.252 15.912C35.604 16.072 36.012 16.152 36.476 16.152C37.068 16.152 37.596 16.024 38.06 15.768C38.524 15.512 38.892 15.168 39.164 14.736C39.436 14.288 39.572 13.784 39.572 13.224V12.936C39.156 12.76 38.724 12.624 38.276 12.528C37.844 12.416 37.396 12.36 36.932 12.36C36.1 12.36 35.428 12.536 34.916 12.888C34.42 13.24 34.172 13.712 34.172 14.304ZM50.5811 18.36C49.7491 18.36 48.9731 18.192 48.2531 17.856C47.5491 17.52 46.9331 17.056 46.4051 16.464C45.8771 15.872 45.4611 15.176 45.1571 14.376C44.8691 13.576 44.7251 12.712 44.7251 11.784C44.7251 10.84 44.8771 9.96 45.1811 9.144C45.4851 8.328 45.9091 7.616 46.4531 7.008C46.9971 6.4 47.6291 5.928 48.3491 5.592C49.0851 5.256 49.8771 5.088 50.7251 5.088C51.5571 5.088 52.3171 5.264 53.0051 5.616C53.6931 5.968 54.2611 6.464 54.7091 7.104V0.144H57.4691V18H54.9491L54.8291 15.984C54.3811 16.72 53.7891 17.304 53.0531 17.736C52.3171 18.152 51.4931 18.36 50.5811 18.36ZM51.1571 15.864C51.8451 15.864 52.4611 15.688 53.0051 15.336C53.5491 14.968 53.9731 14.472 54.2771 13.848C54.5971 13.224 54.7571 12.52 54.7571 11.736C54.7571 10.936 54.5971 10.224 54.2771 9.6C53.9731 8.976 53.5491 8.488 53.0051 8.136C52.4611 7.768 51.8451 7.584 51.1571 7.584C50.4691 7.584 49.8531 7.768 49.3091 8.136C48.7651 8.488 48.3331 8.976 48.0131 9.6C47.7091 10.224 47.5571 10.936 47.5571 11.736C47.5571 12.52 47.7091 13.224 48.0131 13.848C48.3331 14.472 48.7651 14.968 49.3091 15.336C49.8531 15.688 50.4691 15.864 51.1571 15.864ZM65.7451 18.36C64.9131 18.36 64.1371 18.192 63.4171 17.856C62.7131 17.52 62.0971 17.056 61.5691 16.464C61.0411 15.872 60.6251 15.176 60.3211 14.376C60.0331 13.576 59.8891 12.712 59.8891 11.784C59.8891 10.84 60.0411 9.96 60.3451 9.144C60.6491 8.328 61.0731 7.616 61.6171 7.008C62.1611 6.4 62.7931 5.928 63.5131 5.592C64.2491 5.256 65.0411 5.088 65.8891 5.088C66.7691 5.088 67.5611 5.28 68.2651 5.664C68.9851 6.048 69.5611 6.592 69.9931 7.296L70.1131 5.448H72.6331V22.752H69.8731V16.176C69.4251 16.864 68.8411 17.4 68.1211 17.784C67.4011 18.168 66.6091 18.36 65.7451 18.36ZM66.3211 15.864C67.0091 15.864 67.6251 15.688 68.1691 15.336C68.7131 14.968 69.1371 14.472 69.4411 13.848C69.7611 13.224 69.9211 12.52 69.9211 11.736C69.9211 10.936 69.7611 10.224 69.4411 9.6C69.1371 8.976 68.7131 8.488 68.1691 8.136C67.6251 7.768 67.0091 7.584 66.3211 7.584C65.6331 7.584 65.0171 7.768 64.4731 8.136C63.9291 8.488 63.4971 8.976 63.1771 9.6C62.8731 10.224 62.7211 10.936 62.7211 11.736C62.7211 12.52 62.8731 13.224 63.1771 13.848C63.4971 14.472 63.9291 14.968 64.4731 15.336C65.0171 15.688 65.6331 15.864 66.3211 15.864ZM81.1252 18.36C80.0052 18.36 79.0292 18.12 78.1972 17.64C77.3812 17.16 76.7412 16.48 76.2772 15.6C75.8292 14.704 75.6052 13.656 75.6052 12.456V5.448H78.3652V12.504C78.3652 13.544 78.6132 14.368 79.1092 14.976C79.6052 15.568 80.2852 15.864 81.1492 15.864C82.0132 15.864 82.6932 15.568 83.1892 14.976C83.6852 14.368 83.9332 13.544 83.9332 12.504V5.448H86.6932V12.456C86.6932 13.64 86.4612 14.68 85.9972 15.576C85.5492 16.456 84.9092 17.144 84.0772 17.64C83.2452 18.12 82.2612 18.36 81.1252 18.36ZM93.5077 18.36C92.8677 18.36 92.2757 18.264 91.7317 18.072C91.2037 17.88 90.7397 17.608 90.3397 17.256C89.9397 16.904 89.6277 16.488 89.4037 16.008C89.1797 15.528 89.0677 15 89.0677 14.424C89.0677 13.624 89.2757 12.928 89.6917 12.336C90.1237 11.728 90.7237 11.256 91.4917 10.92C92.2597 10.584 93.1557 10.416 94.1797 10.416C94.7397 10.416 95.2757 10.472 95.7877 10.584C96.2997 10.68 96.7877 10.824 97.2517 11.016V10.224C97.2517 9.664 97.1477 9.176 96.9397 8.76C96.7317 8.328 96.4357 7.992 96.0517 7.752C95.6677 7.512 95.2037 7.392 94.6597 7.392C94.0837 7.392 93.5637 7.544 93.0997 7.848C92.6357 8.152 92.2917 8.576 92.0677 9.12L89.5237 8.544C89.7157 7.84 90.0597 7.232 90.5557 6.72C91.0677 6.208 91.6757 5.808 92.3797 5.52C93.0997 5.232 93.8757 5.088 94.7077 5.088C95.4917 5.088 96.2037 5.216 96.8437 5.472C97.4997 5.728 98.0597 6.088 98.5237 6.552C98.9877 7.016 99.3477 7.568 99.6037 8.208C99.8597 8.848 99.9877 9.56 99.9877 10.344V18H97.4677L97.3717 16.344C97.0357 16.952 96.5317 17.44 95.8597 17.808C95.1877 18.176 94.4037 18.36 93.5077 18.36ZM91.8517 14.304C91.8517 14.656 91.9477 14.976 92.1397 15.264C92.3317 15.536 92.5957 15.752 92.9317 15.912C93.2837 16.072 93.6917 16.152 94.1557 16.152C94.7477 16.152 95.2757 16.024 95.7397 15.768C96.2037 15.512 96.5717 15.168 96.8437 14.736C97.1157 14.288 97.2517 13.784 97.2517 13.224V12.936C96.8357 12.76 96.4037 12.624 95.9557 12.528C95.5237 12.416 95.0757 12.36 94.6117 12.36C93.7797 12.36 93.1077 12.536 92.5957 12.888C92.0997 13.24 91.8517 13.712 91.8517 14.304ZM107.742 18.36C106.478 18.36 105.486 18 104.766 17.28C104.046 16.544 103.686 15.496 103.686 14.136V7.68H101.478V5.448H103.686V1.2H106.446V5.448H110.094V7.68H106.446V13.848C106.446 14.52 106.582 15.04 106.854 15.408C107.142 15.76 107.558 15.936 108.102 15.936C108.39 15.936 108.702 15.896 109.038 15.816C109.374 15.72 109.686 15.592 109.974 15.432L110.598 17.52C110.23 17.776 109.798 17.976 109.302 18.12C108.822 18.28 108.302 18.36 107.742 18.36ZM118.375 18.36C117.447 18.36 116.591 18.2 115.807 17.88C115.039 17.544 114.367 17.08 113.791 16.488C113.215 15.896 112.767 15.2 112.447 14.4C112.143 13.584 111.991 12.688 111.991 11.712C111.991 10.768 112.143 9.896 112.447 9.096C112.767 8.296 113.199 7.6 113.743 7.008C114.303 6.4 114.959 5.928 115.711 5.592C116.463 5.256 117.279 5.088 118.159 5.088C119.039 5.088 119.839 5.248 120.559 5.568C121.295 5.872 121.927 6.312 122.455 6.888C122.999 7.464 123.415 8.152 123.703 8.952C123.991 9.736 124.135 10.608 124.135 11.568V12.384H114.847C114.927 13.12 115.119 13.76 115.423 14.304C115.743 14.832 116.151 15.24 116.647 15.528C117.143 15.816 117.719 15.96 118.375 15.96C119.687 15.96 120.711 15.376 121.447 14.208L123.871 15.144C123.583 15.8 123.159 16.376 122.599 16.872C122.055 17.352 121.415 17.72 120.679 17.976C119.959 18.232 119.191 18.36 118.375 18.36ZM118.159 7.32C117.599 7.32 117.095 7.448 116.647 7.704C116.215 7.96 115.847 8.32 115.543 8.784C115.239 9.248 115.031 9.792 114.919 10.416H121.255C121.159 9.792 120.975 9.248 120.703 8.784C120.431 8.32 120.071 7.96 119.623 7.704C119.191 7.448 118.703 7.32 118.159 7.32ZM126.488 18V5.448H129.008L129.128 7.512C129.448 6.808 129.888 6.264 130.448 5.88C131.024 5.48 131.696 5.28 132.464 5.28C132.704 5.28 132.936 5.296 133.16 5.328C133.384 5.36 133.584 5.416 133.76 5.496L133.448 8.184C133.272 8.12 133.088 8.08 132.896 8.064C132.704 8.032 132.512 8.016 132.32 8.016C131.36 8.016 130.608 8.336 130.064 8.976C129.52 9.616 129.248 10.504 129.248 11.64V18H126.488ZM140.089 18.36C139.273 18.36 138.513 18.224 137.809 17.952C137.121 17.68 136.529 17.296 136.033 16.8C135.553 16.288 135.209 15.688 135.001 15L137.497 14.352C137.705 14.896 138.041 15.32 138.505 15.624C138.969 15.928 139.505 16.08 140.113 16.08C140.737 16.08 141.249 15.936 141.649 15.648C142.049 15.344 142.249 14.96 142.249 14.496C142.249 14.096 142.089 13.76 141.769 13.488C141.449 13.216 140.929 13.016 140.209 12.888L139.417 12.744C138.073 12.504 137.057 12.072 136.369 11.448C135.697 10.824 135.361 10.024 135.361 9.048C135.361 8.264 135.561 7.576 135.961 6.984C136.361 6.392 136.913 5.928 137.617 5.592C138.321 5.256 139.129 5.088 140.041 5.088C140.825 5.088 141.545 5.224 142.201 5.496C142.857 5.768 143.409 6.152 143.857 6.648C144.305 7.144 144.625 7.728 144.817 8.4L142.345 9C142.153 8.488 141.849 8.088 141.433 7.8C141.033 7.496 140.561 7.344 140.017 7.344C139.457 7.344 138.993 7.488 138.625 7.776C138.257 8.048 138.073 8.4 138.073 8.832C138.073 9.2 138.233 9.504 138.553 9.744C138.889 9.984 139.449 10.176 140.233 10.32L141.025 10.464C142.305 10.688 143.289 11.128 143.977 11.784C144.665 12.44 145.009 13.256 145.009 14.232C145.009 14.824 144.889 15.376 144.649 15.888C144.409 16.384 144.065 16.824 143.617 17.208C143.185 17.576 142.665 17.856 142.057 18.048C141.465 18.256 140.809 18.36 140.089 18.36Z" fill="#202D3F"/>
</svg>
