<svg width="191" height="64" viewBox="0 0 191 64" fill="none" xmlns="http://www.w3.org/2000/svg">
<path d="M0.936 14V12.776C1.752 12.104 2.514 11.45 3.222 10.814C3.942 10.166 4.572 9.566 5.112 9.014C5.676 8.438 6.12 7.934 6.444 7.502C6.78 7.07 7.02 6.674 7.164 6.314C7.308 5.942 7.38 5.564 7.38 5.18C7.38 4.676 7.278 4.238 7.074 3.866C6.87 3.482 6.588 3.188 6.228 2.984C5.88 2.768 5.466 2.66 4.986 2.66C4.338 2.66 3.78 2.858 3.312 3.254C2.844 3.65 2.508 4.202 2.304 4.91L0.936 4.568C1.092 3.908 1.368 3.338 1.764 2.858C2.16 2.366 2.634 1.988 3.186 1.724C3.75 1.448 4.362 1.31 5.022 1.31C5.574 1.31 6.084 1.406 6.552 1.598C7.02 1.778 7.428 2.036 7.776 2.372C8.124 2.708 8.394 3.104 8.586 3.56C8.79 4.016 8.892 4.508 8.892 5.036C8.892 5.804 8.664 6.584 8.208 7.376C7.764 8.156 7.056 9.02 6.084 9.968C5.856 10.184 5.58 10.436 5.256 10.724C4.944 11.012 4.602 11.318 4.23 11.642C3.87 11.966 3.498 12.29 3.114 12.614H9.108V14H0.936ZM15.5606 14.27C14.6246 14.27 13.8146 14.012 13.1306 13.496C12.4586 12.968 11.9366 12.218 11.5646 11.246C11.2046 10.274 11.0246 9.122 11.0246 7.79C11.0246 6.458 11.2106 5.306 11.5826 4.334C11.9546 3.362 12.4826 2.618 13.1666 2.102C13.8506 1.574 14.6606 1.31 15.5966 1.31C16.5326 1.31 17.3366 1.574 18.0086 2.102C18.6926 2.618 19.2146 3.362 19.5746 4.334C19.9466 5.306 20.1326 6.458 20.1326 7.79C20.1326 9.122 19.9466 10.274 19.5746 11.246C19.2026 12.218 18.6746 12.968 17.9906 13.496C17.3066 14.012 16.4966 14.27 15.5606 14.27ZM15.5786 12.92C16.2266 12.92 16.7726 12.722 17.2166 12.326C17.6726 11.918 18.0206 11.33 18.2606 10.562C18.5006 9.794 18.6206 8.87 18.6206 7.79C18.6206 6.698 18.5006 5.774 18.2606 5.018C18.0206 4.25 17.6726 3.668 17.2166 3.272C16.7726 2.864 16.2266 2.66 15.5786 2.66C14.9306 2.66 14.3786 2.864 13.9226 3.272C13.4786 3.668 13.1366 4.25 12.8966 5.018C12.6566 5.774 12.5366 6.698 12.5366 7.79C12.5366 8.87 12.6566 9.794 12.8966 10.562C13.1366 11.33 13.4786 11.918 13.9226 12.326C14.3786 12.722 14.9306 12.92 15.5786 12.92ZM26.3298 14V1.22H27.8418V12.614H33.5298V14H26.3298ZM38.3295 14.27C37.6815 14.27 37.1055 14.15 36.6015 13.91C36.0975 13.658 35.7015 13.316 35.4135 12.884C35.1375 12.452 34.9995 11.954 34.9995 11.39C34.9995 10.778 35.1555 10.25 35.4675 9.806C35.7915 9.362 36.2415 9.02 36.8175 8.78C37.3935 8.528 38.0655 8.402 38.8335 8.402C39.2655 8.402 39.7035 8.45 40.1475 8.546C40.5915 8.642 40.9875 8.768 41.3355 8.924V8.24C41.3355 7.736 41.2335 7.298 41.0295 6.926C40.8375 6.542 40.5675 6.248 40.2195 6.044C39.8715 5.828 39.4635 5.72 38.9955 5.72C38.4315 5.72 37.9395 5.852 37.5195 6.116C37.1115 6.38 36.8055 6.752 36.6015 7.232L35.3415 6.8C35.5095 6.32 35.7675 5.906 36.1155 5.558C36.4755 5.21 36.9015 4.94 37.3935 4.748C37.8975 4.556 38.4375 4.46 39.0135 4.46C39.7575 4.46 40.4055 4.622 40.9575 4.946C41.5215 5.258 41.9535 5.702 42.2535 6.278C42.5655 6.842 42.7215 7.508 42.7215 8.276V14H41.4615L41.3715 12.56C41.1075 13.076 40.7055 13.49 40.1655 13.802C39.6375 14.114 39.0255 14.27 38.3295 14.27ZM36.4575 11.336C36.4575 11.684 36.5475 11.99 36.7275 12.254C36.9075 12.506 37.1595 12.704 37.4835 12.848C37.8075 12.992 38.1795 13.064 38.5995 13.064C39.1155 13.064 39.5775 12.95 39.9855 12.722C40.4055 12.482 40.7355 12.164 40.9755 11.768C41.2155 11.36 41.3355 10.898 41.3355 10.382V10.04C40.9395 9.884 40.5375 9.764 40.1295 9.68C39.7335 9.584 39.3555 9.536 38.9955 9.536C38.2035 9.536 37.5795 9.698 37.1235 10.022C36.6795 10.346 36.4575 10.784 36.4575 11.336ZM45.6809 17.852C45.4289 17.852 45.1949 17.822 44.9789 17.762C44.7629 17.714 44.5409 17.63 44.3129 17.51L44.7269 16.358C44.8469 16.43 44.9789 16.484 45.1229 16.52C45.2789 16.556 45.4409 16.574 45.6089 16.574C45.9809 16.574 46.3049 16.454 46.5809 16.214C46.8689 15.986 47.1149 15.62 47.3189 15.116L47.8049 13.91L43.9529 4.712H45.5369L48.5069 12.344L51.1889 4.712H52.7189L48.5789 15.458C48.2669 16.274 47.8709 16.874 47.3909 17.258C46.9109 17.654 46.3409 17.852 45.6809 17.852ZM56.0208 1.994C56.0208 2.174 55.9728 2.342 55.8768 2.498C55.7928 2.642 55.6728 2.762 55.5168 2.858C55.3728 2.942 55.2108 2.984 55.0308 2.984C54.8508 2.984 54.6828 2.942 54.5268 2.858C54.3828 2.762 54.2628 2.642 54.1668 2.498C54.0828 2.342 54.0408 2.174 54.0408 1.994C54.0408 1.814 54.0828 1.652 54.1668 1.508C54.2628 1.352 54.3828 1.232 54.5268 1.148C54.6828 1.052 54.8508 1.004 55.0308 1.004C55.2108 1.004 55.3728 1.052 55.5168 1.148C55.6728 1.232 55.7928 1.352 55.8768 1.508C55.9728 1.652 56.0208 1.814 56.0208 1.994ZM54.3108 14V4.712H55.7508V14H54.3108ZM65.7674 14V8.852L61.2674 1.22H62.9954L66.5414 7.484L70.0874 1.22H71.7794L67.2794 8.852V14H65.7674ZM76.4072 14.27C75.6152 14.27 74.9312 14.096 74.3552 13.748C73.7792 13.4 73.3352 12.908 73.0232 12.272C72.7112 11.624 72.5552 10.856 72.5552 9.968V4.712H73.9952V9.986C73.9952 10.598 74.0912 11.126 74.2832 11.57C74.4872 12.014 74.7692 12.356 75.1292 12.596C75.5012 12.836 75.9392 12.956 76.4432 12.956C76.9472 12.956 77.3792 12.836 77.7392 12.596C78.1112 12.356 78.3932 12.014 78.5852 11.57C78.7892 11.126 78.8912 10.598 78.8912 9.986V4.712H80.3312V9.968C80.3312 10.832 80.1692 11.588 79.8452 12.236C79.5212 12.884 79.0652 13.388 78.4772 13.748C77.8892 14.096 77.1992 14.27 76.4072 14.27ZM85.7213 14.27C85.1813 14.27 84.6713 14.18 84.1913 14C83.7233 13.82 83.3153 13.562 82.9673 13.226C82.6193 12.89 82.3553 12.494 82.1753 12.038L83.4713 11.57C83.7113 12.026 84.0233 12.38 84.4073 12.632C84.7913 12.884 85.2293 13.01 85.7213 13.01C86.1173 13.01 86.4653 12.944 86.7653 12.812C87.0653 12.68 87.2993 12.5 87.4673 12.272C87.6353 12.032 87.7193 11.768 87.7193 11.48C87.7193 10.7 87.1553 10.196 86.0273 9.968L85.3253 9.824C84.3413 9.632 83.6153 9.32 83.1473 8.888C82.6793 8.444 82.4453 7.886 82.4453 7.214C82.4453 6.674 82.5833 6.194 82.8593 5.774C83.1353 5.354 83.5193 5.03 84.0113 4.802C84.5153 4.562 85.0853 4.442 85.7213 4.442C86.2493 4.442 86.7353 4.532 87.1793 4.712C87.6233 4.88 88.0013 5.132 88.3133 5.468C88.6373 5.804 88.8833 6.2 89.0513 6.656L87.7553 7.088C87.5633 6.644 87.2873 6.302 86.9273 6.062C86.5793 5.81 86.1713 5.684 85.7033 5.684C85.3433 5.684 85.0253 5.744 84.7493 5.864C84.4853 5.984 84.2753 6.146 84.1193 6.35C83.9633 6.554 83.8853 6.794 83.8853 7.07C83.8853 7.454 84.0293 7.76 84.3173 7.988C84.6173 8.216 85.0973 8.396 85.7573 8.528L86.4593 8.672C87.3473 8.852 88.0253 9.17 88.4933 9.626C88.9613 10.07 89.1953 10.64 89.1953 11.336C89.1953 11.768 89.1053 12.164 88.9253 12.524C88.7573 12.872 88.5173 13.178 88.2053 13.442C87.9053 13.706 87.5393 13.91 87.1073 14.054C86.6873 14.198 86.2253 14.27 85.7213 14.27ZM94.8818 14.27C94.0898 14.27 93.4058 14.096 92.8298 13.748C92.2538 13.4 91.8098 12.908 91.4978 12.272C91.1858 11.624 91.0298 10.856 91.0298 9.968V4.712H92.4698V9.986C92.4698 10.598 92.5658 11.126 92.7578 11.57C92.9618 12.014 93.2438 12.356 93.6038 12.596C93.9758 12.836 94.4138 12.956 94.9178 12.956C95.4218 12.956 95.8538 12.836 96.2138 12.596C96.5858 12.356 96.8678 12.014 97.0598 11.57C97.2638 11.126 97.3658 10.598 97.3658 9.986V4.712H98.8058V9.968C98.8058 10.832 98.6438 11.588 98.3198 12.236C97.9958 12.884 97.5398 13.388 96.9518 13.748C96.3638 14.096 95.6738 14.27 94.8818 14.27ZM102 14V5.936H100.29V4.712H102V3.848C102 3.164 102.126 2.57 102.378 2.066C102.63 1.55 102.984 1.154 103.44 0.877999C103.908 0.601999 104.448 0.463999 105.06 0.463999C105.708 0.463999 106.29 0.62 106.806 0.932L106.392 2.048C106.212 1.952 106.014 1.874 105.798 1.814C105.582 1.754 105.366 1.724 105.15 1.724C104.586 1.724 104.16 1.91 103.872 2.282C103.584 2.654 103.44 3.188 103.44 3.884V4.712H106.374V5.936H103.44V14H102ZM117.744 14.36C116.868 14.36 116.058 14.198 115.314 13.874C114.582 13.538 113.94 13.076 113.388 12.488C112.848 11.888 112.428 11.186 112.128 10.382C111.828 9.566 111.678 8.678 111.678 7.718C111.678 6.938 111.774 6.206 111.966 5.522C112.17 4.826 112.452 4.196 112.812 3.632C113.184 3.056 113.616 2.564 114.108 2.156C114.612 1.736 115.17 1.418 115.782 1.202C116.394 0.974 117.042 0.86 117.726 0.86C118.494 0.86 119.208 0.992 119.868 1.256C120.54 1.52 121.128 1.892 121.632 2.372C122.148 2.852 122.544 3.428 122.82 4.1L121.434 4.622C121.062 3.866 120.552 3.284 119.904 2.876C119.268 2.456 118.548 2.246 117.744 2.246C117.096 2.246 116.496 2.384 115.944 2.66C115.404 2.936 114.93 3.32 114.522 3.812C114.114 4.304 113.796 4.88 113.568 5.54C113.34 6.2 113.226 6.92 113.226 7.7C113.226 8.468 113.334 9.176 113.55 9.824C113.778 10.46 114.096 11.018 114.504 11.498C114.912 11.966 115.392 12.332 115.944 12.596C116.508 12.848 117.12 12.974 117.78 12.974C118.608 12.974 119.34 12.77 119.976 12.362C120.624 11.954 121.152 11.366 121.56 10.598L122.946 11.12C122.658 11.792 122.256 12.374 121.74 12.866C121.224 13.346 120.624 13.718 119.94 13.982C119.256 14.234 118.524 14.36 117.744 14.36ZM124.992 14V4.712H126.288L126.378 6.44C126.606 5.864 126.948 5.414 127.404 5.09C127.86 4.754 128.394 4.586 129.006 4.586C129.21 4.586 129.39 4.604 129.546 4.64C129.714 4.664 129.858 4.7 129.978 4.748L129.798 6.116C129.666 6.068 129.528 6.038 129.384 6.026C129.24 6.002 129.096 5.99 128.952 5.99C128.448 5.99 128.004 6.116 127.62 6.368C127.248 6.62 126.954 6.98 126.738 7.448C126.534 7.904 126.432 8.444 126.432 9.068V14H124.992ZM135.62 14.27C134.936 14.27 134.306 14.15 133.73 13.91C133.166 13.67 132.674 13.334 132.254 12.902C131.834 12.458 131.51 11.942 131.282 11.354C131.054 10.754 130.94 10.094 130.94 9.374C130.94 8.666 131.048 8.018 131.264 7.43C131.492 6.83 131.804 6.308 132.2 5.864C132.608 5.42 133.082 5.078 133.622 4.838C134.162 4.586 134.75 4.46 135.386 4.46C135.998 4.46 136.562 4.574 137.078 4.802C137.606 5.03 138.062 5.348 138.446 5.756C138.83 6.164 139.124 6.65 139.328 7.214C139.544 7.778 139.652 8.39 139.652 9.05V9.644H132.434C132.482 10.316 132.638 10.904 132.902 11.408C133.178 11.912 133.544 12.302 134 12.578C134.456 12.854 134.984 12.992 135.584 12.992C136.172 12.992 136.682 12.872 137.114 12.632C137.558 12.38 137.936 12.014 138.248 11.534L139.472 12.092C139.232 12.548 138.92 12.938 138.536 13.262C138.152 13.586 137.708 13.832 137.204 14C136.712 14.18 136.184 14.27 135.62 14.27ZM135.386 5.684C134.894 5.684 134.444 5.804 134.036 6.044C133.64 6.284 133.304 6.62 133.028 7.052C132.764 7.472 132.59 7.964 132.506 8.528H138.14C138.092 7.964 137.942 7.472 137.69 7.052C137.438 6.62 137.114 6.284 136.718 6.044C136.322 5.804 135.878 5.684 135.386 5.684ZM144.678 14.27C144.138 14.27 143.628 14.18 143.148 14C142.68 13.82 142.272 13.562 141.924 13.226C141.576 12.89 141.312 12.494 141.132 12.038L142.428 11.57C142.668 12.026 142.98 12.38 143.364 12.632C143.748 12.884 144.186 13.01 144.678 13.01C145.074 13.01 145.422 12.944 145.722 12.812C146.022 12.68 146.256 12.5 146.424 12.272C146.592 12.032 146.676 11.768 146.676 11.48C146.676 10.7 146.112 10.196 144.984 9.968L144.282 9.824C143.298 9.632 142.572 9.32 142.104 8.888C141.636 8.444 141.402 7.886 141.402 7.214C141.402 6.674 141.54 6.194 141.816 5.774C142.092 5.354 142.476 5.03 142.968 4.802C143.472 4.562 144.042 4.442 144.678 4.442C145.206 4.442 145.692 4.532 146.136 4.712C146.58 4.88 146.958 5.132 147.27 5.468C147.594 5.804 147.84 6.2 148.008 6.656L146.712 7.088C146.52 6.644 146.244 6.302 145.884 6.062C145.536 5.81 145.128 5.684 144.66 5.684C144.3 5.684 143.982 5.744 143.706 5.864C143.442 5.984 143.232 6.146 143.076 6.35C142.92 6.554 142.842 6.794 142.842 7.07C142.842 7.454 142.986 7.76 143.274 7.988C143.574 8.216 144.054 8.396 144.714 8.528L145.416 8.672C146.304 8.852 146.982 9.17 147.45 9.626C147.918 10.07 148.152 10.64 148.152 11.336C148.152 11.768 148.062 12.164 147.882 12.524C147.714 12.872 147.474 13.178 147.162 13.442C146.862 13.706 146.496 13.91 146.064 14.054C145.644 14.198 145.182 14.27 144.678 14.27ZM154.055 14.27C153.419 14.27 152.831 14.15 152.291 13.91C151.751 13.67 151.277 13.334 150.869 12.902C150.461 12.458 150.143 11.942 149.915 11.354C149.699 10.766 149.591 10.124 149.591 9.428C149.591 8.732 149.705 8.084 149.933 7.484C150.161 6.872 150.479 6.338 150.887 5.882C151.295 5.426 151.775 5.072 152.327 4.82C152.879 4.568 153.479 4.442 154.127 4.442C154.727 4.442 155.267 4.55 155.747 4.766C156.239 4.982 156.659 5.276 157.007 5.648C157.367 6.02 157.643 6.446 157.835 6.926L156.521 7.376C156.257 6.872 155.915 6.476 155.495 6.188C155.075 5.9 154.601 5.756 154.073 5.756C153.641 5.756 153.245 5.852 152.885 6.044C152.525 6.224 152.207 6.476 151.931 6.8C151.655 7.124 151.439 7.514 151.283 7.97C151.139 8.414 151.067 8.894 151.067 9.41C151.067 9.926 151.139 10.4 151.283 10.832C151.439 11.264 151.649 11.642 151.913 11.966C152.177 12.278 152.489 12.524 152.849 12.704C153.221 12.872 153.623 12.956 154.055 12.956C154.607 12.956 155.111 12.818 155.567 12.542C156.035 12.254 156.389 11.858 156.629 11.354L157.943 11.804C157.751 12.308 157.457 12.746 157.061 13.118C156.677 13.478 156.221 13.76 155.693 13.964C155.177 14.168 154.631 14.27 154.055 14.27ZM164.062 14.27C163.378 14.27 162.748 14.15 162.172 13.91C161.608 13.67 161.116 13.334 160.696 12.902C160.276 12.458 159.952 11.942 159.724 11.354C159.496 10.754 159.382 10.094 159.382 9.374C159.382 8.666 159.49 8.018 159.706 7.43C159.934 6.83 160.246 6.308 160.642 5.864C161.05 5.42 161.524 5.078 162.064 4.838C162.604 4.586 163.192 4.46 163.828 4.46C164.44 4.46 165.004 4.574 165.52 4.802C166.048 5.03 166.504 5.348 166.888 5.756C167.272 6.164 167.566 6.65 167.77 7.214C167.986 7.778 168.094 8.39 168.094 9.05V9.644H160.876C160.924 10.316 161.08 10.904 161.344 11.408C161.62 11.912 161.986 12.302 162.442 12.578C162.898 12.854 163.426 12.992 164.026 12.992C164.614 12.992 165.124 12.872 165.556 12.632C166 12.38 166.378 12.014 166.69 11.534L167.914 12.092C167.674 12.548 167.362 12.938 166.978 13.262C166.594 13.586 166.15 13.832 165.646 14C165.154 14.18 164.626 14.27 164.062 14.27ZM163.828 5.684C163.336 5.684 162.886 5.804 162.478 6.044C162.082 6.284 161.746 6.62 161.47 7.052C161.206 7.472 161.032 7.964 160.948 8.528H166.582C166.534 7.964 166.384 7.472 166.132 7.052C165.88 6.62 165.556 6.284 165.16 6.044C164.764 5.804 164.32 5.684 163.828 5.684ZM170.151 14V4.712H171.447L171.519 6.188C171.795 5.66 172.191 5.24 172.707 4.928C173.235 4.604 173.841 4.442 174.525 4.442C175.233 4.442 175.851 4.61 176.379 4.946C176.907 5.282 177.309 5.762 177.585 6.386C177.873 6.998 178.017 7.724 178.017 8.564V14H176.577V8.654C176.577 7.73 176.373 7.016 175.965 6.512C175.569 6.008 174.999 5.756 174.255 5.756C173.739 5.756 173.277 5.876 172.869 6.116C172.473 6.344 172.161 6.668 171.933 7.088C171.705 7.496 171.591 7.964 171.591 8.492V14H170.151ZM183.679 14.27C183.115 14.27 182.629 14.156 182.221 13.928C181.813 13.7 181.495 13.364 181.267 12.92C181.051 12.476 180.943 11.936 180.943 11.3V5.936H179.233V4.712H180.943V1.598H182.383V4.712H185.299V5.936H182.383V11.228C182.383 11.78 182.497 12.212 182.725 12.524C182.965 12.824 183.325 12.974 183.805 12.974C184.057 12.974 184.309 12.938 184.561 12.866C184.825 12.782 185.059 12.674 185.263 12.542L185.695 13.658C185.443 13.838 185.149 13.982 184.813 14.09C184.477 14.21 184.099 14.27 183.679 14.27ZM187.801 17.24L187.405 16.358C187.885 16.13 188.263 15.83 188.539 15.458C188.827 15.086 188.971 14.678 188.971 14.234C188.971 13.97 188.923 13.736 188.827 13.532C188.695 13.676 188.521 13.748 188.305 13.748C188.065 13.748 187.855 13.658 187.675 13.478C187.507 13.298 187.423 13.082 187.423 12.83C187.423 12.662 187.471 12.506 187.567 12.362C187.663 12.218 187.789 12.104 187.945 12.02C188.101 11.936 188.275 11.894 188.467 11.894C188.767 11.894 189.037 11.996 189.277 12.2C189.517 12.392 189.709 12.656 189.853 12.992C189.997 13.316 190.069 13.682 190.069 14.09C190.069 14.546 189.979 14.972 189.799 15.368C189.619 15.776 189.355 16.142 189.007 16.466C188.671 16.79 188.269 17.048 187.801 17.24ZM1.404 37V24.22H2.916V35.614H8.604V37H1.404ZM14.595 37.27C13.911 37.27 13.281 37.15 12.705 36.91C12.141 36.67 11.649 36.334 11.229 35.902C10.809 35.458 10.485 34.942 10.257 34.354C10.029 33.754 9.91505 33.094 9.91505 32.374C9.91505 31.666 10.023 31.018 10.239 30.43C10.467 29.83 10.779 29.308 11.175 28.864C11.583 28.42 12.057 28.078 12.597 27.838C13.137 27.586 13.725 27.46 14.361 27.46C14.973 27.46 15.537 27.574 16.053 27.802C16.581 28.03 17.037 28.348 17.421 28.756C17.805 29.164 18.099 29.65 18.303 30.214C18.519 30.778 18.627 31.39 18.627 32.05V32.644H11.409C11.457 33.316 11.613 33.904 11.877 34.408C12.153 34.912 12.519 35.302 12.975 35.578C13.431 35.854 13.959 35.992 14.559 35.992C15.147 35.992 15.657 35.872 16.089 35.632C16.533 35.38 16.911 35.014 17.223 34.534L18.447 35.092C18.207 35.548 17.895 35.938 17.511 36.262C17.127 36.586 16.683 36.832 16.179 37C15.687 37.18 15.159 37.27 14.595 37.27ZM14.361 28.684C13.869 28.684 13.419 28.804 13.011 29.044C12.615 29.284 12.279 29.62 12.003 30.052C11.739 30.472 11.565 30.964 11.481 31.528H17.115C17.067 30.964 16.917 30.472 16.665 30.052C16.413 29.62 16.089 29.284 15.693 29.044C15.297 28.804 14.853 28.684 14.361 28.684ZM20.6838 37V23.644H22.1238V31.6L26.5158 27.712H28.3698L23.6178 31.87L28.8018 37H26.8218L22.1238 32.248V37H20.6838ZM30.2112 37V23.644H31.6512V31.6L36.0432 27.712H37.8972L33.1452 31.87L38.3292 37H36.3492L31.6512 32.248V37H30.2112ZM41.4485 24.994C41.4485 25.174 41.4005 25.342 41.3045 25.498C41.2205 25.642 41.1005 25.762 40.9445 25.858C40.8005 25.942 40.6385 25.984 40.4585 25.984C40.2785 25.984 40.1105 25.942 39.9545 25.858C39.8105 25.762 39.6905 25.642 39.5945 25.498C39.5105 25.342 39.4685 25.174 39.4685 24.994C39.4685 24.814 39.5105 24.652 39.5945 24.508C39.6905 24.352 39.8105 24.232 39.9545 24.148C40.1105 24.052 40.2785 24.004 40.4585 24.004C40.6385 24.004 40.8005 24.052 40.9445 24.148C41.1005 24.232 41.2205 24.352 41.3045 24.508C41.4005 24.652 41.4485 24.814 41.4485 24.994ZM39.7385 37V27.712H41.1785V37H39.7385ZM43.7656 40.24L43.3696 39.358C43.8496 39.13 44.2276 38.83 44.5036 38.458C44.7916 38.086 44.9356 37.678 44.9356 37.234C44.9356 36.97 44.8876 36.736 44.7916 36.532C44.6596 36.676 44.4856 36.748 44.2696 36.748C44.0296 36.748 43.8196 36.658 43.6396 36.478C43.4716 36.298 43.3876 36.082 43.3876 35.83C43.3876 35.662 43.4356 35.506 43.5316 35.362C43.6276 35.218 43.7536 35.104 43.9096 35.02C44.0656 34.936 44.2396 34.894 44.4316 34.894C44.7316 34.894 45.0016 34.996 45.2416 35.2C45.4816 35.392 45.6736 35.656 45.8176 35.992C45.9616 36.316 46.0336 36.682 46.0336 37.09C46.0336 37.546 45.9436 37.972 45.7636 38.368C45.5836 38.776 45.3196 39.142 44.9716 39.466C44.6356 39.79 44.2336 40.048 43.7656 40.24ZM51.9763 37V24.22H53.4883V35.614H59.1763V37H51.9763ZM63.9759 37.27C63.3279 37.27 62.7519 37.15 62.2479 36.91C61.7439 36.658 61.3479 36.316 61.0599 35.884C60.7839 35.452 60.6459 34.954 60.6459 34.39C60.6459 33.778 60.8019 33.25 61.1139 32.806C61.4379 32.362 61.8879 32.02 62.4639 31.78C63.0399 31.528 63.7119 31.402 64.4799 31.402C64.9119 31.402 65.3499 31.45 65.7939 31.546C66.2379 31.642 66.6339 31.768 66.9819 31.924V31.24C66.9819 30.736 66.8799 30.298 66.6759 29.926C66.4839 29.542 66.2139 29.248 65.8659 29.044C65.5179 28.828 65.1099 28.72 64.6419 28.72C64.0779 28.72 63.5859 28.852 63.1659 29.116C62.7579 29.38 62.4519 29.752 62.2479 30.232L60.9879 29.8C61.1559 29.32 61.4139 28.906 61.7619 28.558C62.1219 28.21 62.5479 27.94 63.0399 27.748C63.5439 27.556 64.0839 27.46 64.6599 27.46C65.4039 27.46 66.0519 27.622 66.6039 27.946C67.1679 28.258 67.5999 28.702 67.8999 29.278C68.2119 29.842 68.3679 30.508 68.3679 31.276V37H67.1079L67.0179 35.56C66.7539 36.076 66.3519 36.49 65.8119 36.802C65.2839 37.114 64.6719 37.27 63.9759 37.27ZM62.1039 34.336C62.1039 34.684 62.1939 34.99 62.3739 35.254C62.5539 35.506 62.8059 35.704 63.1299 35.848C63.4539 35.992 63.8259 36.064 64.2459 36.064C64.7619 36.064 65.2239 35.95 65.6319 35.722C66.0519 35.482 66.3819 35.164 66.6219 34.768C66.8619 34.36 66.9819 33.898 66.9819 33.382V33.04C66.5859 32.884 66.1839 32.764 65.7759 32.68C65.3799 32.584 65.0019 32.536 64.6419 32.536C63.8499 32.536 63.2259 32.698 62.7699 33.022C62.3259 33.346 62.1039 33.784 62.1039 34.336ZM74.6506 36.91C74.0386 36.91 73.4686 36.79 72.9406 36.55C72.4246 36.31 71.9686 35.98 71.5726 35.56C71.1886 35.128 70.8886 34.624 70.6726 34.048C70.4566 33.472 70.3486 32.854 70.3486 32.194C70.3486 31.522 70.4566 30.898 70.6726 30.322C70.9006 29.746 71.2126 29.242 71.6086 28.81C72.0046 28.378 72.4666 28.042 72.9946 27.802C73.5346 27.562 74.1106 27.442 74.7226 27.442C75.4306 27.442 76.0726 27.61 76.6486 27.946C77.2366 28.282 77.6926 28.744 78.0166 29.332L78.0886 27.712H79.3846V36.208C79.3846 36.916 79.2766 37.558 79.0606 38.134C78.8446 38.722 78.5386 39.226 78.1426 39.646C77.7466 40.066 77.2726 40.384 76.7206 40.6C76.1686 40.828 75.5566 40.942 74.8846 40.942C74.2966 40.942 73.7446 40.852 73.2286 40.672C72.7126 40.504 72.2506 40.252 71.8426 39.916C71.4466 39.592 71.1166 39.202 70.8526 38.746L72.0586 38.134C72.4066 38.638 72.8146 39.022 73.2826 39.286C73.7626 39.562 74.2966 39.7 74.8846 39.7C75.5086 39.7 76.0486 39.556 76.5046 39.268C76.9726 38.992 77.3266 38.596 77.5666 38.08C77.8186 37.564 77.9446 36.958 77.9446 36.262V35.074C77.6086 35.65 77.1526 36.1 76.5766 36.424C76.0006 36.748 75.3586 36.91 74.6506 36.91ZM74.9026 35.596C75.3466 35.596 75.7546 35.512 76.1266 35.344C76.5106 35.176 76.8406 34.942 77.1166 34.642C77.3926 34.33 77.6026 33.964 77.7466 33.544C77.9026 33.124 77.9806 32.668 77.9806 32.176C77.9806 31.684 77.9026 31.228 77.7466 30.808C77.6026 30.388 77.3926 30.028 77.1166 29.728C76.8406 29.416 76.5106 29.176 76.1266 29.008C75.7546 28.84 75.3466 28.756 74.9026 28.756C74.4586 28.756 74.0446 28.84 73.6606 29.008C73.2886 29.176 72.9646 29.416 72.6886 29.728C72.4126 30.028 72.1966 30.388 72.0406 30.808C71.8966 31.228 71.8246 31.684 71.8246 32.176C71.8246 32.668 71.8966 33.124 72.0406 33.544C72.1966 33.964 72.4126 34.33 72.6886 34.642C72.9646 34.942 73.2886 35.176 73.6606 35.344C74.0446 35.512 74.4586 35.596 74.9026 35.596ZM86.0304 37.27C85.3704 37.27 84.7584 37.15 84.1944 36.91C83.6424 36.658 83.1564 36.316 82.7364 35.884C82.3284 35.44 82.0104 34.918 81.7824 34.318C81.5544 33.718 81.4404 33.064 81.4404 32.356C81.4404 31.648 81.5544 30.994 81.7824 30.394C82.0224 29.794 82.3464 29.278 82.7544 28.846C83.1744 28.402 83.6664 28.06 84.2304 27.82C84.7944 27.568 85.4064 27.442 86.0664 27.442C86.7264 27.442 87.3324 27.568 87.8844 27.82C88.4484 28.06 88.9344 28.402 89.3424 28.846C89.7624 29.278 90.0864 29.794 90.3144 30.394C90.5424 30.994 90.6564 31.648 90.6564 32.356C90.6564 33.064 90.5364 33.718 90.2964 34.318C90.0684 34.918 89.7444 35.44 89.3244 35.884C88.9164 36.316 88.4304 36.658 87.8664 36.91C87.3024 37.15 86.6904 37.27 86.0304 37.27ZM86.0484 35.956C86.5044 35.956 86.9184 35.866 87.2904 35.686C87.6744 35.506 88.0044 35.26 88.2804 34.948C88.5684 34.624 88.7904 34.246 88.9464 33.814C89.1024 33.37 89.1804 32.884 89.1804 32.356C89.1804 31.828 89.1024 31.348 88.9464 30.916C88.7904 30.472 88.5684 30.094 88.2804 29.782C88.0044 29.458 87.6744 29.206 87.2904 29.026C86.9184 28.846 86.5044 28.756 86.0484 28.756C85.5924 28.756 85.1724 28.846 84.7884 29.026C84.4164 29.206 84.0864 29.458 83.7984 29.782C83.5224 30.094 83.3064 30.472 83.1504 30.916C82.9944 31.348 82.9164 31.828 82.9164 32.356C82.9164 32.884 82.9944 33.37 83.1504 33.814C83.3064 34.246 83.5224 34.624 83.7984 34.948C84.0864 35.26 84.4164 35.506 84.7884 35.686C85.1724 35.866 85.5924 35.956 86.0484 35.956ZM95.6354 37.27C95.0954 37.27 94.5854 37.18 94.1054 37C93.6374 36.82 93.2294 36.562 92.8814 36.226C92.5334 35.89 92.2694 35.494 92.0894 35.038L93.3854 34.57C93.6254 35.026 93.9374 35.38 94.3214 35.632C94.7054 35.884 95.1434 36.01 95.6354 36.01C96.0314 36.01 96.3794 35.944 96.6794 35.812C96.9794 35.68 97.2134 35.5 97.3814 35.272C97.5494 35.032 97.6334 34.768 97.6334 34.48C97.6334 33.7 97.0694 33.196 95.9414 32.968L95.2394 32.824C94.2554 32.632 93.5294 32.32 93.0614 31.888C92.5934 31.444 92.3594 30.886 92.3594 30.214C92.3594 29.674 92.4974 29.194 92.7734 28.774C93.0494 28.354 93.4334 28.03 93.9254 27.802C94.4294 27.562 94.9994 27.442 95.6354 27.442C96.1634 27.442 96.6494 27.532 97.0934 27.712C97.5374 27.88 97.9154 28.132 98.2274 28.468C98.5514 28.804 98.7974 29.2 98.9654 29.656L97.6694 30.088C97.4774 29.644 97.2014 29.302 96.8414 29.062C96.4934 28.81 96.0854 28.684 95.6174 28.684C95.2574 28.684 94.9394 28.744 94.6634 28.864C94.3994 28.984 94.1894 29.146 94.0334 29.35C93.8774 29.554 93.7994 29.794 93.7994 30.07C93.7994 30.454 93.9434 30.76 94.2314 30.988C94.5314 31.216 95.0114 31.396 95.6714 31.528L96.3734 31.672C97.2614 31.852 97.9394 32.17 98.4074 32.626C98.8754 33.07 99.1094 33.64 99.1094 34.336C99.1094 34.768 99.0194 35.164 98.8394 35.524C98.6714 35.872 98.4314 36.178 98.1194 36.442C97.8194 36.706 97.4534 36.91 97.0214 37.054C96.6014 37.198 96.1394 37.27 95.6354 37.27ZM101.088 40.24L100.692 39.358C101.172 39.13 101.55 38.83 101.826 38.458C102.114 38.086 102.258 37.678 102.258 37.234C102.258 36.97 102.21 36.736 102.114 36.532C101.982 36.676 101.808 36.748 101.592 36.748C101.352 36.748 101.142 36.658 100.962 36.478C100.794 36.298 100.71 36.082 100.71 35.83C100.71 35.662 100.758 35.506 100.854 35.362C100.95 35.218 101.076 35.104 101.232 35.02C101.388 34.936 101.562 34.894 101.754 34.894C102.054 34.894 102.324 34.996 102.564 35.2C102.804 35.392 102.996 35.656 103.14 35.992C103.284 36.316 103.356 36.682 103.356 37.09C103.356 37.546 103.266 37.972 103.086 38.368C102.906 38.776 102.642 39.142 102.294 39.466C101.958 39.79 101.556 40.048 101.088 40.24ZM1.404 60V47.22H2.736L9.864 57.462V47.22H11.34V60H10.008L2.88 49.758V60H1.404ZM15.7141 47.994C15.7141 48.174 15.6661 48.342 15.5701 48.498C15.4861 48.642 15.3661 48.762 15.2101 48.858C15.0661 48.942 14.9041 48.984 14.7241 48.984C14.5441 48.984 14.3761 48.942 14.2201 48.858C14.0761 48.762 13.9561 48.642 13.8601 48.498C13.7761 48.342 13.7341 48.174 13.7341 47.994C13.7341 47.814 13.7761 47.652 13.8601 47.508C13.9561 47.352 14.0761 47.232 14.2201 47.148C14.3761 47.052 14.5441 47.004 14.7241 47.004C14.9041 47.004 15.0661 47.052 15.2101 47.148C15.3661 47.232 15.4861 47.352 15.5701 47.508C15.6661 47.652 15.7141 47.814 15.7141 47.994ZM14.0041 60V50.712H15.4441V60H14.0041ZM21.7932 59.91C21.1812 59.91 20.6112 59.79 20.0832 59.55C19.5672 59.31 19.1112 58.98 18.7152 58.56C18.3312 58.128 18.0312 57.624 17.8152 57.048C17.5992 56.472 17.4912 55.854 17.4912 55.194C17.4912 54.522 17.5992 53.898 17.8152 53.322C18.0432 52.746 18.3552 52.242 18.7512 51.81C19.1472 51.378 19.6092 51.042 20.1372 50.802C20.6772 50.562 21.2532 50.442 21.8652 50.442C22.5732 50.442 23.2152 50.61 23.7912 50.946C24.3792 51.282 24.8352 51.744 25.1592 52.332L25.2312 50.712H26.5272V59.208C26.5272 59.916 26.4192 60.558 26.2032 61.134C25.9872 61.722 25.6812 62.226 25.2852 62.646C24.8892 63.066 24.4152 63.384 23.8632 63.6C23.3112 63.828 22.6992 63.942 22.0272 63.942C21.4392 63.942 20.8872 63.852 20.3712 63.672C19.8552 63.504 19.3932 63.252 18.9852 62.916C18.5892 62.592 18.2592 62.202 17.9952 61.746L19.2012 61.134C19.5492 61.638 19.9572 62.022 20.4252 62.286C20.9052 62.562 21.4392 62.7 22.0272 62.7C22.6512 62.7 23.1912 62.556 23.6472 62.268C24.1152 61.992 24.4692 61.596 24.7092 61.08C24.9612 60.564 25.0872 59.958 25.0872 59.262V58.074C24.7512 58.65 24.2952 59.1 23.7192 59.424C23.1432 59.748 22.5012 59.91 21.7932 59.91ZM22.0452 58.596C22.4892 58.596 22.8972 58.512 23.2692 58.344C23.6532 58.176 23.9832 57.942 24.2592 57.642C24.5352 57.33 24.7452 56.964 24.8892 56.544C25.0452 56.124 25.1232 55.668 25.1232 55.176C25.1232 54.684 25.0452 54.228 24.8892 53.808C24.7452 53.388 24.5352 53.028 24.2592 52.728C23.9832 52.416 23.6532 52.176 23.2692 52.008C22.8972 51.84 22.4892 51.756 22.0452 51.756C21.6012 51.756 21.1872 51.84 20.8032 52.008C20.4312 52.176 20.1072 52.416 19.8312 52.728C19.5552 53.028 19.3392 53.388 19.1832 53.808C19.0392 54.228 18.9672 54.684 18.9672 55.176C18.9672 55.668 19.0392 56.124 19.1832 56.544C19.3392 56.964 19.5552 57.33 19.8312 57.642C20.1072 57.942 20.4312 58.176 20.8032 58.344C21.1872 58.512 21.6012 58.596 22.0452 58.596ZM33.263 60.27C32.579 60.27 31.949 60.15 31.373 59.91C30.809 59.67 30.317 59.334 29.897 58.902C29.477 58.458 29.153 57.942 28.925 57.354C28.697 56.754 28.583 56.094 28.583 55.374C28.583 54.666 28.691 54.018 28.907 53.43C29.135 52.83 29.447 52.308 29.843 51.864C30.251 51.42 30.725 51.078 31.265 50.838C31.805 50.586 32.393 50.46 33.029 50.46C33.641 50.46 34.205 50.574 34.721 50.802C35.249 51.03 35.705 51.348 36.089 51.756C36.473 52.164 36.767 52.65 36.971 53.214C37.187 53.778 37.295 54.39 37.295 55.05V55.644H30.077C30.125 56.316 30.281 56.904 30.545 57.408C30.821 57.912 31.187 58.302 31.643 58.578C32.099 58.854 32.627 58.992 33.227 58.992C33.815 58.992 34.325 58.872 34.757 58.632C35.201 58.38 35.579 58.014 35.891 57.534L37.115 58.092C36.875 58.548 36.563 58.938 36.179 59.262C35.795 59.586 35.351 59.832 34.847 60C34.355 60.18 33.827 60.27 33.263 60.27ZM33.029 51.684C32.537 51.684 32.087 51.804 31.679 52.044C31.283 52.284 30.947 52.62 30.671 53.052C30.407 53.472 30.233 53.964 30.149 54.528H35.783C35.735 53.964 35.585 53.472 35.333 53.052C35.081 52.62 34.757 52.284 34.361 52.044C33.965 51.804 33.521 51.684 33.029 51.684ZM39.3518 60V50.712H40.6478L40.7378 52.44C40.9658 51.864 41.3078 51.414 41.7638 51.09C42.2198 50.754 42.7538 50.586 43.3658 50.586C43.5698 50.586 43.7498 50.604 43.9058 50.64C44.0738 50.664 44.2178 50.7 44.3378 50.748L44.1578 52.116C44.0258 52.068 43.8878 52.038 43.7438 52.026C43.5998 52.002 43.4558 51.99 43.3118 51.99C42.8078 51.99 42.3638 52.116 41.9798 52.368C41.6078 52.62 41.3138 52.98 41.0978 53.448C40.8938 53.904 40.7918 54.444 40.7918 55.068V60H39.3518ZM47.8118 47.994C47.8118 48.174 47.7638 48.342 47.6678 48.498C47.5838 48.642 47.4638 48.762 47.3078 48.858C47.1638 48.942 47.0018 48.984 46.8218 48.984C46.6418 48.984 46.4738 48.942 46.3178 48.858C46.1738 48.762 46.0538 48.642 45.9578 48.498C45.8738 48.342 45.8318 48.174 45.8318 47.994C45.8318 47.814 45.8738 47.652 45.9578 47.508C46.0538 47.352 46.1738 47.232 46.3178 47.148C46.4738 47.052 46.6418 47.004 46.8218 47.004C47.0018 47.004 47.1638 47.052 47.3078 47.148C47.4638 47.232 47.5838 47.352 47.6678 47.508C47.7638 47.652 47.8118 47.814 47.8118 47.994ZM46.1018 60V50.712H47.5418V60H46.1018ZM52.9369 60.27C52.2889 60.27 51.7129 60.15 51.2089 59.91C50.7049 59.658 50.3089 59.316 50.0209 58.884C49.7449 58.452 49.6069 57.954 49.6069 57.39C49.6069 56.778 49.7629 56.25 50.0749 55.806C50.3989 55.362 50.8489 55.02 51.4249 54.78C52.0009 54.528 52.6729 54.402 53.4409 54.402C53.8729 54.402 54.3109 54.45 54.7549 54.546C55.1989 54.642 55.5949 54.768 55.9429 54.924V54.24C55.9429 53.736 55.8409 53.298 55.6369 52.926C55.4449 52.542 55.1749 52.248 54.8269 52.044C54.4789 51.828 54.0709 51.72 53.6029 51.72C53.0389 51.72 52.5469 51.852 52.1269 52.116C51.7189 52.38 51.4129 52.752 51.2089 53.232L49.9489 52.8C50.1169 52.32 50.3749 51.906 50.7229 51.558C51.0829 51.21 51.5089 50.94 52.0009 50.748C52.5049 50.556 53.0449 50.46 53.6209 50.46C54.3649 50.46 55.0129 50.622 55.5649 50.946C56.1289 51.258 56.5609 51.702 56.8609 52.278C57.1729 52.842 57.3289 53.508 57.3289 54.276V60H56.0689L55.9789 58.56C55.7149 59.076 55.3129 59.49 54.7729 59.802C54.2449 60.114 53.6329 60.27 52.9369 60.27ZM51.0649 57.336C51.0649 57.684 51.1549 57.99 51.3349 58.254C51.5149 58.506 51.7669 58.704 52.0909 58.848C52.4149 58.992 52.7869 59.064 53.2069 59.064C53.7229 59.064 54.1849 58.95 54.5929 58.722C55.0129 58.482 55.3429 58.164 55.5829 57.768C55.8229 57.36 55.9429 56.898 55.9429 56.382V56.04C55.5469 55.884 55.1449 55.764 54.7369 55.68C54.3409 55.584 53.9629 55.536 53.6029 55.536C52.8109 55.536 52.1869 55.698 51.7309 56.022C51.2869 56.346 51.0649 56.784 51.0649 57.336ZM60.6056 60.054C60.4136 60.054 60.2336 60.006 60.0656 59.91C59.9096 59.814 59.7836 59.688 59.6876 59.532C59.5916 59.364 59.5436 59.178 59.5436 58.974C59.5436 58.77 59.5916 58.59 59.6876 58.434C59.7836 58.266 59.9096 58.134 60.0656 58.038C60.2336 57.942 60.4136 57.894 60.6056 57.894C60.7976 57.894 60.9716 57.942 61.1276 58.038C61.2956 58.134 61.4276 58.266 61.5236 58.434C61.6316 58.59 61.6856 58.77 61.6856 58.974C61.6856 59.178 61.6316 59.364 61.5236 59.532C61.4276 59.688 61.2956 59.814 61.1276 59.91C60.9716 60.006 60.7976 60.054 60.6056 60.054Z" fill="#202D3F"/>
</svg>
