<svg width="16" height="16" viewBox="0 0 16 16" fill="none" xmlns="http://www.w3.org/2000/svg">
<path fill-rule="evenodd" clip-rule="evenodd" d="M7.85116 8.9765C7.40516 8.9765 6.96049 8.82916 6.58849 8.5345L3.59849 6.12383C3.38316 5.9505 3.34982 5.63516 3.52249 5.4205C3.69649 5.2065 4.01116 5.1725 4.22582 5.34516L7.21316 7.75316C7.58849 8.0505 8.11716 8.0505 8.49516 7.7505L11.4525 5.3465C11.6672 5.17116 11.9818 5.2045 12.1565 5.41916C12.3305 5.63316 12.2978 5.94783 12.0838 6.1225L9.12116 8.5305C8.74649 8.82783 8.29849 8.9765 7.85116 8.9765Z" fill="#F5BD00"/>
<mask id="mask0_248_580" style="mask-type:alpha" maskUnits="userSpaceOnUse" x="0" y="1" width="15" height="14">
<path d="M0.666626 1.33325H14.9999V14.3333H0.666626V1.33325Z" fill="white"/>
</mask>
<g mask="url(#mask0_248_580)">
<path fill-rule="evenodd" clip-rule="evenodd" d="M4.55917 13.3333H11.1058C11.1072 13.3319 11.1125 13.3333 11.1165 13.3333C11.8772 13.3333 12.5518 13.0613 13.0692 12.5446C13.6698 11.9466 13.9998 11.0873 13.9998 10.1253V5.54659C13.9998 3.68459 12.7825 2.33325 11.1058 2.33325H4.5605C2.88384 2.33325 1.6665 3.68459 1.6665 5.54659V10.1253C1.6665 11.0873 1.99717 11.9466 2.59717 12.5446C3.1145 13.0613 3.78984 13.3333 4.54984 13.3333H4.55917ZM4.54784 14.3333C3.51917 14.3333 2.6005 13.9599 1.89117 13.2533C1.10117 12.4653 0.666504 11.3546 0.666504 10.1253V5.54659C0.666504 3.14459 2.3405 1.33325 4.5605 1.33325H11.1058C13.3258 1.33325 14.9998 3.14459 14.9998 5.54659V10.1253C14.9998 11.3546 14.5652 12.4653 13.7752 13.2533C13.0665 13.9593 12.1472 14.3333 11.1165 14.3333H11.1058H4.5605H4.54784Z" fill="#F5BD00"/>
</g>
</svg>
