<svg width="144" height="14" viewBox="0 0 144 14" fill="none" xmlns="http://www.w3.org/2000/svg">
<path d="M0.62 8.644V7.438H3.698V4.306H4.976V7.438H8.072V8.644H4.976V11.884H3.698V8.644H0.62ZM10.6235 13V11.776C11.4395 11.104 12.2015 10.45 12.9095 9.814C13.6295 9.166 14.2595 8.566 14.7995 8.014C15.3635 7.438 15.8075 6.934 16.1315 6.502C16.4675 6.07 16.7075 5.674 16.8515 5.314C16.9955 4.942 17.0675 4.564 17.0675 4.18C17.0675 3.676 16.9655 3.238 16.7615 2.866C16.5575 2.482 16.2755 2.188 15.9155 1.984C15.5675 1.768 15.1535 1.66 14.6735 1.66C14.0255 1.66 13.4675 1.858 12.9995 2.254C12.5315 2.65 12.1955 3.202 11.9915 3.91L10.6235 3.568C10.7795 2.908 11.0555 2.338 11.4515 1.858C11.8475 1.366 12.3215 0.987999 12.8735 0.723999C13.4375 0.447999 14.0495 0.309999 14.7095 0.309999C15.2615 0.309999 15.7715 0.405999 16.2395 0.598C16.7075 0.778 17.1155 1.036 17.4635 1.372C17.8115 1.708 18.0815 2.104 18.2735 2.56C18.4775 3.016 18.5795 3.508 18.5795 4.036C18.5795 4.804 18.3515 5.584 17.8955 6.376C17.4515 7.156 16.7435 8.02 15.7715 8.968C15.5435 9.184 15.2675 9.436 14.9435 9.724C14.6315 10.012 14.2895 10.318 13.9175 10.642C13.5575 10.966 13.1855 11.29 12.8015 11.614H18.7955V13H10.6235ZM24.8332 13.27C24.1372 13.27 23.4952 13.15 22.9072 12.91C22.3312 12.67 21.8332 12.316 21.4132 11.848C21.0052 11.38 20.7052 10.81 20.5132 10.138L21.8992 9.814C22.1272 10.486 22.4932 11.008 22.9972 11.38C23.5012 11.74 24.1012 11.92 24.7972 11.92C25.3252 11.92 25.7992 11.818 26.2192 11.614C26.6392 11.41 26.9692 11.128 27.2092 10.768C27.4492 10.408 27.5692 10 27.5692 9.544C27.5692 9.064 27.4492 8.65 27.2092 8.302C26.9812 7.954 26.6512 7.684 26.2192 7.492C25.7992 7.3 25.3012 7.204 24.7252 7.204H23.3752V5.854H24.6712C25.2112 5.854 25.6732 5.764 26.0572 5.584C26.4532 5.404 26.7592 5.152 26.9752 4.828C27.1912 4.492 27.2992 4.108 27.2992 3.676C27.2992 3.28 27.1912 2.932 26.9752 2.632C26.7712 2.32 26.4892 2.08 26.1292 1.912C25.7692 1.744 25.3492 1.66 24.8692 1.66C24.2092 1.66 23.6392 1.84 23.1592 2.2C22.6912 2.548 22.3552 3.04 22.1512 3.676L20.7832 3.352C20.9392 2.728 21.2092 2.194 21.5932 1.75C21.9892 1.294 22.4752 0.939999 23.0512 0.688C23.6272 0.435999 24.2572 0.309999 24.9412 0.309999C25.4932 0.309999 26.0032 0.393999 26.4712 0.561999C26.9512 0.717999 27.3652 0.945999 27.7132 1.246C28.0612 1.534 28.3312 1.882 28.5232 2.29C28.7152 2.686 28.8112 3.124 28.8112 3.604C28.8112 4.252 28.6492 4.822 28.3252 5.314C28.0012 5.806 27.5332 6.19 26.9212 6.466C27.5932 6.706 28.1212 7.096 28.5052 7.636C28.8892 8.176 29.0812 8.818 29.0812 9.562C29.0812 10.078 28.9732 10.564 28.7572 11.02C28.5412 11.464 28.2412 11.86 27.8572 12.208C27.4732 12.544 27.0232 12.808 26.5072 13C25.9912 13.18 25.4332 13.27 24.8332 13.27ZM36.685 13V10.066H30.727V8.914L36.631 0.579999H38.107V8.806H39.709V10.066H38.107V13H36.685ZM32.311 8.806H36.685V2.632L32.311 8.806ZM46.9599 13L51.7839 1.966H45.1059V0.579999H53.3859V1.786L48.5799 13H46.9599ZM59.5606 13.27C58.6246 13.27 57.8146 13.012 57.1306 12.496C56.4586 11.968 55.9366 11.218 55.5646 10.246C55.2046 9.274 55.0246 8.122 55.0246 6.79C55.0246 5.458 55.2106 4.306 55.5826 3.334C55.9546 2.362 56.4826 1.618 57.1666 1.102C57.8506 0.573999 58.6606 0.309999 59.5966 0.309999C60.5326 0.309999 61.3366 0.573999 62.0086 1.102C62.6926 1.618 63.2146 2.362 63.5746 3.334C63.9466 4.306 64.1326 5.458 64.1326 6.79C64.1326 8.122 63.9466 9.274 63.5746 10.246C63.2026 11.218 62.6746 11.968 61.9906 12.496C61.3066 13.012 60.4966 13.27 59.5606 13.27ZM59.5786 11.92C60.2266 11.92 60.7726 11.722 61.2166 11.326C61.6726 10.918 62.0206 10.33 62.2606 9.562C62.5006 8.794 62.6206 7.87 62.6206 6.79C62.6206 5.698 62.5006 4.774 62.2606 4.018C62.0206 3.25 61.6726 2.668 61.2166 2.272C60.7726 1.864 60.2266 1.66 59.5786 1.66C58.9306 1.66 58.3786 1.864 57.9226 2.272C57.4786 2.668 57.1366 3.25 56.8966 4.018C56.6566 4.774 56.5366 5.698 56.5366 6.79C56.5366 7.87 56.6566 8.794 56.8966 9.562C57.1366 10.33 57.4786 10.918 57.9226 11.326C58.3786 11.722 58.9306 11.92 59.5786 11.92ZM69.7805 13.27C69.0845 13.27 68.4425 13.15 67.8545 12.91C67.2785 12.67 66.7805 12.316 66.3605 11.848C65.9525 11.38 65.6525 10.81 65.4605 10.138L66.8465 9.814C67.0745 10.486 67.4405 11.008 67.9445 11.38C68.4485 11.74 69.0485 11.92 69.7445 11.92C70.2725 11.92 70.7465 11.818 71.1665 11.614C71.5865 11.41 71.9165 11.128 72.1565 10.768C72.3965 10.408 72.5165 10 72.5165 9.544C72.5165 9.064 72.3965 8.65 72.1565 8.302C71.9285 7.954 71.5985 7.684 71.1665 7.492C70.7465 7.3 70.2485 7.204 69.6725 7.204H68.3225V5.854H69.6185C70.1585 5.854 70.6205 5.764 71.0045 5.584C71.4005 5.404 71.7065 5.152 71.9225 4.828C72.1385 4.492 72.2465 4.108 72.2465 3.676C72.2465 3.28 72.1385 2.932 71.9225 2.632C71.7185 2.32 71.4365 2.08 71.0765 1.912C70.7165 1.744 70.2965 1.66 69.8165 1.66C69.1565 1.66 68.5865 1.84 68.1065 2.2C67.6385 2.548 67.3025 3.04 67.0985 3.676L65.7305 3.352C65.8865 2.728 66.1565 2.194 66.5405 1.75C66.9365 1.294 67.4225 0.939999 67.9985 0.688C68.5745 0.435999 69.2045 0.309999 69.8885 0.309999C70.4405 0.309999 70.9505 0.393999 71.4185 0.561999C71.8985 0.717999 72.3125 0.945999 72.6605 1.246C73.0085 1.534 73.2785 1.882 73.4705 2.29C73.6625 2.686 73.7585 3.124 73.7585 3.604C73.7585 4.252 73.5965 4.822 73.2725 5.314C72.9485 5.806 72.4805 6.19 71.8685 6.466C72.5405 6.706 73.0685 7.096 73.4525 7.636C73.8365 8.176 74.0285 8.818 74.0285 9.562C74.0285 10.078 73.9205 10.564 73.7045 11.02C73.4885 11.464 73.1885 11.86 72.8045 12.208C72.4205 12.544 71.9705 12.808 71.4545 13C70.9385 13.18 70.3805 13.27 69.7805 13.27ZM81.6322 13V10.066H75.6742V8.914L81.5782 0.579999H83.0542V8.806H84.6562V10.066H83.0542V13H81.6322ZM77.2582 8.806H81.6322V2.632L77.2582 8.806ZM89.0401 13V2.218L86.0881 3.874L85.4941 2.686L89.3101 0.579999H90.5161V13H89.0401ZM99.1928 13V10.066H93.2348V8.914L99.1388 0.579999H100.615V8.806H102.217V10.066H100.615V13H99.1928ZM94.8188 8.806H99.1928V2.632L94.8188 8.806ZM107.978 13.27C107.294 13.27 106.658 13.144 106.07 12.892C105.494 12.628 104.996 12.262 104.576 11.794C104.168 11.326 103.868 10.768 103.676 10.12L105.062 9.796C105.206 10.24 105.422 10.624 105.71 10.948C105.998 11.26 106.334 11.5 106.718 11.668C107.102 11.836 107.522 11.92 107.978 11.92C108.506 11.92 108.974 11.8 109.382 11.56C109.79 11.32 110.114 10.99 110.354 10.57C110.594 10.15 110.714 9.676 110.714 9.148C110.714 8.62 110.594 8.152 110.354 7.744C110.126 7.336 109.802 7.018 109.382 6.79C108.974 6.55 108.5 6.43 107.96 6.43C107.684 6.43 107.396 6.472 107.096 6.556C106.808 6.64 106.532 6.76 106.268 6.916C106.016 7.06 105.8 7.228 105.62 7.42L104.414 7.258V0.579999H111.326V1.966H105.8V5.944C106.412 5.368 107.216 5.08 108.212 5.08C108.788 5.08 109.316 5.182 109.796 5.386C110.288 5.59 110.714 5.878 111.074 6.25C111.446 6.61 111.728 7.042 111.92 7.546C112.124 8.038 112.226 8.572 112.226 9.148C112.226 9.736 112.118 10.282 111.902 10.786C111.686 11.278 111.38 11.71 110.984 12.082C110.6 12.454 110.15 12.748 109.634 12.964C109.13 13.168 108.578 13.27 107.978 13.27ZM117.028 13.27C115.948 13.27 115 12.982 114.184 12.406L114.742 11.218C115.378 11.686 116.122 11.92 116.974 11.92C117.826 11.92 118.558 11.704 119.17 11.272C119.782 10.828 120.244 10.204 120.556 9.4C120.88 8.584 121.042 7.618 121.042 6.502V6.322C120.778 6.994 120.352 7.522 119.764 7.906C119.176 8.278 118.486 8.464 117.694 8.464C117.094 8.464 116.542 8.362 116.038 8.158C115.534 7.954 115.09 7.672 114.706 7.312C114.334 6.952 114.046 6.532 113.842 6.052C113.638 5.56 113.536 5.032 113.536 4.468C113.536 3.892 113.644 3.352 113.86 2.848C114.076 2.344 114.382 1.906 114.778 1.534C115.174 1.15 115.636 0.849999 116.164 0.633999C116.692 0.417999 117.262 0.309999 117.874 0.309999C118.558 0.309999 119.182 0.453999 119.746 0.741999C120.31 1.03 120.796 1.444 121.204 1.984C121.612 2.524 121.924 3.178 122.14 3.946C122.368 4.702 122.482 5.554 122.482 6.502C122.482 7.498 122.356 8.41 122.104 9.238C121.852 10.066 121.492 10.78 121.024 11.38C120.556 11.98 119.98 12.448 119.296 12.784C118.624 13.108 117.868 13.27 117.028 13.27ZM117.82 7.132C118.348 7.132 118.822 7.018 119.242 6.79C119.674 6.55 120.01 6.232 120.25 5.836C120.502 5.428 120.628 4.972 120.628 4.468C120.628 4.084 120.556 3.724 120.412 3.388C120.268 3.04 120.07 2.74 119.818 2.488C119.566 2.224 119.266 2.02 118.918 1.876C118.582 1.732 118.216 1.66 117.82 1.66C117.436 1.66 117.076 1.732 116.74 1.876C116.404 2.02 116.11 2.218 115.858 2.47C115.606 2.722 115.408 3.016 115.264 3.352C115.12 3.688 115.048 4.054 115.048 4.45C115.048 4.966 115.168 5.428 115.408 5.836C115.648 6.232 115.972 6.55 116.38 6.79C116.8 7.018 117.28 7.132 117.82 7.132ZM128.334 13.27C127.65 13.27 127.014 13.144 126.426 12.892C125.85 12.628 125.352 12.262 124.932 11.794C124.524 11.326 124.224 10.768 124.032 10.12L125.418 9.796C125.562 10.24 125.778 10.624 126.066 10.948C126.354 11.26 126.69 11.5 127.074 11.668C127.458 11.836 127.878 11.92 128.334 11.92C128.862 11.92 129.33 11.8 129.738 11.56C130.146 11.32 130.47 10.99 130.71 10.57C130.95 10.15 131.07 9.676 131.07 9.148C131.07 8.62 130.95 8.152 130.71 7.744C130.482 7.336 130.158 7.018 129.738 6.79C129.33 6.55 128.856 6.43 128.316 6.43C128.04 6.43 127.752 6.472 127.452 6.556C127.164 6.64 126.888 6.76 126.624 6.916C126.372 7.06 126.156 7.228 125.976 7.42L124.77 7.258V0.579999H131.682V1.966H126.156V5.944C126.768 5.368 127.572 5.08 128.568 5.08C129.144 5.08 129.672 5.182 130.152 5.386C130.644 5.59 131.07 5.878 131.43 6.25C131.802 6.61 132.084 7.042 132.276 7.546C132.48 8.038 132.582 8.572 132.582 9.148C132.582 9.736 132.474 10.282 132.258 10.786C132.042 11.278 131.736 11.71 131.34 12.082C130.956 12.454 130.506 12.748 129.99 12.964C129.486 13.168 128.934 13.27 128.334 13.27ZM138.658 13.27C138.01 13.27 137.416 13.18 136.876 13C136.348 12.832 135.886 12.586 135.49 12.262C135.106 11.938 134.806 11.554 134.59 11.11C134.374 10.666 134.266 10.18 134.266 9.652C134.266 8.896 134.47 8.242 134.878 7.69C135.286 7.138 135.856 6.736 136.588 6.484C135.976 6.22 135.502 5.848 135.166 5.368C134.842 4.876 134.68 4.312 134.68 3.676C134.68 3.196 134.782 2.752 134.986 2.344C135.19 1.936 135.472 1.582 135.832 1.282C136.204 0.969999 136.63 0.729999 137.11 0.561999C137.602 0.393999 138.13 0.309999 138.694 0.309999C139.258 0.309999 139.78 0.393999 140.26 0.561999C140.74 0.729999 141.16 0.969999 141.52 1.282C141.88 1.582 142.156 1.936 142.348 2.344C142.552 2.752 142.654 3.19 142.654 3.658C142.654 4.282 142.492 4.84 142.168 5.332C141.844 5.812 141.376 6.19 140.764 6.466C141.496 6.718 142.06 7.114 142.456 7.654C142.864 8.194 143.068 8.842 143.068 9.598C143.068 10.126 142.96 10.618 142.744 11.074C142.528 11.518 142.222 11.908 141.826 12.244C141.43 12.568 140.962 12.82 140.422 13C139.894 13.18 139.306 13.27 138.658 13.27ZM138.676 5.854C139.168 5.854 139.6 5.764 139.972 5.584C140.344 5.392 140.632 5.14 140.836 4.828C141.052 4.516 141.16 4.162 141.16 3.766C141.16 3.37 141.052 3.016 140.836 2.704C140.632 2.38 140.344 2.128 139.972 1.948C139.6 1.756 139.168 1.66 138.676 1.66C138.184 1.66 137.752 1.756 137.38 1.948C137.008 2.128 136.714 2.38 136.498 2.704C136.282 3.016 136.174 3.37 136.174 3.766C136.174 4.162 136.282 4.516 136.498 4.828C136.714 5.14 137.008 5.392 137.38 5.584C137.752 5.764 138.184 5.854 138.676 5.854ZM138.676 11.92C139.264 11.92 139.768 11.824 140.188 11.632C140.62 11.428 140.956 11.152 141.196 10.804C141.436 10.444 141.556 10.03 141.556 9.562C141.556 9.094 141.436 8.686 141.196 8.338C140.956 7.978 140.62 7.702 140.188 7.51C139.768 7.306 139.264 7.204 138.676 7.204C138.1 7.204 137.59 7.306 137.146 7.51C136.714 7.702 136.378 7.978 136.138 8.338C135.898 8.686 135.778 9.094 135.778 9.562C135.778 10.03 135.898 10.444 136.138 10.804C136.378 11.152 136.714 11.428 137.146 11.632C137.59 11.824 138.1 11.92 138.676 11.92Z" fill="#202D3F"/>
</svg>
