<svg width="55" height="350" viewBox="0 0 40 332" fill="none" xmlns="http://www.w3.org/2000/svg">
<path d="M15.4 264.104C15.4 265.077 15.22 265.977 14.86 266.804C14.4867 267.617 13.9733 268.33 13.32 268.944C12.6533 269.544 11.8733 270.01 10.98 270.344C10.0733 270.677 9.08667 270.844 8.02 270.844C7.15333 270.844 6.34 270.737 5.58 270.524C4.80667 270.297 4.10667 269.984 3.48 269.584C2.84 269.17 2.29333 268.69 1.84 268.144C1.37333 267.584 1.02 266.964 0.779999 266.284C0.526666 265.604 0.4 264.884 0.4 264.124C0.4 263.27 0.546666 262.477 0.84 261.744C1.13333 260.997 1.54667 260.344 2.08 259.784C2.61333 259.21 3.25333 258.77 4 258.464L4.58 260.004C3.74 260.417 3.09333 260.984 2.64 261.704C2.17333 262.41 1.94 263.21 1.94 264.104C1.94 264.824 2.09333 265.49 2.4 266.104C2.70667 266.704 3.13333 267.23 3.68 267.684C4.22667 268.137 4.86667 268.49 5.6 268.744C6.33333 268.997 7.13333 269.124 8 269.124C8.85333 269.124 9.64 269.004 10.36 268.764C11.0667 268.51 11.6867 268.157 12.22 267.704C12.74 267.25 13.1467 266.717 13.44 266.104C13.72 265.477 13.86 264.797 13.86 264.064C13.86 263.144 13.6333 262.33 13.18 261.624C12.7267 260.904 12.0733 260.317 11.22 259.864L11.8 258.324C12.5467 258.644 13.1933 259.09 13.74 259.664C14.2733 260.237 14.6867 260.904 14.98 261.664C15.26 262.424 15.4 263.237 15.4 264.104ZM15.3 251.87C15.3 252.603 15.1667 253.283 14.9 253.91C14.62 254.523 14.24 255.063 13.76 255.53C13.2667 255.983 12.6867 256.337 12.02 256.59C11.3533 256.843 10.6267 256.97 9.84 256.97C9.05333 256.97 8.32667 256.843 7.66 256.59C6.99333 256.323 6.42 255.963 5.94 255.51C5.44667 255.043 5.06667 254.497 4.8 253.87C4.52 253.243 4.38 252.563 4.38 251.83C4.38 251.097 4.52 250.423 4.8 249.81C5.06667 249.183 5.44667 248.643 5.94 248.19C6.42 247.723 6.99333 247.363 7.66 247.11C8.32667 246.857 9.05333 246.73 9.84 246.73C10.6267 246.73 11.3533 246.863 12.02 247.13C12.6867 247.383 13.2667 247.743 13.76 248.21C14.24 248.663 14.62 249.203 14.9 249.83C15.1667 250.457 15.3 251.137 15.3 251.87ZM13.84 251.85C13.84 251.343 13.74 250.883 13.54 250.47C13.34 250.043 13.0667 249.677 12.72 249.37C12.36 249.05 11.94 248.803 11.46 248.63C10.9667 248.457 10.4267 248.37 9.84 248.37C9.25333 248.37 8.72 248.457 8.24 248.63C7.74667 248.803 7.32667 249.05 6.98 249.37C6.62 249.677 6.34 250.043 6.14 250.47C5.94 250.883 5.84 251.343 5.84 251.85C5.84 252.357 5.94 252.823 6.14 253.25C6.34 253.663 6.62 254.03 6.98 254.35C7.32667 254.657 7.74667 254.897 8.24 255.07C8.72 255.243 9.25333 255.33 9.84 255.33C10.4267 255.33 10.9667 255.243 11.46 255.07C11.94 254.897 12.36 254.657 12.72 254.35C13.0667 254.03 13.34 253.663 13.54 253.25C13.74 252.823 13.84 252.357 13.84 251.85ZM15 244.858H4.68V243.418L6.26 243.338C5.68667 243.044 5.23333 242.618 4.9 242.058C4.55333 241.498 4.38 240.858 4.38 240.138C4.38 239.364 4.58 238.691 4.98 238.118C5.38 237.544 5.94 237.118 6.66 236.838C6.20667 236.664 5.81333 236.404 5.48 236.058C5.13333 235.711 4.86667 235.304 4.68 234.838C4.48 234.358 4.38 233.844 4.38 233.298C4.38 232.524 4.56667 231.858 4.94 231.298C5.3 230.724 5.81333 230.291 6.48 229.998C7.14667 229.691 7.94667 229.538 8.88 229.538H15V231.138H8.98C7.96667 231.138 7.19333 231.344 6.66 231.758C6.11333 232.171 5.84 232.771 5.84 233.558C5.84 234.104 5.97333 234.591 6.24 235.018C6.49333 235.444 6.84667 235.784 7.3 236.038C7.74 236.278 8.24 236.398 8.8 236.398H15V237.998H8.98C7.96667 237.998 7.19333 238.211 6.66 238.638C6.11333 239.064 5.84 239.671 5.84 240.458C5.84 240.991 5.97333 241.471 6.24 241.898C6.49333 242.324 6.84667 242.658 7.3 242.898C7.74 243.138 8.24 243.258 8.8 243.258H15V244.858ZM19.08 227.211H4.68V225.771L6.64 225.691C5.93333 225.318 5.38 224.804 4.98 224.151C4.58 223.484 4.38 222.731 4.38 221.891C4.38 221.211 4.52 220.578 4.8 219.991C5.06667 219.404 5.44667 218.891 5.94 218.451C6.43333 218.011 7.01333 217.671 7.68 217.431C8.33333 217.178 9.04667 217.051 9.82 217.051C10.5933 217.051 11.3133 217.178 11.98 217.431C12.6467 217.671 13.2267 218.018 13.72 218.471C14.2133 218.911 14.6 219.431 14.88 220.031C15.16 220.631 15.3 221.278 15.3 221.971C15.3 222.758 15.12 223.471 14.76 224.111C14.4 224.738 13.8933 225.238 13.24 225.611H19.08V227.211ZM13.84 222.171C13.84 221.664 13.74 221.204 13.54 220.791C13.34 220.364 13.0667 219.998 12.72 219.691C12.36 219.371 11.94 219.124 11.46 218.951C10.9667 218.778 10.4267 218.691 9.84 218.691C9.25333 218.691 8.72 218.778 8.24 218.951C7.74667 219.124 7.32667 219.371 6.98 219.691C6.62 219.998 6.34 220.364 6.14 220.791C5.94 221.204 5.84 221.664 5.84 222.171C5.84 222.678 5.94 223.144 6.14 223.571C6.34 223.984 6.62 224.351 6.98 224.671C7.32667 224.978 7.74667 225.218 8.24 225.391C8.72 225.564 9.25333 225.651 9.84 225.651C10.4267 225.651 10.9667 225.564 11.46 225.391C11.94 225.218 12.36 224.978 12.72 224.671C13.0667 224.351 13.34 223.984 13.54 223.571C13.74 223.144 13.84 222.678 13.84 222.171ZM15 215.169H4.68V213.729L6.6 213.629C5.96 213.376 5.46 212.996 5.1 212.489C4.72667 211.983 4.54 211.389 4.54 210.709C4.54 210.483 4.56 210.283 4.6 210.109C4.62667 209.923 4.66667 209.763 4.72 209.629L6.24 209.829C6.18667 209.976 6.15333 210.129 6.14 210.289C6.11333 210.449 6.1 210.609 6.1 210.769C6.1 211.329 6.24 211.823 6.52 212.249C6.8 212.663 7.2 212.989 7.72 213.229C8.22667 213.456 8.82667 213.569 9.52 213.569H15V215.169ZM15.3 203.761C15.3 204.521 15.1667 205.221 14.9 205.861C14.6333 206.487 14.26 207.034 13.78 207.501C13.2867 207.967 12.7133 208.327 12.06 208.581C11.3933 208.834 10.66 208.961 9.86 208.961C9.07333 208.961 8.35333 208.841 7.7 208.601C7.03333 208.347 6.45333 208.001 5.96 207.561C5.46667 207.107 5.08667 206.581 4.82 205.981C4.54 205.381 4.4 204.727 4.4 204.021C4.4 203.341 4.52667 202.714 4.78 202.141C5.03333 201.554 5.38667 201.047 5.84 200.621C6.29333 200.194 6.83333 199.867 7.46 199.641C8.08667 199.401 8.76667 199.281 9.5 199.281H10.16V207.301C10.9067 207.247 11.56 207.074 12.12 206.781C12.68 206.474 13.1133 206.067 13.42 205.561C13.7267 205.054 13.88 204.467 13.88 203.801C13.88 203.147 13.7467 202.581 13.48 202.101C13.2 201.607 12.7933 201.187 12.26 200.841L12.88 199.481C13.3867 199.747 13.82 200.094 14.18 200.521C14.54 200.947 14.8133 201.441 15 202.001C15.2 202.547 15.3 203.134 15.3 203.761ZM5.76 204.021C5.76 204.567 5.89333 205.067 6.16 205.521C6.42667 205.961 6.8 206.334 7.28 206.641C7.74667 206.934 8.29333 207.127 8.92 207.221V200.961C8.29333 201.014 7.74667 201.181 7.28 201.461C6.8 201.741 6.42667 202.101 6.16 202.541C5.89333 202.981 5.76 203.474 5.76 204.021ZM15 197.395H0.159999V195.795H6.18C5.63333 195.489 5.2 195.049 4.88 194.475C4.54667 193.902 4.38 193.255 4.38 192.535C4.38 191.749 4.56667 191.062 4.94 190.475C5.31333 189.889 5.84667 189.442 6.54 189.135C7.22 188.815 8.02667 188.655 8.96 188.655H15V190.255H9.06C8.03333 190.255 7.24 190.482 6.68 190.935C6.12 191.375 5.84 192.009 5.84 192.835C5.84 193.409 5.97333 193.922 6.24 194.375C6.49333 194.815 6.85333 195.162 7.32 195.415C7.77333 195.669 8.29333 195.795 8.88 195.795H15V197.395ZM15.3 181.65C15.3 182.41 15.1667 183.11 14.9 183.75C14.6333 184.377 14.26 184.924 13.78 185.39C13.2867 185.857 12.7133 186.217 12.06 186.47C11.3933 186.724 10.66 186.85 9.86 186.85C9.07333 186.85 8.35333 186.73 7.7 186.49C7.03333 186.237 6.45333 185.89 5.96 185.45C5.46667 184.997 5.08667 184.47 4.82 183.87C4.54 183.27 4.4 182.617 4.4 181.91C4.4 181.23 4.52667 180.604 4.78 180.03C5.03333 179.444 5.38667 178.937 5.84 178.51C6.29333 178.084 6.83333 177.757 7.46 177.53C8.08667 177.29 8.76667 177.17 9.5 177.17H10.16V185.19C10.9067 185.137 11.56 184.964 12.12 184.67C12.68 184.364 13.1133 183.957 13.42 183.45C13.7267 182.944 13.88 182.357 13.88 181.69C13.88 181.037 13.7467 180.47 13.48 179.99C13.2 179.497 12.7933 179.077 12.26 178.73L12.88 177.37C13.3867 177.637 13.82 177.984 14.18 178.41C14.54 178.837 14.8133 179.33 15 179.89C15.2 180.437 15.3 181.024 15.3 181.65ZM5.76 181.91C5.76 182.457 5.89333 182.957 6.16 183.41C6.42667 183.85 6.8 184.224 7.28 184.53C7.74667 184.824 8.29333 185.017 8.92 185.11V178.85C8.29333 178.904 7.74667 179.07 7.28 179.35C6.8 179.63 6.42667 179.99 6.16 180.43C5.89333 180.87 5.76 181.364 5.76 181.91ZM15 175.285H4.68V173.845L6.32 173.765C5.73333 173.458 5.26667 173.018 4.92 172.445C4.56 171.858 4.38 171.185 4.38 170.425C4.38 169.638 4.56667 168.952 4.94 168.365C5.31333 167.778 5.84667 167.332 6.54 167.025C7.22 166.705 8.02667 166.545 8.96 166.545H15V168.145H9.06C8.03333 168.145 7.24 168.372 6.68 168.825C6.12 169.265 5.84 169.898 5.84 170.725C5.84 171.298 5.97333 171.812 6.24 172.265C6.49333 172.705 6.85333 173.052 7.32 173.305C7.77333 173.558 8.29333 173.685 8.88 173.685H15V175.285ZM15.3 160.96C15.3 161.56 15.2 162.127 15 162.66C14.8 163.18 14.5133 163.634 14.14 164.02C13.7667 164.407 13.3267 164.7 12.82 164.9L12.3 163.46C12.8067 163.194 13.2 162.847 13.48 162.42C13.76 161.994 13.9 161.507 13.9 160.96C13.9 160.52 13.8267 160.134 13.68 159.8C13.5333 159.467 13.3333 159.207 13.08 159.02C12.8133 158.834 12.52 158.74 12.2 158.74C11.3333 158.74 10.7733 159.367 10.52 160.62L10.36 161.4C10.1467 162.494 9.8 163.3 9.32 163.82C8.82667 164.34 8.20667 164.6 7.46 164.6C6.86 164.6 6.32667 164.447 5.86 164.14C5.39333 163.834 5.03333 163.407 4.78 162.86C4.51333 162.3 4.38 161.667 4.38 160.96C4.38 160.374 4.48 159.834 4.68 159.34C4.86667 158.847 5.14667 158.427 5.52 158.08C5.89333 157.72 6.33333 157.447 6.84 157.26L7.32 158.7C6.82667 158.914 6.44667 159.22 6.18 159.62C5.9 160.007 5.76 160.46 5.76 160.98C5.76 161.38 5.82667 161.734 5.96 162.04C6.09333 162.334 6.27333 162.567 6.5 162.74C6.72667 162.914 6.99333 163 7.3 163C7.72667 163 8.06667 162.84 8.32 162.52C8.57333 162.187 8.77333 161.654 8.92 160.92L9.08 160.14C9.28 159.154 9.63333 158.4 10.14 157.88C10.6333 157.36 11.2667 157.1 12.04 157.1C12.52 157.1 12.96 157.2 13.36 157.4C13.7467 157.587 14.0867 157.854 14.38 158.2C14.6733 158.534 14.9 158.94 15.06 159.42C15.22 159.887 15.3 160.4 15.3 160.96ZM1.66 153.482C1.86 153.482 2.04667 153.535 2.22 153.642C2.38 153.735 2.51333 153.869 2.62 154.042C2.71333 154.202 2.76 154.382 2.76 154.582C2.76 154.782 2.71333 154.969 2.62 155.142C2.51333 155.302 2.38 155.435 2.22 155.542C2.04667 155.635 1.86 155.682 1.66 155.682C1.46 155.682 1.28 155.635 1.12 155.542C0.946666 155.435 0.813333 155.302 0.719999 155.142C0.613332 154.969 0.559999 154.782 0.559999 154.582C0.559999 154.382 0.613332 154.202 0.719999 154.042C0.813333 153.869 0.946666 153.735 1.12 153.642C1.28 153.535 1.46 153.482 1.66 153.482ZM15 155.382H4.68V153.782H15V155.382ZM15 148.387L4.68 152.427V150.667L13.28 147.527L4.68 144.387V142.687L15 146.727V148.387ZM15.3 136.873C15.3 137.633 15.1667 138.333 14.9 138.973C14.6333 139.6 14.26 140.146 13.78 140.613C13.2867 141.08 12.7133 141.44 12.06 141.693C11.3933 141.946 10.66 142.073 9.86 142.073C9.07333 142.073 8.35333 141.953 7.7 141.713C7.03333 141.46 6.45333 141.113 5.96 140.673C5.46667 140.22 5.08667 139.693 4.82 139.093C4.54 138.493 4.4 137.84 4.4 137.133C4.4 136.453 4.52667 135.826 4.78 135.253C5.03333 134.666 5.38667 134.16 5.84 133.733C6.29333 133.306 6.83333 132.98 7.46 132.753C8.08667 132.513 8.76667 132.393 9.5 132.393H10.16L10.16 140.413C10.9067 140.36 11.56 140.186 12.12 139.893C12.68 139.586 13.1133 139.18 13.42 138.673C13.7267 138.166 13.88 137.58 13.88 136.913C13.88 136.26 13.7467 135.693 13.48 135.213C13.2 134.72 12.7933 134.3 12.26 133.953L12.88 132.593C13.3867 132.86 13.82 133.206 14.18 133.633C14.54 134.06 14.8133 134.553 15 135.113C15.2 135.66 15.3 136.246 15.3 136.873ZM5.76 137.133C5.76 137.68 5.89333 138.18 6.16 138.633C6.42667 139.073 6.8 139.446 7.28 139.753C7.74667 140.046 8.29333 140.24 8.92 140.333V134.073C8.29333 134.126 7.74667 134.293 7.28 134.573C6.8 134.853 6.42667 135.213 6.16 135.653C5.89333 136.093 5.76 136.586 5.76 137.133ZM15.3 123.333C15.3 124.053 15.1667 124.693 14.9 125.253C14.62 125.813 14.24 126.253 13.76 126.573C13.28 126.879 12.7267 127.033 12.1 127.033C11.42 127.033 10.8333 126.859 10.34 126.513C9.84667 126.153 9.46667 125.653 9.2 125.013C8.92 124.373 8.78 123.626 8.78 122.773C8.78 122.293 8.83333 121.806 8.94 121.313C9.04667 120.819 9.18667 120.379 9.36 119.993H8.6C8.04 119.993 7.55333 120.106 7.14 120.333C6.71333 120.546 6.38667 120.846 6.16 121.233C5.92 121.619 5.8 122.073 5.8 122.593C5.8 123.219 5.94667 123.766 6.24 124.233C6.53333 124.686 6.94667 125.026 7.48 125.253L7 126.653C6.46667 126.466 6.00667 126.179 5.62 125.793C5.23333 125.393 4.93333 124.919 4.72 124.373C4.50667 123.813 4.4 123.213 4.4 122.573C4.4 121.746 4.58 121.026 4.94 120.413C5.28667 119.786 5.78 119.306 6.42 118.973C7.04667 118.626 7.78667 118.453 8.64 118.453H15V119.853L13.4 119.953C13.9733 120.246 14.4333 120.693 14.78 121.293C15.1267 121.879 15.3 122.559 15.3 123.333ZM12.04 125.413C12.4267 125.413 12.7667 125.313 13.06 125.113C13.34 124.913 13.56 124.633 13.72 124.273C13.88 123.913 13.96 123.499 13.96 123.033C13.96 122.459 13.8333 121.946 13.58 121.493C13.3133 121.026 12.96 120.659 12.52 120.393C12.0667 120.126 11.5533 119.993 10.98 119.993H10.6C10.4267 120.433 10.2933 120.879 10.2 121.333C10.0933 121.773 10.04 122.193 10.04 122.593C10.04 123.473 10.22 124.166 10.58 124.673C10.94 125.166 11.4267 125.413 12.04 125.413ZM15 116.132H4.68V114.692L6.32 114.612C5.73333 114.305 5.26667 113.865 4.92 113.292C4.56 112.705 4.38 112.032 4.38 111.272C4.38 110.485 4.56667 109.799 4.94 109.212C5.31333 108.625 5.84667 108.179 6.54 107.872C7.22 107.552 8.02667 107.392 8.96 107.392H15V108.992H9.06C8.03333 108.992 7.24 109.219 6.68 109.672C6.12 110.112 5.84 110.745 5.84 111.572C5.84 112.145 5.97333 112.659 6.24 113.112C6.49333 113.552 6.85333 113.899 7.32 114.152C7.77333 114.405 8.29333 114.532 8.88 114.532H15V116.132ZM15.3 100.747C15.3 101.427 15.1667 102.06 14.9 102.647C14.62 103.234 14.2333 103.747 13.74 104.187C13.2467 104.627 12.6733 104.974 12.02 105.227C11.3533 105.467 10.6333 105.587 9.86 105.587C9.08667 105.587 8.36667 105.467 7.7 105.227C7.03333 104.974 6.45333 104.627 5.96 104.187C5.46667 103.734 5.08 103.207 4.8 102.607C4.52 102.007 4.38 101.36 4.38 100.667C4.38 99.8805 4.56 99.1738 4.92 98.5471C5.28 97.9071 5.78667 97.4005 6.44 97.0271H0.159999V95.4271H15V96.8671L13.04 96.9471C13.7467 97.3205 14.3 97.8405 14.7 98.5071C15.1 99.1605 15.3 99.9071 15.3 100.747ZM13.84 100.467C13.84 99.9605 13.74 99.5005 13.54 99.0871C13.34 98.6605 13.0667 98.2938 12.72 97.9871C12.36 97.6671 11.94 97.4205 11.46 97.2471C10.9667 97.0738 10.4267 96.9871 9.84 96.9871C9.25333 96.9871 8.72 97.0738 8.24 97.2471C7.74667 97.4205 7.32667 97.6671 6.98 97.9871C6.62 98.2938 6.34 98.6605 6.14 99.0871C5.94 99.5005 5.84 99.9605 5.84 100.467C5.84 100.974 5.94 101.44 6.14 101.867C6.34 102.28 6.62 102.647 6.98 102.967C7.32667 103.274 7.74667 103.514 8.24 103.687C8.72 103.86 9.25333 103.947 9.84 103.947C10.4267 103.947 10.9667 103.86 11.46 103.687C11.94 103.514 12.36 103.274 12.72 102.967C13.0667 102.647 13.34 102.28 13.54 101.867C13.74 101.44 13.84 100.974 13.84 100.467ZM15 88.8907H0.799999V87.2107H15V88.8907ZM15 84.6461H4.68V83.2061L6.32 83.1261C5.73333 82.8194 5.26667 82.3794 4.92 81.8061C4.56 81.2194 4.38 80.5461 4.38 79.7861C4.38 78.9994 4.56667 78.3127 4.94 77.7261C5.31333 77.1394 5.84667 76.6927 6.54 76.3861C7.22 76.0661 8.02667 75.9061 8.96 75.9061H15V77.5061H9.06C8.03333 77.5061 7.24 77.7327 6.68 78.1861C6.12 78.6261 5.84 79.2594 5.84 80.0861C5.84 80.6594 5.97333 81.1727 6.24 81.6261C6.49333 82.0661 6.85333 82.4127 7.32 82.6661C7.77333 82.9194 8.29333 83.0461 8.88 83.0461H15V84.6461ZM15 73.5812H4.68V72.1412L6.32 72.0612C5.73333 71.7545 5.26667 71.3145 4.92 70.7412C4.56 70.1545 4.38 69.4812 4.38 68.7212C4.38 67.9345 4.56667 67.2479 4.94 66.6612C5.31333 66.0745 5.84667 65.6279 6.54 65.3212C7.22 65.0012 8.02667 64.8412 8.96 64.8412H15V66.4412H9.06C8.03333 66.4412 7.24 66.6679 6.68 67.1212C6.12 67.5612 5.84 68.1945 5.84 69.0212C5.84 69.5945 5.97333 70.1079 6.24 70.5612C6.49333 71.0012 6.85333 71.3479 7.32 71.6012C7.77333 71.8545 8.29333 71.9812 8.88 71.9812H15V73.5812ZM15.3 57.9364C15.3 58.6697 15.1667 59.3497 14.9 59.9764C14.62 60.5897 14.24 61.1297 13.76 61.5964C13.2667 62.0497 12.6867 62.403 12.02 62.6564C11.3533 62.9097 10.6267 63.0364 9.84 63.0364C9.05333 63.0364 8.32667 62.9097 7.66 62.6564C6.99333 62.3897 6.42 62.0297 5.94 61.5764C5.44667 61.1097 5.06667 60.563 4.8 59.9364C4.52 59.3097 4.38 58.6297 4.38 57.8964C4.38 57.163 4.52 56.4897 4.8 55.8764C5.06667 55.2497 5.44667 54.7097 5.94 54.2564C6.42 53.7897 6.99333 53.4297 7.66 53.1764C8.32667 52.923 9.05333 52.7964 9.84 52.7964C10.6267 52.7964 11.3533 52.9297 12.02 53.1964C12.6867 53.4497 13.2667 53.8097 13.76 54.2764C14.24 54.7297 14.62 55.2697 14.9 55.8964C15.1667 56.523 15.3 57.203 15.3 57.9364ZM13.84 57.9164C13.84 57.4097 13.74 56.9497 13.54 56.5364C13.34 56.1097 13.0667 55.743 12.72 55.4364C12.36 55.1164 11.94 54.8697 11.46 54.6964C10.9667 54.523 10.4267 54.4364 9.84 54.4364C9.25333 54.4364 8.72 54.523 8.24 54.6964C7.74667 54.8697 7.32667 55.1164 6.98 55.4364C6.62 55.743 6.34 56.1097 6.14 56.5364C5.94 56.9497 5.84 57.4097 5.84 57.9164C5.84 58.423 5.94 58.8897 6.14 59.3164C6.34 59.7297 6.62 60.0964 6.98 60.4164C7.32667 60.723 7.74667 60.963 8.24 61.1364C8.72 61.3097 9.25333 61.3964 9.84 61.3964C10.4267 61.3964 10.9667 61.3097 11.46 61.1364C11.94 60.963 12.36 60.723 12.72 60.4164C13.0667 60.0964 13.34 59.7297 13.54 59.3164C13.74 58.8897 13.84 58.423 13.84 57.9164ZM15 48.1585L4.68 52.1985V50.4385L13.28 47.2985L4.68 44.1585V42.4585L15 46.4985V48.1585ZM15.3 38.2023C15.3 38.9223 15.1667 39.5623 14.9 40.1223C14.62 40.6823 14.24 41.1223 13.76 41.4423C13.28 41.749 12.7267 41.9023 12.1 41.9023C11.42 41.9023 10.8333 41.729 10.34 41.3823C9.84667 41.0223 9.46667 40.5223 9.2 39.8823C8.92 39.2423 8.78 38.4956 8.78 37.6423C8.78 37.1623 8.83333 36.6756 8.94 36.1823C9.04667 35.689 9.18667 35.249 9.36 34.8623H8.6C8.04 34.8623 7.55333 34.9756 7.14 35.2023C6.71333 35.4156 6.38667 35.7156 6.16 36.1023C5.92 36.489 5.8 36.9423 5.8 37.4623C5.8 38.089 5.94667 38.6356 6.24 39.1023C6.53333 39.5556 6.94667 39.8956 7.48 40.1223L7 41.5223C6.46667 41.3356 6.00667 41.049 5.62 40.6623C5.23333 40.2623 4.93333 39.789 4.72 39.2423C4.50667 38.6823 4.4 38.0823 4.4 37.4423C4.4 36.6156 4.58 35.8956 4.94 35.2823C5.28667 34.6556 5.78 34.1756 6.42 33.8423C7.04667 33.4956 7.78667 33.3223 8.64 33.3223H15V34.7223L13.4 34.8223C13.9733 35.1156 14.4333 35.5623 14.78 36.1623C15.1267 36.749 15.3 37.429 15.3 38.2023ZM12.04 40.2823C12.4267 40.2823 12.7667 40.1823 13.06 39.9823C13.34 39.7823 13.56 39.5023 13.72 39.1423C13.88 38.7823 13.96 38.369 13.96 37.9023C13.96 37.329 13.8333 36.8156 13.58 36.3623C13.3133 35.8956 12.96 35.529 12.52 35.2623C12.0667 34.9956 11.5533 34.8623 10.98 34.8623H10.6C10.4267 35.3023 10.2933 35.749 10.2 36.2023C10.0933 36.6423 10.04 37.0623 10.04 37.4623C10.04 38.3423 10.22 39.0356 10.58 39.5423C10.94 40.0356 11.4267 40.2823 12.04 40.2823ZM15.3 27.454C15.3 28.0807 15.1733 28.6207 14.92 29.074C14.6667 29.5274 14.2933 29.8807 13.8 30.134C13.3067 30.374 12.7067 30.494 12 30.494H6.04V32.394H4.68V30.494H1.22V28.894H4.68V25.654H6.04V28.894H11.92C12.5333 28.894 13.0133 28.7674 13.36 28.514C13.6933 28.2474 13.86 27.8474 13.86 27.314C13.86 27.034 13.82 26.754 13.74 26.474C13.6467 26.1807 13.5267 25.9207 13.38 25.694L14.62 25.214C14.82 25.494 14.98 25.8207 15.1 26.194C15.2333 26.5674 15.3 26.9874 15.3 27.454ZM1.66 21.65C1.86 21.65 2.04667 21.7033 2.22 21.81C2.38 21.9033 2.51333 22.0366 2.62 22.21C2.71333 22.37 2.76 22.55 2.76 22.75C2.76 22.95 2.71333 23.1366 2.62 23.31C2.51333 23.47 2.38 23.6033 2.22 23.71C2.04667 23.8033 1.86 23.85 1.66 23.85C1.46 23.85 1.28 23.8033 1.12 23.71C0.946666 23.6033 0.813333 23.47 0.719999 23.31C0.613332 23.1366 0.559999 22.95 0.559999 22.75C0.559999 22.55 0.613332 22.37 0.719999 22.21C0.813333 22.0366 0.946666 21.9033 1.12 21.81C1.28 21.7033 1.46 21.65 1.66 21.65ZM15 23.55H4.68V21.95H15V23.55ZM15 16.5554L4.68 20.5954V18.8354L13.28 15.6954L4.68 12.5554V10.8554L15 14.8954V16.5554ZM15.3 5.04103C15.3 5.80103 15.1667 6.50103 14.9 7.14103C14.6333 7.7677 14.26 8.31437 13.78 8.78103C13.2867 9.2477 12.7133 9.6077 12.06 9.86103C11.3933 10.1144 10.66 10.241 9.86 10.241C9.07333 10.241 8.35333 10.121 7.7 9.88103C7.03333 9.6277 6.45333 9.28103 5.96 8.84103C5.46667 8.3877 5.08667 7.86103 4.82 7.26103C4.54 6.66103 4.4 6.0077 4.4 5.30103C4.4 4.62103 4.52667 3.99437 4.78 3.42103C5.03333 2.83437 5.38667 2.3277 5.84 1.90103C6.29333 1.47437 6.83333 1.1477 7.46 0.921032C8.08667 0.681032 8.76667 0.561033 9.5 0.561033H10.16V8.58103C10.9067 8.5277 11.56 8.35437 12.12 8.06103C12.68 7.75437 13.1133 7.3477 13.42 6.84103C13.7267 6.33437 13.88 5.7477 13.88 5.08103C13.88 4.4277 13.7467 3.86103 13.48 3.38103C13.2 2.8877 12.7933 2.4677 12.26 2.12103L12.88 0.761033C13.3867 1.0277 13.82 1.37437 14.18 1.80103C14.54 2.2277 14.8133 2.72103 15 3.28103C15.2 3.8277 15.3 4.41437 15.3 5.04103ZM5.76 5.30103C5.76 5.8477 5.89333 6.3477 6.16 6.80103C6.42667 7.24103 6.8 7.61437 7.28 7.92103C7.74667 8.21437 8.29333 8.4077 8.92 8.50103V2.24103C8.29333 2.29437 7.74667 2.46103 7.28 2.74103C6.8 3.02103 6.42667 3.38103 6.16 3.82103C5.89333 4.26103 5.76 4.75437 5.76 5.30103ZM39 331.519H24.8V323.519H26.34V329.839H31.22V324.099H32.76V329.839H39V331.519ZM25.66 319.573C25.86 319.573 26.0467 319.627 26.22 319.733C26.38 319.827 26.5133 319.96 26.62 320.133C26.7133 320.293 26.76 320.473 26.76 320.673C26.76 320.873 26.7133 321.06 26.62 321.233C26.5133 321.393 26.38 321.527 26.22 321.633C26.0467 321.727 25.86 321.773 25.66 321.773C25.46 321.773 25.28 321.727 25.12 321.633C24.9467 321.527 24.8133 321.393 24.72 321.233C24.6133 321.06 24.56 320.873 24.56 320.673C24.56 320.473 24.6133 320.293 24.72 320.133C24.8133 319.96 24.9467 319.827 25.12 319.733C25.28 319.627 25.46 319.573 25.66 319.573ZM39 321.473H28.68V319.873H39V321.473ZM39 317.479H28.68V316.039L30.32 315.959C29.7333 315.652 29.2667 315.212 28.92 314.639C28.56 314.052 28.38 313.379 28.38 312.619C28.38 311.832 28.5667 311.146 28.94 310.559C29.3133 309.972 29.8467 309.526 30.54 309.219C31.22 308.899 32.0267 308.739 32.96 308.739H39V310.339H33.06C32.0333 310.339 31.24 310.566 30.68 311.019C30.12 311.459 29.84 312.092 29.84 312.919C29.84 313.492 29.9733 314.006 30.24 314.459C30.4933 314.899 30.8533 315.246 31.32 315.499C31.7733 315.752 32.2933 315.879 32.88 315.879H39V317.479ZM39.3 303.214C39.3 303.934 39.1667 304.574 38.9 305.134C38.62 305.694 38.24 306.134 37.76 306.454C37.28 306.761 36.7267 306.914 36.1 306.914C35.42 306.914 34.8333 306.741 34.34 306.394C33.8467 306.034 33.4667 305.534 33.2 304.894C32.92 304.254 32.78 303.507 32.78 302.654C32.78 302.174 32.8333 301.687 32.94 301.194C33.0467 300.701 33.1867 300.261 33.36 299.874H32.6C32.04 299.874 31.5533 299.987 31.14 300.214C30.7133 300.427 30.3867 300.727 30.16 301.114C29.92 301.501 29.8 301.954 29.8 302.474C29.8 303.101 29.9467 303.647 30.24 304.114C30.5333 304.567 30.9467 304.907 31.48 305.134L31 306.534C30.4667 306.347 30.0067 306.061 29.62 305.674C29.2333 305.274 28.9333 304.801 28.72 304.254C28.5067 303.694 28.4 303.094 28.4 302.454C28.4 301.627 28.58 300.907 28.94 300.294C29.2867 299.667 29.78 299.187 30.42 298.854C31.0467 298.507 31.7867 298.334 32.64 298.334H39V299.734L37.4 299.834C37.9733 300.127 38.4333 300.574 38.78 301.174C39.1267 301.761 39.3 302.441 39.3 303.214ZM36.04 305.294C36.4267 305.294 36.7667 305.194 37.06 304.994C37.34 304.794 37.56 304.514 37.72 304.154C37.88 303.794 37.96 303.381 37.96 302.914C37.96 302.341 37.8333 301.827 37.58 301.374C37.3133 300.907 36.96 300.541 36.52 300.274C36.0667 300.007 35.5533 299.874 34.98 299.874H34.6C34.4267 300.314 34.2933 300.761 34.2 301.214C34.0933 301.654 34.04 302.074 34.04 302.474C34.04 303.354 34.22 304.047 34.58 304.554C34.94 305.047 35.4267 305.294 36.04 305.294ZM39 296.013H28.68V294.573L30.32 294.493C29.7333 294.187 29.2667 293.747 28.92 293.173C28.56 292.587 28.38 291.913 28.38 291.153C28.38 290.367 28.5667 289.68 28.94 289.093C29.3133 288.507 29.8467 288.06 30.54 287.753C31.22 287.433 32.0267 287.273 32.96 287.273H39V288.873H33.06C32.0333 288.873 31.24 289.1 30.68 289.553C30.12 289.993 29.84 290.627 29.84 291.453C29.84 292.027 29.9733 292.54 30.24 292.993C30.4933 293.433 30.8533 293.78 31.32 294.033C31.7733 294.287 32.2933 294.413 32.88 294.413H39V296.013ZM39.3 280.508C39.3 281.215 39.1667 281.868 38.9 282.468C38.6333 283.068 38.26 283.595 37.78 284.048C37.2867 284.502 36.7133 284.855 36.06 285.108C35.4067 285.348 34.6933 285.468 33.92 285.468C33.1467 285.468 32.4267 285.342 31.76 285.088C31.08 284.835 30.4867 284.482 29.98 284.028C29.4733 283.575 29.08 283.042 28.8 282.428C28.52 281.815 28.38 281.148 28.38 280.428C28.38 279.762 28.5 279.162 28.74 278.628C28.98 278.082 29.3067 277.615 29.72 277.228C30.1333 276.828 30.6067 276.522 31.14 276.308L31.64 277.768C31.08 278.062 30.64 278.442 30.32 278.908C30 279.375 29.84 279.902 29.84 280.488C29.84 280.968 29.9467 281.408 30.16 281.808C30.36 282.208 30.64 282.562 31 282.868C31.36 283.175 31.7933 283.415 32.3 283.588C32.7933 283.748 33.3267 283.828 33.9 283.828C34.4733 283.828 35 283.748 35.48 283.588C35.96 283.415 36.38 283.182 36.74 282.888C37.0867 282.595 37.36 282.248 37.56 281.848C37.7467 281.435 37.84 280.988 37.84 280.508C37.84 279.895 37.6867 279.335 37.38 278.828C37.06 278.308 36.62 277.915 36.06 277.648L36.56 276.188C37.12 276.402 37.6067 276.728 38.02 277.168C38.42 277.595 38.7333 278.102 38.96 278.688C39.1867 279.262 39.3 279.868 39.3 280.508ZM25.66 272.53C25.86 272.53 26.0467 272.584 26.22 272.69C26.38 272.784 26.5133 272.917 26.62 273.09C26.7133 273.25 26.76 273.43 26.76 273.63C26.76 273.83 26.7133 274.017 26.62 274.19C26.5133 274.35 26.38 274.484 26.22 274.59C26.0467 274.684 25.86 274.73 25.66 274.73C25.46 274.73 25.28 274.684 25.12 274.59C24.9467 274.484 24.8133 274.35 24.72 274.19C24.6133 274.017 24.56 273.83 24.56 273.63C24.56 273.43 24.6133 273.25 24.72 273.09C24.8133 272.917 24.9467 272.784 25.12 272.69C25.28 272.584 25.46 272.53 25.66 272.53ZM39 274.43H28.68V272.83H39V274.43ZM39.3 267.236C39.3 267.956 39.1667 268.596 38.9 269.156C38.62 269.716 38.24 270.156 37.76 270.476C37.28 270.783 36.7267 270.936 36.1 270.936C35.42 270.936 34.8333 270.763 34.34 270.416C33.8467 270.056 33.4667 269.556 33.2 268.916C32.92 268.276 32.78 267.529 32.78 266.676C32.78 266.196 32.8333 265.709 32.94 265.216C33.0467 264.723 33.1867 264.283 33.36 263.896H32.6C32.04 263.896 31.5533 264.009 31.14 264.236C30.7133 264.449 30.3867 264.749 30.16 265.136C29.92 265.523 29.8 265.976 29.8 266.496C29.8 267.123 29.9467 267.669 30.24 268.136C30.5333 268.589 30.9467 268.929 31.48 269.156L31 270.556C30.4667 270.369 30.0067 270.083 29.62 269.696C29.2333 269.296 28.9333 268.823 28.72 268.276C28.5067 267.716 28.4 267.116 28.4 266.476C28.4 265.649 28.58 264.929 28.94 264.316C29.2867 263.689 29.78 263.209 30.42 262.876C31.0467 262.529 31.7867 262.356 32.64 262.356H39V263.756L37.4 263.856C37.9733 264.149 38.4333 264.596 38.78 265.196C39.1267 265.783 39.3 266.463 39.3 267.236ZM36.04 269.316C36.4267 269.316 36.7667 269.216 37.06 269.016C37.34 268.816 37.56 268.536 37.72 268.176C37.88 267.816 37.96 267.403 37.96 266.936C37.96 266.363 37.8333 265.849 37.58 265.396C37.3133 264.929 36.96 264.563 36.52 264.296C36.0667 264.029 35.5533 263.896 34.98 263.896H34.6C34.4267 264.336 34.2933 264.783 34.2 265.236C34.0933 265.676 34.04 266.096 34.04 266.496C34.04 267.376 34.22 268.069 34.58 268.576C34.94 269.069 35.4267 269.316 36.04 269.316ZM39 260.035H24.16V258.435H39V260.035ZM39.3 247.986C39.3 248.732 39.1733 249.426 38.92 250.066C38.6533 250.706 38.28 251.259 37.8 251.726C37.32 252.192 36.7533 252.532 36.1 252.746L35.6 251.166C36.2933 250.899 36.8333 250.492 37.22 249.946C37.6067 249.386 37.8 248.739 37.8 248.006C37.8 247.432 37.6867 246.919 37.46 246.466C37.22 245.999 36.9 245.639 36.5 245.386C36.0867 245.119 35.6267 244.986 35.12 244.986C34.4667 244.986 33.9333 245.212 33.52 245.666C33.0933 246.106 32.7867 246.746 32.6 247.586L32.4 248.466C32.1067 249.772 31.6267 250.752 30.96 251.406C30.2933 252.059 29.4733 252.386 28.5 252.386C27.9133 252.386 27.38 252.279 26.9 252.066C26.4067 251.839 25.98 251.526 25.62 251.126C25.26 250.726 24.9867 250.266 24.8 249.746C24.6 249.212 24.5 248.639 24.5 248.026C24.5 247.306 24.6333 246.646 24.9 246.046C25.1533 245.432 25.52 244.906 26 244.466C26.48 244.026 27.04 243.706 27.68 243.506L28.18 245.086C27.4733 245.352 26.9333 245.739 26.56 246.246C26.1867 246.752 26 247.346 26 248.026C26 248.546 26.1067 249.006 26.32 249.406C26.52 249.806 26.8 250.119 27.16 250.346C27.5067 250.572 27.9133 250.686 28.38 250.686C28.9933 250.686 29.5 250.466 29.9 250.026C30.2867 249.586 30.5933 248.886 30.82 247.926L31.02 247.046C31.3133 245.779 31.8067 244.839 32.5 244.226C33.1933 243.599 34.0333 243.286 35.02 243.286C35.6467 243.286 36.2267 243.406 36.76 243.646C37.28 243.872 37.7333 244.199 38.12 244.626C38.4933 245.039 38.7867 245.532 39 246.106C39.2 246.679 39.3 247.306 39.3 247.986ZM39.3 236.477C39.3 237.237 39.1667 237.937 38.9 238.577C38.6333 239.204 38.26 239.75 37.78 240.217C37.2867 240.684 36.7133 241.044 36.06 241.297C35.3933 241.55 34.66 241.677 33.86 241.677C33.0733 241.677 32.3533 241.557 31.7 241.317C31.0333 241.064 30.4533 240.717 29.96 240.277C29.4667 239.824 29.0867 239.297 28.82 238.697C28.54 238.097 28.4 237.444 28.4 236.737C28.4 236.057 28.5267 235.43 28.78 234.857C29.0333 234.27 29.3867 233.764 29.84 233.337C30.2933 232.91 30.8333 232.584 31.46 232.357C32.0867 232.117 32.7667 231.997 33.5 231.997H34.16V240.017C34.9067 239.964 35.56 239.79 36.12 239.497C36.68 239.19 37.1133 238.784 37.42 238.277C37.7267 237.77 37.88 237.184 37.88 236.517C37.88 235.864 37.7467 235.297 37.48 234.817C37.2 234.324 36.7933 233.904 36.26 233.557L36.88 232.197C37.3867 232.464 37.82 232.81 38.18 233.237C38.54 233.664 38.8133 234.157 39 234.717C39.2 235.264 39.3 235.85 39.3 236.477ZM29.76 236.737C29.76 237.284 29.8933 237.784 30.16 238.237C30.4267 238.677 30.8 239.05 31.28 239.357C31.7467 239.65 32.2933 239.844 32.92 239.937V233.677C32.2933 233.73 31.7467 233.897 31.28 234.177C30.8 234.457 30.4267 234.817 30.16 235.257C29.8933 235.697 29.76 236.19 29.76 236.737ZM39 230.112H28.68V228.672L30.6 228.572C29.96 228.318 29.46 227.938 29.1 227.432C28.7267 226.925 28.54 226.332 28.54 225.652C28.54 225.425 28.56 225.225 28.6 225.052C28.6267 224.865 28.6667 224.705 28.72 224.572L30.24 224.772C30.1867 224.918 30.1533 225.072 30.14 225.232C30.1133 225.392 30.1 225.552 30.1 225.712C30.1 226.272 30.24 226.765 30.52 227.192C30.8 227.605 31.2 227.932 31.72 228.172C32.2267 228.398 32.8267 228.512 33.52 228.512H39V230.112ZM39 219.777L28.68 223.817V222.057L37.28 218.917L28.68 215.777V214.077L39 218.117V219.777ZM25.66 210.809C25.86 210.809 26.0467 210.862 26.22 210.969C26.38 211.062 26.5133 211.195 26.62 211.369C26.7133 211.529 26.76 211.709 26.76 211.909C26.76 212.109 26.7133 212.295 26.62 212.469C26.5133 212.629 26.38 212.762 26.22 212.869C26.0467 212.962 25.86 213.009 25.66 213.009C25.46 213.009 25.28 212.962 25.12 212.869C24.9467 212.762 24.8133 212.629 24.72 212.469C24.6133 212.295 24.56 212.109 24.56 211.909C24.56 211.709 24.6133 211.529 24.72 211.369C24.8133 211.195 24.9467 211.062 25.12 210.969C25.28 210.862 25.46 210.809 25.66 210.809ZM39 212.709H28.68V211.109H39V212.709ZM39.3 204.274C39.3 204.981 39.1667 205.634 38.9 206.234C38.6333 206.834 38.26 207.361 37.78 207.814C37.2867 208.267 36.7133 208.621 36.06 208.874C35.4067 209.114 34.6933 209.234 33.92 209.234C33.1467 209.234 32.4267 209.107 31.76 208.854C31.08 208.601 30.4867 208.247 29.98 207.794C29.4733 207.341 29.08 206.807 28.8 206.194C28.52 205.581 28.38 204.914 28.38 204.194C28.38 203.527 28.5 202.927 28.74 202.394C28.98 201.847 29.3067 201.381 29.72 200.994C30.1333 200.594 30.6067 200.287 31.14 200.074L31.64 201.534C31.08 201.827 30.64 202.207 30.32 202.674C30 203.141 29.84 203.667 29.84 204.254C29.84 204.734 29.9467 205.174 30.16 205.574C30.36 205.974 30.64 206.327 31 206.634C31.36 206.941 31.7933 207.181 32.3 207.354C32.7933 207.514 33.3267 207.594 33.9 207.594C34.4733 207.594 35 207.514 35.48 207.354C35.96 207.181 36.38 206.947 36.74 206.654C37.0867 206.361 37.36 206.014 37.56 205.614C37.7467 205.201 37.84 204.754 37.84 204.274C37.84 203.661 37.6867 203.101 37.38 202.594C37.06 202.074 36.62 201.681 36.06 201.414L36.56 199.954C37.12 200.167 37.6067 200.494 38.02 200.934C38.42 201.361 38.7333 201.867 38.96 202.454C39.1867 203.027 39.3 203.634 39.3 204.274ZM39.3 193.555C39.3 194.315 39.1667 195.015 38.9 195.655C38.6333 196.282 38.26 196.828 37.78 197.295C37.2867 197.762 36.7133 198.122 36.06 198.375C35.3933 198.628 34.66 198.755 33.86 198.755C33.0733 198.755 32.3533 198.635 31.7 198.395C31.0333 198.142 30.4533 197.795 29.96 197.355C29.4667 196.902 29.0867 196.375 28.82 195.775C28.54 195.175 28.4 194.522 28.4 193.815C28.4 193.135 28.5267 192.508 28.78 191.935C29.0333 191.348 29.3867 190.842 29.84 190.415C30.2933 189.988 30.8333 189.662 31.46 189.435C32.0867 189.195 32.7667 189.075 33.5 189.075H34.16V197.095C34.9067 197.042 35.56 196.868 36.12 196.575C36.68 196.268 37.1133 195.862 37.42 195.355C37.7267 194.848 37.88 194.262 37.88 193.595C37.88 192.942 37.7467 192.375 37.48 191.895C37.2 191.402 36.7933 190.982 36.26 190.635L36.88 189.275C37.3867 189.542 37.82 189.888 38.18 190.315C38.54 190.742 38.8133 191.235 39 191.795C39.2 192.342 39.3 192.928 39.3 193.555ZM29.76 193.815C29.76 194.362 29.8933 194.862 30.16 195.315C30.4267 195.755 30.8 196.128 31.28 196.435C31.7467 196.728 32.2933 196.922 32.92 197.015V190.755C32.2933 190.808 31.7467 190.975 31.28 191.255C30.8 191.535 30.4267 191.895 30.16 192.335C29.8933 192.775 29.76 193.268 29.76 193.815ZM39.3 183.891C39.3 184.491 39.2 185.057 39 185.591C38.8 186.111 38.5133 186.564 38.14 186.951C37.7667 187.337 37.3267 187.631 36.82 187.831L36.3 186.391C36.8067 186.124 37.2 185.777 37.48 185.351C37.76 184.924 37.9 184.437 37.9 183.891C37.9 183.451 37.8267 183.064 37.68 182.731C37.5333 182.397 37.3333 182.137 37.08 181.951C36.8133 181.764 36.52 181.671 36.2 181.671C35.3333 181.671 34.7733 182.297 34.52 183.551L34.36 184.331C34.1467 185.424 33.8 186.231 33.32 186.751C32.8267 187.271 32.2067 187.531 31.46 187.531C30.86 187.531 30.3267 187.377 29.86 187.071C29.3933 186.764 29.0333 186.337 28.78 185.791C28.5133 185.231 28.38 184.597 28.38 183.891C28.38 183.304 28.48 182.764 28.68 182.271C28.8667 181.777 29.1467 181.357 29.52 181.011C29.8933 180.651 30.3333 180.377 30.84 180.191L31.32 181.631C30.8267 181.844 30.4467 182.151 30.18 182.551C29.9 182.937 29.76 183.391 29.76 183.911C29.76 184.311 29.8267 184.664 29.96 184.971C30.0933 185.264 30.2733 185.497 30.5 185.671C30.7267 185.844 30.9933 185.931 31.3 185.931C31.7267 185.931 32.0667 185.771 32.32 185.451C32.5733 185.117 32.7733 184.584 32.92 183.851L33.08 183.071C33.28 182.084 33.6333 181.331 34.14 180.811C34.6333 180.291 35.2667 180.031 36.04 180.031C36.52 180.031 36.96 180.131 37.36 180.331C37.7467 180.517 38.0867 180.784 38.38 181.131C38.6733 181.464 38.9 181.871 39.06 182.351C39.22 182.817 39.3 183.331 39.3 183.891ZM39 173.517H30.04V175.417H28.68V173.517H27.72C26.96 173.517 26.3 173.377 25.74 173.097C25.1667 172.817 24.7267 172.424 24.42 171.917C24.1133 171.397 23.96 170.797 23.96 170.117C23.96 169.397 24.1333 168.751 24.48 168.177L25.72 168.637C25.6133 168.837 25.5267 169.057 25.46 169.297C25.3933 169.537 25.36 169.777 25.36 170.017C25.36 170.644 25.5667 171.117 25.98 171.437C26.3933 171.757 26.9867 171.917 27.76 171.917H28.68V168.657H30.04V171.917H39V173.517ZM39.3 162.892C39.3 163.625 39.1667 164.305 38.9 164.932C38.62 165.545 38.24 166.085 37.76 166.552C37.2667 167.005 36.6867 167.358 36.02 167.612C35.3533 167.865 34.6267 167.992 33.84 167.992C33.0533 167.992 32.3267 167.865 31.66 167.612C30.9933 167.345 30.42 166.985 29.94 166.532C29.4467 166.065 29.0667 165.518 28.8 164.892C28.52 164.265 28.38 163.585 28.38 162.852C28.38 162.118 28.52 161.445 28.8 160.832C29.0667 160.205 29.4467 159.665 29.94 159.212C30.42 158.745 30.9933 158.385 31.66 158.132C32.3267 157.878 33.0533 157.752 33.84 157.752C34.6267 157.752 35.3533 157.885 36.02 158.152C36.6867 158.405 37.2667 158.765 37.76 159.232C38.24 159.685 38.62 160.225 38.9 160.852C39.1667 161.478 39.3 162.158 39.3 162.892ZM37.84 162.872C37.84 162.365 37.74 161.905 37.54 161.492C37.34 161.065 37.0667 160.698 36.72 160.392C36.36 160.072 35.94 159.825 35.46 159.652C34.9667 159.478 34.4267 159.392 33.84 159.392C33.2533 159.392 32.72 159.478 32.24 159.652C31.7467 159.825 31.3267 160.072 30.98 160.392C30.62 160.698 30.34 161.065 30.14 161.492C29.94 161.905 29.84 162.365 29.84 162.872C29.84 163.378 29.94 163.845 30.14 164.272C30.34 164.685 30.62 165.052 30.98 165.372C31.3267 165.678 31.7467 165.918 32.24 166.092C32.72 166.265 33.2533 166.352 33.84 166.352C34.4267 166.352 34.9667 166.265 35.46 166.092C35.94 165.918 36.36 165.678 36.72 165.372C37.0667 165.052 37.34 164.685 37.54 164.272C37.74 163.845 37.84 163.378 37.84 162.872ZM39 155.88H28.68V154.44L30.6 154.34C29.96 154.086 29.46 153.706 29.1 153.2C28.7267 152.693 28.54 152.1 28.54 151.42C28.54 151.193 28.56 150.993 28.6 150.82C28.6267 150.633 28.6667 150.473 28.72 150.34L30.24 150.54C30.1867 150.686 30.1533 150.84 30.14 151C30.1133 151.16 30.1 151.32 30.1 151.48C30.1 152.04 30.24 152.533 30.52 152.96C30.8 153.373 31.2 153.7 31.72 153.94C32.2267 154.166 32.8267 154.28 33.52 154.28H39V155.88ZM39.3 140.725C39.3 141.471 39.1733 142.165 38.92 142.805C38.6533 143.445 38.28 143.998 37.8 144.465C37.32 144.931 36.7533 145.271 36.1 145.485L35.6 143.905C36.2933 143.638 36.8333 143.231 37.22 142.685C37.6067 142.125 37.8 141.478 37.8 140.745C37.8 140.171 37.6867 139.658 37.46 139.205C37.22 138.738 36.9 138.378 36.5 138.125C36.0867 137.858 35.6267 137.725 35.12 137.725C34.4667 137.725 33.9333 137.951 33.52 138.405C33.0933 138.845 32.7867 139.485 32.6 140.325L32.4 141.205C32.1067 142.511 31.6267 143.491 30.96 144.145C30.2933 144.798 29.4733 145.125 28.5 145.125C27.9133 145.125 27.38 145.018 26.9 144.805C26.4067 144.578 25.98 144.265 25.62 143.865C25.26 143.465 24.9867 143.005 24.8 142.485C24.6 141.951 24.5 141.378 24.5 140.765C24.5 140.045 24.6333 139.385 24.9 138.785C25.1533 138.171 25.52 137.645 26 137.205C26.48 136.765 27.04 136.445 27.68 136.245L28.18 137.825C27.4733 138.091 26.9333 138.478 26.56 138.985C26.1867 139.491 26 140.085 26 140.765C26 141.285 26.1067 141.745 26.32 142.145C26.52 142.545 26.8 142.858 27.16 143.085C27.5067 143.311 27.9133 143.425 28.38 143.425C28.9933 143.425 29.5 143.205 29.9 142.765C30.2867 142.325 30.5933 141.625 30.82 140.665L31.02 139.785C31.3133 138.518 31.8067 137.578 32.5 136.965C33.1933 136.338 34.0333 136.025 35.02 136.025C35.6467 136.025 36.2267 136.145 36.76 136.385C37.28 136.611 37.7333 136.938 38.12 137.365C38.4933 137.778 38.7867 138.271 39 138.845C39.2 139.418 39.3 140.045 39.3 140.725ZM39 134.189H28.68V132.749L30.26 132.669C29.6867 132.376 29.2333 131.949 28.9 131.389C28.5533 130.829 28.38 130.189 28.38 129.469C28.38 128.696 28.58 128.022 28.98 127.449C29.38 126.876 29.94 126.449 30.66 126.169C30.2067 125.996 29.8133 125.736 29.48 125.389C29.1333 125.042 28.8667 124.636 28.68 124.169C28.48 123.689 28.38 123.176 28.38 122.629C28.38 121.856 28.5667 121.189 28.94 120.629C29.3 120.056 29.8133 119.622 30.48 119.329C31.1467 119.022 31.9467 118.869 32.88 118.869H39V120.469H32.98C31.9667 120.469 31.1933 120.676 30.66 121.089C30.1133 121.502 29.84 122.102 29.84 122.889C29.84 123.436 29.9733 123.922 30.24 124.349C30.4933 124.776 30.8467 125.116 31.3 125.369C31.74 125.609 32.24 125.729 32.8 125.729H39V127.329H32.98C31.9667 127.329 31.1933 127.542 30.66 127.969C30.1133 128.396 29.84 129.002 29.84 129.789C29.84 130.322 29.9733 130.802 30.24 131.229C30.4933 131.656 30.8467 131.989 31.3 132.229C31.74 132.469 32.24 132.589 32.8 132.589H39V134.189ZM39.3 113.342C39.3 114.062 39.1667 114.702 38.9 115.262C38.62 115.822 38.24 116.262 37.76 116.582C37.28 116.889 36.7267 117.042 36.1 117.042C35.42 117.042 34.8333 116.869 34.34 116.522C33.8467 116.162 33.4667 115.662 33.2 115.022C32.92 114.382 32.78 113.635 32.78 112.782C32.78 112.302 32.8333 111.815 32.94 111.322C33.0467 110.829 33.1867 110.389 33.36 110.002H32.6C32.04 110.002 31.5533 110.115 31.14 110.342C30.7133 110.555 30.3867 110.855 30.16 111.242C29.92 111.629 29.8 112.082 29.8 112.602C29.8 113.229 29.9467 113.775 30.24 114.242C30.5333 114.695 30.9467 115.035 31.48 115.262L31 116.662C30.4667 116.475 30.0067 116.189 29.62 115.802C29.2333 115.402 28.9333 114.929 28.72 114.382C28.5067 113.822 28.4 113.222 28.4 112.582C28.4 111.755 28.58 111.035 28.94 110.422C29.2867 109.795 29.78 109.315 30.42 108.982C31.0467 108.635 31.7867 108.462 32.64 108.462H39V109.862L37.4 109.962C37.9733 110.255 38.4333 110.702 38.78 111.302C39.1267 111.889 39.3 112.569 39.3 113.342ZM36.04 115.422C36.4267 115.422 36.7667 115.322 37.06 115.122C37.34 114.922 37.56 114.642 37.72 114.282C37.88 113.922 37.96 113.509 37.96 113.042C37.96 112.469 37.8333 111.955 37.58 111.502C37.3133 111.035 36.96 110.669 36.52 110.402C36.0667 110.135 35.5533 110.002 34.98 110.002H34.6C34.4267 110.442 34.2933 110.889 34.2 111.342C34.0933 111.782 34.04 112.202 34.04 112.602C34.04 113.482 34.22 114.175 34.58 114.682C34.94 115.175 35.4267 115.422 36.04 115.422ZM39 106.141H24.16V104.541H39V106.141ZM39 102.147H24.16V100.547H39V102.147ZM39 94.0173H24.8L24.8 89.4773C24.8 88.584 24.9467 87.8106 25.24 87.1573C25.5333 86.504 25.9533 86.004 26.5 85.6573C27.0467 85.2973 27.6867 85.1173 28.42 85.1173C29.1133 85.1173 29.72 85.284 30.24 85.6173C30.76 85.9506 31.1667 86.424 31.46 87.0373C31.7267 86.2373 32.1733 85.6173 32.8 85.1773C33.4267 84.7373 34.1667 84.5173 35.02 84.5173C35.8333 84.5173 36.54 84.7173 37.14 85.1173C37.7267 85.5173 38.1867 86.084 38.52 86.8173C38.84 87.5373 39 88.3906 39 89.3773V94.0173ZM26.3 92.3373H30.84V89.5573C30.84 88.6773 30.6467 88.004 30.26 87.5373C29.8733 87.0706 29.3133 86.8373 28.58 86.8373C27.8467 86.8373 27.2867 87.0773 26.9 87.5573C26.5 88.0373 26.3 88.704 26.3 89.5573L26.3 92.3373ZM37.5 92.3373V89.4173C37.5 88.4173 37.2733 87.6373 36.82 87.0773C36.3667 86.5173 35.7333 86.2373 34.92 86.2373C34.0933 86.2373 33.4533 86.5173 33 87.0773C32.5333 87.624 32.3 88.404 32.3 89.4173V92.3373H37.5ZM39.3 78.346C39.3 79.226 39.1067 79.986 38.72 80.626C38.3333 81.266 37.7867 81.7594 37.08 82.106C36.36 82.4527 35.5067 82.626 34.52 82.626H28.68V81.026H34.54C35.22 81.026 35.8067 80.9194 36.3 80.706C36.7933 80.4794 37.1733 80.166 37.44 79.766C37.7067 79.3527 37.84 78.866 37.84 78.306C37.84 77.746 37.7067 77.266 37.44 76.866C37.1733 76.4527 36.7933 76.1394 36.3 75.926C35.8067 75.6994 35.22 75.586 34.54 75.586H28.68V73.986H34.52C35.48 73.986 36.32 74.166 37.04 74.526C37.76 74.886 38.32 75.3927 38.72 76.046C39.1067 76.6994 39.3 77.466 39.3 78.346ZM39.3 68.397C39.3 68.997 39.2 69.5636 39 70.097C38.8 70.617 38.5133 71.0703 38.14 71.457C37.7667 71.8436 37.3267 72.137 36.82 72.337L36.3 70.897C36.8067 70.6303 37.2 70.2836 37.48 69.857C37.76 69.4303 37.9 68.9436 37.9 68.397C37.9 67.957 37.8267 67.5703 37.68 67.237C37.5333 66.9036 37.3333 66.6436 37.08 66.457C36.8133 66.2703 36.52 66.177 36.2 66.177C35.3333 66.177 34.7733 66.8036 34.52 68.057L34.36 68.837C34.1467 69.9303 33.8 70.737 33.32 71.257C32.8267 71.777 32.2067 72.037 31.46 72.037C30.86 72.037 30.3267 71.8836 29.86 71.577C29.3933 71.2703 29.0333 70.8436 28.78 70.297C28.5133 69.737 28.38 69.1036 28.38 68.397C28.38 67.8103 28.48 67.2703 28.68 66.777C28.8667 66.2836 29.1467 65.8636 29.52 65.517C29.8933 65.157 30.3333 64.8836 30.84 64.697L31.32 66.137C30.8267 66.3503 30.4467 66.657 30.18 67.057C29.9 67.4436 29.76 67.897 29.76 68.417C29.76 68.817 29.8267 69.1703 29.96 69.477C30.0933 69.7703 30.2733 70.0036 30.5 70.177C30.7267 70.3503 30.9933 70.437 31.3 70.437C31.7267 70.437 32.0667 70.277 32.32 69.957C32.5733 69.6236 32.7733 69.0903 32.92 68.357L33.08 67.577C33.28 66.5903 33.6333 65.837 34.14 65.317C34.6333 64.797 35.2667 64.537 36.04 64.537C36.52 64.537 36.96 64.637 37.36 64.837C37.7467 65.0236 38.0867 65.2903 38.38 65.637C38.6733 65.9703 38.9 66.377 39.06 66.857C39.22 67.3236 39.3 67.837 39.3 68.397ZM25.66 60.9187C25.86 60.9187 26.0467 60.972 26.22 61.0787C26.38 61.172 26.5133 61.3054 26.62 61.4787C26.7133 61.6387 26.76 61.8187 26.76 62.0187C26.76 62.2187 26.7133 62.4054 26.62 62.5787C26.5133 62.7387 26.38 62.872 26.22 62.9787C26.0467 63.072 25.86 63.1187 25.66 63.1187C25.46 63.1187 25.28 63.072 25.12 62.9787C24.9467 62.872 24.8133 62.7387 24.72 62.5787C24.6133 62.4054 24.56 62.2187 24.56 62.0187C24.56 61.8187 24.6133 61.6387 24.72 61.4787C24.8133 61.3054 24.9467 61.172 25.12 61.0787C25.28 60.972 25.46 60.9187 25.66 60.9187ZM39 62.8187H28.68L28.68 61.2187H39L39 62.8187ZM39 58.8242H28.68V57.3842L30.32 57.3042C29.7333 56.9975 29.2667 56.5575 28.92 55.9842C28.56 55.3975 28.38 54.7242 28.38 53.9642C28.38 53.1775 28.5667 52.4908 28.94 51.9042C29.3133 51.3175 29.8467 50.8708 30.54 50.5642C31.22 50.2442 32.0267 50.0842 32.96 50.0842H39V51.6842H33.06C32.0333 51.6842 31.24 51.9108 30.68 52.3642C30.12 52.8042 29.84 53.4375 29.84 54.2642C29.84 54.8375 29.9733 55.3508 30.24 55.8042C30.4933 56.2442 30.8533 56.5908 31.32 56.8442C31.7733 57.0975 32.2933 57.2242 32.88 57.2242H39V58.8242ZM39.3 43.0793C39.3 43.8393 39.1667 44.5393 38.9 45.1793C38.6333 45.806 38.26 46.3527 37.78 46.8193C37.2867 47.286 36.7133 47.646 36.06 47.8993C35.3933 48.1527 34.66 48.2793 33.86 48.2793C33.0733 48.2793 32.3533 48.1593 31.7 47.9193C31.0333 47.666 30.4533 47.3193 29.96 46.8793C29.4667 46.426 29.0867 45.8993 28.82 45.2993C28.54 44.6993 28.4 44.046 28.4 43.3393C28.4 42.6593 28.5267 42.0327 28.78 41.4593C29.0333 40.8727 29.3867 40.366 29.84 39.9393C30.2933 39.5127 30.8333 39.186 31.46 38.9593C32.0867 38.7193 32.7667 38.5993 33.5 38.5993H34.16V46.6193C34.9067 46.566 35.56 46.3927 36.12 46.0993C36.68 45.7927 37.1133 45.386 37.42 44.8793C37.7267 44.3727 37.88 43.786 37.88 43.1193C37.88 42.466 37.7467 41.8993 37.48 41.4193C37.2 40.926 36.7933 40.506 36.26 40.1593L36.88 38.7993C37.3867 39.066 37.82 39.4127 38.18 39.8393C38.54 40.266 38.8133 40.7593 39 41.3193C39.2 41.866 39.3 42.4527 39.3 43.0793ZM29.76 43.3393C29.76 43.886 29.8933 44.386 30.16 44.8393C30.4267 45.2793 30.8 45.6527 31.28 45.9593C31.7467 46.2527 32.2933 46.446 32.92 46.5393V40.2793C32.2933 40.3327 31.7467 40.4993 31.28 40.7793C30.8 41.0593 30.4267 41.4193 30.16 41.8593C29.8933 42.2993 29.76 42.7927 29.76 43.3393ZM39.3 33.415C39.3 34.015 39.2 34.5816 39 35.115C38.8 35.635 38.5133 36.0883 38.14 36.475C37.7667 36.8616 37.3267 37.155 36.82 37.355L36.3 35.915C36.8067 35.6483 37.2 35.3016 37.48 34.875C37.76 34.4483 37.9 33.9616 37.9 33.415C37.9 32.975 37.8267 32.5883 37.68 32.255C37.5333 31.9216 37.3333 31.6616 37.08 31.475C36.8133 31.2883 36.52 31.195 36.2 31.195C35.3333 31.195 34.7733 31.8216 34.52 33.075L34.36 33.855C34.1467 34.9483 33.8 35.755 33.32 36.275C32.8267 36.795 32.2067 37.055 31.46 37.055C30.86 37.055 30.3267 36.9016 29.86 36.595C29.3933 36.2883 29.0333 35.8616 28.78 35.315C28.5133 34.755 28.38 34.1216 28.38 33.415C28.38 32.8283 28.48 32.2883 28.68 31.795C28.8667 31.3016 29.1467 30.8816 29.52 30.535C29.8933 30.175 30.3333 29.9016 30.84 29.715L31.32 31.155C30.8267 31.3683 30.4467 31.675 30.18 32.075C29.9 32.4616 29.76 32.915 29.76 33.435C29.76 33.835 29.8267 34.1883 29.96 34.495C30.0933 34.7883 30.2733 35.0216 30.5 35.195C30.7267 35.3683 30.9933 35.455 31.3 35.455C31.7267 35.455 32.0667 35.295 32.32 34.975C32.5733 34.6416 32.7733 34.1083 32.92 33.375L33.08 32.595C33.28 31.6083 33.6333 30.855 34.14 30.335C34.6333 29.815 35.2667 29.555 36.04 29.555C36.52 29.555 36.96 29.655 37.36 29.855C37.7467 30.0416 38.0867 30.3083 38.38 30.655C38.6733 30.9883 38.9 31.395 39.06 31.875C39.22 32.3416 39.3 32.855 39.3 33.415ZM39.3 24.5767C39.3 25.1767 39.2 25.7433 39 26.2767C38.8 26.7967 38.5133 27.25 38.14 27.6367C37.7667 28.0233 37.3267 28.3167 36.82 28.5167L36.3 27.0767C36.8067 26.81 37.2 26.4633 37.48 26.0367C37.76 25.61 37.9 25.1233 37.9 24.5767C37.9 24.1367 37.8267 23.75 37.68 23.4167C37.5333 23.0833 37.3333 22.8233 37.08 22.6367C36.8133 22.45 36.52 22.3567 36.2 22.3567C35.3333 22.3567 34.7733 22.9833 34.52 24.2367L34.36 25.0167C34.1467 26.11 33.8 26.9167 33.32 27.4367C32.8267 27.9567 32.2067 28.2167 31.46 28.2167C30.86 28.2167 30.3267 28.0633 29.86 27.7567C29.3933 27.45 29.0333 27.0233 28.78 26.4767C28.5133 25.9167 28.38 25.2833 28.38 24.5767C28.38 23.99 28.48 23.45 28.68 22.9567C28.8667 22.4633 29.1467 22.0433 29.52 21.6967C29.8933 21.3367 30.3333 21.0633 30.84 20.8767L31.32 22.3167C30.8267 22.53 30.4467 22.8367 30.18 23.2367C29.9 23.6233 29.76 24.0767 29.76 24.5967C29.76 24.9967 29.8267 25.35 29.96 25.6567C30.0933 25.95 30.2733 26.1833 30.5 26.3567C30.7267 26.53 30.9933 26.6167 31.3 26.6167C31.7267 26.6167 32.0667 26.4567 32.32 26.1367C32.5733 25.8033 32.7733 25.27 32.92 24.5367L33.08 23.7567C33.28 22.77 33.6333 22.0167 34.14 21.4967C34.6333 20.9767 35.2667 20.7167 36.04 20.7167C36.52 20.7167 36.96 20.8167 37.36 21.0167C37.7467 21.2033 38.0867 21.47 38.38 21.8167C38.6733 22.15 38.9 22.5567 39.06 23.0367C39.22 23.5033 39.3 24.0167 39.3 24.5767ZM39.3 14.3184C39.3 15.0784 39.1667 15.7784 38.9 16.4184C38.6333 17.045 38.26 17.5917 37.78 18.0584C37.2867 18.525 36.7133 18.885 36.06 19.1384C35.3933 19.3917 34.66 19.5184 33.86 19.5184C33.0733 19.5184 32.3533 19.3984 31.7 19.1584C31.0333 18.905 30.4533 18.5584 29.96 18.1184C29.4667 17.665 29.0867 17.1384 28.82 16.5384C28.54 15.9384 28.4 15.285 28.4 14.5784C28.4 13.8984 28.5267 13.2717 28.78 12.6984C29.0333 12.1117 29.3867 11.605 29.84 11.1784C30.2933 10.7517 30.8333 10.425 31.46 10.1984C32.0867 9.95838 32.7667 9.83838 33.5 9.83838H34.16V17.8584C34.9067 17.805 35.56 17.6317 36.12 17.3384C36.68 17.0317 37.1133 16.625 37.42 16.1184C37.7267 15.6117 37.88 15.025 37.88 14.3584C37.88 13.705 37.7467 13.1384 37.48 12.6584C37.2 12.165 36.7933 11.745 36.26 11.3984L36.88 10.0384C37.3867 10.305 37.82 10.6517 38.18 11.0784C38.54 11.505 38.8133 11.9984 39 12.5584C39.2 13.105 39.3 13.6917 39.3 14.3184ZM29.76 14.5784C29.76 15.125 29.8933 15.625 30.16 16.0784C30.4267 16.5184 30.8 16.8917 31.28 17.1984C31.7467 17.4917 32.2933 17.685 32.92 17.7784V11.5184C32.2933 11.5717 31.7467 11.7384 31.28 12.0184C30.8 12.2984 30.4267 12.6584 30.16 13.0984C29.8933 13.5384 29.76 14.0317 29.76 14.5784ZM39.3 4.65403C39.3 5.25403 39.2 5.82069 39 6.35403C38.8 6.87403 38.5133 7.32736 38.14 7.71403C37.7667 8.10069 37.3267 8.39403 36.82 8.59403L36.3 7.15403C36.8067 6.88736 37.2 6.54069 37.48 6.11403C37.76 5.68736 37.9 5.20069 37.9 4.65403C37.9 4.21403 37.8267 3.82736 37.68 3.49403C37.5333 3.16069 37.3333 2.90069 37.08 2.71403C36.8133 2.52736 36.52 2.43403 36.2 2.43403C35.3333 2.43403 34.7733 3.06069 34.52 4.31403L34.36 5.09403C34.1467 6.18736 33.8 6.99403 33.32 7.51403C32.8267 8.03403 32.2067 8.29403 31.46 8.29403C30.86 8.29403 30.3267 8.14069 29.86 7.83403C29.3933 7.52736 29.0333 7.10069 28.78 6.55403C28.5133 5.99403 28.38 5.36069 28.38 4.65403C28.38 4.06736 28.48 3.52736 28.68 3.03403C28.8667 2.54069 29.1467 2.12069 29.52 1.77403C29.8933 1.41403 30.3333 1.14069 30.84 0.954026L31.32 2.39403C30.8267 2.60736 30.4467 2.91403 30.18 3.31403C29.9 3.70069 29.76 4.15403 29.76 4.67403C29.76 5.07403 29.8267 5.42736 29.96 5.73403C30.0933 6.02736 30.2733 6.26069 30.5 6.43403C30.7267 6.60736 30.9933 6.69403 31.3 6.69403C31.7267 6.69403 32.0667 6.53403 32.32 6.21403C32.5733 5.88069 32.7733 5.34736 32.92 4.61403L33.08 3.83403C33.28 2.84736 33.6333 2.09403 34.14 1.57403C34.6333 1.05403 35.2667 0.794025 36.04 0.794025C36.52 0.794025 36.96 0.894025 37.36 1.09403C37.7467 1.28069 38.0867 1.54736 38.38 1.89403C38.6733 2.22736 38.9 2.63403 39.06 3.11403C39.22 3.58069 39.3 4.09403 39.3 4.65403Z" fill="white"/>
</svg>
