<svg width="24" height="25" viewBox="0 0 24 25" fill="none" xmlns="http://www.w3.org/2000/svg">
<path fill-rule="evenodd" clip-rule="evenodd" d="M7 6.73828C7 5.08143 8.34315 3.73828 10 3.73828H14C15.6569 3.73828 17 5.08143 17 6.73828V11.9883H21C21.4142 11.9883 21.75 12.3241 21.75 12.7383C21.75 13.1525 21.4142 13.4883 21 13.4883H17V18.7383C17 20.3951 15.6569 21.7383 14 21.7383H10C8.34315 21.7383 7 20.3951 7 18.7383V13.4883H3C2.58579 13.4883 2.25 13.1525 2.25 12.7383C2.25 12.3241 2.58579 11.9883 3 11.9883H7V6.73828Z" fill="black" fill-opacity="0.25"/>
</svg>
