<svg width="137" height="73" viewBox="0 0 137 73" fill="none" xmlns="http://www.w3.org/2000/svg">
<path d="M0.531735 26.4324L11.0027 0.162372H15.8127L26.3207 26.4324H21.6587L19.1797 19.9204H7.48774L5.00874 26.4324H0.531735ZM8.96774 16.0724H17.6997L13.3337 4.71337L8.96774 16.0724ZM36.8186 26.0624C35.5606 26.0624 34.389 25.8157 33.3036 25.3224C32.2183 24.829 31.2686 24.1507 30.4546 23.2874C29.6406 22.3994 29.0116 21.3757 28.5676 20.2164C28.1236 19.0324 27.9016 17.7497 27.9016 16.3684C27.9016 14.987 28.1236 13.7044 28.5676 12.5204C29.0363 11.3117 29.69 10.2634 30.5286 9.37537C31.3673 8.48737 32.3416 7.79671 33.4516 7.30337C34.5616 6.78537 35.758 6.52637 37.0406 6.52637C38.3726 6.52637 39.5813 6.82237 40.6666 7.41437C41.7766 7.98171 42.6646 8.78337 43.3306 9.81937L43.4786 7.08137H47.3636V24.3974C47.3636 25.8774 47.1293 27.2217 46.6606 28.4304C46.192 29.6637 45.526 30.712 44.6626 31.5754C43.7993 32.4634 42.7633 33.1417 41.5546 33.6104C40.3706 34.079 39.0386 34.3134 37.5586 34.3134C35.5853 34.3134 33.8586 33.8694 32.3786 32.9814C30.8986 32.0934 29.7393 30.86 28.9006 29.2814L32.9336 27.8754C33.4763 28.7634 34.1546 29.4294 34.9686 29.8734C35.7826 30.342 36.6953 30.5764 37.7066 30.5764C38.792 30.5764 39.7416 30.3297 40.5556 29.8364C41.3696 29.3677 41.9986 28.6894 42.4426 27.8014C42.8866 26.938 43.1086 25.9144 43.1086 24.7304V22.8804C42.418 23.867 41.53 24.644 40.4446 25.2114C39.3593 25.7787 38.1506 26.0624 36.8186 26.0624ZM37.7066 22.2144C38.7426 22.2144 39.6676 21.9554 40.4816 21.4374C41.3203 20.9194 41.974 20.2164 42.4426 19.3284C42.936 18.4404 43.1826 17.429 43.1826 16.2944C43.1826 15.1597 42.936 14.1484 42.4426 13.2604C41.974 12.3724 41.3203 11.6694 40.4816 11.1514C39.6676 10.6334 38.7426 10.3744 37.7066 10.3744C36.6706 10.3744 35.7456 10.6334 34.9316 11.1514C34.1176 11.6694 33.464 12.3724 32.9706 13.2604C32.502 14.1484 32.2676 15.1597 32.2676 16.2944C32.2676 17.429 32.502 18.4404 32.9706 19.3284C33.464 20.2164 34.1176 20.9194 34.9316 21.4374C35.7456 21.9554 36.6706 22.2144 37.7066 22.2144ZM60.9409 26.9874C59.5102 26.9874 58.1906 26.7407 56.9819 26.2474C55.7979 25.7294 54.7619 25.014 53.8739 24.1014C52.9859 23.1887 52.2952 22.1157 51.8019 20.8824C51.3332 19.6244 51.0989 18.243 51.0989 16.7384C51.0989 15.283 51.3332 13.9387 51.8019 12.7054C52.2952 11.472 52.9612 10.399 53.7999 9.48637C54.6632 8.54904 55.6746 7.82137 56.8339 7.30337C57.9932 6.78537 59.2512 6.52637 60.6079 6.52637C61.9646 6.52637 63.1979 6.77304 64.3079 7.26637C65.4426 7.73504 66.4169 8.41337 67.2309 9.30137C68.0696 10.1894 68.7109 11.25 69.1549 12.4834C69.5989 13.692 69.8209 15.0364 69.8209 16.5164V17.7744H55.5019C55.6252 18.909 55.9212 19.8957 56.3899 20.7344C56.8832 21.5484 57.5122 22.1774 58.2769 22.6214C59.0416 23.0654 59.9296 23.2874 60.9409 23.2874C62.9636 23.2874 64.5422 22.387 65.6769 20.5864L69.4139 22.0294C68.9699 23.0407 68.3162 23.9287 67.4529 24.6934C66.6142 25.4334 65.6276 26.0007 64.4929 26.3954C63.3829 26.79 62.1989 26.9874 60.9409 26.9874ZM60.6079 9.96737C59.7446 9.96737 58.9676 10.1647 58.2769 10.5594C57.6109 10.954 57.0436 11.509 56.5749 12.2244C56.1062 12.9397 55.7856 13.7784 55.6129 14.7404H65.3809C65.2329 13.7784 64.9492 12.9397 64.5299 12.2244C64.1106 11.509 63.5556 10.954 62.8649 10.5594C62.1989 10.1647 61.4466 9.96737 60.6079 9.96737ZM73.4489 26.4324V7.08137H77.3339L77.4819 9.74537C78.0492 8.75871 78.8386 7.98171 79.8499 7.41437C80.8859 6.82237 82.0699 6.52637 83.4019 6.52637C84.8572 6.52637 86.1152 6.8717 87.1759 7.56237C88.2612 8.25304 89.0999 9.22737 89.6919 10.4854C90.2839 11.7434 90.5799 13.2234 90.5799 14.9254V26.4324H86.3249V15.4064C86.3249 13.8277 85.9672 12.5944 85.2519 11.7064C84.5612 10.8184 83.5869 10.3744 82.3289 10.3744C81.4409 10.3744 80.6392 10.584 79.9239 11.0034C79.2332 11.4227 78.6906 11.99 78.2959 12.7054C77.9012 13.4207 77.7039 14.247 77.7039 15.1844V26.4324H73.4489ZM103.897 26.9874C102.515 26.9874 101.245 26.7407 100.086 26.2474C98.9264 25.7294 97.9151 25.0264 97.0517 24.1384C96.1884 23.2257 95.5101 22.1527 95.0167 20.9194C94.5481 19.686 94.3137 18.3417 94.3137 16.8864C94.3137 15.431 94.5604 14.0744 95.0537 12.8164C95.5471 11.5584 96.2254 10.4607 97.0887 9.52337C97.9521 8.58604 98.9634 7.85837 100.123 7.34037C101.307 6.7977 102.589 6.52637 103.971 6.52637C105.303 6.52637 106.524 6.77304 107.634 7.26637C108.744 7.73504 109.693 8.41337 110.483 9.30137C111.297 10.1647 111.876 11.1884 112.222 12.3724L108.189 13.3344C107.769 12.397 107.177 11.6694 106.413 11.1514C105.673 10.6334 104.834 10.3744 103.897 10.3744C102.91 10.3744 102.022 10.658 101.233 11.2254C100.443 11.7927 99.8144 12.5697 99.3457 13.5564C98.9017 14.5184 98.6797 15.616 98.6797 16.8494C98.6797 18.058 98.9017 19.1434 99.3457 20.1054C99.7897 21.0427 100.394 21.7827 101.159 22.3254C101.948 22.868 102.861 23.1394 103.897 23.1394C104.883 23.1394 105.784 22.8927 106.598 22.3994C107.412 21.8814 108.016 21.1537 108.411 20.2164L112.407 21.1414C112.061 22.3254 111.469 23.3614 110.631 24.2494C109.792 25.1127 108.793 25.791 107.634 26.2844C106.474 26.753 105.229 26.9874 103.897 26.9874ZM118.17 34.1284C117.553 34.1284 116.973 34.0667 116.431 33.9434C115.913 33.82 115.407 33.6227 114.914 33.3514L115.839 29.9844C116.11 30.1077 116.418 30.2064 116.764 30.2804C117.109 30.379 117.442 30.4284 117.763 30.4284C118.503 30.4284 119.144 30.2187 119.687 29.7994C120.254 29.38 120.723 28.7017 121.093 27.7644L121.685 26.2474L113.804 7.08137H118.466L123.683 21.5484L128.419 7.08137H132.933L124.719 28.7634C124.003 30.6134 123.103 31.97 122.018 32.8334C120.957 33.6967 119.674 34.1284 118.17 34.1284ZM2.41874 64.4324V38.1624H11.5207C13.2474 38.1624 14.7274 38.446 15.9607 39.0134C17.2187 39.556 18.1931 40.333 18.8837 41.3444C19.5744 42.3557 19.9197 43.552 19.9197 44.9334C19.9197 46.1914 19.6237 47.3014 19.0317 48.2634C18.4644 49.2254 17.6381 49.9777 16.5527 50.5204C17.9587 51.0137 19.0564 51.84 19.8457 52.9994C20.6351 54.134 21.0297 55.466 21.0297 56.9954C21.0297 58.5 20.6474 59.8074 19.8827 60.9174C19.1181 62.0274 18.0327 62.8907 16.6267 63.5074C15.2454 64.124 13.6051 64.4324 11.7057 64.4324H2.41874ZM6.78474 42.0104V48.9664H11.1137C12.4951 48.9664 13.5557 48.6704 14.2957 48.0784C15.0357 47.4864 15.4057 46.623 15.4057 45.4884C15.4057 44.403 15.0234 43.552 14.2587 42.9354C13.5187 42.3187 12.4704 42.0104 11.1137 42.0104H6.78474ZM6.78474 60.5844H11.5207C13.0994 60.5844 14.3204 60.239 15.1837 59.5484C16.0471 58.833 16.4787 57.8587 16.4787 56.6254C16.4787 55.3427 16.0471 54.356 15.1837 53.6654C14.3204 52.9747 13.0994 52.6294 11.5207 52.6294H6.78474V60.5844ZM30.7703 64.9874C29.7836 64.9874 28.8709 64.8394 28.0323 64.5434C27.2183 64.2474 26.5029 63.828 25.8863 63.2854C25.2696 62.7427 24.7886 62.1014 24.4433 61.3614C24.0979 60.6214 23.9253 59.8074 23.9253 58.9194C23.9253 57.686 24.2459 56.613 24.8873 55.7004C25.5533 54.763 26.4783 54.0354 27.6623 53.5174C28.8463 52.9994 30.2276 52.7404 31.8063 52.7404C32.6696 52.7404 33.4959 52.8267 34.2853 52.9994C35.0746 53.1474 35.8269 53.3694 36.5423 53.6654V52.4444C36.5423 51.581 36.3819 50.8287 36.0613 50.1874C35.7406 49.5214 35.2843 49.0034 34.6923 48.6334C34.1003 48.2634 33.3849 48.0784 32.5463 48.0784C31.6583 48.0784 30.8566 48.3127 30.1413 48.7814C29.4259 49.25 28.8956 49.9037 28.5503 50.7424L24.6283 49.8544C24.9243 48.769 25.4546 47.8317 26.2193 47.0424C27.0086 46.253 27.9459 45.6364 29.0313 45.1924C30.1413 44.7484 31.3376 44.5264 32.6203 44.5264C33.8289 44.5264 34.9266 44.7237 35.9133 45.1184C36.9246 45.513 37.7879 46.068 38.5033 46.7834C39.2186 47.4987 39.7736 48.3497 40.1683 49.3364C40.5629 50.323 40.7603 51.4207 40.7603 52.6294V64.4324H36.8753L36.7273 61.8794C36.2093 62.8167 35.4323 63.569 34.3963 64.1364C33.3603 64.7037 32.1516 64.9874 30.7703 64.9874ZM28.2173 58.7344C28.2173 59.277 28.3653 59.7704 28.6613 60.2144C28.9573 60.6337 29.3643 60.9667 29.8823 61.2134C30.4249 61.46 31.0539 61.5834 31.7693 61.5834C32.6819 61.5834 33.4959 61.386 34.2113 60.9914C34.9266 60.5967 35.4939 60.0664 35.9133 59.4004C36.3326 58.7097 36.5423 57.9327 36.5423 57.0694V56.6254C35.9009 56.354 35.2349 56.1444 34.5443 55.9964C33.8783 55.8237 33.1876 55.7374 32.4723 55.7374C31.1896 55.7374 30.1536 56.0087 29.3643 56.5514C28.5996 57.094 28.2173 57.8217 28.2173 58.7344ZM45.3376 64.4324V45.0814H49.2226L49.3706 47.7454C49.9379 46.7587 50.7272 45.9817 51.7386 45.4144C52.7746 44.8224 53.9586 44.5264 55.2906 44.5264C56.7459 44.5264 58.0039 44.8717 59.0646 45.5624C60.1499 46.253 60.9886 47.2274 61.5806 48.4854C62.1726 49.7434 62.4686 51.2234 62.4686 52.9254V64.4324H58.2136V53.4064C58.2136 51.8277 57.8559 50.5944 57.1406 49.7064C56.4499 48.8184 55.4756 48.3744 54.2176 48.3744C53.3296 48.3744 52.5279 48.584 51.8126 49.0034C51.1219 49.4227 50.5792 49.99 50.1846 50.7054C49.7899 51.4207 49.5926 52.247 49.5926 53.1844V64.4324H45.3376ZM67.0534 64.4324V36.9044H71.3084V53.0734L79.2264 45.0814H84.4064L75.7114 53.6654L85.2944 64.4324H79.7074L71.3084 54.6644V64.4324H67.0534ZM92.4926 39.6794C92.4926 40.148 92.3693 40.5797 92.1226 40.9744C91.9006 41.369 91.5923 41.6897 91.1976 41.9364C90.803 42.1584 90.3713 42.2694 89.9026 42.2694C89.434 42.2694 89.0023 42.1584 88.6076 41.9364C88.213 41.6897 87.8923 41.369 87.6456 40.9744C87.4236 40.5797 87.3126 40.148 87.3126 39.6794C87.3126 39.2107 87.4236 38.779 87.6456 38.3844C87.8923 37.9897 88.213 37.6814 88.6076 37.4594C89.0023 37.2127 89.434 37.0894 89.9026 37.0894C90.3713 37.0894 90.803 37.2127 91.1976 37.4594C91.5923 37.6814 91.9006 37.9897 92.1226 38.3844C92.3693 38.779 92.4926 39.2107 92.4926 39.6794ZM87.7936 64.4324V45.0814H92.0486V64.4324H87.7936ZM96.6462 64.4324V45.0814H100.531L100.679 47.7454C101.247 46.7587 102.036 45.9817 103.047 45.4144C104.083 44.8224 105.267 44.5264 106.599 44.5264C108.055 44.5264 109.313 44.8717 110.373 45.5624C111.459 46.253 112.297 47.2274 112.889 48.4854C113.481 49.7434 113.777 51.2234 113.777 52.9254V64.4324H109.522V53.4064C109.522 51.8277 109.165 50.5944 108.449 49.7064C107.759 48.8184 106.784 48.3744 105.526 48.3744C104.638 48.3744 103.837 48.584 103.121 49.0034C102.431 49.4227 101.888 49.99 101.493 50.7054C101.099 51.4207 100.901 52.247 100.901 53.1844V64.4324H96.6462ZM126.428 64.0624C125.17 64.0624 123.998 63.8157 122.913 63.3224C121.828 62.829 120.878 62.1507 120.064 61.2874C119.25 60.3994 118.621 59.3757 118.177 58.2164C117.733 57.0324 117.511 55.7497 117.511 54.3684C117.511 52.987 117.733 51.7044 118.177 50.5204C118.646 49.3117 119.299 48.2634 120.138 47.3754C120.977 46.4874 121.951 45.7967 123.061 45.3034C124.171 44.7854 125.367 44.5264 126.65 44.5264C127.982 44.5264 129.191 44.8224 130.276 45.4144C131.386 45.9817 132.274 46.7834 132.94 47.8194L133.088 45.0814H136.973V62.3974C136.973 63.8774 136.739 65.2217 136.27 66.4304C135.801 67.6637 135.135 68.712 134.272 69.5754C133.409 70.4634 132.373 71.1417 131.164 71.6104C129.98 72.079 128.648 72.3134 127.168 72.3134C125.195 72.3134 123.468 71.8694 121.988 70.9814C120.508 70.0934 119.349 68.86 118.51 67.2814L122.543 65.8754C123.086 66.7634 123.764 67.4294 124.578 67.8734C125.392 68.342 126.305 68.5764 127.316 68.5764C128.401 68.5764 129.351 68.3297 130.165 67.8364C130.979 67.3677 131.608 66.6894 132.052 65.8014C132.496 64.938 132.718 63.9144 132.718 62.7304V60.8804C132.027 61.867 131.139 62.644 130.054 63.2114C128.969 63.7787 127.76 64.0624 126.428 64.0624ZM127.316 60.2144C128.352 60.2144 129.277 59.9554 130.091 59.4374C130.93 58.9194 131.583 58.2164 132.052 57.3284C132.545 56.4404 132.792 55.429 132.792 54.2944C132.792 53.1597 132.545 52.1484 132.052 51.2604C131.583 50.3724 130.93 49.6694 130.091 49.1514C129.277 48.6334 128.352 48.3744 127.316 48.3744C126.28 48.3744 125.355 48.6334 124.541 49.1514C123.727 49.6694 123.073 50.3724 122.58 51.2604C122.111 52.1484 121.877 53.1597 121.877 54.2944C121.877 55.429 122.111 56.4404 122.58 57.3284C123.073 58.2164 123.727 58.9194 124.541 59.4374C125.355 59.9554 126.28 60.2144 127.316 60.2144Z" fill="#121212"/>
</svg>
