<svg width="155" height="105" viewBox="0 0 155 105" fill="none" xmlns="http://www.w3.org/2000/svg">
<path d="M8.649 24.465C7.409 24.465 6.25167 24.248 5.177 23.814C4.123 23.3593 3.224 22.729 2.48 21.923C1.736 21.117 1.209 20.156 0.899 19.04L4.464 18.172C4.79467 19.1227 5.32167 19.8563 6.045 20.373C6.76833 20.8897 7.64667 21.148 8.68 21.148C9.424 21.148 10.0853 21.0033 10.664 20.714C11.2427 20.4247 11.6973 20.032 12.028 19.536C12.3793 19.04 12.555 18.4717 12.555 17.831C12.555 17.0457 12.2657 16.3947 11.687 15.878C11.129 15.3407 10.2403 14.9377 9.021 14.669L7.874 14.421C5.68333 13.9457 4.061 13.1603 3.007 12.065C1.97367 10.9697 1.457 9.63667 1.457 8.066C1.457 7.11533 1.643 6.24733 2.015 5.462C2.387 4.656 2.90367 3.96367 3.565 3.385C4.22633 2.78567 5.00133 2.331 5.89 2.021C6.77867 1.69033 7.73967 1.525 8.773 1.525C9.951 1.525 11.036 1.742 12.028 2.176C13.02 2.61 13.8673 3.23 14.57 4.036C15.2727 4.82133 15.7687 5.76167 16.058 6.857L12.524 7.725C12.1933 6.795 11.6973 6.082 11.036 5.586C10.3747 5.09 9.58933 4.842 8.68 4.842C8.01867 4.842 7.42967 4.97633 6.913 5.245C6.417 5.493 6.014 5.84433 5.704 6.299C5.41467 6.733 5.27 7.229 5.27 7.787C5.27 8.593 5.56967 9.23367 6.169 9.709C6.76833 10.1843 7.688 10.5667 8.928 10.856L10.075 11.104C14.291 12.0547 16.399 14.1937 16.399 17.521C16.399 18.5337 16.2027 19.474 15.81 20.342C15.438 21.1893 14.9007 21.923 14.198 22.543C13.4953 23.1423 12.6687 23.6177 11.718 23.969C10.788 24.2997 9.765 24.465 8.649 24.465ZM22.737 3.261C22.737 3.65367 22.6337 4.01533 22.427 4.346C22.241 4.67667 21.9827 4.94533 21.652 5.152C21.3214 5.338 20.9597 5.431 20.567 5.431C20.1744 5.431 19.8127 5.338 19.482 5.152C19.1514 4.94533 18.8827 4.67667 18.676 4.346C18.49 4.01533 18.397 3.65367 18.397 3.261C18.397 2.86833 18.49 2.50667 18.676 2.176C18.8827 1.84533 19.1514 1.587 19.482 1.401C19.8127 1.19433 20.1744 1.091 20.567 1.091C20.9597 1.091 21.3214 1.19433 21.652 1.401C21.9827 1.587 22.241 1.84533 22.427 2.176C22.6337 2.50667 22.737 2.86833 22.737 3.261ZM18.8 24V7.787H22.365V24H18.8ZM25.597 24V7.787H28.852L28.976 9.957C29.4514 9.151 30.1024 8.51033 30.929 8.035C31.7557 7.55967 32.696 7.322 33.75 7.322C34.8867 7.322 35.889 7.61133 36.757 8.19C37.625 8.748 38.2967 9.523 38.772 10.515C39.082 9.87433 39.4954 9.31633 40.012 8.841C40.5494 8.36567 41.1694 7.99367 41.872 7.725C42.5954 7.45633 43.3704 7.322 44.197 7.322C45.3957 7.322 46.4394 7.61133 47.328 8.19C48.2167 8.748 48.8987 9.554 49.374 10.608C49.87 11.6413 50.118 12.8813 50.118 14.328V24H46.553V14.731C46.553 13.3877 46.2637 12.3543 45.685 11.631C45.1064 10.9077 44.3107 10.546 43.298 10.546C42.5954 10.546 41.965 10.7217 41.407 11.073C40.8697 11.4037 40.4357 11.879 40.105 12.499C39.795 13.0983 39.64 13.7803 39.64 14.545V24H36.075V14.731C36.075 13.3877 35.7857 12.3543 35.207 11.631C34.6284 10.9077 33.8327 10.546 32.82 10.546C32.1174 10.546 31.487 10.7217 30.929 11.073C30.3917 11.4037 29.9577 11.879 29.627 12.499C29.317 13.0983 29.162 13.7803 29.162 14.545V24H25.597ZM53.3432 30.138V7.787H56.5982L56.7532 10.391C57.3319 9.44033 58.0966 8.69633 59.0472 8.159C59.9979 7.601 61.0622 7.322 62.2402 7.322C63.3149 7.322 64.3069 7.539 65.2163 7.973C66.1462 8.407 66.9522 9.00633 67.6342 9.771C68.3163 10.5357 68.8433 11.4347 69.2152 12.468C69.6079 13.5013 69.8043 14.6173 69.8043 15.816C69.8043 17.0353 69.6079 18.172 69.2152 19.226C68.8226 20.28 68.2749 21.1997 67.5723 21.985C66.8696 22.7703 66.0429 23.38 65.0922 23.814C64.1623 24.248 63.1496 24.465 62.0543 24.465C60.9796 24.465 59.9979 24.2377 59.1092 23.783C58.2206 23.3283 57.4869 22.6877 56.9082 21.861V30.138H53.3432ZM61.4962 21.241C62.3849 21.241 63.1806 21.0137 63.8832 20.559C64.5859 20.0837 65.1336 19.443 65.5262 18.637C65.9396 17.831 66.1463 16.9113 66.1463 15.878C66.1463 14.8447 65.9396 13.9353 65.5262 13.15C65.1336 12.344 64.5859 11.7137 63.8832 11.259C63.1806 10.7837 62.3849 10.546 61.4962 10.546C60.6076 10.546 59.8119 10.7837 59.1092 11.259C58.4066 11.7137 57.8486 12.344 57.4352 13.15C57.0426 13.9353 56.8462 14.8447 56.8462 15.878C56.8462 16.9113 57.0426 17.831 57.4352 18.637C57.8486 19.443 58.4066 20.0837 59.1092 20.559C59.8119 21.0137 60.6076 21.241 61.4962 21.241ZM72.3102 24V0.935999H75.8752V24H72.3102ZM83.0442 3.261C83.0442 3.65367 82.9408 4.01533 82.7342 4.346C82.5482 4.67667 82.2898 4.94533 81.9592 5.152C81.6285 5.338 81.2668 5.431 80.8742 5.431C80.4815 5.431 80.1198 5.338 79.7892 5.152C79.4585 4.94533 79.1898 4.67667 78.9832 4.346C78.7972 4.01533 78.7042 3.65367 78.7042 3.261C78.7042 2.86833 78.7972 2.50667 78.9832 2.176C79.1898 1.84533 79.4585 1.587 79.7892 1.401C80.1198 1.19433 80.4815 1.091 80.8742 1.091C81.2668 1.091 81.6285 1.19433 81.9592 1.401C82.2898 1.587 82.5482 1.84533 82.7342 2.176C82.9408 2.50667 83.0442 2.86833 83.0442 3.261ZM79.1072 24V7.787H82.6722V24H79.1072ZM87.3611 24V10.67H84.5091V7.787H87.3611V6.64C87.3611 5.44133 87.6091 4.39767 88.1051 3.509C88.6011 2.59967 89.2831 1.897 90.1511 1.401C91.0191 0.884333 92.0111 0.626 93.1271 0.626C93.7678 0.626 94.3465 0.708666 94.8631 0.873998C95.4005 1.01867 95.8758 1.20467 96.2891 1.432L95.4831 4.16C95.2145 4.01533 94.9045 3.90167 94.5531 3.819C94.2225 3.71567 93.8918 3.664 93.5611 3.664C92.6725 3.664 92.0111 3.943 91.5771 4.501C91.1431 5.03833 90.9261 5.81333 90.9261 6.826V7.787H95.5761V10.67H90.9261V24H87.3611ZM100.078 30.448C99.5615 30.448 99.0758 30.3963 98.6212 30.293C98.1872 30.1897 97.7635 30.0243 97.3502 29.797L98.1252 26.976C98.3525 27.0793 98.6108 27.162 98.9002 27.224C99.1895 27.3067 99.4685 27.348 99.7372 27.348C100.357 27.348 100.895 27.1723 101.349 26.821C101.825 26.4697 102.217 25.9013 102.527 25.116L103.023 23.845L96.4202 7.787H100.326L104.697 19.908L108.665 7.787H112.447L105.565 25.953C104.966 27.503 104.212 28.6397 103.302 29.363C102.414 30.0863 101.339 30.448 100.078 30.448ZM118.118 3.261C118.118 3.65367 118.014 4.01533 117.808 4.346C117.622 4.67667 117.363 4.94533 117.033 5.152C116.702 5.338 116.34 5.431 115.948 5.431C115.555 5.431 115.193 5.338 114.863 5.152C114.532 4.94533 114.263 4.67667 114.057 4.346C113.871 4.01533 113.778 3.65367 113.778 3.261C113.778 2.86833 113.871 2.50667 114.057 2.176C114.263 1.84533 114.532 1.587 114.863 1.401C115.193 1.19433 115.555 1.091 115.948 1.091C116.34 1.091 116.702 1.19433 117.033 1.401C117.363 1.587 117.622 1.84533 117.808 2.176C118.014 2.50667 118.118 2.86833 118.118 3.261ZM114.181 24V7.787H117.746V24H114.181ZM120.978 24V7.787H124.233L124.357 10.019C124.832 9.19233 125.493 8.54133 126.341 8.066C127.209 7.57 128.201 7.322 129.317 7.322C130.536 7.322 131.59 7.61133 132.479 8.19C133.388 8.76867 134.091 9.585 134.587 10.639C135.083 11.693 135.331 12.933 135.331 14.359V24H131.766V14.762C131.766 13.4393 131.466 12.406 130.867 11.662C130.288 10.918 129.472 10.546 128.418 10.546C127.674 10.546 127.002 10.7217 126.403 11.073C125.824 11.4243 125.369 11.8997 125.039 12.499C124.708 13.0983 124.543 13.7907 124.543 14.576V24H120.978ZM145.31 23.69C144.256 23.69 143.274 23.4833 142.365 23.07C141.456 22.6567 140.66 22.0883 139.978 21.365C139.296 20.621 138.769 19.7633 138.397 18.792C138.025 17.8 137.839 16.7253 137.839 15.568C137.839 14.4107 138.025 13.336 138.397 12.344C138.79 11.3313 139.337 10.453 140.04 9.709C140.743 8.965 141.559 8.38633 142.489 7.973C143.419 7.539 144.421 7.322 145.496 7.322C146.612 7.322 147.625 7.57 148.534 8.066C149.464 8.54133 150.208 9.213 150.766 10.081L150.89 7.787H154.145V22.295C154.145 23.535 153.949 24.6613 153.556 25.674C153.163 26.7073 152.605 27.5857 151.882 28.309C151.159 29.053 150.291 29.6213 149.278 30.014C148.286 30.4067 147.17 30.603 145.93 30.603C144.277 30.603 142.83 30.231 141.59 29.487C140.35 28.743 139.379 27.7097 138.676 26.387L142.055 25.209C142.51 25.953 143.078 26.511 143.76 26.883C144.442 27.2757 145.207 27.472 146.054 27.472C146.963 27.472 147.759 27.2653 148.441 26.852C149.123 26.4593 149.65 25.891 150.022 25.147C150.394 24.4237 150.58 23.566 150.58 22.574V21.024C150.001 21.8507 149.257 22.5017 148.348 22.977C147.439 23.4523 146.426 23.69 145.31 23.69ZM146.054 20.466C146.922 20.466 147.697 20.249 148.379 19.815C149.082 19.381 149.629 18.792 150.022 18.048C150.435 17.304 150.642 16.4567 150.642 15.506C150.642 14.5553 150.435 13.708 150.022 12.964C149.629 12.22 149.082 11.631 148.379 11.197C147.697 10.763 146.922 10.546 146.054 10.546C145.186 10.546 144.411 10.763 143.729 11.197C143.047 11.631 142.499 12.22 142.086 12.964C141.693 13.708 141.497 14.5553 141.497 15.506C141.497 16.4567 141.693 17.304 142.086 18.048C142.499 18.792 143.047 19.381 143.729 19.815C144.411 20.249 145.186 20.466 146.054 20.466ZM1.922 64V47.787H5.177L5.301 49.957C5.77633 49.151 6.42733 48.5103 7.254 48.035C8.08067 47.5597 9.021 47.322 10.075 47.322C11.2117 47.322 12.214 47.6113 13.082 48.19C13.95 48.748 14.6217 49.523 15.097 50.515C15.407 49.8743 15.8203 49.3163 16.337 48.841C16.8743 48.3657 17.4943 47.9937 18.197 47.725C18.9203 47.4563 19.6953 47.322 20.522 47.322C21.7207 47.322 22.7643 47.6113 23.653 48.19C24.5417 48.748 25.2237 49.554 25.699 50.608C26.195 51.6413 26.443 52.8813 26.443 54.328V64H22.878V54.731C22.878 53.3877 22.5887 52.3543 22.01 51.631C21.4313 50.9077 20.6357 50.546 19.623 50.546C18.9203 50.546 18.29 50.7217 17.732 51.073C17.1947 51.4037 16.7607 51.879 16.43 52.499C16.12 53.0983 15.965 53.7803 15.965 54.545V64H12.4V54.731C12.4 53.3877 12.1107 52.3543 11.532 51.631C10.9533 50.9077 10.1577 50.546 9.145 50.546C8.44233 50.546 7.812 50.7217 7.254 51.073C6.71667 51.4037 6.28267 51.879 5.952 52.499C5.642 53.0983 5.487 53.7803 5.487 54.545V64H1.922ZM37.2012 64.465C36.0232 64.465 34.9279 64.2583 33.9152 63.845C32.9232 63.411 32.0552 62.8117 31.3112 62.047C30.5672 61.2617 29.9885 60.3523 29.5752 59.319C29.1619 58.265 28.9552 57.118 28.9552 55.878C28.9552 54.6587 29.1619 53.5323 29.5752 52.499C29.9885 51.445 30.5672 50.5357 31.3112 49.771C32.0759 48.9857 32.9645 48.3863 33.9772 47.973C35.0105 47.539 36.1265 47.322 37.3252 47.322C38.5032 47.322 39.5882 47.539 40.5802 47.973C41.5929 48.3863 42.4712 48.9857 43.2152 49.771C43.9592 50.5357 44.5379 51.4347 44.9512 52.468C45.3645 53.5013 45.5712 54.638 45.5712 55.878C45.5712 57.118 45.3645 58.265 44.9512 59.319C44.5379 60.3523 43.9489 61.2617 43.1842 62.047C42.4402 62.8117 41.5515 63.411 40.5182 63.845C39.5055 64.2583 38.3999 64.465 37.2012 64.465ZM37.2632 61.241C38.1519 61.241 38.9475 61.0137 39.6502 60.559C40.3529 60.0837 40.9005 59.443 41.2932 58.637C41.7065 57.831 41.9132 56.9113 41.9132 55.878C41.9132 54.8447 41.7065 53.9353 41.2932 53.15C40.9005 52.344 40.3529 51.7137 39.6502 51.259C38.9475 50.7837 38.1519 50.546 37.2632 50.546C36.3745 50.546 35.5789 50.7837 34.8762 51.259C34.1735 51.7137 33.6155 52.344 33.2022 53.15C32.8095 53.9353 32.6132 54.8447 32.6132 55.878C32.6132 56.9113 32.8095 57.831 33.2022 58.637C33.6155 59.443 34.1735 60.0837 34.8762 60.559C35.5789 61.0137 36.3745 61.241 37.2632 61.241ZM55.0926 64.465C54.0179 64.465 53.0156 64.248 52.0856 63.814C51.1762 63.38 50.3806 62.7807 49.6986 62.016C49.0166 61.2513 48.4792 60.3523 48.0866 59.319C47.7146 58.2857 47.5286 57.1697 47.5286 55.971C47.5286 54.7517 47.7249 53.615 48.1176 52.561C48.5102 51.507 49.0579 50.5873 49.7606 49.802C50.4632 49.0167 51.2796 48.407 52.2096 47.973C53.1602 47.539 54.1832 47.322 55.2786 47.322C56.3532 47.322 57.3349 47.5493 58.2236 48.004C59.1122 48.4587 59.8459 49.0993 60.4246 49.926V40.936H63.9896V64H60.7346L60.5796 61.396C60.0009 62.3467 59.2362 63.101 58.2856 63.659C57.3349 64.1963 56.2706 64.465 55.0926 64.465ZM55.8366 61.241C56.7252 61.241 57.5209 61.0137 58.2236 60.559C58.9262 60.0837 59.4739 59.443 59.8666 58.637C60.2799 57.831 60.4866 56.9217 60.4866 55.909C60.4866 54.8757 60.2799 53.956 59.8666 53.15C59.4739 52.344 58.9262 51.7137 58.2236 51.259C57.5209 50.7837 56.7252 50.546 55.8366 50.546C54.9479 50.546 54.1522 50.7837 53.4496 51.259C52.7469 51.7137 52.1889 52.344 51.7756 53.15C51.3829 53.956 51.1866 54.8757 51.1866 55.909C51.1866 56.9217 51.3829 57.831 51.7756 58.637C52.1889 59.443 52.7469 60.0837 53.4496 60.559C54.1522 61.0137 54.9479 61.241 55.8366 61.241ZM74.7415 64.465C73.5428 64.465 72.4372 64.2583 71.4245 63.845C70.4325 63.411 69.5645 62.8117 68.8205 62.047C68.0765 61.2823 67.4978 60.3833 67.0845 59.35C66.6918 58.296 66.4955 57.1387 66.4955 55.878C66.4955 54.6587 66.6918 53.5323 67.0845 52.499C67.4978 51.4657 68.0558 50.5667 68.7585 49.802C69.4818 49.0167 70.3292 48.407 71.3005 47.973C72.2718 47.539 73.3258 47.322 74.4625 47.322C75.5992 47.322 76.6325 47.5287 77.5625 47.942C78.5132 48.3347 79.3295 48.903 80.0115 49.647C80.7142 50.391 81.2515 51.2797 81.6235 52.313C81.9955 53.3257 82.1815 54.452 82.1815 55.692V56.746H70.1845C70.2878 57.6967 70.5358 58.5233 70.9285 59.226C71.3418 59.908 71.8688 60.435 72.5095 60.807C73.1502 61.179 73.8942 61.365 74.7415 61.365C76.4362 61.365 77.7588 60.6107 78.7095 59.102L81.8405 60.311C81.4685 61.1583 80.9208 61.9023 80.1975 62.543C79.4948 63.163 78.6682 63.6383 77.7175 63.969C76.7875 64.2997 75.7955 64.465 74.7415 64.465ZM74.4625 50.205C73.7392 50.205 73.0882 50.3703 72.5095 50.701C71.9515 51.0317 71.4762 51.4967 71.0835 52.096C70.6908 52.6953 70.4222 53.398 70.2775 54.204H78.4615C78.3375 53.398 78.0998 52.6953 77.7485 52.096C77.3972 51.4967 76.9322 51.0317 76.3535 50.701C75.7955 50.3703 75.1652 50.205 74.4625 50.205ZM84.6012 64V47.787H87.8562L88.0112 50.453C88.4245 49.5437 88.9928 48.841 89.7162 48.345C90.4602 47.8283 91.3282 47.57 92.3202 47.57C92.6302 47.57 92.9298 47.5907 93.2192 47.632C93.5085 47.6733 93.7668 47.7457 93.9942 47.849L93.5912 51.321C93.3638 51.2383 93.1262 51.1867 92.8782 51.166C92.6302 51.1247 92.3822 51.104 92.1342 51.104C90.8942 51.104 89.9228 51.5173 89.2202 52.344C88.5175 53.1707 88.1662 54.3177 88.1662 55.785V64H84.6012ZM95.9997 64V47.787H99.2547L99.3787 50.019C99.8541 49.1923 100.515 48.5413 101.363 48.066C102.231 47.57 103.223 47.322 104.339 47.322C105.558 47.322 106.612 47.6113 107.501 48.19C108.41 48.7687 109.113 49.585 109.609 50.639C110.105 51.693 110.353 52.933 110.353 54.359V64H106.788V54.762C106.788 53.4393 106.488 52.406 105.889 51.662C105.31 50.918 104.494 50.546 103.44 50.546C102.696 50.546 102.024 50.7217 101.425 51.073C100.846 51.4243 100.391 51.8997 100.061 52.499C99.7301 53.0983 99.5647 53.7907 99.5647 54.576V64H95.9997ZM9.238 104.465C8.08067 104.465 7.01633 104.258 6.045 103.845C5.07367 103.411 4.22633 102.822 3.503 102.078C2.77967 101.313 2.21133 100.414 1.798 99.381C1.40533 98.3477 1.209 97.2213 1.209 96.002C1.209 94.7827 1.41567 93.646 1.829 92.592C2.24233 91.538 2.81067 90.6183 3.534 89.833C4.25733 89.0477 5.10467 88.438 6.076 88.004C7.068 87.5493 8.14267 87.322 9.3 87.322C10.416 87.322 11.439 87.5287 12.369 87.942C13.299 88.3347 14.0947 88.903 14.756 89.647C15.438 90.3703 15.9237 91.228 16.213 92.22L12.834 93.026C12.4827 92.2407 11.9867 91.631 11.346 91.197C10.726 90.763 10.0233 90.546 9.238 90.546C8.41133 90.546 7.66733 90.7837 7.006 91.259C6.34467 91.7343 5.81767 92.3853 5.425 93.212C5.053 94.018 4.867 94.9377 4.867 95.971C4.867 96.9837 5.053 97.893 5.425 98.699C5.797 99.4843 6.30333 100.104 6.944 100.559C7.60533 101.014 8.37 101.241 9.238 101.241C10.0647 101.241 10.819 101.034 11.501 100.621C12.183 100.187 12.6893 99.5773 13.02 98.792L16.368 99.567C16.0787 100.559 15.5827 101.427 14.88 102.171C14.1773 102.894 13.3403 103.463 12.369 103.876C11.3977 104.269 10.354 104.465 9.238 104.465ZM26.0909 104.465C24.9129 104.465 23.8175 104.258 22.8049 103.845C21.8129 103.411 20.9449 102.812 20.2009 102.047C19.4569 101.262 18.8782 100.352 18.4649 99.319C18.0515 98.265 17.8449 97.118 17.8449 95.878C17.8449 94.6587 18.0515 93.5323 18.4649 92.499C18.8782 91.445 19.4569 90.5357 20.2009 89.771C20.9655 88.9857 21.8542 88.3863 22.8669 87.973C23.9002 87.539 25.0162 87.322 26.2149 87.322C27.3929 87.322 28.4779 87.539 29.4699 87.973C30.4825 88.3863 31.3609 88.9857 32.1049 89.771C32.8489 90.5357 33.4275 91.4347 33.8409 92.468C34.2542 93.5013 34.4609 94.638 34.4609 95.878C34.4609 97.118 34.2542 98.265 33.8409 99.319C33.4275 100.352 32.8385 101.262 32.0739 102.047C31.3299 102.812 30.4412 103.411 29.4079 103.845C28.3952 104.258 27.2895 104.465 26.0909 104.465ZM26.1529 101.241C27.0415 101.241 27.8372 101.014 28.5399 100.559C29.2425 100.084 29.7902 99.443 30.1829 98.637C30.5962 97.831 30.8029 96.9113 30.8029 95.878C30.8029 94.8447 30.5962 93.9353 30.1829 93.15C29.7902 92.344 29.2425 91.7137 28.5399 91.259C27.8372 90.7837 27.0415 90.546 26.1529 90.546C25.2642 90.546 24.4685 90.7837 23.7659 91.259C23.0632 91.7137 22.5052 92.344 22.0919 93.15C21.6992 93.9353 21.5029 94.8447 21.5029 95.878C21.5029 96.9113 21.6992 97.831 22.0919 98.637C22.5052 99.443 23.0632 100.084 23.7659 100.559C24.4685 101.014 25.2642 101.241 26.1529 101.241ZM36.9798 104V87.787H40.2349L40.3589 89.957C40.8342 89.151 41.4852 88.5103 42.3119 88.035C43.1385 87.5597 44.0789 87.322 45.1329 87.322C46.2695 87.322 47.2719 87.6113 48.1399 88.19C49.0079 88.748 49.6795 89.523 50.1549 90.515C50.4649 89.8743 50.8782 89.3163 51.3949 88.841C51.9322 88.3657 52.5522 87.9937 53.2549 87.725C53.9782 87.4563 54.7532 87.322 55.5799 87.322C56.7785 87.322 57.8222 87.6113 58.7109 88.19C59.5995 88.748 60.2815 89.554 60.7569 90.608C61.2529 91.6413 61.5009 92.8813 61.5009 94.328V104H57.9359V94.731C57.9359 93.3877 57.6465 92.3543 57.0679 91.631C56.4892 90.9077 55.6935 90.546 54.6809 90.546C53.9782 90.546 53.3479 90.7217 52.7899 91.073C52.2525 91.4037 51.8185 91.879 51.4879 92.499C51.1779 93.0983 51.0229 93.7803 51.0229 94.545V104H47.4579V94.731C47.4579 93.3877 47.1685 92.3543 46.5899 91.631C46.0112 90.9077 45.2155 90.546 44.2029 90.546C43.5002 90.546 42.8699 90.7217 42.3119 91.073C41.7745 91.4037 41.3405 91.879 41.0098 92.499C40.6998 93.0983 40.5448 93.7803 40.5448 94.545V104H36.9798ZM64.7261 104V87.787H67.9811L68.1051 89.957C68.5804 89.151 69.2314 88.5103 70.0581 88.035C70.8847 87.5597 71.8251 87.322 72.8791 87.322C74.0157 87.322 75.0181 87.6113 75.8861 88.19C76.7541 88.748 77.4257 89.523 77.9011 90.515C78.2111 89.8743 78.6244 89.3163 79.1411 88.841C79.6784 88.3657 80.2984 87.9937 81.0011 87.725C81.7244 87.4563 82.4994 87.322 83.3261 87.322C84.5247 87.322 85.5684 87.6113 86.4571 88.19C87.3457 88.748 88.0277 89.554 88.5031 90.608C88.9991 91.6413 89.2471 92.8813 89.2471 94.328V104H85.6821V94.731C85.6821 93.3877 85.3927 92.3543 84.8141 91.631C84.2354 90.9077 83.4397 90.546 82.4271 90.546C81.7244 90.546 81.0941 90.7217 80.5361 91.073C79.9987 91.4037 79.5647 91.879 79.2341 92.499C78.9241 93.0983 78.7691 93.7803 78.7691 94.545V104H75.2041V94.731C75.2041 93.3877 74.9147 92.3543 74.3361 91.631C73.7574 90.9077 72.9617 90.546 71.9491 90.546C71.2464 90.546 70.6161 90.7217 70.0581 91.073C69.5207 91.4037 69.0867 91.879 68.7561 92.499C68.4461 93.0983 68.2911 93.7803 68.2911 94.545V104H64.7261ZM100.005 104.465C98.8066 104.465 97.7009 104.258 96.6883 103.845C95.6963 103.411 94.8283 102.812 94.0843 102.047C93.3403 101.282 92.7616 100.383 92.3483 99.35C91.9556 98.296 91.7593 97.1387 91.7593 95.878C91.7593 94.6587 91.9556 93.5323 92.3483 92.499C92.7616 91.4657 93.3196 90.5667 94.0223 89.802C94.7456 89.0167 95.5929 88.407 96.5643 87.973C97.5356 87.539 98.5896 87.322 99.7263 87.322C100.863 87.322 101.896 87.5287 102.826 87.942C103.777 88.3347 104.593 88.903 105.275 89.647C105.978 90.391 106.515 91.2797 106.887 92.313C107.259 93.3257 107.445 94.452 107.445 95.692V96.746H95.4483C95.5516 97.6967 95.7996 98.5233 96.1923 99.226C96.6056 99.908 97.1326 100.435 97.7733 100.807C98.4139 101.179 99.1579 101.365 100.005 101.365C101.7 101.365 103.023 100.611 103.973 99.102L107.104 100.311C106.732 101.158 106.185 101.902 105.461 102.543C104.759 103.163 103.932 103.638 102.981 103.969C102.051 104.3 101.059 104.465 100.005 104.465ZM99.7263 90.205C99.0029 90.205 98.3519 90.3703 97.7733 90.701C97.2153 91.0317 96.7399 91.4967 96.3473 92.096C95.9546 92.6953 95.6859 93.398 95.5413 94.204H103.725C103.601 93.398 103.364 92.6953 103.012 92.096C102.661 91.4967 102.196 91.0317 101.617 90.701C101.059 90.3703 100.429 90.205 99.7263 90.205ZM109.865 104V87.787H113.12L113.275 90.453C113.688 89.5437 114.257 88.841 114.98 88.345C115.724 87.8283 116.592 87.57 117.584 87.57C117.894 87.57 118.194 87.5907 118.483 87.632C118.772 87.6733 119.031 87.7457 119.258 87.849L118.855 91.321C118.628 91.2383 118.39 91.1867 118.142 91.166C117.894 91.1247 117.646 91.104 117.398 91.104C116.158 91.104 115.187 91.5173 114.484 92.344C113.781 93.1707 113.43 94.3177 113.43 95.785V104H109.865ZM128.095 104.465C126.938 104.465 125.873 104.258 124.902 103.845C123.931 103.411 123.083 102.822 122.36 102.078C121.637 101.313 121.068 100.414 120.655 99.381C120.262 98.3477 120.066 97.2213 120.066 96.002C120.066 94.7827 120.273 93.646 120.686 92.592C121.099 91.538 121.668 90.6183 122.391 89.833C123.114 89.0477 123.962 88.438 124.933 88.004C125.925 87.5493 127 87.322 128.157 87.322C129.273 87.322 130.296 87.5287 131.226 87.942C132.156 88.3347 132.952 88.903 133.613 89.647C134.295 90.3703 134.781 91.228 135.07 92.22L131.691 93.026C131.34 92.2407 130.844 91.631 130.203 91.197C129.583 90.763 128.88 90.546 128.095 90.546C127.268 90.546 126.524 90.7837 125.863 91.259C125.202 91.7343 124.675 92.3853 124.282 93.212C123.91 94.018 123.724 94.9377 123.724 95.971C123.724 96.9837 123.91 97.893 124.282 98.699C124.654 99.4843 125.16 100.104 125.801 100.559C126.462 101.014 127.227 101.241 128.095 101.241C128.922 101.241 129.676 101.034 130.358 100.621C131.04 100.187 131.546 99.5773 131.877 98.792L135.225 99.567C134.936 100.559 134.44 101.427 133.737 102.171C133.034 102.894 132.197 103.463 131.226 103.876C130.255 104.269 129.211 104.465 128.095 104.465ZM144.948 104.465C143.749 104.465 142.644 104.258 141.631 103.845C140.639 103.411 139.771 102.812 139.027 102.047C138.283 101.282 137.704 100.383 137.291 99.35C136.898 98.296 136.702 97.1387 136.702 95.878C136.702 94.6587 136.898 93.5323 137.291 92.499C137.704 91.4657 138.262 90.5667 138.965 89.802C139.688 89.0167 140.536 88.407 141.507 87.973C142.478 87.539 143.532 87.322 144.669 87.322C145.806 87.322 146.839 87.5287 147.769 87.942C148.72 88.3347 149.536 88.903 150.218 89.647C150.921 90.391 151.458 91.2797 151.83 92.313C152.202 93.3257 152.388 94.452 152.388 95.692V96.746H140.391C140.494 97.6967 140.742 98.5233 141.135 99.226C141.548 99.908 142.075 100.435 142.716 100.807C143.357 101.179 144.101 101.365 144.948 101.365C146.643 101.365 147.965 100.611 148.916 99.102L152.047 100.311C151.675 101.158 151.127 101.902 150.404 102.543C149.701 103.163 148.875 103.638 147.924 103.969C146.994 104.3 146.002 104.465 144.948 104.465ZM144.669 90.205C143.946 90.205 143.295 90.3703 142.716 90.701C142.158 91.0317 141.683 91.4967 141.29 92.096C140.897 92.6953 140.629 93.398 140.484 94.204H148.668C148.544 93.398 148.306 92.6953 147.955 92.096C147.604 91.4967 147.139 91.0317 146.56 90.701C146.002 90.3703 145.372 90.205 144.669 90.205Z" fill="#171637"/>
</svg>
