<svg width="747" height="114" viewBox="0 0 747 114" fill="none" xmlns="http://www.w3.org/2000/svg">
<path d="M157.48 2.81244L144.104 48.2524H134.888L125.992 15.6764L117.096 48.2524H107.752L94.3759 2.81244H104.36L112.68 35.6444L121.704 2.81244H130.472L139.496 35.6444L147.752 2.81244H157.48ZM173.574 49.2124C171.057 49.2124 168.731 48.7858 166.598 47.9324C164.507 47.0364 162.694 45.7991 161.158 44.2204C159.622 42.5991 158.427 40.7004 157.574 38.5244C156.721 36.3058 156.294 33.8951 156.294 31.2924C156.294 28.7751 156.721 26.4284 157.574 24.2524C158.427 22.0764 159.601 20.1991 161.094 18.6204C162.63 16.9991 164.422 15.7404 166.47 14.8444C168.518 13.9484 170.737 13.5004 173.126 13.5004C175.601 13.5004 177.841 13.9271 179.846 14.7804C181.894 15.6338 183.643 16.8498 185.094 18.4284C186.545 20.0071 187.654 21.8844 188.422 24.0604C189.233 26.2364 189.638 28.6684 189.638 31.3564V33.5964H165.382C165.766 36.1138 166.683 38.0978 168.134 39.5484C169.585 40.9564 171.419 41.6604 173.638 41.6604C175.174 41.6604 176.561 41.2978 177.798 40.5724C179.078 39.8471 180.123 38.8018 180.934 37.4364L188.934 39.9964C188.166 41.9164 187.014 43.5591 185.478 44.9244C183.942 46.2898 182.15 47.3564 180.102 48.1244C178.054 48.8498 175.878 49.2124 173.574 49.2124ZM173.126 20.4124C171.163 20.4124 169.499 21.0524 168.134 22.3324C166.811 23.6124 165.937 25.3618 165.51 27.5804H180.422C180.081 25.3618 179.249 23.6124 177.926 22.3324C176.646 21.0524 175.046 20.4124 173.126 20.4124ZM215.614 5.30844C215.614 6.28977 215.379 7.16444 214.91 7.93244C214.483 8.70044 213.865 9.31911 213.054 9.78844C212.286 10.2151 211.433 10.4284 210.494 10.4284C209.555 10.4284 208.681 10.2151 207.87 9.78844C207.102 9.31911 206.483 8.70044 206.014 7.93244C205.587 7.16444 205.374 6.28977 205.374 5.30844C205.374 4.32711 205.587 3.45244 206.014 2.68444C206.483 1.91644 207.102 1.31911 207.87 0.892441C208.681 0.423106 209.555 0.188438 210.494 0.188438C211.433 0.188438 212.286 0.423106 213.054 0.892441C213.865 1.31911 214.483 1.91644 214.91 2.68444C215.379 3.45244 215.614 4.32711 215.614 5.30844ZM206.014 48.2524V14.4604H214.974V48.2524H206.014ZM220.859 48.2524V14.4604H229.115L229.371 18.8124C230.352 17.1911 231.696 15.9111 233.403 14.9724C235.152 13.9911 237.136 13.5004 239.355 13.5004C241.83 13.5004 243.984 14.0978 245.819 15.2924C247.696 16.4444 249.147 18.1084 250.171 20.2844C251.195 22.4604 251.707 25.0204 251.707 27.9644V48.2524H242.747V29.1164C242.747 26.7698 242.214 24.9351 241.147 23.6124C240.08 22.2471 238.608 21.5644 236.731 21.5644C235.366 21.5644 234.171 21.8844 233.147 22.5244C232.123 23.1218 231.312 23.9751 230.715 25.0844C230.118 26.1938 229.819 27.4524 229.819 28.8604V48.2524H220.859ZM271.297 49.2124C268.951 49.2124 266.924 48.7644 265.217 47.8684C263.553 46.9298 262.252 45.5858 261.313 43.8364C260.417 42.0871 259.969 39.9538 259.969 37.4364V21.6924H254.209V14.4604H259.969V2.94044H268.929V14.4604H278.145V21.6924H268.929V36.3484C268.929 37.9698 269.271 39.2284 269.953 40.1244C270.636 40.9778 271.681 41.4044 273.089 41.4044C273.815 41.4044 274.583 41.2978 275.393 41.0844C276.247 40.8711 277.057 40.5938 277.825 40.2524L279.425 46.9724C278.316 47.6551 277.079 48.1884 275.713 48.5724C274.348 48.9991 272.876 49.2124 271.297 49.2124ZM298.799 49.2124C296.282 49.2124 293.956 48.7858 291.823 47.9324C289.732 47.0364 287.919 45.7991 286.383 44.2204C284.847 42.5991 283.652 40.7004 282.799 38.5244C281.946 36.3058 281.519 33.8951 281.519 31.2924C281.519 28.7751 281.946 26.4284 282.799 24.2524C283.652 22.0764 284.826 20.1991 286.319 18.6204C287.855 16.9991 289.647 15.7404 291.695 14.8444C293.743 13.9484 295.962 13.5004 298.351 13.5004C300.826 13.5004 303.066 13.9271 305.071 14.7804C307.119 15.6338 308.868 16.8498 310.319 18.4284C311.77 20.0071 312.879 21.8844 313.647 24.0604C314.458 26.2364 314.863 28.6684 314.863 31.3564V33.5964H290.607C290.991 36.1138 291.908 38.0978 293.359 39.5484C294.81 40.9564 296.644 41.6604 298.863 41.6604C300.399 41.6604 301.786 41.2978 303.023 40.5724C304.303 39.8471 305.348 38.8018 306.159 37.4364L314.159 39.9964C313.391 41.9164 312.239 43.5591 310.703 44.9244C309.167 46.2898 307.375 47.3564 305.327 48.1244C303.279 48.8498 301.103 49.2124 298.799 49.2124ZM298.351 20.4124C296.388 20.4124 294.724 21.0524 293.359 22.3324C292.036 23.6124 291.162 25.3618 290.735 27.5804H305.647C305.306 25.3618 304.474 23.6124 303.151 22.3324C301.871 21.0524 300.271 20.4124 298.351 20.4124ZM333.344 47.2924C331.211 47.2924 329.206 46.8658 327.328 46.0124C325.494 45.1591 323.894 43.9858 322.528 42.4924C321.163 40.9564 320.096 39.1858 319.328 37.1804C318.56 35.1324 318.176 32.9351 318.176 30.5884C318.176 28.1564 318.56 25.9164 319.328 23.8684C320.139 21.7778 321.248 19.9644 322.656 18.4284C324.107 16.8924 325.771 15.6978 327.648 14.8444C329.568 13.9484 331.638 13.5004 333.856 13.5004C336.032 13.5004 337.995 13.9484 339.744 14.8444C341.494 15.6978 342.944 16.9564 344.096 18.6204L344.288 14.4604H352.544V44.2204C352.544 46.8231 352.118 49.1911 351.264 51.3244C350.454 53.4578 349.28 55.2924 347.744 56.8284C346.208 58.3644 344.374 59.5378 342.24 60.3484C340.15 61.2018 337.824 61.6284 335.264 61.6284C332.747 61.6284 330.486 61.2231 328.48 60.4124C326.475 59.6444 324.726 58.5564 323.232 57.1484C321.739 55.7404 320.566 54.0978 319.712 52.2204L328.288 50.1084C329.056 51.3458 330.038 52.3058 331.232 52.9884C332.47 53.7138 333.856 54.0764 335.392 54.0764C337.056 54.0764 338.486 53.6924 339.68 52.9244C340.918 52.1991 341.878 51.1538 342.56 49.7884C343.243 48.4658 343.584 46.9084 343.584 45.1164V42.3644C342.432 43.9004 340.96 45.1164 339.168 46.0124C337.419 46.8658 335.478 47.2924 333.344 47.2924ZM335.52 39.3564C337.099 39.3564 338.486 38.9724 339.68 38.2044C340.918 37.3938 341.899 36.3271 342.624 35.0044C343.35 33.6391 343.712 32.1031 343.712 30.3964C343.712 28.6898 343.35 27.1751 342.624 25.8524C341.899 24.4871 340.918 23.4204 339.68 22.6524C338.486 21.8418 337.099 21.4364 335.52 21.4364C333.942 21.4364 332.534 21.8418 331.296 22.6524C330.102 23.4204 329.142 24.4871 328.416 25.8524C327.691 27.1751 327.328 28.6898 327.328 30.3964C327.328 32.1031 327.691 33.6391 328.416 35.0044C329.142 36.3271 330.102 37.3938 331.296 38.2044C332.534 38.9724 333.942 39.3564 335.52 39.3564ZM358.426 48.2524V14.4604H366.682L367.002 19.5804C367.856 17.7884 369.008 16.4231 370.458 15.4844C371.909 14.5031 373.616 14.0124 375.578 14.0124C376.176 14.0124 376.773 14.0764 377.37 14.2044C377.968 14.2898 378.501 14.4178 378.97 14.5884L378.01 23.4204C377.541 23.2498 377.05 23.1431 376.538 23.1004C376.069 23.0151 375.578 22.9724 375.066 22.9724C372.592 22.9724 370.693 23.7404 369.37 25.2764C368.048 26.7698 367.386 28.9031 367.386 31.6764V48.2524H358.426ZM392.266 49.2124C390.517 49.2124 388.917 48.9564 387.466 48.4444C386.015 47.9324 384.735 47.2071 383.626 46.2684C382.559 45.2871 381.727 44.1564 381.13 42.8764C380.533 41.5964 380.234 40.1884 380.234 38.6524C380.234 36.5191 380.81 34.6418 381.962 33.0204C383.114 31.3991 384.735 30.1404 386.826 29.2444C388.917 28.3058 391.349 27.8364 394.122 27.8364C395.53 27.8364 396.853 27.9644 398.09 28.2204C399.37 28.4764 400.607 28.8391 401.802 29.3084V27.3244C401.802 25.4044 401.247 23.8471 400.138 22.6524C399.071 21.4578 397.599 20.8604 395.722 20.8604C394.314 20.8604 393.034 21.2231 391.882 21.9484C390.73 22.6311 389.919 23.6124 389.45 24.8924L381.45 23.2924C381.919 21.3298 382.837 19.6231 384.202 18.1724C385.61 16.6791 387.317 15.5271 389.322 14.7164C391.327 13.9058 393.503 13.5004 395.85 13.5004C398.026 13.5004 400.01 13.8418 401.802 14.5244C403.594 15.2071 405.13 16.1884 406.41 17.4684C407.733 18.7484 408.735 20.2631 409.418 22.0124C410.143 23.7191 410.506 25.6391 410.506 27.7724V48.2524H402.506L402.25 44.2844C401.354 45.7351 400.053 46.9298 398.346 47.8684C396.639 48.7644 394.613 49.2124 392.266 49.2124ZM389.066 38.2044C389.066 39.3991 389.557 40.3804 390.538 41.1484C391.519 41.9164 392.821 42.3004 394.442 42.3004C395.85 42.3004 397.109 42.0018 398.218 41.4044C399.327 40.8071 400.202 39.9964 400.842 38.9724C401.482 37.9058 401.802 36.7324 401.802 35.4524V35.1324C400.863 34.7484 399.861 34.4498 398.794 34.2364C397.727 33.9804 396.661 33.8524 395.594 33.8524C393.589 33.8524 391.989 34.2578 390.794 35.0684C389.642 35.8364 389.066 36.8818 389.066 38.2044ZM429.897 49.2124C427.551 49.2124 425.524 48.7644 423.817 47.8684C422.153 46.9298 420.852 45.5858 419.913 43.8364C419.017 42.0871 418.569 39.9538 418.569 37.4364V21.6924H412.809V14.4604H418.569V2.94044H427.529V14.4604H436.745V21.6924H427.529V36.3484C427.529 37.9698 427.871 39.2284 428.553 40.1244C429.236 40.9778 430.281 41.4044 431.689 41.4044C432.415 41.4044 433.183 41.2978 433.993 41.0844C434.847 40.8711 435.657 40.5938 436.425 40.2524L438.025 46.9724C436.916 47.6551 435.679 48.1884 434.313 48.5724C432.948 48.9991 431.476 49.2124 429.897 49.2124ZM457.399 49.2124C454.882 49.2124 452.556 48.7858 450.423 47.9324C448.332 47.0364 446.519 45.7991 444.983 44.2204C443.447 42.5991 442.252 40.7004 441.399 38.5244C440.546 36.3058 440.119 33.8951 440.119 31.2924C440.119 28.7751 440.546 26.4284 441.399 24.2524C442.252 22.0764 443.426 20.1991 444.919 18.6204C446.455 16.9991 448.247 15.7404 450.295 14.8444C452.343 13.9484 454.562 13.5004 456.951 13.5004C459.426 13.5004 461.666 13.9271 463.671 14.7804C465.719 15.6338 467.468 16.8498 468.919 18.4284C470.37 20.0071 471.479 21.8844 472.247 24.0604C473.058 26.2364 473.463 28.6684 473.463 31.3564V33.5964H449.207C449.591 36.1138 450.508 38.0978 451.959 39.5484C453.41 40.9564 455.244 41.6604 457.463 41.6604C458.999 41.6604 460.386 41.2978 461.623 40.5724C462.903 39.8471 463.948 38.8018 464.759 37.4364L472.759 39.9964C471.991 41.9164 470.839 43.5591 469.303 44.9244C467.767 46.2898 465.975 47.3564 463.927 48.1244C461.879 48.8498 459.703 49.2124 457.399 49.2124ZM456.951 20.4124C454.988 20.4124 453.324 21.0524 451.959 22.3324C450.636 23.6124 449.762 25.3618 449.335 27.5804H464.247C463.906 25.3618 463.074 23.6124 461.751 22.3324C460.471 21.0524 458.871 20.4124 456.951 20.4124ZM489.839 60.6684V14.4604H498.095L498.351 19.3884C499.503 17.5538 501.039 16.1244 502.959 15.1004C504.879 14.0338 506.991 13.5004 509.295 13.5004C511.514 13.5004 513.562 13.9484 515.439 14.8444C517.316 15.7404 518.959 16.9991 520.367 18.6204C521.775 20.1991 522.863 22.0551 523.631 24.1884C524.442 26.3218 524.847 28.6471 524.847 31.1644C524.847 33.7244 524.442 36.0924 523.631 38.2684C522.82 40.4444 521.69 42.3644 520.239 44.0284C518.788 45.6498 517.082 46.9298 515.119 47.8684C513.156 48.7644 511.044 49.2124 508.783 49.2124C506.692 49.2124 504.794 48.8071 503.087 47.9964C501.38 47.1431 499.951 45.9698 498.799 44.4764V60.6684H489.839ZM507.183 41.1484C508.804 41.1484 510.255 40.7218 511.535 39.8684C512.815 39.0151 513.818 37.8631 514.543 36.4124C515.311 34.9191 515.695 33.2338 515.695 31.3564C515.695 29.4791 515.311 27.8151 514.543 26.3644C513.818 24.8711 512.815 23.6978 511.535 22.8444C510.255 21.9911 508.804 21.5644 507.183 21.5644C505.562 21.5644 504.111 21.9911 502.831 22.8444C501.551 23.6978 500.527 24.8711 499.759 26.3644C499.034 27.8151 498.671 29.4791 498.671 31.3564C498.671 33.2338 499.034 34.9191 499.759 36.4124C500.527 37.8631 501.551 39.0151 502.831 39.8684C504.111 40.7218 505.562 41.1484 507.183 41.1484ZM529.434 48.2524V0.508438H538.394V48.2524H529.434ZM554.711 49.2124C552.962 49.2124 551.362 48.9564 549.911 48.4444C548.46 47.9324 547.18 47.2071 546.071 46.2684C545.004 45.2871 544.172 44.1564 543.575 42.8764C542.978 41.5964 542.679 40.1884 542.679 38.6524C542.679 36.5191 543.255 34.6418 544.407 33.0204C545.559 31.3991 547.18 30.1404 549.271 29.2444C551.362 28.3058 553.794 27.8364 556.567 27.8364C557.975 27.8364 559.298 27.9644 560.535 28.2204C561.815 28.4764 563.052 28.8391 564.247 29.3084V27.3244C564.247 25.4044 563.692 23.8471 562.583 22.6524C561.516 21.4578 560.044 20.8604 558.167 20.8604C556.759 20.8604 555.479 21.2231 554.327 21.9484C553.175 22.6311 552.364 23.6124 551.895 24.8924L543.895 23.2924C544.364 21.3298 545.282 19.6231 546.647 18.1724C548.055 16.6791 549.762 15.5271 551.767 14.7164C553.772 13.9058 555.948 13.5004 558.295 13.5004C560.471 13.5004 562.455 13.8418 564.247 14.5244C566.039 15.2071 567.575 16.1884 568.855 17.4684C570.178 18.7484 571.18 20.2631 571.863 22.0124C572.588 23.7191 572.951 25.6391 572.951 27.7724V48.2524H564.951L564.695 44.2844C563.799 45.7351 562.498 46.9298 560.791 47.8684C559.084 48.7644 557.058 49.2124 554.711 49.2124ZM551.511 38.2044C551.511 39.3991 552.002 40.3804 552.983 41.1484C553.964 41.9164 555.266 42.3004 556.887 42.3004C558.295 42.3004 559.554 42.0018 560.663 41.4044C561.772 40.8071 562.647 39.9964 563.287 38.9724C563.927 37.9058 564.247 36.7324 564.247 35.4524V35.1324C563.308 34.7484 562.306 34.4498 561.239 34.2364C560.172 33.9804 559.106 33.8524 558.039 33.8524C556.034 33.8524 554.434 34.2578 553.239 35.0684C552.087 35.8364 551.511 36.8818 551.511 38.2044ZM578.811 48.2524V14.4604H587.067L587.323 18.8124C588.305 17.1911 589.649 15.9111 591.355 14.9724C593.105 13.9911 595.089 13.5004 597.307 13.5004C599.782 13.5004 601.937 14.0978 603.771 15.2924C605.649 16.4444 607.099 18.1084 608.123 20.2844C609.147 22.4604 609.659 25.0204 609.659 27.9644V48.2524H600.699V29.1164C600.699 26.7698 600.166 24.9351 599.099 23.6124C598.033 22.2471 596.561 21.5644 594.683 21.5644C593.318 21.5644 592.123 21.8844 591.099 22.5244C590.075 23.1218 589.265 23.9751 588.667 25.0844C588.07 26.1938 587.771 27.4524 587.771 28.8604V48.2524H578.811ZM627.691 49.2124C625.302 49.2124 623.126 48.8284 621.163 48.0604C619.243 47.2924 617.601 46.2044 616.235 44.7964C614.913 43.3884 613.995 41.7244 613.483 39.8044L621.547 38.0764C621.974 39.3991 622.742 40.4444 623.851 41.2124C624.961 41.9804 626.283 42.3644 627.819 42.3644C629.27 42.3644 630.465 42.0444 631.403 41.4044C632.342 40.7644 632.811 39.8898 632.811 38.7804C632.811 37.8418 632.385 37.0738 631.531 36.4764C630.721 35.8364 629.355 35.3458 627.435 35.0044L625.643 34.6844C621.974 34.0444 619.179 32.8498 617.259 31.1004C615.382 29.3511 614.443 27.1324 614.443 24.4444C614.443 22.3111 614.998 20.4338 616.107 18.8124C617.217 17.1484 618.753 15.8471 620.715 14.9084C622.678 13.9698 624.939 13.5004 627.499 13.5004C629.761 13.5004 631.809 13.8844 633.643 14.6524C635.521 15.3778 637.078 16.4231 638.315 17.7884C639.553 19.1538 640.406 20.7964 640.875 22.7164L632.875 24.3804C632.449 23.1004 631.745 22.0978 630.763 21.3724C629.825 20.6471 628.715 20.2844 627.435 20.2844C626.113 20.2844 625.025 20.6044 624.171 21.2444C623.318 21.8844 622.891 22.6951 622.891 23.6764C622.891 24.5298 623.297 25.2551 624.107 25.8524C624.961 26.4071 626.39 26.8551 628.395 27.1964L630.187 27.5164C633.814 28.1564 636.587 29.3724 638.507 31.1644C640.427 32.9138 641.387 35.1538 641.387 37.8844C641.387 39.5484 641.046 41.0631 640.363 42.4284C639.723 43.7938 638.785 44.9884 637.547 46.0124C636.31 47.0364 634.859 47.8258 633.195 48.3804C631.531 48.9351 629.697 49.2124 627.691 49.2124ZM6.49064 112.252V85.6924H0.730644V78.4604H6.49064V76.5404C6.49064 74.7058 6.78931 73.0204 7.38664 71.4844C8.02664 69.9058 8.90131 68.5618 10.0106 67.4524C11.1626 66.3004 12.5066 65.4258 14.0426 64.8284C15.6213 64.1884 17.328 63.8684 19.1626 63.8684C20.5706 63.8684 21.8293 64.0391 22.9386 64.3804C24.0906 64.7218 25.072 65.1058 25.8826 65.5324L24.0906 72.3804C23.5786 72.1244 22.9813 71.9111 22.2986 71.7404C21.6586 71.5271 21.04 71.4204 20.4426 71.4204C18.736 71.4204 17.4773 71.9324 16.6666 72.9564C15.856 73.9378 15.4506 75.3244 15.4506 77.1164V78.4604H24.4106V85.6924H15.4506V112.252H6.49064ZM43.4511 113.212C40.9338 113.212 38.6085 112.764 36.4751 111.868C34.3418 110.972 32.4858 109.735 30.9071 108.156C29.3285 106.535 28.0911 104.636 27.1951 102.46C26.3418 100.284 25.9151 97.9164 25.9151 95.3564C25.9151 92.7964 26.3631 90.4498 27.2591 88.3164C28.1551 86.1404 29.3925 84.2418 30.9711 82.6204C32.5925 80.9991 34.4698 79.7404 36.6031 78.8444C38.7791 77.9484 41.1471 77.5004 43.7071 77.5004C46.2245 77.5004 48.5498 77.9484 50.6831 78.8444C52.8165 79.7404 54.6725 80.9991 56.2511 82.6204C57.8298 84.1991 59.0458 86.0764 59.8991 88.2524C60.7951 90.3858 61.2431 92.7324 61.2431 95.2924C61.2431 97.8524 60.7951 100.22 59.8991 102.396C59.0031 104.572 57.7445 106.471 56.1231 108.092C54.5445 109.714 52.6671 110.972 50.4911 111.868C48.3578 112.764 46.0111 113.212 43.4511 113.212ZM43.5791 105.148C45.2005 105.148 46.6511 104.722 47.9311 103.868C49.2111 103.015 50.2138 101.863 50.9391 100.412C51.7071 98.9191 52.0911 97.2338 52.0911 95.3564C52.0911 93.4791 51.7071 91.8151 50.9391 90.3644C50.2138 88.8711 49.2111 87.6978 47.9311 86.8444C46.6511 85.9911 45.2005 85.5644 43.5791 85.5644C41.9578 85.5644 40.5071 85.9911 39.2271 86.8444C37.9471 87.6978 36.9231 88.8711 36.1551 90.3644C35.4298 91.8151 35.0671 93.4791 35.0671 95.3564C35.0671 97.2338 35.4298 98.9191 36.1551 100.412C36.9231 101.863 37.9471 103.015 39.2271 103.868C40.5071 104.722 41.9578 105.148 43.5791 105.148ZM65.8526 112.252V78.4604H74.1086L74.4286 83.5804C75.282 81.7884 76.434 80.4231 77.8846 79.4844C79.3353 78.5031 81.042 78.0124 83.0046 78.0124C83.602 78.0124 84.1993 78.0764 84.7966 78.2044C85.394 78.2898 85.9273 78.4178 86.3966 78.5884L85.4366 87.4204C84.9673 87.2498 84.4766 87.1431 83.9646 87.1004C83.4953 87.0151 83.0046 86.9724 82.4926 86.9724C80.018 86.9724 78.1193 87.7404 76.7966 89.2764C75.474 90.7698 74.8126 92.9031 74.8126 95.6764V112.252H65.8526ZM114.265 113.212C111.876 113.212 109.7 112.828 107.737 112.06C105.817 111.292 104.174 110.204 102.809 108.796C101.486 107.388 100.569 105.724 100.057 103.804L108.121 102.076C108.548 103.399 109.316 104.444 110.425 105.212C111.534 105.98 112.857 106.364 114.393 106.364C115.844 106.364 117.038 106.044 117.977 105.404C118.916 104.764 119.385 103.89 119.385 102.78C119.385 101.842 118.958 101.074 118.105 100.476C117.294 99.8364 115.929 99.3458 114.009 99.0044L112.217 98.6844C108.548 98.0444 105.753 96.8498 103.833 95.1004C101.956 93.3511 101.017 91.1324 101.017 88.4444C101.017 86.3111 101.572 84.4338 102.681 82.8124C103.79 81.1484 105.326 79.8471 107.289 78.9084C109.252 77.9698 111.513 77.5004 114.073 77.5004C116.334 77.5004 118.382 77.8844 120.217 78.6524C122.094 79.3778 123.652 80.4231 124.889 81.7884C126.126 83.1538 126.98 84.7964 127.449 86.7164L119.449 88.3804C119.022 87.1004 118.318 86.0978 117.337 85.3724C116.398 84.6471 115.289 84.2844 114.009 84.2844C112.686 84.2844 111.598 84.6044 110.745 85.2444C109.892 85.8844 109.465 86.6951 109.465 87.6764C109.465 88.5298 109.87 89.2551 110.681 89.8524C111.534 90.4071 112.964 90.8551 114.969 91.1964L116.761 91.5164C120.388 92.1564 123.161 93.3724 125.081 95.1644C127.001 96.9138 127.961 99.1538 127.961 101.884C127.961 103.548 127.62 105.063 126.937 106.428C126.297 107.794 125.358 108.988 124.121 110.012C122.884 111.036 121.433 111.826 119.769 112.38C118.105 112.935 116.27 113.212 114.265 113.212ZM132.263 112.252V78.4604H140.519L140.775 82.7484C141.756 81.1271 143.079 79.8471 144.743 78.9084C146.407 77.9698 148.284 77.5004 150.375 77.5004C152.636 77.5004 154.641 78.0551 156.391 79.1644C158.183 80.2738 159.569 81.8098 160.551 83.7724C161.575 81.8951 163.047 80.3804 164.967 79.2284C166.929 78.0764 169.169 77.5004 171.687 77.5004C174.204 77.5004 176.38 78.0978 178.215 79.2924C180.049 80.4444 181.457 82.1084 182.439 84.2844C183.463 86.4604 183.975 89.0204 183.975 91.9644V112.252H175.015V93.1164C175.015 90.7698 174.503 88.9351 173.479 87.6124C172.455 86.2471 171.025 85.5644 169.191 85.5644C167.911 85.5644 166.759 85.8844 165.735 86.5244C164.753 87.1218 163.985 87.9751 163.431 89.0844C162.876 90.1938 162.599 91.4524 162.599 92.8604V112.252H153.639V93.1164C153.639 90.7698 153.127 88.9351 152.103 87.6124C151.079 86.2471 149.649 85.5644 147.815 85.5644C146.535 85.5644 145.383 85.8844 144.359 86.5244C143.377 87.1218 142.609 87.9751 142.055 89.0844C141.5 90.1938 141.223 91.4524 141.223 92.8604V112.252H132.263ZM200.29 113.212C198.54 113.212 196.94 112.956 195.49 112.444C194.039 111.932 192.759 111.207 191.65 110.268C190.583 109.287 189.751 108.156 189.154 106.876C188.556 105.596 188.258 104.188 188.258 102.652C188.258 100.519 188.834 98.6418 189.986 97.0204C191.138 95.3991 192.759 94.1404 194.85 93.2444C196.94 92.3058 199.372 91.8364 202.146 91.8364C203.554 91.8364 204.876 91.9644 206.114 92.2204C207.394 92.4764 208.631 92.8391 209.826 93.3084V91.3244C209.826 89.4044 209.271 87.8471 208.162 86.6524C207.095 85.4578 205.623 84.8604 203.746 84.8604C202.338 84.8604 201.058 85.2231 199.906 85.9484C198.754 86.6311 197.943 87.6124 197.474 88.8924L189.474 87.2924C189.943 85.3298 190.86 83.6231 192.226 82.1724C193.634 80.6791 195.34 79.5271 197.346 78.7164C199.351 77.9058 201.527 77.5004 203.874 77.5004C206.05 77.5004 208.034 77.8418 209.826 78.5244C211.618 79.2071 213.154 80.1884 214.434 81.4684C215.756 82.7484 216.759 84.2631 217.442 86.0124C218.167 87.7191 218.53 89.6391 218.53 91.7724V112.252H210.53L210.274 108.284C209.378 109.735 208.076 110.93 206.37 111.868C204.663 112.764 202.636 113.212 200.29 113.212ZM197.09 102.204C197.09 103.399 197.58 104.38 198.562 105.148C199.543 105.916 200.844 106.3 202.466 106.3C203.874 106.3 205.132 106.002 206.242 105.404C207.351 104.807 208.226 103.996 208.866 102.972C209.506 101.906 209.826 100.732 209.826 99.4524V99.1324C208.887 98.7484 207.884 98.4498 206.818 98.2364C205.751 97.9804 204.684 97.8524 203.618 97.8524C201.612 97.8524 200.012 98.2578 198.818 99.0684C197.666 99.8364 197.09 100.882 197.09 102.204ZM224.39 112.252V64.5084H233.35V112.252H224.39ZM239.235 112.252V64.5084H248.195V112.252H239.235ZM266.175 112.252V64.5084H275.135V82.7484C276.33 81.1271 277.823 79.8471 279.615 78.9084C281.45 77.9698 283.455 77.5004 285.631 77.5004C287.85 77.5004 289.898 77.9484 291.775 78.8444C293.652 79.7404 295.295 80.9991 296.703 82.6204C298.111 84.1991 299.199 86.0551 299.967 88.1884C300.778 90.3218 301.183 92.6471 301.183 95.1644C301.183 97.7244 300.778 100.092 299.967 102.268C299.156 104.444 298.026 106.364 296.575 108.028C295.124 109.65 293.418 110.93 291.455 111.868C289.492 112.764 287.38 113.212 285.119 113.212C282.9 113.212 280.895 112.743 279.103 111.804C277.311 110.866 275.839 109.543 274.687 107.836L274.431 112.252H266.175ZM283.519 105.148C285.14 105.148 286.591 104.722 287.871 103.868C289.151 103.015 290.154 101.863 290.879 100.412C291.647 98.9191 292.031 97.2338 292.031 95.3564C292.031 93.4791 291.647 91.8151 290.879 90.3644C290.154 88.8711 289.151 87.6978 287.871 86.8444C286.591 85.9911 285.14 85.5644 283.519 85.5644C281.898 85.5644 280.447 85.9911 279.167 86.8444C277.887 87.6978 276.863 88.8711 276.095 90.3644C275.37 91.8151 275.007 93.4791 275.007 95.3564C275.007 97.2338 275.37 98.9191 276.095 100.412C276.863 101.863 277.887 103.015 279.167 103.868C280.447 104.722 281.898 105.148 283.519 105.148ZM321.002 113.212C317.93 113.212 315.242 112.572 312.938 111.292C310.677 109.97 308.906 108.114 307.626 105.724C306.389 103.292 305.77 100.434 305.77 97.1484V78.4604H314.73V97.3404C314.73 99.7724 315.306 101.692 316.458 103.1C317.61 104.466 319.167 105.148 321.13 105.148C323.093 105.148 324.65 104.466 325.802 103.1C326.954 101.692 327.53 99.7724 327.53 97.3404V78.4604H336.49V97.1484C336.49 99.5804 336.127 101.778 335.402 103.74C334.677 105.703 333.631 107.388 332.266 108.796C330.901 110.204 329.258 111.292 327.338 112.06C325.461 112.828 323.349 113.212 321.002 113.212ZM354.525 113.212C352.136 113.212 349.96 112.828 347.997 112.06C346.077 111.292 344.434 110.204 343.069 108.796C341.746 107.388 340.829 105.724 340.317 103.804L348.381 102.076C348.808 103.399 349.576 104.444 350.685 105.212C351.794 105.98 353.117 106.364 354.653 106.364C356.104 106.364 357.298 106.044 358.237 105.404C359.176 104.764 359.645 103.89 359.645 102.78C359.645 101.842 359.218 101.074 358.365 100.476C357.554 99.8364 356.189 99.3458 354.269 99.0044L352.477 98.6844C348.808 98.0444 346.013 96.8498 344.093 95.1004C342.216 93.3511 341.277 91.1324 341.277 88.4444C341.277 86.3111 341.832 84.4338 342.941 82.8124C344.05 81.1484 345.586 79.8471 347.549 78.9084C349.512 77.9698 351.773 77.5004 354.333 77.5004C356.594 77.5004 358.642 77.8844 360.477 78.6524C362.354 79.3778 363.912 80.4231 365.149 81.7884C366.386 83.1538 367.24 84.7964 367.709 86.7164L359.709 88.3804C359.282 87.1004 358.578 86.0978 357.597 85.3724C356.658 84.6471 355.549 84.2844 354.269 84.2844C352.946 84.2844 351.858 84.6044 351.005 85.2444C350.152 85.8844 349.725 86.6951 349.725 87.6764C349.725 88.5298 350.13 89.2551 350.941 89.8524C351.794 90.4071 353.224 90.8551 355.229 91.1964L357.021 91.5164C360.648 92.1564 363.421 93.3724 365.341 95.1644C367.261 96.9138 368.221 99.1538 368.221 101.884C368.221 103.548 367.88 105.063 367.197 106.428C366.557 107.794 365.618 108.988 364.381 110.012C363.144 111.036 361.693 111.826 360.029 112.38C358.365 112.935 356.53 113.212 354.525 113.212ZM382.123 69.3084C382.123 70.2898 381.888 71.1644 381.419 71.9324C380.992 72.7004 380.373 73.3191 379.563 73.7884C378.795 74.2151 377.941 74.4284 377.003 74.4284C376.064 74.4284 375.189 74.2151 374.379 73.7884C373.611 73.3191 372.992 72.7004 372.523 71.9324C372.096 71.1644 371.883 70.2898 371.883 69.3084C371.883 68.3271 372.096 67.4524 372.523 66.6844C372.992 65.9164 373.611 65.3191 374.379 64.8924C375.189 64.4231 376.064 64.1884 377.003 64.1884C377.941 64.1884 378.795 64.4231 379.563 64.8924C380.373 65.3191 380.992 65.9164 381.419 66.6844C381.888 67.4524 382.123 68.3271 382.123 69.3084ZM372.523 112.252V78.4604H381.483V112.252H372.523ZM387.368 112.252V78.4604H395.624L395.88 82.8124C396.861 81.1911 398.205 79.9111 399.912 78.9724C401.661 77.9911 403.645 77.5004 405.864 77.5004C408.338 77.5004 410.493 78.0978 412.328 79.2924C414.205 80.4444 415.656 82.1084 416.68 84.2844C417.704 86.4604 418.216 89.0204 418.216 91.9644V112.252H409.256V93.1164C409.256 90.7698 408.722 88.9351 407.656 87.6124C406.589 86.2471 405.117 85.5644 403.24 85.5644C401.874 85.5644 400.68 85.8844 399.656 86.5244C398.632 87.1218 397.821 87.9751 397.224 89.0844C396.626 90.1938 396.328 91.4524 396.328 92.8604V112.252H387.368ZM440.088 113.212C437.57 113.212 435.245 112.786 433.112 111.932C431.021 111.036 429.208 109.799 427.672 108.22C426.136 106.599 424.941 104.7 424.088 102.524C423.234 100.306 422.808 97.8951 422.808 95.2924C422.808 92.7751 423.234 90.4284 424.088 88.2524C424.941 86.0764 426.114 84.1991 427.608 82.6204C429.144 80.9991 430.936 79.7404 432.984 78.8444C435.032 77.9484 437.25 77.5004 439.64 77.5004C442.114 77.5004 444.354 77.9271 446.36 78.7804C448.408 79.6338 450.157 80.8498 451.608 82.4284C453.058 84.0071 454.168 85.8844 454.936 88.0604C455.746 90.2364 456.152 92.6684 456.152 95.3564V97.5964H431.896C432.28 100.114 433.197 102.098 434.648 103.548C436.098 104.956 437.933 105.66 440.152 105.66C441.688 105.66 443.074 105.298 444.312 104.572C445.592 103.847 446.637 102.802 447.448 101.436L455.448 103.996C454.68 105.916 453.528 107.559 451.992 108.924C450.456 110.29 448.664 111.356 446.616 112.124C444.568 112.85 442.392 113.212 440.088 113.212ZM439.64 84.4124C437.677 84.4124 436.013 85.0524 434.648 86.3324C433.325 87.6124 432.45 89.3618 432.024 91.5804H446.936C446.594 89.3618 445.762 87.6124 444.44 86.3324C443.16 85.0524 441.56 84.4124 439.64 84.4124ZM472.968 113.212C470.578 113.212 468.402 112.828 466.44 112.06C464.52 111.292 462.877 110.204 461.512 108.796C460.189 107.388 459.272 105.724 458.76 103.804L466.824 102.076C467.25 103.399 468.018 104.444 469.128 105.212C470.237 105.98 471.56 106.364 473.096 106.364C474.546 106.364 475.741 106.044 476.68 105.404C477.618 104.764 478.088 103.89 478.088 102.78C478.088 101.842 477.661 101.074 476.808 100.476C475.997 99.8364 474.632 99.3458 472.712 99.0044L470.92 98.6844C467.25 98.0444 464.456 96.8498 462.536 95.1004C460.658 93.3511 459.72 91.1324 459.72 88.4444C459.72 86.3111 460.274 84.4338 461.384 82.8124C462.493 81.1484 464.029 79.8471 465.992 78.9084C467.954 77.9698 470.216 77.5004 472.776 77.5004C475.037 77.5004 477.085 77.8844 478.92 78.6524C480.797 79.3778 482.354 80.4231 483.592 81.7884C484.829 83.1538 485.682 84.7964 486.152 86.7164L478.152 88.3804C477.725 87.1004 477.021 86.0978 476.04 85.3724C475.101 84.6471 473.992 84.2844 472.712 84.2844C471.389 84.2844 470.301 84.6044 469.448 85.2444C468.594 85.8844 468.168 86.6951 468.168 87.6764C468.168 88.5298 468.573 89.2551 469.384 89.8524C470.237 90.4071 471.666 90.8551 473.672 91.1964L475.464 91.5164C479.09 92.1564 481.864 93.3724 483.784 95.1644C485.704 96.9138 486.664 99.1538 486.664 101.884C486.664 103.548 486.322 105.063 485.64 106.428C485 107.794 484.061 108.988 482.824 110.012C481.586 111.036 480.136 111.826 478.472 112.38C476.808 112.935 474.973 113.212 472.968 113.212ZM503.125 113.212C500.736 113.212 498.56 112.828 496.597 112.06C494.677 111.292 493.034 110.204 491.669 108.796C490.346 107.388 489.429 105.724 488.917 103.804L496.981 102.076C497.408 103.399 498.176 104.444 499.285 105.212C500.394 105.98 501.717 106.364 503.253 106.364C504.704 106.364 505.898 106.044 506.837 105.404C507.776 104.764 508.245 103.89 508.245 102.78C508.245 101.842 507.818 101.074 506.965 100.476C506.154 99.8364 504.789 99.3458 502.869 99.0044L501.077 98.6844C497.408 98.0444 494.613 96.8498 492.693 95.1004C490.816 93.3511 489.877 91.1324 489.877 88.4444C489.877 86.3111 490.432 84.4338 491.541 82.8124C492.65 81.1484 494.186 79.8471 496.149 78.9084C498.112 77.9698 500.373 77.5004 502.933 77.5004C505.194 77.5004 507.242 77.8844 509.077 78.6524C510.954 79.3778 512.512 80.4231 513.749 81.7884C514.986 83.1538 515.84 84.7964 516.309 86.7164L508.309 88.3804C507.882 87.1004 507.178 86.0978 506.197 85.3724C505.258 84.6471 504.149 84.2844 502.869 84.2844C501.546 84.2844 500.458 84.6044 499.605 85.2444C498.752 85.8844 498.325 86.6951 498.325 87.6764C498.325 88.5298 498.73 89.2551 499.541 89.8524C500.394 90.4071 501.824 90.8551 503.829 91.1964L505.621 91.5164C509.248 92.1564 512.021 93.3724 513.941 95.1644C515.861 96.9138 516.821 99.1538 516.821 101.884C516.821 103.548 516.48 105.063 515.797 106.428C515.157 107.794 514.218 108.988 512.981 110.012C511.744 111.036 510.293 111.826 508.629 112.38C506.965 112.935 505.13 113.212 503.125 113.212ZM549.474 113.212C546.956 113.212 544.631 112.764 542.498 111.868C540.364 110.972 538.508 109.735 536.93 108.156C535.351 106.535 534.114 104.636 533.218 102.46C532.364 100.284 531.938 97.9164 531.938 95.3564C531.938 92.7964 532.386 90.4498 533.282 88.3164C534.178 86.1404 535.415 84.2418 536.994 82.6204C538.615 80.9991 540.492 79.7404 542.626 78.8444C544.802 77.9484 547.17 77.5004 549.73 77.5004C552.247 77.5004 554.572 77.9484 556.706 78.8444C558.839 79.7404 560.695 80.9991 562.274 82.6204C563.852 84.1991 565.068 86.0764 565.922 88.2524C566.818 90.3858 567.266 92.7324 567.266 95.2924C567.266 97.8524 566.818 100.22 565.922 102.396C565.026 104.572 563.767 106.471 562.146 108.092C560.567 109.714 558.69 110.972 556.514 111.868C554.38 112.764 552.034 113.212 549.474 113.212ZM549.602 105.148C551.223 105.148 552.674 104.722 553.954 103.868C555.234 103.015 556.236 101.863 556.962 100.412C557.73 98.9191 558.114 97.2338 558.114 95.3564C558.114 93.4791 557.73 91.8151 556.962 90.3644C556.236 88.8711 555.234 87.6978 553.954 86.8444C552.674 85.9911 551.223 85.5644 549.602 85.5644C547.98 85.5644 546.53 85.9911 545.25 86.8444C543.97 87.6978 542.946 88.8711 542.178 90.3644C541.452 91.8151 541.09 93.4791 541.09 95.3564C541.09 97.2338 541.452 98.9191 542.178 100.412C542.946 101.863 543.97 103.015 545.25 103.868C546.53 104.722 547.98 105.148 549.602 105.148ZM579.195 112.252L567.995 78.4604H577.211L583.547 101.308L590.395 78.4604H598.139L604.987 101.372L611.451 78.4604H620.347L609.147 112.252H600.891L594.107 89.4044L587.323 112.252H579.195ZM623.345 112.252V78.4604H631.601L631.857 82.8124C632.838 81.1911 634.182 79.9111 635.889 78.9724C637.638 77.9911 639.622 77.5004 641.841 77.5004C644.316 77.5004 646.47 78.0978 648.305 79.2924C650.182 80.4444 651.633 82.1084 652.657 84.2844C653.681 86.4604 654.193 89.0204 654.193 91.9644V112.252H645.233V93.1164C645.233 90.7698 644.7 88.9351 643.633 87.6124C642.566 86.2471 641.094 85.5644 639.217 85.5644C637.852 85.5644 636.657 85.8844 635.633 86.5244C634.609 87.1218 633.798 87.9751 633.201 89.0844C632.604 90.1938 632.305 91.4524 632.305 92.8604V112.252H623.345ZM676.065 113.212C673.548 113.212 671.223 112.786 669.089 111.932C666.999 111.036 665.185 109.799 663.649 108.22C662.113 106.599 660.919 104.7 660.065 102.524C659.212 100.306 658.785 97.8951 658.785 95.2924C658.785 92.7751 659.212 90.4284 660.065 88.2524C660.919 86.0764 662.092 84.1991 663.585 82.6204C665.121 80.9991 666.913 79.7404 668.961 78.8444C671.009 77.9484 673.228 77.5004 675.617 77.5004C678.092 77.5004 680.332 77.9271 682.337 78.7804C684.385 79.6338 686.135 80.8498 687.585 82.4284C689.036 84.0071 690.145 85.8844 690.913 88.0604C691.724 90.2364 692.129 92.6684 692.129 95.3564V97.5964H667.873C668.257 100.114 669.175 102.098 670.625 103.548C672.076 104.956 673.911 105.66 676.129 105.66C677.665 105.66 679.052 105.298 680.289 104.572C681.569 103.847 682.615 102.802 683.425 101.436L691.425 103.996C690.657 105.916 689.505 107.559 687.969 108.924C686.433 110.29 684.641 111.356 682.593 112.124C680.545 112.85 678.369 113.212 676.065 113.212ZM675.617 84.4124C673.655 84.4124 671.991 85.0524 670.625 86.3324C669.303 87.6124 668.428 89.3618 668.001 91.5804H682.913C682.572 89.3618 681.74 87.6124 680.417 86.3324C679.137 85.0524 677.537 84.4124 675.617 84.4124ZM696.41 112.252V78.4604H704.666L704.986 83.5804C705.84 81.7884 706.992 80.4231 708.442 79.4844C709.893 78.5031 711.6 78.0124 713.562 78.0124C714.16 78.0124 714.757 78.0764 715.354 78.2044C715.952 78.2898 716.485 78.4178 716.954 78.5884L715.994 87.4204C715.525 87.2498 715.034 87.1431 714.522 87.1004C714.053 87.0151 713.562 86.9724 713.05 86.9724C710.576 86.9724 708.677 87.7404 707.354 89.2764C706.032 90.7698 705.37 92.9031 705.37 95.6764V112.252H696.41ZM732.728 113.212C730.338 113.212 728.162 112.828 726.2 112.06C724.28 111.292 722.637 110.204 721.272 108.796C719.949 107.388 719.032 105.724 718.52 103.804L726.584 102.076C727.01 103.399 727.778 104.444 728.888 105.212C729.997 105.98 731.32 106.364 732.856 106.364C734.306 106.364 735.501 106.044 736.44 105.404C737.378 104.764 737.848 103.89 737.848 102.78C737.848 101.842 737.421 101.074 736.568 100.476C735.757 99.8364 734.392 99.3458 732.472 99.0044L730.68 98.6844C727.01 98.0444 724.216 96.8498 722.296 95.1004C720.418 93.3511 719.48 91.1324 719.48 88.4444C719.48 86.3111 720.034 84.4338 721.144 82.8124C722.253 81.1484 723.789 79.8471 725.752 78.9084C727.714 77.9698 729.976 77.5004 732.536 77.5004C734.797 77.5004 736.845 77.8844 738.68 78.6524C740.557 79.3778 742.114 80.4231 743.352 81.7884C744.589 83.1538 745.442 84.7964 745.912 86.7164L737.912 88.3804C737.485 87.1004 736.781 86.0978 735.8 85.3724C734.861 84.6471 733.752 84.2844 732.472 84.2844C731.149 84.2844 730.061 84.6044 729.208 85.2444C728.354 85.8844 727.928 86.6951 727.928 87.6764C727.928 88.5298 728.333 89.2551 729.144 89.8524C729.997 90.4071 731.426 90.8551 733.432 91.1964L735.224 91.5164C738.85 92.1564 741.624 93.3724 743.544 95.1644C745.464 96.9138 746.424 99.1538 746.424 101.884C746.424 103.548 746.082 105.063 745.4 106.428C744.76 107.794 743.821 108.988 742.584 110.012C741.346 111.036 739.896 111.826 738.232 112.38C736.568 112.935 734.733 113.212 732.728 113.212Z" fill="#171637"/>
</svg>
